<svg width="66" height="66" viewBox="0 0 66 66" fill="none" xmlns="http://www.w3.org/2000/svg">
<g clip-path="url(#clip0_650_3370)">
<path d="M33 66C51.2254 66 66 51.2254 66 33C66 14.7746 51.2254 0 33 0C14.7746 0 0 14.7746 0 33C0 51.2254 14.7746 66 33 66Z" fill="#E9B020"/>
<path d="M25.4978 22.3916V25.3355C26.6498 24.9174 27.7847 24.5078 28.9452 24.0897C28.9452 24.3883 28.9452 24.6614 28.9452 24.9345C28.9452 24.9857 28.8513 25.0539 28.783 25.0795C27.87 25.4123 26.957 25.7451 26.0439 26.0779C25.9757 26.1035 25.9159 26.1291 25.8477 26.1461C25.586 26.2372 25.4751 26.4363 25.5149 26.7435C26.6583 26.3339 27.7932 25.9243 28.9537 25.4976C28.9537 25.7963 28.9537 26.0779 28.9537 26.3509C28.9537 26.3936 28.8598 26.4533 28.7916 26.4789C27.7761 26.8459 26.7522 27.2213 25.7282 27.5797C25.5661 27.6394 25.4978 27.7077 25.4978 27.8954C25.5063 29.3716 25.4978 30.8564 25.4978 32.3326V32.5545C26.6498 32.4094 27.5799 31.8889 28.3393 31.0441C29.0988 30.1994 29.4316 29.1839 29.4486 28.0576H30.5921C30.6944 31.1807 27.742 34.1587 24.3373 33.715V28.1002C23.5949 28.3647 22.8782 28.6207 22.1699 28.8767C22.1699 28.561 22.1699 28.2453 22.1699 27.9296C22.2297 27.9125 22.2894 27.904 22.3491 27.8869C22.8952 27.6906 23.4328 27.4944 23.9789 27.2981C24.2349 27.2071 24.3515 27.0279 24.3288 26.7605C24.3288 26.7605 24.3203 26.7349 24.3117 26.7179C23.5949 26.9739 22.8867 27.2213 22.1699 27.4773C22.1699 27.1616 22.1699 26.8459 22.1699 26.5301C22.8526 26.2912 23.5352 26.0523 24.2179 25.8048C24.2691 25.7878 24.3288 25.7024 24.3288 25.6512C24.3288 24.5675 24.3288 23.4753 24.3288 22.3916H25.5063H25.4978Z" fill="white"/>
<path d="M40.0115 30.4043V33.3482C41.1635 32.9301 42.2983 32.5205 43.4588 32.1024C43.4588 32.401 43.4588 32.6741 43.4588 32.9472C43.4588 32.9983 43.365 33.0666 43.2967 33.0922C42.3837 33.425 41.4706 33.7578 40.5576 34.0906C40.4893 34.1162 40.4296 34.1418 40.3613 34.1588C40.0997 34.2499 39.9887 34.449 40.0286 34.7562C41.172 34.3466 42.3069 33.937 43.4674 33.5103C43.4674 33.809 43.4674 34.0906 43.4674 34.3636C43.4674 34.4063 43.3735 34.466 43.3052 34.4916C42.2898 34.8586 41.2658 35.234 40.2419 35.5924C40.0798 35.6521 40.0115 35.7204 40.0115 35.9081C40.02 37.3843 40.0115 38.8691 40.0115 40.3453V40.5672C41.1635 40.4221 42.0936 39.9016 42.853 39.0568C43.6124 38.212 43.9452 37.1966 43.9623 36.0703H45.1057C45.2081 39.1934 42.2557 42.1714 38.851 41.7277V36.1129C38.1086 36.3774 37.3918 36.6334 36.6836 36.8894C36.6836 36.5737 36.6836 36.258 36.6836 35.9423C36.7433 35.9252 36.8031 35.9167 36.8628 35.8996C37.4089 35.7033 37.9465 35.5071 38.4926 35.3108C38.7486 35.2198 38.8652 35.0406 38.8425 34.7732C38.8425 34.7732 38.8339 34.7476 38.8254 34.7306C38.1086 34.9866 37.4004 35.234 36.6836 35.49C36.6836 35.1743 36.6836 34.8586 36.6836 34.5428C37.3662 34.3039 38.0489 34.065 38.7315 33.8175C38.7827 33.8005 38.8425 33.7151 38.8425 33.6639C38.8425 32.5802 38.8425 31.488 38.8425 30.4043H40.02H40.0115Z" fill="white"/>
<path d="M52.9224 48.0675L50.6441 43.5108C52.18 41.3178 52.9907 38.7579 52.9907 36.0871C52.9907 28.9363 47.1711 23.1168 40.0204 23.1168H38.4162C36.5133 18.3298 31.8372 14.9336 26.3761 14.9336C19.2254 14.9336 13.4058 20.7531 13.4058 27.9038C13.4058 30.5747 14.2165 33.1346 15.7524 35.3276L13.4741 39.8843C13.3461 40.1488 13.3973 40.4645 13.6021 40.6693C13.7301 40.7973 13.9093 40.8656 14.0885 40.8656C14.1909 40.8656 14.2933 40.84 14.3956 40.7973L18.9523 38.519C21.1453 40.0549 23.7052 40.8656 26.3761 40.8656C26.9051 40.8656 27.4256 40.8229 27.9462 40.7632C29.8661 45.7379 34.6531 49.0573 40.029 49.0573C42.6998 49.0573 45.2597 48.2467 47.4527 46.7107L52.0094 48.989C52.1033 49.0402 52.2142 49.0573 52.3166 49.0573C52.4958 49.0573 52.6664 48.989 52.803 48.861C53.0078 48.6563 53.059 48.332 52.931 48.076L52.9224 48.0675ZM26.3761 39.5003C23.8588 39.5003 21.461 38.6982 19.4302 37.1708C19.3107 37.0769 19.1656 37.0342 19.0206 37.0342C18.9182 37.0342 18.8158 37.0598 18.7134 37.1025L15.6159 38.647L17.1604 35.5495C17.2798 35.3191 17.2542 35.0375 17.0921 34.8327C15.5732 32.8018 14.7626 30.404 14.7626 27.8868C14.7711 21.5041 19.9763 16.2989 26.3761 16.2989C32.7759 16.2989 37.981 21.5041 37.981 27.9038C37.981 34.3036 32.7759 39.5088 26.3761 39.5088V39.5003ZM47.6917 45.3028C47.4613 45.1918 47.1797 45.2089 46.9749 45.371C44.944 46.8899 42.5462 47.7006 40.029 47.7006C35.3102 47.7006 31.0949 44.842 29.32 40.5242C35.0542 39.1846 39.3549 34.0477 39.3549 27.9038C39.3549 26.7178 39.1842 25.5829 38.8855 24.4906H40.0375C46.4373 24.4906 51.6425 29.6958 51.6425 36.0956C51.6425 38.6128 50.8404 41.0106 49.3129 43.0415C49.1593 43.2463 49.1337 43.5279 49.2447 43.7583L50.7892 46.8558L47.6917 45.3113V45.3028Z" fill="white"/>
</g>
<defs>
<clipPath id="clip0_650_3370">
<rect width="66" height="66" fill="white"/>
</clipPath>
</defs>
</svg>
