<svg width="67" height="67" viewBox="0 0 67 67" fill="none" xmlns="http://www.w3.org/2000/svg">
<g clip-path="url(#clip0_650_3352)">
<path d="M33.5 67C52.0015 67 67 52.0015 67 33.5C67 14.9985 52.0015 0 33.5 0C14.9985 0 0 14.9985 0 33.5C0 52.0015 14.9985 67 33.5 67Z" fill="#E9B020"/>
<path d="M52.1961 46.6799H15.4031C13.8587 46.6799 12.5996 45.4316 12.5996 43.9005V20.7794C12.5996 19.2483 13.8587 18 15.4031 18H52.1961C53.7405 18 54.9996 19.2483 54.9996 20.7794V43.9005C54.9996 45.4316 53.7405 46.6799 52.1961 46.6799ZM15.4031 19.2298C14.541 19.2298 13.8401 19.9247 13.8401 20.7794V43.9005C13.8401 44.7552 14.541 45.4501 15.4031 45.4501H52.1961C53.0582 45.4501 53.7591 44.7552 53.7591 43.9005V20.7794C53.7591 19.9247 53.0582 19.2298 52.1961 19.2298H15.4031Z" fill="white"/>
<path d="M51.1847 41.4717C50.8436 41.4717 50.5645 41.195 50.5645 40.8568V29.9235C50.5645 29.5853 50.8436 29.3086 51.1847 29.3086C51.5258 29.3086 51.8049 29.5853 51.8049 29.9235V40.8568C51.8049 41.195 51.5258 41.4717 51.1847 41.4717Z" fill="white"/>
<path d="M16.6925 41.4711C16.3514 41.4711 16.0723 41.1943 16.0723 40.8561V22.4762C16.0723 21.726 16.6863 21.1172 17.443 21.1172H50.4339C51.1906 21.1172 51.8046 21.726 51.8046 22.4762V26.6884C51.8046 27.0266 51.5255 27.3033 51.1844 27.3033C50.8433 27.3033 50.5641 27.0266 50.5641 26.6884V22.4762C50.5641 22.4024 50.5083 22.347 50.4339 22.347H17.443C17.3686 22.347 17.3128 22.4024 17.3128 22.4762V40.8561C17.3128 41.1943 17.0336 41.4711 16.6925 41.4711Z" fill="white"/>
<path d="M54.3796 41.4711H13.4992C13.158 41.4711 12.8789 41.1943 12.8789 40.8561C12.8789 40.5179 13.158 40.2412 13.4992 40.2412H54.3734C54.7145 40.2412 54.9936 40.5179 54.9936 40.8561C54.9936 41.1943 54.7145 41.4711 54.3734 41.4711H54.3796Z" fill="white"/>
<path d="M42.0794 53.3334H25.798C25.4568 53.3334 25.1777 53.0566 25.1777 52.7184C25.1777 52.3802 25.4568 52.1035 25.798 52.1035H42.0794C42.4206 52.1035 42.6997 52.3802 42.6997 52.7184C42.6997 53.0566 42.4206 53.3334 42.0794 53.3334Z" fill="white"/>
<path d="M37.8566 53.3336C37.5154 53.3336 37.2363 53.0569 37.2363 52.7187V46.1452C37.2363 45.807 37.5154 45.5303 37.8566 45.5303C38.1977 45.5303 38.4768 45.807 38.4768 46.1452V52.7187C38.4768 53.0569 38.1977 53.3336 37.8566 53.3336Z" fill="white"/>
<path d="M29.8292 53.3336C29.4881 53.3336 29.209 53.0569 29.209 52.7187V46.1452C29.209 45.807 29.4881 45.5303 29.8292 45.5303C30.1704 45.5303 30.4495 45.807 30.4495 46.1452V52.7187C30.4495 53.0569 30.1704 53.3336 29.8292 53.3336Z" fill="white"/>
<path d="M35.0899 44.2142H32.4601C32.119 44.2142 31.8398 43.9375 31.8398 43.5993C31.8398 43.2611 32.119 42.9844 32.4601 42.9844H35.0899C35.4311 42.9844 35.7102 43.2611 35.7102 43.5993C35.7102 43.9375 35.4311 44.2142 35.0899 44.2142Z" fill="white"/>
<path d="M22.9944 36.1772C22.8517 36.1772 22.7028 36.128 22.585 36.0296C22.3245 35.8082 22.2997 35.4208 22.523 35.1626L29.8295 26.8058C30.0527 26.5475 30.4435 26.5229 30.704 26.7443C30.9645 26.9657 30.9893 27.3531 30.766 27.6114L23.4595 35.9681C23.3355 36.1096 23.1618 36.1833 22.9881 36.1833L22.9944 36.1772Z" fill="white"/>
<path d="M23.2736 31.3987C23.131 31.3987 22.9821 31.3495 22.8643 31.2511C22.6038 31.0297 22.579 30.6423 22.8023 30.384L24.3095 28.6623C24.5327 28.404 24.9235 28.3794 25.184 28.6008C25.4445 28.8221 25.4693 29.2095 25.246 29.4678L23.7388 31.1896C23.6148 31.331 23.4411 31.4048 23.2674 31.4048L23.2736 31.3987Z" fill="white"/>
</g>
<defs>
<clipPath id="clip0_650_3352">
<rect width="67" height="67" fill="white"/>
</clipPath>
</defs>
</svg>
