<svg width="66" height="66" viewBox="0 0 66 66" fill="none" xmlns="http://www.w3.org/2000/svg">
<g clip-path="url(#clip0_650_3395)">
<path d="M33 66C51.2254 66 66 51.2254 66 33C66 14.7746 51.2254 0 33 0C14.7746 0 0 14.7746 0 33C0 51.2254 14.7746 66 33 66Z" fill="#E9B020"/>
<path d="M50.6727 44.216H50.3268V39.6837C50.3268 38.4904 49.9207 37.3874 49.2439 36.505V31.6467C49.2439 30.8195 48.7726 30.1075 48.0857 29.7516V24.2215C48.0857 23.68 47.7698 23.2188 47.3086 22.9982L47.2935 17.1021H48.4316C48.7525 17.1021 49.0132 16.8414 49.0132 16.5205V13.773C49.0132 13.4521 48.7525 13.1914 48.4316 13.1914H47.1933C45.1427 13.1914 43.4731 14.876 43.443 16.9617L42.9768 15.6431C42.4604 14.1791 41.0665 13.1914 39.5123 13.1914H26.4868C24.9325 13.1914 23.5387 14.1741 23.0223 15.6431L22.5561 16.9617C22.526 14.876 20.8564 13.1914 18.8058 13.1914H17.5675C17.2466 13.1914 16.9859 13.4521 16.9859 13.773V16.5205C16.9859 16.8414 17.2466 17.1021 17.5675 17.1021H18.7056L18.6905 22.9982C18.2343 23.2137 17.9134 23.68 17.9134 24.2215V29.7967C17.2666 30.1627 16.8304 30.8546 16.8304 31.6467V31.8423C16.8304 32.1631 17.0912 32.4239 17.412 32.4239C17.7329 32.4239 17.9936 32.1631 17.9936 31.8423V31.6467C17.9936 31.1153 18.4248 30.6791 18.9613 30.6791H21.3979V34.4444H20.9467C19.8788 34.4293 18.861 34.7402 17.9936 35.3168V34.5446C17.9936 34.2238 17.7329 33.9631 17.412 33.9631C17.0912 33.9631 16.8304 34.2238 16.8304 34.5446V36.3746C16.0784 37.3022 15.6723 38.4453 15.6723 39.6536V44.211H15.3263C14.5793 44.211 13.9727 44.8177 13.9727 45.5647V47.0437C13.9727 48.0866 14.7197 48.969 15.7425 49.1395L17.2215 49.3901V50.6686C17.2215 51.8418 18.1741 52.7944 19.3473 52.7944H22.1299C23.3031 52.7944 24.2557 51.8418 24.2557 50.6686V50.4731H41.7334V50.6686C41.7334 51.8418 42.686 52.7944 43.8592 52.7944H46.6418C47.815 52.7944 48.7676 51.8418 48.7676 50.6686V49.3901L50.2466 49.1395C51.2744 48.964 52.0164 48.0816 52.0164 47.0437V45.5647C52.0164 44.8177 51.4098 44.211 50.6627 44.211L50.6727 44.216ZM42.5155 44.216V42.6668H46.6518C47.3988 42.6668 48.0055 42.0601 48.0055 41.3131V39.3778C48.0055 38.6308 47.3988 38.0241 46.6518 38.0241H42.5155V35.6176H45.1076C47.3487 35.6176 49.1686 37.4375 49.1686 39.6786V44.211H42.5155V44.216ZM24.6468 44.216V34.7402C24.6468 32.9252 26.1208 31.4512 27.9357 31.4512H38.0684C39.8833 31.4512 41.3573 32.9252 41.3573 34.7402V44.216H24.6518H24.6468ZM23.4886 41.5086H19.3523C19.247 41.5086 19.1568 41.4234 19.1568 41.3131V39.3778C19.1568 39.2725 19.242 39.1823 19.3523 39.1823H23.4886V41.5036V41.5086ZM42.5155 39.1873H46.6518C46.7571 39.1873 46.8473 39.2725 46.8473 39.3828V41.3181C46.8473 41.4234 46.7621 41.5137 46.6518 41.5137H42.5155V39.1923V39.1873ZM46.9225 24.2215V29.5209H44.6012V24.031H46.727C46.8323 24.031 46.9225 24.1162 46.9225 24.2265V24.2215ZM44.6012 30.6791H47.113C47.6445 30.6791 48.0807 31.1103 48.0807 31.6467V35.397C47.2334 34.8054 46.2106 34.4594 45.1026 34.4594H44.6012V30.6791ZM44.6012 17.0269C44.6012 15.5579 45.7644 14.3596 47.1933 14.3596H47.8501V15.9439H47.1933C46.6067 15.9439 46.1304 16.4202 46.1304 17.0068L46.1454 22.8678H44.6012V17.0269ZM24.1153 16.0342C24.4713 15.0314 25.4239 14.3596 26.4868 14.3596H26.8127V15.3272C26.8127 16.5004 27.7653 17.453 28.9385 17.453H29.6755C29.9964 17.453 30.2571 17.1923 30.2571 16.8714C30.2571 16.5506 29.9964 16.2899 29.6755 16.2899H28.9385C28.407 16.2899 27.9708 15.8587 27.9708 15.3222V14.3546H38.0232V15.3222C38.0232 15.8537 37.5921 16.2899 37.0556 16.2899H32.3779C32.057 16.2899 31.7963 16.5506 31.7963 16.8714C31.7963 17.1923 32.057 17.453 32.3779 17.453H37.0556C38.2288 17.453 39.1814 16.5004 39.1814 15.3272V14.3596H39.5073C40.5702 14.3596 41.5228 15.0314 41.8788 16.0342L43.1974 19.7693H22.7967L24.1153 16.0342ZM18.149 15.9439V14.3596H18.8058C20.2347 14.3596 21.3979 15.5579 21.3979 17.0269V22.8678H19.8537L19.8687 17.0068C19.8687 16.4202 19.3924 15.9439 18.8058 15.9439H18.149ZM19.0766 29.5159V24.2165C19.0766 24.1112 19.1618 24.0209 19.2721 24.0209H21.3979V29.5109H19.0766V29.5159ZM22.5561 23.4444V20.9325H43.438V34.4594H42.5005C42.3551 32.1381 40.4198 30.293 38.0634 30.293H27.9307C25.5693 30.293 23.634 32.1381 23.4936 34.4644L22.5561 34.4544V23.4494V23.4444ZM16.8304 39.6536C16.8304 38.5606 17.2566 37.5378 18.0337 36.7707C18.8109 36.0036 19.8387 35.5825 20.9316 35.5975L23.4836 35.6226V38.0241H19.3473C18.6003 38.0241 17.9936 38.6308 17.9936 39.3778V41.3131C17.9936 42.0601 18.6003 42.6668 19.3473 42.6668H23.4836V44.216H16.8304V39.6586V39.6536ZM22.1299 51.6363H19.3473C18.8159 51.6363 18.3797 51.2051 18.3797 50.6686V49.5857L23.0975 50.3828V50.6686C23.0975 51.2001 22.6664 51.6363 22.1299 51.6363ZM25.0278 49.3149V47.7657H26.577V49.3149H25.0278ZM39.412 49.3149V47.7657H40.9613V49.3149H39.412ZM47.6094 50.6686C47.6094 51.2001 47.1782 51.6363 46.6418 51.6363H43.8592C43.3277 51.6363 42.8915 51.2051 42.8915 50.6686V50.3828L47.6094 49.5857V50.6686ZM50.8583 47.0437C50.8583 47.515 50.5173 47.9161 50.0511 47.9963L42.2598 49.3149H42.1144V47.5752C42.1144 47.0437 41.6832 46.6075 41.1468 46.6075H39.2115C38.68 46.6075 38.2438 47.0387 38.2438 47.5752V49.3149H27.7252V47.5752C27.7252 47.0437 27.294 46.6075 26.7575 46.6075H24.8222C24.2908 46.6075 23.8546 47.0387 23.8546 47.5752V49.3149H23.7092L15.918 47.9963C15.4517 47.9161 15.1108 47.515 15.1108 47.0437V45.5647C15.1108 45.4594 15.196 45.3692 15.3063 45.3692H50.6527C50.758 45.3692 50.8482 45.4544 50.8482 45.5647V47.0437H50.8583Z" fill="white"/>
<path d="M37.6771 32.6143H31.6055C31.2846 32.6143 31.0239 32.875 31.0239 33.1958C31.0239 33.5167 31.2846 33.7774 31.6055 33.7774H37.6771C38.4241 33.7774 39.0308 34.3841 39.0308 35.1311V40.5459C39.0308 41.2929 38.4241 41.8996 37.6771 41.8996H28.3165C27.5695 41.8996 26.9628 41.2929 26.9628 40.5459V35.1311C26.9628 34.3841 27.5695 33.7774 28.3165 33.7774H28.8981C29.219 33.7774 29.4797 33.5167 29.4797 33.1958C29.4797 32.875 29.219 32.6143 28.8981 32.6143H28.3165C26.9328 32.6143 25.8047 33.7423 25.8047 35.1261V40.5409C25.8047 41.9246 26.9328 43.0527 28.3165 43.0527H37.6771C39.0608 43.0527 40.1889 41.9246 40.1889 40.5409V35.1261C40.1889 33.7423 39.0608 32.6143 37.6771 32.6143Z" fill="white"/>
<path d="M37.3722 34.9355H28.7085C28.3877 34.9355 28.127 35.1963 28.127 35.5171C28.127 35.838 28.3877 36.0987 28.7085 36.0987H37.3722C37.693 36.0987 37.9538 35.838 37.9538 35.5171C37.9538 35.1963 37.693 34.9355 37.3722 34.9355Z" fill="white"/>
<path d="M37.3722 37.252H28.7085C28.3877 37.252 28.127 37.5127 28.127 37.8335C28.127 38.1544 28.3877 38.4151 28.7085 38.4151H37.3722C37.693 38.4151 37.9538 38.1544 37.9538 37.8335C37.9538 37.5127 37.693 37.252 37.3722 37.252Z" fill="white"/>
<path d="M37.3722 39.5732H28.7085C28.3877 39.5732 28.127 39.834 28.127 40.1548C28.127 40.4757 28.3877 40.7364 28.7085 40.7364H37.3722C37.693 40.7364 37.9538 40.4757 37.9538 40.1548C37.9538 39.834 37.693 39.5732 37.3722 39.5732Z" fill="white"/>
<path d="M24.8381 29.1349H41.1576C41.9046 29.1349 42.5113 28.5282 42.5113 27.7812V27.5857C42.5113 27.2648 42.2506 27.0041 41.9297 27.0041C41.6088 27.0041 41.3481 27.2648 41.3481 27.5857V27.7812C41.3481 27.8865 41.2629 27.9767 41.1526 27.9767H24.8331C24.7278 27.9767 24.6375 27.8915 24.6375 27.7812V23.4494C24.6375 23.3441 24.7228 23.2539 24.8331 23.2539H41.1526C41.2579 23.2539 41.3481 23.3391 41.3481 23.4494V24.8783C41.3481 25.1992 41.6088 25.4599 41.9297 25.4599C42.2506 25.4599 42.5113 25.1992 42.5113 24.8783V23.4494C42.5113 22.7024 41.9046 22.0957 41.1576 22.0957H24.8381C24.091 22.0957 23.4844 22.7024 23.4844 23.4494V27.7812C23.4844 28.5282 24.091 29.1349 24.8381 29.1349Z" fill="white"/>
</g>
<defs>
<clipPath id="clip0_650_3395">
<rect width="66" height="66" fill="white"/>
</clipPath>
</defs>
</svg>
