<svg width="66" height="66" viewBox="0 0 66 66" fill="none" xmlns="http://www.w3.org/2000/svg">
<g clip-path="url(#clip0_650_3385)">
<path d="M33 66C51.2254 66 66 51.2254 66 33C66 14.7746 51.2254 0 33 0C14.7746 0 0 14.7746 0 33C0 51.2254 14.7746 66 33 66Z" fill="#E9B020"/>
<g clip-path="url(#clip1_650_3385)">
<path d="M40.3274 36.0943C39.5442 35.7788 38.7319 35.7343 38.07 35.9391C37.7723 35.5884 37.3928 35.2935 36.9442 35.0739C36.0604 34.6415 35.0643 34.5667 34.2434 34.8353C33.8126 34.3631 33.2295 34.0115 32.5356 33.832C32.0014 33.6939 31.4745 33.677 31.0022 33.7664L30.8918 28.689C30.8729 27.8184 30.5082 27.0487 29.9354 26.5202C31.3461 24.8296 32.1406 22.6669 32.1406 20.4531C32.1406 15.2407 27.9 11 22.6875 11C21.6344 11 20.599 11.1726 19.6102 11.5129C19.1615 11.6673 18.9228 12.1564 19.0773 12.6051C19.2318 13.0539 19.7207 13.2926 20.1696 13.138C20.978 12.8599 21.8252 12.7187 22.6875 12.7187C26.9522 12.7187 30.4218 16.1884 30.4218 20.4531C30.4218 22.4326 29.6452 24.3618 28.2828 25.7918C28.2063 25.7855 28.1293 25.7814 28.0511 25.7814C26.828 25.7814 25.7831 26.5815 25.3836 27.7003C24.5191 28.0224 23.6138 28.1874 22.6875 28.1874C18.4227 28.1874 14.9531 24.7178 14.9531 20.4531C14.9531 19.591 15.0941 18.744 15.3722 17.9357C15.5267 17.487 15.288 16.9979 14.8392 16.8436C14.3903 16.6891 13.9013 16.9278 13.747 17.3766C13.4069 18.3652 13.2344 19.4004 13.2344 20.4532C13.2344 25.6656 17.475 29.9063 22.6875 29.9063C23.5465 29.9063 24.3911 29.7913 25.2101 29.564V39.3857C24.3863 39.7334 23.7166 40.1176 23.1576 41.2748C22.5906 42.4485 22.076 44.8001 22.5845 46.1625C23.3132 48.115 24.2269 49.224 24.961 50.1151C25.9129 51.2704 26.5417 52.0337 26.5594 54.1479C26.5634 54.6197 26.9469 55.0001 27.4188 55.0001H39.9122C40.3851 55.0001 40.7692 54.6179 40.7716 54.145C40.7768 53.0975 41.2625 51.6188 41.7323 50.1887C42.2481 48.6184 42.7814 46.9947 42.7814 45.6652V39.8519C42.7815 38.1183 41.8641 36.7136 40.3274 36.0943ZM41.0627 45.6651C41.0627 46.7195 40.573 48.2104 40.0994 49.6522C39.6943 50.8857 39.2781 52.1526 39.1196 53.2813H28.2372C28.0422 51.1519 27.187 50.1139 26.2876 49.0221C25.5676 48.1481 24.8229 47.2443 24.1948 45.5614C23.9134 44.8073 24.2403 42.985 24.7053 42.0222C24.8653 41.6909 25.0132 41.4871 25.2101 41.3295V43.9168C25.2101 44.3914 25.5948 44.7761 26.0694 44.7761C26.5441 44.7761 26.9288 44.3914 26.9288 43.9168V28.7077C26.9288 28.0419 27.4322 27.5001 28.0511 27.5001C28.6552 27.5001 29.1587 28.0502 29.1734 28.7263L29.3716 37.8381C29.3819 38.3126 29.7768 38.6915 30.2494 38.6786C30.7239 38.6682 31.1002 38.2753 31.0899 37.8007L31.0409 35.5464C31.231 35.4435 31.6217 35.371 32.1052 35.496C32.4785 35.5926 33.3468 35.9321 33.3468 36.9969C33.3468 37.4716 33.7316 37.8563 34.2062 37.8563C34.6809 37.8563 35.0656 37.4716 35.0656 36.9969C35.0656 36.7971 35.0486 36.6022 35.0155 36.4134C35.3751 36.3638 35.809 36.4321 36.1886 36.6179C36.5288 36.7843 37.0995 37.1841 37.0995 37.9916C37.0995 38.4662 37.4842 38.8509 37.9588 38.8509C38.4335 38.8509 38.8182 38.4662 38.8182 37.9916C38.8182 37.8383 38.8077 37.6873 38.7872 37.5395C39.0269 37.5176 39.3459 37.5519 39.6849 37.6886C40.0991 37.8555 41.0626 38.4005 41.0626 39.8519L41.0627 45.6651Z" fill="white"/>
<path d="M43.3125 11C38.1 11 33.8594 15.2407 33.8594 20.4531C33.8594 25.6656 38.1 29.9062 43.3125 29.9062C48.525 29.9062 52.7656 25.6656 52.7656 20.4531C52.7656 15.2407 48.525 11 43.3125 11ZM43.3125 28.1875C39.0478 28.1875 35.5781 24.7179 35.5781 20.4531C35.5781 16.1884 39.0478 12.7188 43.3125 12.7188C47.5772 12.7188 51.0469 16.1884 51.0469 20.4531C51.0468 24.7179 47.5772 28.1875 43.3125 28.1875Z" fill="white"/>
<path d="M46.9584 20.453L47.5661 19.8453C48.5712 18.8401 48.5712 17.2045 47.5661 16.1992C46.5609 15.194 44.9253 15.194 43.92 16.1992L43.3123 16.8069L42.7047 16.1992C41.6995 15.1941 40.0639 15.1941 39.0586 16.1992C38.0534 17.2044 38.0534 18.84 39.0586 19.8453L39.6663 20.453L39.0586 21.0606C38.0534 22.0658 38.0534 23.7015 39.0586 24.7067C39.5612 25.2093 40.2214 25.4605 40.8816 25.4605C41.5418 25.4605 42.202 25.2093 42.7046 24.7067L43.3122 24.099L43.9199 24.7067C44.9251 25.7118 46.5607 25.7119 47.566 24.7067C48.5712 23.7015 48.5712 22.0658 47.566 21.0606L46.9584 20.453ZM46.3507 23.4913C46.0158 23.8264 45.4705 23.8263 45.1354 23.4913L43.9201 22.2759C43.7522 22.1081 43.5323 22.0242 43.3124 22.0242C43.0925 22.0242 42.8725 22.1081 42.7048 22.2759L41.4894 23.4913C41.3285 23.6522 41.1127 23.7409 40.8818 23.7409C40.6508 23.7409 40.4351 23.6523 40.2741 23.4913C40.113 23.3303 40.0244 23.1145 40.0244 22.8836C40.0244 22.6527 40.1131 22.4369 40.2741 22.2759L41.4894 21.0606C41.825 20.725 41.825 20.1809 41.4894 19.8452L40.2741 18.6299C39.939 18.2948 39.939 17.7496 40.2741 17.4145C40.6091 17.0795 41.1544 17.0795 41.4894 17.4145L42.7048 18.6299C43.0403 18.9655 43.5845 18.9655 43.9202 18.6299L45.1355 17.4145C45.4707 17.0795 46.0158 17.0795 46.3509 17.4145C46.686 17.7496 46.686 18.2949 46.3509 18.6299L45.1356 19.8452C44.8 20.1808 44.8 20.7249 45.1356 21.0606L46.3509 22.2759C46.6858 22.611 46.6858 23.1563 46.3507 23.4913Z" fill="white"/>
<path d="M17.6542 22.1479L19.8802 24.3739C20.3671 24.8608 21.0145 25.1289 21.7031 25.1289C22.3917 25.1289 23.0391 24.8607 23.526 24.3739L27.7208 20.1791C28.7258 19.174 28.7258 17.5385 27.7208 16.5334C27.2339 16.0464 26.5865 15.7783 25.8979 15.7783C25.2093 15.7783 24.5619 16.0465 24.0751 16.5334L21.7031 18.9052L21.3 18.5022C20.2949 17.4971 18.6594 17.4972 17.6542 18.5022C16.6491 19.5073 16.6491 21.1428 17.6542 22.1479ZM18.8696 19.7175C19.0371 19.55 19.2571 19.4662 19.4771 19.4662C19.6971 19.4662 19.9172 19.55 20.0846 19.7175L21.0953 20.7282C21.4309 21.0638 21.9751 21.0638 22.3108 20.7282L25.2903 17.7487C25.4525 17.5864 25.6683 17.4971 25.8978 17.4971C26.1272 17.4971 26.343 17.5864 26.5053 17.7487C26.8403 18.0837 26.8403 18.6288 26.5053 18.9638L22.3105 23.1585C22.1482 23.3208 21.9325 23.4102 21.703 23.4102C21.4736 23.4102 21.2578 23.3208 21.0955 23.1585L18.8696 20.9326C18.5346 20.5975 18.5346 20.0525 18.8696 19.7175Z" fill="white"/>
<path d="M16.6111 15.2355C16.8449 15.2355 17.0779 15.1406 17.2476 14.954C17.5668 14.6029 17.5409 14.0593 17.1897 13.7401C16.8386 13.4208 16.295 13.4468 15.9758 13.7979L15.9753 13.7983C15.6561 14.1495 15.6822 14.6928 16.0333 15.012C16.198 15.1617 16.4049 15.2355 16.6111 15.2355Z" fill="white"/>
</g>
</g>
<defs>
<clipPath id="clip0_650_3385">
<rect width="66" height="66" fill="white"/>
</clipPath>
<clipPath id="clip1_650_3385">
<rect width="44" height="44" fill="white" transform="translate(11 11)"/>
</clipPath>
</defs>
</svg>
