<svg width="167" height="167" viewBox="0 0 167 167" fill="none" xmlns="http://www.w3.org/2000/svg">
<path d="M83.1868 159.561C125.005 159.561 158.905 125.661 158.905 83.8431C158.905 42.0251 125.005 8.125 83.1868 8.125C41.3689 8.125 7.46875 42.0251 7.46875 83.8431C7.46875 125.661 41.3689 159.561 83.1868 159.561Z" fill="white"/>
<path d="M83.4533 153.137C121.945 153.137 153.149 121.933 153.149 83.4416C153.149 44.9498 121.945 13.7461 83.4533 13.7461C44.9616 13.7461 13.7578 44.9498 13.7578 83.4416C13.7578 121.933 44.9616 153.137 83.4533 153.137Z" fill="#D7EEF0"/>
<path d="M164.334 87.531L164.351 87.5229C167.752 85.8656 167.752 81.0237 164.351 79.3664L164.337 79.3556C162.663 78.5405 161.789 76.9103 161.789 75.2719C161.789 73.9288 162.374 72.5802 163.587 71.6622C166.604 69.3766 165.661 64.6214 162.003 63.6601H161.992C158.723 62.7962 157.507 58.7938 159.752 56.2619L159.758 56.2537C162.268 53.4212 160.41 48.9449 156.633 48.7174H156.627C153.253 48.5143 151.276 44.826 152.98 41.9041L152.985 41.8906C154.19 39.8271 153.557 37.463 151.986 36.128C151.068 35.3508 149.83 34.9202 148.449 35.1125H148.441C145.089 35.5755 142.429 32.3395 143.532 29.1413L143.537 29.1305C144.769 25.556 141.346 22.1277 137.769 23.3598L137.755 23.3652C134.56 24.4674 131.321 21.8081 131.784 18.4583V18.4502C132.299 14.7023 128.275 12.0052 125.003 13.9116L124.993 13.9197C122.071 15.6231 118.38 13.6462 118.179 10.2721V10.2667C117.952 6.48902 113.473 4.63405 110.64 7.14435L110.635 7.14977C108.942 8.64729 106.586 8.60125 104.956 7.42598C104.149 6.84647 103.521 5.99075 103.237 4.90755V4.89943C102.663 2.73033 100.759 1.51444 98.8254 1.51444C97.4984 1.51444 96.158 2.08583 95.2291 3.31526C93.1846 6.01241 89.017 5.60621 87.5357 2.56514L87.5249 2.54889C85.8676 -0.849631 81.0284 -0.849631 79.3712 2.54889L79.3603 2.56514C78.5452 4.23868 76.9177 5.11336 75.2767 5.11336C73.9362 5.11336 72.5876 4.52573 71.6669 3.31255C69.3841 0.295848 64.6262 1.23823 63.6648 4.89943V4.90755C62.801 8.1761 58.7986 9.39198 56.2639 7.14977L56.2585 7.14435C53.4259 4.63405 48.9469 6.48902 48.7221 10.2667V10.2721C48.519 13.6462 44.828 15.6231 41.9061 13.9197L41.8953 13.9116C38.6295 12.0079 34.6 14.7023 35.1145 18.4502V18.4556C35.5776 21.8081 32.3415 24.4674 29.1434 23.3652L29.1325 23.3598C25.558 22.1277 22.1324 25.5533 23.3645 29.1278L23.3699 29.1386C24.4721 32.3368 21.8129 35.5728 18.4604 35.1125H18.4522C14.7071 34.5952 12.0099 38.622 13.9164 41.8906L13.9245 41.9014C15.6278 44.8233 13.6483 48.5143 10.2768 48.7174H10.2714C6.49376 48.9422 4.63879 53.4212 7.14638 56.2537L7.1518 56.2591C9.39401 58.7911 8.18083 62.7962 4.91229 63.6574H4.90146C2.73236 64.2315 1.51647 66.1352 1.51647 68.0687C1.51647 69.3956 2.08786 70.7361 3.31729 71.6649C6.01444 73.7094 5.60824 77.877 2.56717 79.3583L2.55093 79.3691C-0.850309 81.0264 -0.850309 85.8683 2.55093 87.5256L2.56447 87.5337C4.238 88.3488 5.11268 89.979 5.11268 91.6173C5.11268 92.9605 4.52776 94.3091 3.31458 95.2271C0.297879 97.5126 1.24026 102.268 4.89875 103.229H4.90958C8.17813 104.093 9.39401 108.098 7.14909 110.63L7.14368 110.636C4.63337 113.468 6.49105 117.947 10.2687 118.175H10.2741C13.6483 118.375 15.6251 122.066 13.9218 124.988L13.9164 124.999C12.0099 128.265 14.7071 132.294 18.4522 131.78H18.4604C21.2875 131.39 23.6191 133.632 23.6218 136.261C23.6218 136.751 23.5405 137.252 23.3699 137.753L23.3645 137.764C22.1324 141.339 25.5553 144.764 29.1325 143.532L29.1434 143.527C32.3388 142.425 35.5776 145.084 35.1145 148.436V148.445C34.6 152.19 38.624 154.89 41.8953 152.98L41.9061 152.975C44.828 151.269 48.519 153.248 48.7194 156.623C48.9469 160.403 53.4259 162.261 56.2585 159.75L56.2639 159.745C58.7932 157.503 62.801 158.716 63.6621 161.984V161.995C64.2362 164.164 66.1399 165.38 68.0734 165.38C69.4003 165.38 70.7408 164.809 71.6696 163.579C73.7142 160.882 77.8818 161.288 79.363 164.332L79.3739 164.349C81.0311 167.747 85.8703 167.747 87.5276 164.349L87.5385 164.332C88.3536 162.659 89.9838 161.784 91.6248 161.784C92.9653 161.784 94.3138 162.369 95.2318 163.582C97.5147 166.599 102.273 165.656 103.234 161.998V161.987C104.098 158.719 108.1 157.503 110.635 159.748L110.64 159.753C113.473 162.263 117.952 160.406 118.177 156.628C118.38 153.248 122.071 151.272 124.993 152.978L125.003 152.983C128.269 154.89 132.299 152.192 131.784 148.447V148.439C131.321 145.087 134.557 142.427 137.755 143.532H137.769C138.83 143.9 139.876 143.854 140.794 143.519C142.966 142.72 144.406 140.28 143.537 137.767L143.532 137.756C142.429 134.558 145.089 131.319 148.441 131.782H148.449C152.194 132.297 154.892 128.273 152.985 125.001L152.977 124.991C151.274 122.069 153.251 118.378 156.625 118.177H156.63C160.408 117.95 162.263 113.474 159.755 110.638L159.75 110.633C157.507 108.104 158.721 104.096 161.989 103.235H162C164.169 102.663 165.385 100.76 165.385 98.8233C165.385 97.4964 164.814 96.1559 163.584 95.2271C160.887 93.1826 161.293 89.015 164.334 87.5337V87.531ZM136.001 133.911C135.665 134.265 135.318 134.615 134.972 134.964C121.21 148.726 102.914 156.303 83.4548 156.303C63.9952 156.303 46.182 148.924 32.485 135.506C32.3036 135.327 32.1195 135.148 31.938 134.967C18.176 121.205 10.5964 102.91 10.5964 83.4473C10.5964 63.985 18.176 45.6926 31.938 31.9306C45.6973 18.1686 63.9952 10.5889 83.4548 10.5889C91.8604 10.5889 100.049 12.0025 107.748 14.7186C117.876 18.2904 127.156 24.1126 134.972 31.9279C138.887 35.8436 142.305 40.1304 145.189 44.7069C152.435 56.2023 156.313 69.5256 156.313 83.4446C156.313 102.414 149.113 120.276 136.001 133.911Z" fill="#3C3C3B"/>
<path d="M83.5781 156.07C123.619 156.07 156.078 123.611 156.078 83.5703C156.078 43.5297 123.619 11.0703 83.5781 11.0703C43.5375 11.0703 11.0781 43.5297 11.0781 83.5703C11.0781 123.611 43.5375 156.07 83.5781 156.07Z" fill="#3C3C3B"/>
<path d="M111.234 114.07V104.692H112.458V114.07H111.234ZM111.234 102.73V100.93H112.458V102.73H111.234Z" fill="white"/>
<path d="M108.641 114.071H107.417V108.833C107.417 107.741 107.243 106.937 106.895 106.421C106.547 105.905 106.031 105.647 105.347 105.647C104.639 105.647 104.003 105.899 103.439 106.403C102.887 106.907 102.497 107.555 102.269 108.347V114.071H101.045V108.833C101.045 107.729 100.877 106.925 100.541 106.421C100.205 105.905 99.6894 105.647 98.9934 105.647C98.2974 105.647 97.6674 105.893 97.1034 106.385C96.5394 106.877 96.1434 107.525 95.9154 108.329V114.071H94.6914V104.693H95.8074V106.817C96.2034 106.085 96.7074 105.521 97.3194 105.125C97.9434 104.729 98.6334 104.531 99.3894 104.531C100.169 104.531 100.799 104.753 101.279 105.197C101.759 105.641 102.053 106.223 102.161 106.943C102.593 106.151 103.109 105.551 103.709 105.143C104.321 104.735 105.011 104.531 105.779 104.531C106.307 104.531 106.751 104.627 107.111 104.819C107.483 105.011 107.777 105.287 107.993 105.647C108.221 105.995 108.383 106.421 108.479 106.925C108.587 107.417 108.641 107.969 108.641 108.581V114.071Z" fill="white"/>
<path d="M88.1785 114.251C87.5065 114.251 86.8825 114.125 86.3065 113.873C85.7305 113.609 85.2325 113.255 84.8125 112.811C84.3925 112.355 84.0625 111.833 83.8225 111.245C83.5945 110.657 83.4805 110.027 83.4805 109.355C83.4805 108.479 83.6785 107.675 84.0745 106.943C84.4825 106.211 85.0405 105.629 85.7485 105.197C86.4565 104.753 87.2605 104.531 88.1605 104.531C89.0845 104.531 89.8885 104.753 90.5725 105.197C91.2685 105.641 91.8145 106.229 92.2105 106.961C92.6065 107.681 92.8045 108.473 92.8045 109.337C92.8045 109.433 92.8045 109.529 92.8045 109.625C92.8045 109.709 92.7985 109.775 92.7865 109.823H84.7585C84.8185 110.495 85.0045 111.095 85.3165 111.623C85.6405 112.139 86.0545 112.553 86.5585 112.865C87.0745 113.165 87.6325 113.315 88.2325 113.315C88.8445 113.315 89.4205 113.159 89.9605 112.847C90.5125 112.535 90.8965 112.127 91.1125 111.623L92.1745 111.911C91.9825 112.355 91.6885 112.757 91.2925 113.117C90.8965 113.477 90.4285 113.759 89.8885 113.963C89.3605 114.155 88.7905 114.251 88.1785 114.251ZM84.7225 108.941H91.6525C91.6045 108.257 91.4185 107.657 91.0945 107.141C90.7825 106.625 90.3685 106.223 89.8525 105.935C89.3485 105.635 88.7905 105.485 88.1785 105.485C87.5665 105.485 87.0085 105.635 86.5045 105.935C86.0005 106.223 85.5865 106.631 85.2625 107.159C84.9505 107.675 84.7705 108.269 84.7225 108.941Z" fill="white"/>
<path d="M82.7555 113.619C82.6595 113.655 82.5095 113.721 82.3055 113.817C82.1015 113.913 81.8555 113.997 81.5675 114.069C81.2795 114.141 80.9675 114.177 80.6315 114.177C80.2835 114.177 79.9535 114.111 79.6415 113.979C79.3415 113.847 79.1015 113.649 78.9215 113.385C78.7415 113.109 78.6515 112.773 78.6515 112.377V105.663H77.3555V104.691H78.6515V101.523H79.8755V104.691H82.0355V105.663H79.8755V112.035C79.8995 112.371 80.0195 112.623 80.2355 112.791C80.4635 112.959 80.7215 113.043 81.0095 113.043C81.3455 113.043 81.6515 112.989 81.9275 112.881C82.2035 112.761 82.3715 112.677 82.4315 112.629L82.7555 113.619Z" fill="white"/>
<path d="M72.6332 114.251C71.8652 114.251 71.1512 114.125 70.4912 113.873C69.8312 113.621 69.2613 113.237 68.7812 112.721L69.2852 111.857C69.8132 112.349 70.3412 112.709 70.8692 112.937C71.4092 113.153 71.9793 113.261 72.5793 113.261C73.3113 113.261 73.9053 113.117 74.3612 112.829C74.8173 112.529 75.0452 112.103 75.0452 111.551C75.0452 111.179 74.9313 110.897 74.7033 110.705C74.4873 110.501 74.1693 110.339 73.7493 110.219C73.3413 110.087 72.8493 109.949 72.2733 109.805C71.6253 109.625 71.0793 109.439 70.6353 109.247C70.2033 109.043 69.8733 108.791 69.6453 108.491C69.4293 108.179 69.3212 107.777 69.3212 107.285C69.3212 106.673 69.4712 106.169 69.7712 105.773C70.0832 105.365 70.5033 105.059 71.0312 104.855C71.5712 104.639 72.1712 104.531 72.8312 104.531C73.5512 104.531 74.1873 104.645 74.7393 104.873C75.2913 105.101 75.7413 105.419 76.0893 105.827L75.4953 106.655C75.1593 106.271 74.7572 105.989 74.2892 105.809C73.8332 105.617 73.3233 105.521 72.7593 105.521C72.3753 105.521 72.0092 105.575 71.6612 105.683C71.3132 105.779 71.0253 105.947 70.7973 106.187C70.5813 106.415 70.4732 106.733 70.4732 107.141C70.4732 107.477 70.5573 107.741 70.7253 107.933C70.8933 108.113 71.1453 108.269 71.4813 108.401C71.8173 108.521 72.2312 108.653 72.7232 108.797C73.4312 108.989 74.0492 109.187 74.5772 109.391C75.1052 109.583 75.5133 109.835 75.8013 110.147C76.0893 110.459 76.2332 110.897 76.2332 111.461C76.2332 112.337 75.9032 113.021 75.2432 113.513C74.5833 114.005 73.7132 114.251 72.6332 114.251Z" fill="white"/>
<path d="M65.6367 114.07V104.692H66.8607V114.07H65.6367ZM65.6367 102.73V100.93H66.8607V102.73H65.6367Z" fill="white"/>
<path d="M62.4257 103.685C62.2457 103.481 62.0357 103.301 61.7957 103.145C61.5557 102.977 61.2857 102.833 60.9857 102.713C60.6857 102.593 60.3617 102.497 60.0137 102.425C59.6777 102.353 59.3177 102.317 58.9337 102.317C57.8177 102.317 56.9957 102.533 56.4677 102.965C55.9517 103.385 55.6937 103.961 55.6937 104.693C55.6937 105.197 55.8137 105.593 56.0537 105.881C56.3057 106.169 56.6957 106.403 57.2237 106.583C57.7517 106.763 58.4237 106.949 59.2397 107.141C60.1517 107.333 60.9377 107.561 61.5977 107.825C62.2577 108.089 62.7677 108.449 63.1277 108.905C63.4877 109.349 63.6677 109.955 63.6677 110.723C63.6677 111.311 63.5537 111.821 63.3257 112.253C63.0977 112.685 62.7797 113.045 62.3717 113.333C61.9637 113.621 61.4777 113.837 60.9137 113.981C60.3497 114.113 59.7317 114.179 59.0597 114.179C58.3997 114.179 57.7637 114.113 57.1517 113.981C56.5517 113.837 55.9817 113.633 55.4417 113.369C54.9017 113.093 54.3977 112.745 53.9297 112.325L54.5597 111.299C54.7877 111.539 55.0577 111.767 55.3697 111.983C55.6937 112.187 56.0477 112.373 56.4317 112.541C56.8277 112.709 57.2477 112.841 57.6917 112.937C58.1477 113.021 58.6157 113.063 59.0957 113.063C60.1157 113.063 60.9077 112.877 61.4717 112.505C62.0477 112.133 62.3357 111.581 62.3357 110.849C62.3357 110.321 62.1917 109.901 61.9037 109.589C61.6157 109.265 61.1837 109.001 60.6077 108.797C60.0317 108.593 59.3237 108.395 58.4837 108.203C57.5957 107.999 56.8457 107.771 56.2337 107.519C55.6217 107.267 55.1597 106.937 54.8477 106.529C54.5477 106.109 54.3977 105.557 54.3977 104.873C54.3977 104.081 54.5897 103.415 54.9737 102.875C55.3697 102.323 55.9097 101.909 56.5937 101.633C57.2777 101.345 58.0637 101.201 58.9517 101.201C59.5157 101.201 60.0377 101.261 60.5177 101.381C61.0097 101.489 61.4597 101.651 61.8677 101.867C62.2877 102.083 62.6777 102.353 63.0377 102.677L62.4257 103.685Z" fill="white"/>
<path d="M116.458 91.0713H115.234V85.8333C115.234 84.7413 115.06 83.9372 114.712 83.4212C114.364 82.9052 113.848 82.6473 113.164 82.6473C112.456 82.6473 111.82 82.8993 111.256 83.4033C110.704 83.9073 110.314 84.5553 110.086 85.3473V91.0713H108.862V85.8333C108.862 84.7293 108.694 83.9252 108.358 83.4212C108.022 82.9052 107.506 82.6473 106.81 82.6473C106.114 82.6473 105.484 82.8932 104.92 83.3853C104.356 83.8773 103.96 84.5253 103.732 85.3293V91.0713H102.508V81.6932H103.624V83.8172C104.02 83.0852 104.524 82.5213 105.136 82.1253C105.76 81.7293 106.45 81.5312 107.206 81.5312C107.986 81.5312 108.616 81.7533 109.096 82.1973C109.576 82.6413 109.87 83.2232 109.978 83.9432C110.41 83.1512 110.926 82.5512 111.526 82.1432C112.138 81.7352 112.828 81.5312 113.596 81.5312C114.124 81.5312 114.568 81.6273 114.928 81.8193C115.3 82.0113 115.594 82.2873 115.81 82.6473C116.038 82.9953 116.2 83.4213 116.296 83.9253C116.404 84.4173 116.458 84.9692 116.458 85.5812V91.0713Z" fill="white"/>
<path d="M98.5859 91.0697V81.6917H99.8099V91.0697H98.5859ZM98.5859 79.7297V77.9297H99.8099V79.7297H98.5859Z" fill="white"/>
<path d="M97.0562 90.6194C96.9602 90.6554 96.8103 90.7214 96.6063 90.8174C96.4023 90.9134 96.1562 90.9974 95.8682 91.0694C95.5802 91.1414 95.2683 91.1774 94.9323 91.1774C94.5843 91.1774 94.2542 91.1114 93.9422 90.9794C93.6422 90.8474 93.4022 90.6494 93.2222 90.3854C93.0422 90.1094 92.9522 89.7734 92.9522 89.3774V82.6634H91.6562V81.6914H92.9522V78.5234H94.1763V81.6914H96.3363V82.6634H94.1763V89.0354C94.2003 89.3714 94.3203 89.6234 94.5363 89.7914C94.7643 89.9594 95.0222 90.0434 95.3102 90.0434C95.6462 90.0434 95.9522 89.9894 96.2282 89.8814C96.5042 89.7614 96.6723 89.6774 96.7323 89.6294L97.0562 90.6194Z" fill="white"/>
<path d="M86.1316 91.2513C85.4596 91.2513 84.8356 91.1252 84.2596 90.8732C83.6836 90.6092 83.1856 90.2553 82.7656 89.8113C82.3456 89.3553 82.0156 88.8333 81.7756 88.2453C81.5476 87.6573 81.4336 87.0273 81.4336 86.3553C81.4336 85.4793 81.6316 84.6752 82.0276 83.9432C82.4356 83.2112 82.9936 82.6293 83.7016 82.1973C84.4096 81.7533 85.2136 81.5312 86.1136 81.5312C87.0376 81.5312 87.8416 81.7533 88.5256 82.1973C89.2216 82.6413 89.7676 83.2293 90.1636 83.9613C90.5596 84.6813 90.7576 85.4732 90.7576 86.3372C90.7576 86.4332 90.7576 86.5293 90.7576 86.6253C90.7576 86.7093 90.7516 86.7752 90.7396 86.8232H82.7116C82.7716 87.4952 82.9576 88.0952 83.2696 88.6232C83.5936 89.1392 84.0076 89.5532 84.5116 89.8652C85.0276 90.1652 85.5856 90.3153 86.1856 90.3153C86.7976 90.3153 87.3736 90.1593 87.9136 89.8473C88.4656 89.5353 88.8496 89.1272 89.0656 88.6232L90.1276 88.9113C89.9356 89.3553 89.6416 89.7573 89.2456 90.1173C88.8496 90.4773 88.3816 90.7592 87.8416 90.9632C87.3136 91.1552 86.7436 91.2513 86.1316 91.2513ZM82.6756 85.9412H89.6056C89.5576 85.2573 89.3716 84.6573 89.0476 84.1413C88.7356 83.6253 88.3216 83.2232 87.8056 82.9352C87.3016 82.6352 86.7436 82.4852 86.1316 82.4852C85.5196 82.4852 84.9616 82.6352 84.4576 82.9352C83.9536 83.2232 83.5396 83.6313 83.2156 84.1593C82.9036 84.6753 82.7236 85.2692 82.6756 85.9412Z" fill="white"/>
<path d="M79.4699 91.0713H78.2459V85.8333C78.2459 84.7293 78.0839 83.9252 77.7599 83.4212C77.4359 82.9052 76.9259 82.6473 76.2299 82.6473C75.7499 82.6473 75.2759 82.7673 74.8079 83.0073C74.3399 83.2353 73.9259 83.5533 73.5659 83.9613C73.2179 84.3573 72.9659 84.8133 72.8099 85.3293V91.0713H71.5859V81.6932H72.7019V83.8172C72.9539 83.3612 73.2839 82.9652 73.6919 82.6292C74.0999 82.2812 74.5619 82.0113 75.0779 81.8193C75.5939 81.6273 76.1279 81.5312 76.6799 81.5312C77.1959 81.5312 77.6339 81.6273 77.9939 81.8193C78.3539 82.0113 78.6419 82.2873 78.8579 82.6473C79.0739 82.9953 79.2299 83.4213 79.3259 83.9253C79.4219 84.4173 79.4699 84.9692 79.4699 85.5812V91.0713Z" fill="white"/>
<path d="M64.8784 91.2508C64.2064 91.2508 63.5824 91.1248 63.0064 90.8728C62.4424 90.6088 61.9504 90.2548 61.5304 89.8108C61.1224 89.3548 60.8044 88.8388 60.5764 88.2628C60.3484 87.6748 60.2344 87.0568 60.2344 86.4088C60.2344 85.7368 60.3484 85.1128 60.5764 84.5368C60.8044 83.9488 61.1284 83.4328 61.5484 82.9888C61.9684 82.5328 62.4604 82.1788 63.0244 81.9268C63.6004 81.6628 64.2244 81.5308 64.8964 81.5308C65.5684 81.5308 66.1864 81.6628 66.7504 81.9268C67.3144 82.1788 67.8064 82.5328 68.2264 82.9888C68.6464 83.4328 68.9704 83.9488 69.1984 84.5368C69.4264 85.1128 69.5404 85.7368 69.5404 86.4088C69.5404 87.0568 69.4264 87.6748 69.1984 88.2628C68.9704 88.8388 68.6464 89.3548 68.2264 89.8108C67.8184 90.2548 67.3264 90.6088 66.7504 90.8728C66.1864 91.1248 65.5624 91.2508 64.8784 91.2508ZM61.4764 86.4268C61.4764 87.1228 61.6264 87.7588 61.9264 88.3348C62.2384 88.8988 62.6524 89.3488 63.1684 89.6848C63.6844 90.0088 64.2544 90.1708 64.8784 90.1708C65.5024 90.1708 66.0724 90.0028 66.5884 89.6668C67.1044 89.3308 67.5184 88.8748 67.8304 88.2988C68.1424 87.7108 68.2984 87.0748 68.2984 86.3908C68.2984 85.6948 68.1424 85.0588 67.8304 84.4828C67.5184 83.9068 67.1044 83.4508 66.5884 83.1148C66.0724 82.7788 65.5024 82.6108 64.8784 82.6108C64.2544 82.6108 63.6844 82.7848 63.1684 83.1328C62.6644 83.4808 62.2564 83.9428 61.9444 84.5188C61.6324 85.0828 61.4764 85.7188 61.4764 86.4268ZM63.0244 79.6588V77.9668H64.0684V79.6588H63.0244ZM65.7064 79.6588V77.9668H66.7504V79.6588H65.7064Z" fill="white"/>
<path d="M51.1321 78.291L55.3081 85.167L59.5201 78.291H60.8881L55.9381 86.319V91.071H54.6781V86.283L49.7461 78.291H51.1321Z" fill="white"/>
<path d="M100.534 67.2513C99.8619 67.2513 99.2379 67.1253 98.6619 66.8733C98.0859 66.6093 97.5879 66.2553 97.1679 65.8113C96.7479 65.3553 96.4179 64.8333 96.1779 64.2453C95.9499 63.6573 95.8359 63.0273 95.8359 62.3553C95.8359 61.4793 96.0339 60.6753 96.4299 59.9433C96.8379 59.2113 97.3959 58.6293 98.1039 58.1973C98.8119 57.7533 99.6159 57.5312 100.516 57.5312C101.44 57.5312 102.244 57.7533 102.928 58.1973C103.624 58.6413 104.17 59.2293 104.566 59.9613C104.962 60.6813 105.16 61.4733 105.16 62.3373C105.16 62.4333 105.16 62.5293 105.16 62.6253C105.16 62.7093 105.154 62.7753 105.142 62.8233H97.1139C97.1739 63.4953 97.3599 64.0953 97.6719 64.6233C97.9959 65.1393 98.4099 65.5533 98.9139 65.8653C99.4299 66.1653 99.9879 66.3153 100.588 66.3153C101.2 66.3153 101.776 66.1593 102.316 65.8472C102.868 65.5352 103.252 65.1273 103.468 64.6233L104.53 64.9113C104.338 65.3553 104.044 65.7573 103.648 66.1173C103.252 66.4773 102.784 66.7593 102.244 66.9633C101.716 67.1553 101.146 67.2513 100.534 67.2513ZM97.0779 61.9413H104.008C103.96 61.2573 103.774 60.6573 103.45 60.1413C103.138 59.6253 102.724 59.2233 102.208 58.9353C101.704 58.6353 101.146 58.4853 100.534 58.4853C99.9219 58.4853 99.3639 58.6353 98.8599 58.9353C98.3559 59.2233 97.9419 59.6313 97.6179 60.1593C97.3059 60.6753 97.1259 61.2693 97.0779 61.9413Z" fill="white"/>
<path d="M95.1527 58.7727C94.3367 58.7967 93.6167 59.0247 92.9927 59.4567C92.3807 59.8887 91.9487 60.4827 91.6967 61.2387V67.0707H90.4727V57.6927H91.6247V59.9427C91.9487 59.2827 92.3747 58.7487 92.9027 58.3407C93.4427 57.9327 94.0127 57.7047 94.6127 57.6567C94.7327 57.6447 94.8347 57.6387 94.9187 57.6387C95.0147 57.6387 95.0927 57.6447 95.1527 57.6567V58.7727Z" fill="white"/>
<path d="M83.6652 67.0694L79.8672 57.6914H81.1452L84.3492 65.8454L87.5712 57.6914H88.7772L84.9792 67.0694H83.6652Z" fill="white"/>
<path d="M74.6082 67.2513C73.9362 67.2513 73.3122 67.1253 72.7362 66.8733C72.1602 66.6093 71.6622 66.2553 71.2422 65.8113C70.8222 65.3553 70.4922 64.8333 70.2522 64.2453C70.0242 63.6573 69.9102 63.0273 69.9102 62.3553C69.9102 61.4793 70.1082 60.6753 70.5042 59.9433C70.9122 59.2113 71.4702 58.6293 72.1782 58.1973C72.8862 57.7533 73.6902 57.5312 74.5902 57.5312C75.5142 57.5312 76.3182 57.7533 77.0022 58.1973C77.6982 58.6413 78.2442 59.2293 78.6402 59.9613C79.0362 60.6813 79.2342 61.4733 79.2342 62.3373C79.2342 62.4333 79.2342 62.5293 79.2342 62.6253C79.2342 62.7093 79.2282 62.7753 79.2162 62.8233H71.1882C71.2482 63.4953 71.4342 64.0953 71.7462 64.6233C72.0702 65.1393 72.4842 65.5533 72.9882 65.8653C73.5042 66.1653 74.0622 66.3153 74.6622 66.3153C75.2742 66.3153 75.8502 66.1593 76.3902 65.8472C76.9422 65.5352 77.3262 65.1273 77.5422 64.6233L78.6042 64.9113C78.4122 65.3553 78.1182 65.7573 77.7222 66.1173C77.3262 66.4773 76.8582 66.7593 76.3182 66.9633C75.7902 67.1553 75.2202 67.2513 74.6082 67.2513ZM71.1522 61.9413H78.0822C78.0342 61.2573 77.8482 60.6573 77.5242 60.1413C77.2122 59.6253 76.7982 59.2233 76.2822 58.9353C75.7782 58.6353 75.2202 58.4853 74.6082 58.4853C73.9962 58.4853 73.4382 58.6353 72.9342 58.9353C72.4302 59.2233 72.0162 59.6313 71.6922 60.1593C71.3802 60.6753 71.2002 61.2693 71.1522 61.9413Z" fill="white"/>
<path d="M57.625 60.5908C57.625 59.8108 57.757 59.0487 58.021 58.3047C58.297 57.5487 58.693 56.8648 59.209 56.2528C59.725 55.6287 60.361 55.1367 61.117 54.7768C61.873 54.4047 62.731 54.2188 63.691 54.2188C64.831 54.2188 65.803 54.4827 66.607 55.0108C67.423 55.5268 68.023 56.1928 68.407 57.0088L67.417 57.6207C67.141 57.0568 66.793 56.6128 66.373 56.2888C65.953 55.9528 65.503 55.7128 65.023 55.5687C64.555 55.4248 64.087 55.3528 63.619 55.3528C62.851 55.3528 62.173 55.5088 61.585 55.8208C60.997 56.1208 60.499 56.5287 60.091 57.0447C59.695 57.5487 59.395 58.1188 59.191 58.7548C58.987 59.3788 58.885 60.0148 58.885 60.6628C58.885 61.3708 59.005 62.0488 59.245 62.6968C59.485 63.3448 59.821 63.9208 60.253 64.4248C60.685 64.9168 61.189 65.3128 61.765 65.6128C62.353 65.9008 62.989 66.0448 63.673 66.0448C64.153 66.0448 64.645 65.9608 65.149 65.7928C65.653 65.6248 66.121 65.3668 66.553 65.0188C66.997 64.6708 67.351 64.2208 67.615 63.6688L68.659 64.2087C68.395 64.8447 67.987 65.3848 67.435 65.8288C66.883 66.2728 66.265 66.6088 65.581 66.8368C64.909 67.0648 64.249 67.1788 63.601 67.1788C62.725 67.1788 61.921 66.9928 61.189 66.6208C60.457 66.2368 59.821 65.7328 59.281 65.1088C58.753 64.4728 58.345 63.7648 58.057 62.9848C57.769 62.1928 57.625 61.3948 57.625 60.5908ZM63.403 70.3108C63.103 70.3108 62.767 70.2688 62.395 70.1848C62.035 70.1008 61.687 69.9748 61.351 69.8068L61.711 69.1048C61.963 69.2248 62.203 69.3208 62.431 69.3928C62.659 69.4648 62.917 69.5008 63.205 69.5008C63.601 69.5008 63.907 69.4228 64.123 69.2668C64.339 69.1228 64.447 68.8948 64.447 68.5828C64.447 68.2708 64.339 67.9948 64.123 67.7548C63.907 67.5268 63.595 67.2988 63.187 67.0708L63.709 66.7288C64.177 67.0168 64.555 67.3108 64.843 67.6108C65.131 67.9228 65.275 68.3128 65.275 68.7808C65.275 69.2608 65.107 69.6328 64.771 69.8968C64.435 70.1728 63.979 70.3108 63.403 70.3108Z" fill="white"/>
</svg>
