<svg width="168" height="167" viewBox="0 0 168 167" fill="none" xmlns="http://www.w3.org/2000/svg">
<path d="M84.3752 153.137C122.867 153.137 154.071 121.933 154.071 83.4416C154.071 44.9498 122.867 13.7461 84.3752 13.7461C45.8834 13.7461 14.6797 44.9498 14.6797 83.4416C14.6797 121.933 45.8834 153.137 84.3752 153.137Z" fill="#D7EEF0"/>
<path d="M165.256 87.531L165.272 87.5229C168.674 85.8656 168.674 81.0237 165.272 79.3664L165.259 79.3556C163.585 78.5405 162.711 76.9103 162.711 75.2719C162.711 73.9288 163.296 72.5802 164.509 71.6622C167.525 69.3766 166.583 64.6214 162.925 63.6601H162.914C159.645 62.7962 158.429 58.7938 160.674 56.2618L160.68 56.2537C163.19 53.4212 161.332 48.9449 157.555 48.7174H157.549C154.175 48.5143 152.198 44.826 153.902 41.9041L153.907 41.8905C155.112 39.8271 154.478 37.463 152.908 36.128C151.99 35.3508 150.752 34.9202 149.371 35.1125H149.363C146.01 35.5755 143.351 32.3395 144.453 29.1413L144.459 29.1305C145.691 25.556 142.268 22.1277 138.691 23.3598L138.677 23.3652C135.482 24.4674 132.243 21.8081 132.706 18.4583V18.4502C133.221 14.7023 129.197 12.0052 125.925 13.9116L125.915 13.9197C122.993 15.6231 119.302 13.6462 119.101 10.2721V10.2667C118.874 6.48902 114.395 4.63405 111.562 7.14435L111.557 7.14977C109.864 8.64728 107.508 8.60125 105.878 7.42598C105.071 6.84647 104.443 5.99075 104.159 4.90755V4.89943C103.584 2.73033 101.681 1.51444 99.7472 1.51444C98.4203 1.51444 97.0798 2.08583 96.151 3.31526C94.1065 6.01241 89.9389 5.60621 88.4576 2.56514L88.4468 2.54889C86.7895 -0.849631 81.9503 -0.849631 80.293 2.54889L80.2822 2.56514C79.4671 4.23868 77.8396 5.11336 76.1985 5.11336C74.8581 5.11336 73.5095 4.52573 72.5888 3.31255C70.306 0.295848 65.548 1.23823 64.5867 4.89943V4.90755C63.7228 8.17609 59.7204 9.39198 57.1858 7.14977L57.1803 7.14435C54.3478 4.63405 49.8688 6.48902 49.644 10.2667V10.2721C49.4409 13.6462 45.7499 15.6231 42.828 13.9197L42.8172 13.9116C39.5513 12.0079 35.5218 14.7023 36.0364 18.4502V18.4556C36.4994 21.8081 33.2634 24.4674 30.0652 23.3652L30.0544 23.3598C26.4799 22.1277 23.0543 25.5533 24.2864 29.1278L24.2918 29.1386C25.394 32.3368 22.7347 35.5728 19.3822 35.1125H19.3741C15.629 34.5952 12.9318 38.622 14.8382 41.8905L14.8464 41.9014C16.5497 44.8233 14.5701 48.5143 11.1987 48.7174H11.1933C7.41563 48.9422 5.56066 53.4212 8.06826 56.2537L8.07367 56.2591C10.3159 58.7911 9.10271 62.7962 5.83417 63.6574H5.82333C3.65424 64.2315 2.43835 66.1352 2.43835 68.0687C2.43835 69.3956 3.00973 70.736 4.23916 71.6649C6.93632 73.7094 6.53012 77.877 3.48905 79.3583L3.4728 79.3691C0.0715665 81.0264 0.0715665 85.8683 3.4728 87.5256L3.48634 87.5337C5.15988 88.3488 6.03456 89.979 6.03456 91.6173C6.03456 92.9605 5.44963 94.3091 4.23645 95.2271C1.21975 97.5126 2.16213 102.268 5.82063 103.229H5.83146C9.1 104.093 10.3159 108.098 8.07097 110.63L8.06555 110.636C5.55524 113.468 7.41292 117.947 11.1906 118.175H11.196C14.5701 118.375 16.547 122.066 14.8436 124.988L14.8382 124.999C12.9318 128.265 15.629 132.294 19.3741 131.78H19.3822C22.2094 131.39 24.541 133.632 24.5437 136.261C24.5437 136.751 24.4624 137.252 24.2918 137.753L24.2864 137.764C23.0543 141.339 26.4772 144.764 30.0544 143.532L30.0652 143.527C33.2607 142.425 36.4994 145.084 36.0364 148.436V148.444C35.5218 152.19 39.5459 154.889 42.8172 152.98L42.828 152.975C45.7499 151.269 49.4409 153.248 49.6413 156.623C49.8688 160.403 54.3478 162.261 57.1803 159.75L57.1858 159.745C59.715 157.503 63.7228 158.716 64.584 161.984V161.995C65.1581 164.164 67.0618 165.38 68.9953 165.38C70.3222 165.38 71.6627 164.809 72.5915 163.579C74.636 160.882 78.8036 161.288 80.2849 164.332L80.2957 164.348C81.953 167.747 86.7922 167.747 88.4495 164.348L88.4603 164.332C89.2754 162.659 90.9056 161.784 92.5467 161.784C93.8871 161.784 95.2357 162.369 96.1537 163.582C98.4365 166.599 103.194 165.656 104.156 161.998V161.987C105.02 158.719 109.022 157.503 111.557 159.748L111.562 159.753C114.395 162.263 118.874 160.406 119.098 156.628C119.302 153.248 122.993 151.272 125.915 152.978L125.925 152.983C129.191 154.889 133.221 152.192 132.706 148.447V148.439C132.243 145.087 135.479 142.427 138.677 143.532H138.691C139.752 143.9 140.798 143.854 141.716 143.519C143.887 142.72 145.328 140.28 144.459 137.767L144.453 137.756C143.351 134.558 146.01 131.319 149.363 131.782H149.371C153.116 132.297 155.813 128.273 153.907 125.001L153.899 124.991C152.196 122.069 154.172 118.378 157.547 118.177H157.552C161.33 117.95 163.185 113.474 160.677 110.638L160.672 110.633C158.429 108.104 159.643 104.096 162.911 103.235H162.922C165.091 102.663 166.307 100.76 166.307 98.8233C166.307 97.4964 165.735 96.1559 164.506 95.2271C161.809 93.1826 162.215 89.015 165.256 87.5337V87.531ZM136.922 133.911C136.587 134.265 136.24 134.615 135.893 134.964C122.131 148.726 103.836 156.303 84.3767 156.303C64.9171 156.303 47.1039 148.924 33.4069 135.506C33.2255 135.327 33.0413 135.148 32.8599 134.967C19.0979 121.205 11.5182 102.91 11.5182 83.4473C11.5182 63.985 19.0979 45.6926 32.8599 31.9306C46.6192 18.1686 64.9171 10.5889 84.3767 10.5889C92.7823 10.5889 100.971 12.0025 108.67 14.7186C118.798 18.2904 128.078 24.1126 135.893 31.9279C139.809 35.8436 143.227 40.1304 146.111 44.7069C153.357 56.2023 157.235 69.5256 157.235 83.4446C157.235 102.414 150.035 120.276 136.922 133.911Z" fill="#3C3C3B"/>
<path d="M84.5 156.07C124.541 156.07 157 123.611 157 83.5703C157 43.5297 124.541 11.0703 84.5 11.0703C44.4594 11.0703 12 43.5297 12 83.5703C12 123.611 44.4594 156.07 84.5 156.07Z" fill="#3C3C3B"/>
</svg>
