<svg width="167" height="167" viewBox="0 0 167 167" fill="none" xmlns="http://www.w3.org/2000/svg">
<path d="M83.1868 159.561C125.005 159.561 158.905 125.661 158.905 83.8431C158.905 42.0251 125.005 8.125 83.1868 8.125C41.3689 8.125 7.46875 42.0251 7.46875 83.8431C7.46875 125.661 41.3689 159.561 83.1868 159.561Z" fill="white"/>
<path d="M83.4533 153.137C121.945 153.137 153.149 121.933 153.149 83.4416C153.149 44.9498 121.945 13.7461 83.4533 13.7461C44.9616 13.7461 13.7578 44.9498 13.7578 83.4416C13.7578 121.933 44.9616 153.137 83.4533 153.137Z" fill="#D7EEF0"/>
<path d="M164.334 87.531L164.351 87.5229C167.752 85.8656 167.752 81.0237 164.351 79.3664L164.337 79.3556C162.663 78.5405 161.789 76.9103 161.789 75.2719C161.789 73.9288 162.374 72.5802 163.587 71.6622C166.604 69.3766 165.661 64.6214 162.003 63.6601H161.992C158.723 62.7962 157.507 58.7938 159.752 56.2619L159.758 56.2537C162.268 53.4212 160.41 48.9449 156.633 48.7174H156.627C153.253 48.5143 151.276 44.826 152.98 41.9041L152.985 41.8906C154.19 39.8271 153.557 37.463 151.986 36.128C151.068 35.3508 149.83 34.9202 148.449 35.1125H148.441C145.089 35.5755 142.429 32.3395 143.532 29.1413L143.537 29.1305C144.769 25.556 141.346 22.1277 137.769 23.3598L137.755 23.3652C134.56 24.4674 131.321 21.8081 131.784 18.4583V18.4502C132.299 14.7023 128.275 12.0052 125.003 13.9116L124.993 13.9197C122.071 15.6231 118.38 13.6462 118.179 10.2721V10.2667C117.952 6.48902 113.473 4.63405 110.64 7.14435L110.635 7.14977C108.942 8.64729 106.586 8.60125 104.956 7.42598C104.149 6.84647 103.521 5.99075 103.237 4.90755V4.89943C102.663 2.73033 100.759 1.51444 98.8254 1.51444C97.4984 1.51444 96.158 2.08583 95.2291 3.31526C93.1846 6.01241 89.017 5.60621 87.5357 2.56514L87.5249 2.54889C85.8676 -0.849631 81.0284 -0.849631 79.3712 2.54889L79.3603 2.56514C78.5452 4.23868 76.9177 5.11336 75.2767 5.11336C73.9362 5.11336 72.5876 4.52573 71.6669 3.31255C69.3841 0.295848 64.6262 1.23823 63.6648 4.89943V4.90755C62.801 8.1761 58.7986 9.39198 56.2639 7.14977L56.2585 7.14435C53.4259 4.63405 48.9469 6.48902 48.7221 10.2667V10.2721C48.519 13.6462 44.828 15.6231 41.9061 13.9197L41.8953 13.9116C38.6295 12.0079 34.6 14.7023 35.1145 18.4502V18.4556C35.5776 21.8081 32.3415 24.4674 29.1434 23.3652L29.1325 23.3598C25.558 22.1277 22.1324 25.5533 23.3645 29.1278L23.3699 29.1386C24.4721 32.3368 21.8129 35.5728 18.4604 35.1125H18.4522C14.7071 34.5952 12.0099 38.622 13.9164 41.8906L13.9245 41.9014C15.6278 44.8233 13.6483 48.5143 10.2768 48.7174H10.2714C6.49376 48.9422 4.63879 53.4212 7.14638 56.2537L7.1518 56.2591C9.39401 58.7911 8.18083 62.7962 4.91229 63.6574H4.90146C2.73236 64.2315 1.51647 66.1352 1.51647 68.0687C1.51647 69.3956 2.08786 70.7361 3.31729 71.6649C6.01444 73.7094 5.60824 77.877 2.56717 79.3583L2.55093 79.3691C-0.850309 81.0264 -0.850309 85.8683 2.55093 87.5256L2.56447 87.5337C4.238 88.3488 5.11268 89.979 5.11268 91.6173C5.11268 92.9605 4.52776 94.3091 3.31458 95.2271C0.297879 97.5126 1.24026 102.268 4.89875 103.229H4.90958C8.17813 104.093 9.39401 108.098 7.14909 110.63L7.14368 110.636C4.63337 113.468 6.49105 117.947 10.2687 118.175H10.2741C13.6483 118.375 15.6251 122.066 13.9218 124.988L13.9164 124.999C12.0099 128.265 14.7071 132.294 18.4522 131.78H18.4604C21.2875 131.39 23.6191 133.632 23.6218 136.261C23.6218 136.751 23.5405 137.252 23.3699 137.753L23.3645 137.764C22.1324 141.339 25.5553 144.764 29.1325 143.532L29.1434 143.527C32.3388 142.425 35.5776 145.084 35.1145 148.436V148.445C34.6 152.19 38.624 154.89 41.8953 152.98L41.9061 152.975C44.828 151.269 48.519 153.248 48.7194 156.623C48.9469 160.403 53.4259 162.261 56.2585 159.75L56.2639 159.745C58.7932 157.503 62.801 158.716 63.6621 161.984V161.995C64.2362 164.164 66.1399 165.38 68.0734 165.38C69.4003 165.38 70.7408 164.809 71.6696 163.579C73.7142 160.882 77.8818 161.288 79.363 164.332L79.3739 164.349C81.0311 167.747 85.8703 167.747 87.5276 164.349L87.5385 164.332C88.3536 162.659 89.9838 161.784 91.6248 161.784C92.9653 161.784 94.3138 162.369 95.2318 163.582C97.5147 166.599 102.273 165.656 103.234 161.998V161.987C104.098 158.719 108.1 157.503 110.635 159.748L110.64 159.753C113.473 162.263 117.952 160.406 118.177 156.628C118.38 153.248 122.071 151.272 124.993 152.978L125.003 152.983C128.269 154.89 132.299 152.192 131.784 148.447V148.439C131.321 145.087 134.557 142.427 137.755 143.532H137.769C138.83 143.9 139.876 143.854 140.794 143.519C142.966 142.72 144.406 140.28 143.537 137.767L143.532 137.756C142.429 134.558 145.089 131.319 148.441 131.782H148.449C152.194 132.297 154.892 128.273 152.985 125.001L152.977 124.991C151.274 122.069 153.251 118.378 156.625 118.177H156.63C160.408 117.95 162.263 113.474 159.755 110.638L159.75 110.633C157.507 108.104 158.721 104.096 161.989 103.235H162C164.169 102.663 165.385 100.76 165.385 98.8233C165.385 97.4964 164.814 96.1559 163.584 95.2271C160.887 93.1826 161.293 89.015 164.334 87.5337V87.531ZM136.001 133.911C135.665 134.265 135.318 134.615 134.972 134.964C121.21 148.726 102.914 156.303 83.4548 156.303C63.9952 156.303 46.182 148.924 32.485 135.506C32.3036 135.327 32.1195 135.148 31.938 134.967C18.176 121.205 10.5964 102.91 10.5964 83.4473C10.5964 63.985 18.176 45.6926 31.938 31.9306C45.6973 18.1686 63.9952 10.5889 83.4548 10.5889C91.8604 10.5889 100.049 12.0025 107.748 14.7186C117.876 18.2904 127.156 24.1126 134.972 31.9279C138.887 35.8436 142.305 40.1304 145.189 44.7069C152.435 56.2023 156.313 69.5256 156.313 83.4446C156.313 102.414 149.113 120.276 136.001 133.911Z" fill="#3C3C3B"/>
<path d="M83.5781 156.07C123.619 156.07 156.078 123.611 156.078 83.5703C156.078 43.5297 123.619 11.0703 83.5781 11.0703C43.5375 11.0703 11.0781 43.5297 11.0781 83.5703C11.0781 123.611 43.5375 156.07 83.5781 156.07Z" fill="#3C3C3B"/>
<path d="M111.234 128.07V118.692H112.458V128.07H111.234ZM111.234 116.73V114.93H112.458V116.73H111.234Z" fill="white"/>
<path d="M108.645 128.069H107.421V122.831C107.421 121.739 107.247 120.935 106.899 120.419C106.551 119.903 106.035 119.645 105.351 119.645C104.643 119.645 104.007 119.897 103.443 120.401C102.891 120.905 102.501 121.553 102.273 122.345V128.069H101.049V122.831C101.049 121.727 100.881 120.923 100.545 120.419C100.209 119.903 99.6933 119.645 98.9973 119.645C98.3013 119.645 97.6713 119.891 97.1073 120.383C96.5433 120.875 96.1473 121.523 95.9193 122.327V128.069H94.6953V118.691H95.8113V120.815C96.2073 120.083 96.7113 119.519 97.3233 119.123C97.9473 118.727 98.6373 118.529 99.3933 118.529C100.173 118.529 100.803 118.751 101.283 119.195C101.763 119.639 102.057 120.221 102.165 120.941C102.597 120.149 103.113 119.549 103.713 119.141C104.325 118.733 105.015 118.529 105.783 118.529C106.311 118.529 106.755 118.625 107.115 118.817C107.487 119.009 107.781 119.285 107.997 119.645C108.225 119.993 108.387 120.419 108.483 120.923C108.591 121.415 108.645 121.967 108.645 122.579V128.069Z" fill="white"/>
<path d="M88.1785 128.249C87.5065 128.249 86.8825 128.123 86.3065 127.871C85.7305 127.607 85.2325 127.253 84.8125 126.809C84.3925 126.353 84.0625 125.831 83.8225 125.243C83.5945 124.655 83.4805 124.025 83.4805 123.353C83.4805 122.477 83.6785 121.673 84.0745 120.941C84.4825 120.209 85.0405 119.627 85.7485 119.195C86.4565 118.751 87.2605 118.529 88.1605 118.529C89.0845 118.529 89.8885 118.751 90.5725 119.195C91.2685 119.639 91.8145 120.227 92.2105 120.959C92.6065 121.679 92.8045 122.471 92.8045 123.335C92.8045 123.431 92.8045 123.527 92.8045 123.623C92.8045 123.707 92.7985 123.773 92.7865 123.821H84.7585C84.8185 124.493 85.0045 125.093 85.3165 125.621C85.6405 126.137 86.0545 126.551 86.5585 126.863C87.0745 127.163 87.6325 127.313 88.2325 127.313C88.8445 127.313 89.4205 127.157 89.9605 126.845C90.5125 126.533 90.8965 126.125 91.1125 125.621L92.1745 125.909C91.9825 126.353 91.6885 126.755 91.2925 127.115C90.8965 127.475 90.4285 127.757 89.8885 127.961C89.3605 128.153 88.7905 128.249 88.1785 128.249ZM84.7225 122.939H91.6525C91.6045 122.255 91.4185 121.655 91.0945 121.139C90.7825 120.623 90.3685 120.221 89.8525 119.933C89.3485 119.633 88.7905 119.483 88.1785 119.483C87.5665 119.483 87.0085 119.633 86.5045 119.933C86.0005 120.221 85.5865 120.629 85.2625 121.157C84.9505 121.673 84.7705 122.267 84.7225 122.939Z" fill="white"/>
<path d="M82.7594 127.619C82.6634 127.655 82.5134 127.721 82.3094 127.817C82.1054 127.913 81.8594 127.997 81.5714 128.069C81.2834 128.141 80.9714 128.177 80.6354 128.177C80.2874 128.177 79.9574 128.111 79.6454 127.979C79.3454 127.847 79.1054 127.649 78.9254 127.385C78.7454 127.109 78.6554 126.773 78.6554 126.377V119.663H77.3594V118.691H78.6554V115.523H79.8794V118.691H82.0394V119.663H79.8794V126.035C79.9034 126.371 80.0234 126.623 80.2394 126.791C80.4674 126.959 80.7254 127.043 81.0134 127.043C81.3494 127.043 81.6554 126.989 81.9314 126.881C82.2074 126.761 82.3754 126.677 82.4354 126.629L82.7594 127.619Z" fill="white"/>
<path d="M72.6372 128.249C71.8692 128.249 71.1552 128.123 70.4952 127.871C69.8352 127.619 69.2652 127.235 68.7852 126.719L69.2892 125.855C69.8172 126.347 70.3452 126.707 70.8732 126.935C71.4132 127.151 71.9832 127.259 72.5832 127.259C73.3152 127.259 73.9092 127.115 74.3652 126.827C74.8212 126.527 75.0492 126.101 75.0492 125.549C75.0492 125.177 74.9352 124.895 74.7072 124.703C74.4912 124.499 74.1732 124.337 73.7532 124.217C73.3452 124.085 72.8532 123.947 72.2772 123.803C71.6292 123.623 71.0832 123.437 70.6392 123.245C70.2072 123.041 69.8772 122.789 69.6492 122.489C69.4332 122.177 69.3252 121.775 69.3252 121.283C69.3252 120.671 69.4752 120.167 69.7752 119.771C70.0872 119.363 70.5072 119.057 71.0352 118.853C71.5752 118.637 72.1752 118.529 72.8352 118.529C73.5552 118.529 74.1912 118.643 74.7432 118.871C75.2952 119.099 75.7452 119.417 76.0932 119.825L75.4992 120.653C75.1632 120.269 74.7612 119.987 74.2932 119.807C73.8372 119.615 73.3272 119.519 72.7632 119.519C72.3792 119.519 72.0132 119.573 71.6652 119.681C71.3172 119.777 71.0292 119.945 70.8012 120.185C70.5852 120.413 70.4772 120.731 70.4772 121.139C70.4772 121.475 70.5612 121.739 70.7292 121.931C70.8972 122.111 71.1492 122.267 71.4852 122.399C71.8212 122.519 72.2352 122.651 72.7272 122.795C73.4352 122.987 74.0532 123.185 74.5812 123.389C75.1092 123.581 75.5172 123.833 75.8052 124.145C76.0932 124.457 76.2372 124.895 76.2372 125.459C76.2372 126.335 75.9072 127.019 75.2472 127.511C74.5872 128.003 73.7172 128.249 72.6372 128.249Z" fill="white"/>
<path d="M65.6367 128.07V118.692H66.8607V128.07H65.6367ZM65.6367 116.73V114.93H66.8607V116.73H65.6367Z" fill="white"/>
<path d="M62.4257 117.683C62.2457 117.479 62.0357 117.299 61.7957 117.143C61.5557 116.975 61.2857 116.831 60.9857 116.711C60.6857 116.591 60.3617 116.495 60.0137 116.423C59.6777 116.351 59.3177 116.315 58.9337 116.315C57.8177 116.315 56.9957 116.531 56.4677 116.963C55.9517 117.383 55.6937 117.959 55.6937 118.691C55.6937 119.195 55.8137 119.591 56.0537 119.879C56.3057 120.167 56.6957 120.401 57.2237 120.581C57.7517 120.761 58.4237 120.947 59.2397 121.139C60.1517 121.331 60.9377 121.559 61.5977 121.823C62.2577 122.087 62.7677 122.447 63.1277 122.903C63.4877 123.347 63.6677 123.953 63.6677 124.721C63.6677 125.309 63.5537 125.819 63.3257 126.251C63.0977 126.683 62.7797 127.043 62.3717 127.331C61.9637 127.619 61.4777 127.835 60.9137 127.979C60.3497 128.111 59.7317 128.177 59.0597 128.177C58.3997 128.177 57.7637 128.111 57.1517 127.979C56.5517 127.835 55.9817 127.631 55.4417 127.367C54.9017 127.091 54.3977 126.743 53.9297 126.323L54.5597 125.297C54.7877 125.537 55.0577 125.765 55.3697 125.981C55.6937 126.185 56.0477 126.371 56.4317 126.539C56.8277 126.707 57.2477 126.839 57.6917 126.935C58.1477 127.019 58.6157 127.061 59.0957 127.061C60.1157 127.061 60.9077 126.875 61.4717 126.503C62.0477 126.131 62.3357 125.579 62.3357 124.847C62.3357 124.319 62.1917 123.899 61.9037 123.587C61.6157 123.263 61.1837 122.999 60.6077 122.795C60.0317 122.591 59.3237 122.393 58.4837 122.201C57.5957 121.997 56.8457 121.769 56.2337 121.517C55.6217 121.265 55.1597 120.935 54.8477 120.527C54.5477 120.107 54.3977 119.555 54.3977 118.871C54.3977 118.079 54.5897 117.413 54.9737 116.873C55.3697 116.321 55.9097 115.907 56.5937 115.631C57.2777 115.343 58.0637 115.199 58.9517 115.199C59.5157 115.199 60.0377 115.259 60.5177 115.379C61.0097 115.487 61.4597 115.649 61.8677 115.865C62.2877 116.081 62.6777 116.351 63.0377 116.675L62.4257 117.683Z" fill="white"/>
<path d="M121.562 101.369C121.562 100.781 121.73 100.277 122.066 99.8573C122.402 99.4253 122.864 99.0953 123.452 98.8673C124.052 98.6273 124.742 98.5073 125.522 98.5073C125.978 98.5073 126.452 98.5433 126.944 98.6153C127.436 98.6873 127.874 98.7953 128.258 98.9393V98.1473C128.258 97.3553 128.024 96.7253 127.556 96.2573C127.088 95.7893 126.44 95.5553 125.612 95.5553C125.108 95.5553 124.61 95.6513 124.118 95.8433C123.638 96.0233 123.134 96.2933 122.606 96.6533L122.138 95.7893C122.75 95.3693 123.35 95.0573 123.938 94.8533C124.526 94.6373 125.126 94.5293 125.738 94.5293C126.89 94.5293 127.802 94.8593 128.474 95.5193C129.146 96.1793 129.482 97.0913 129.482 98.2553V102.593C129.482 102.761 129.518 102.887 129.59 102.971C129.662 103.043 129.776 103.085 129.932 103.097V104.069C129.8 104.081 129.686 104.093 129.59 104.105C129.494 104.117 129.422 104.117 129.374 104.105C129.074 104.093 128.846 103.997 128.69 103.817C128.534 103.637 128.45 103.445 128.438 103.241L128.421 102.557C128.001 103.097 127.455 103.517 126.783 103.817C126.111 104.105 125.426 104.249 124.73 104.249C124.13 104.249 123.584 104.123 123.092 103.871C122.612 103.607 122.234 103.259 121.958 102.827C121.694 102.383 121.562 101.897 121.562 101.369ZM127.844 102.089C127.976 101.921 128.078 101.759 128.15 101.603C128.222 101.447 128.258 101.309 128.258 101.189V99.8213C127.85 99.6653 127.424 99.5453 126.98 99.4613C126.548 99.3773 126.11 99.3353 125.666 99.3353C124.79 99.3353 124.082 99.5093 123.542 99.8573C123.002 100.205 122.732 100.679 122.732 101.279C122.732 101.627 122.822 101.957 123.002 102.269C123.182 102.569 123.446 102.821 123.794 103.025C124.142 103.217 124.551 103.313 125.019 103.313C125.607 103.313 126.153 103.199 126.657 102.971C127.173 102.743 127.568 102.449 127.844 102.089Z" fill="white"/>
<path d="M119.727 104.069H118.503V98.8313C118.503 97.7393 118.329 96.9353 117.981 96.4193C117.633 95.9033 117.117 95.6453 116.433 95.6453C115.725 95.6453 115.089 95.8973 114.525 96.4013C113.973 96.9053 113.583 97.5533 113.355 98.3453V104.069H112.131V98.8313C112.131 97.7273 111.963 96.9233 111.627 96.4193C111.291 95.9033 110.775 95.6453 110.079 95.6453C109.383 95.6453 108.753 95.8913 108.189 96.3833C107.625 96.8753 107.229 97.5233 107.001 98.3273V104.069H105.777V94.6913H106.893V96.8153C107.289 96.0833 107.793 95.5193 108.405 95.1233C109.029 94.7273 109.719 94.5293 110.475 94.5293C111.255 94.5293 111.885 94.7513 112.365 95.1953C112.845 95.6393 113.139 96.2213 113.247 96.9413C113.679 96.1493 114.195 95.5493 114.795 95.1413C115.407 94.7333 116.097 94.5293 116.865 94.5293C117.393 94.5293 117.837 94.6253 118.197 94.8173C118.569 95.0093 118.863 95.2853 119.079 95.6453C119.307 95.9933 119.469 96.4193 119.565 96.9233C119.673 97.4153 119.727 97.9673 119.727 98.5793V104.069Z" fill="white"/>
<path d="M95.2109 101.369C95.2109 100.781 95.3789 100.277 95.7149 99.8573C96.0509 99.4253 96.5129 99.0953 97.1009 98.8673C97.7009 98.6273 98.3909 98.5073 99.1709 98.5073C99.6269 98.5073 100.101 98.5433 100.593 98.6153C101.085 98.6873 101.523 98.7953 101.907 98.9393V98.1473C101.907 97.3553 101.673 96.7253 101.205 96.2573C100.737 95.7893 100.089 95.5553 99.2609 95.5553C98.7569 95.5553 98.2589 95.6513 97.7669 95.8433C97.2869 96.0233 96.7829 96.2933 96.2549 96.6533L95.7869 95.7893C96.3989 95.3693 96.9989 95.0573 97.5869 94.8533C98.1749 94.6373 98.7749 94.5293 99.3869 94.5293C100.539 94.5293 101.451 94.8593 102.123 95.5193C102.795 96.1793 103.131 97.0913 103.131 98.2553V102.593C103.131 102.761 103.167 102.887 103.239 102.971C103.311 103.043 103.425 103.085 103.581 103.097V104.069C103.449 104.081 103.335 104.093 103.239 104.105C103.143 104.117 103.071 104.117 103.023 104.105C102.723 104.093 102.495 103.997 102.339 103.817C102.183 103.637 102.099 103.445 102.087 103.241L102.069 102.557C101.649 103.097 101.103 103.517 100.431 103.817C99.7589 104.105 99.0749 104.249 98.3789 104.249C97.7789 104.249 97.2329 104.123 96.7409 103.871C96.2609 103.607 95.8829 103.259 95.6069 102.827C95.3429 102.383 95.2109 101.897 95.2109 101.369ZM101.493 102.089C101.625 101.921 101.727 101.759 101.799 101.603C101.871 101.447 101.907 101.309 101.907 101.189V99.8213C101.499 99.6653 101.073 99.5453 100.629 99.4613C100.197 99.3773 99.7589 99.3353 99.3149 99.3353C98.4389 99.3353 97.7309 99.5093 97.1909 99.8573C96.6509 100.205 96.3809 100.679 96.3809 101.279C96.3809 101.627 96.4709 101.957 96.6509 102.269C96.8309 102.569 97.0949 102.821 97.4429 103.025C97.7909 103.217 98.1989 103.313 98.6669 103.313C99.2549 103.313 99.8009 103.199 100.305 102.971C100.821 102.743 101.217 102.449 101.493 102.089Z" fill="white"/>
<path d="M91.1172 90.9297H92.3412V101.946C92.3412 102.414 92.4252 102.72 92.5932 102.864C92.7612 103.008 92.9652 103.08 93.2052 103.08C93.4212 103.08 93.6372 103.056 93.8532 103.008C94.0692 102.96 94.2552 102.912 94.4112 102.864L94.6272 103.854C94.3992 103.95 94.1172 104.028 93.7812 104.088C93.4572 104.148 93.1752 104.178 92.9352 104.178C92.3832 104.178 91.9392 104.016 91.6032 103.692C91.2792 103.368 91.1172 102.924 91.1172 102.36V90.9297Z" fill="white"/>
<path d="M84.7411 104.249C83.9611 104.249 83.2591 104.045 82.6351 103.637C82.0231 103.229 81.5371 102.725 81.1771 102.125V107.903H79.9531V94.6913H81.0511V96.5093C81.4231 95.9213 81.9211 95.4473 82.5451 95.0873C83.1691 94.7153 83.8351 94.5293 84.5431 94.5293C85.1911 94.5293 85.7851 94.6673 86.3251 94.9433C86.8651 95.2073 87.3331 95.5673 87.7291 96.0233C88.1251 96.4793 88.4311 97.0013 88.6471 97.5893C88.8751 98.1653 88.9891 98.7653 88.9891 99.3893C88.9891 100.265 88.8091 101.075 88.4491 101.819C88.1011 102.551 87.6091 103.139 86.9731 103.583C86.3371 104.027 85.5931 104.249 84.7411 104.249ZM84.3991 103.169C84.9151 103.169 85.3771 103.067 85.7851 102.863C86.1931 102.647 86.5411 102.359 86.8291 101.999C87.1291 101.639 87.3571 101.237 87.5131 100.793C87.6691 100.337 87.7471 99.8693 87.7471 99.3893C87.7471 98.8853 87.6571 98.4053 87.4771 97.9493C87.3091 97.4933 87.0631 97.0913 86.7391 96.7433C86.4151 96.3953 86.0431 96.1193 85.6231 95.9153C85.2031 95.7113 84.7471 95.6093 84.2551 95.6093C83.9431 95.6093 83.6191 95.6693 83.2831 95.7893C82.9471 95.9093 82.6231 96.0833 82.3111 96.3113C82.0111 96.5273 81.7591 96.7733 81.5551 97.0493C81.3511 97.3253 81.2251 97.6193 81.1771 97.9313V100.811C81.3691 101.255 81.6271 101.657 81.9511 102.017C82.2751 102.365 82.6471 102.647 83.0671 102.863C83.4991 103.067 83.9431 103.169 84.3991 103.169Z" fill="white"/>
<path d="M69.3906 101.369C69.3906 100.781 69.5586 100.277 69.8946 99.8573C70.2306 99.4253 70.6926 99.0953 71.2806 98.8673C71.8806 98.6273 72.5706 98.5073 73.3506 98.5073C73.8066 98.5073 74.2806 98.5433 74.7726 98.6153C75.2646 98.6873 75.7026 98.7953 76.0866 98.9393V98.1473C76.0866 97.3553 75.8526 96.7253 75.3846 96.2573C74.9166 95.7893 74.2686 95.5553 73.4406 95.5553C72.9366 95.5553 72.4386 95.6513 71.9466 95.8433C71.4666 96.0233 70.9626 96.2933 70.4346 96.6533L69.9666 95.7893C70.5786 95.3693 71.1786 95.0573 71.7666 94.8533C72.3546 94.6373 72.9546 94.5293 73.5666 94.5293C74.7186 94.5293 75.6306 94.8593 76.3026 95.5193C76.9746 96.1793 77.3106 97.0913 77.3106 98.2553V102.593C77.3106 102.761 77.3466 102.887 77.4186 102.971C77.4906 103.043 77.6046 103.085 77.7606 103.097V104.069C77.6286 104.081 77.5146 104.093 77.4186 104.105C77.3226 104.117 77.2506 104.117 77.2026 104.105C76.9026 104.093 76.6746 103.997 76.5186 103.817C76.3626 103.637 76.2786 103.445 76.2666 103.241L76.2486 102.557C75.8286 103.097 75.2826 103.517 74.6106 103.817C73.9386 104.105 73.2546 104.249 72.5586 104.249C71.9586 104.249 71.4126 104.123 70.9206 103.871C70.4406 103.607 70.0626 103.259 69.7866 102.827C69.5226 102.383 69.3906 101.897 69.3906 101.369ZM75.6726 102.089C75.8046 101.921 75.9066 101.759 75.9786 101.603C76.0506 101.447 76.0866 101.309 76.0866 101.189V99.8213C75.6786 99.6653 75.2526 99.5453 74.8086 99.4613C74.3766 99.3773 73.9386 99.3353 73.4946 99.3353C72.6186 99.3353 71.9106 99.5093 71.3706 99.8573C70.8306 100.205 70.5606 100.679 70.5606 101.279C70.5606 101.627 70.6506 101.957 70.8306 102.269C71.0106 102.569 71.2746 102.821 71.6226 103.025C71.9706 103.217 72.3786 103.313 72.8466 103.313C73.4346 103.313 73.9806 103.199 74.4846 102.971C75.0006 102.743 75.3966 102.449 75.6726 102.089Z" fill="white"/>
<path d="M64.5239 104.249C63.7559 104.249 63.0419 104.123 62.3819 103.871C61.7219 103.619 61.1519 103.235 60.6719 102.719L61.1759 101.855C61.7039 102.347 62.2319 102.707 62.7599 102.935C63.2999 103.151 63.8699 103.259 64.4699 103.259C65.2019 103.259 65.7959 103.115 66.2519 102.827C66.7079 102.527 66.9359 102.101 66.9359 101.549C66.9359 101.177 66.8219 100.895 66.5939 100.703C66.3779 100.499 66.0599 100.337 65.6399 100.217C65.2319 100.085 64.7399 99.9473 64.1639 99.8033C63.5159 99.6233 62.9699 99.4373 62.5259 99.2453C62.0939 99.0413 61.7639 98.7893 61.5359 98.4893C61.3199 98.1773 61.2119 97.7753 61.2119 97.2833C61.2119 96.6713 61.3619 96.1673 61.6619 95.7713C61.9739 95.3633 62.3939 95.0573 62.9219 94.8533C63.4619 94.6373 64.0619 94.5293 64.7219 94.5293C65.4419 94.5293 66.0779 94.6433 66.6299 94.8713C67.1819 95.0993 67.6319 95.4173 67.9799 95.8253L67.3859 96.6533C67.0499 96.2693 66.6479 95.9873 66.1799 95.8073C65.7239 95.6153 65.2139 95.5193 64.6499 95.5193C64.2659 95.5193 63.8999 95.5733 63.5519 95.6813C63.2039 95.7773 62.9159 95.9453 62.6879 96.1853C62.4719 96.4133 62.3639 96.7313 62.3639 97.1393C62.3639 97.4753 62.4479 97.7393 62.6159 97.9313C62.7839 98.1113 63.0359 98.2673 63.3719 98.3993C63.7079 98.5193 64.1219 98.6513 64.6139 98.7953C65.3219 98.9873 65.9399 99.1853 66.4679 99.3893C66.9959 99.5813 67.4039 99.8333 67.6919 100.145C67.9799 100.457 68.1239 100.895 68.1239 101.459C68.1239 102.335 67.7939 103.019 67.1339 103.511C66.4739 104.003 65.6039 104.249 64.5239 104.249Z" fill="white"/>
<path d="M54.9324 104.249C54.2604 104.249 53.6364 104.123 53.0604 103.871C52.4844 103.607 51.9864 103.253 51.5664 102.809C51.1464 102.353 50.8164 101.831 50.5764 101.243C50.3484 100.655 50.2344 100.025 50.2344 99.3533C50.2344 98.4773 50.4324 97.6733 50.8284 96.9413C51.2364 96.2093 51.7944 95.6273 52.5024 95.1953C53.2104 94.7513 54.0144 94.5293 54.9144 94.5293C55.8384 94.5293 56.6424 94.7513 57.3264 95.1953C58.0224 95.6393 58.5684 96.2273 58.9644 96.9593C59.3604 97.6793 59.5584 98.4713 59.5584 99.3353C59.5584 99.4313 59.5584 99.5273 59.5584 99.6233C59.5584 99.7073 59.5524 99.7733 59.5404 99.8213H51.5124C51.5724 100.493 51.7584 101.093 52.0704 101.621C52.3944 102.137 52.8084 102.551 53.3124 102.863C53.8284 103.163 54.3864 103.313 54.9864 103.313C55.5984 103.313 56.1744 103.157 56.7144 102.845C57.2664 102.533 57.6504 102.125 57.8664 101.621L58.9284 101.909C58.7364 102.353 58.4424 102.755 58.0464 103.115C57.6504 103.475 57.1824 103.757 56.6424 103.961C56.1144 104.153 55.5444 104.249 54.9324 104.249ZM51.4764 98.9393H58.4064C58.3584 98.2553 58.1724 97.6553 57.8484 97.1393C57.5364 96.6233 57.1224 96.2213 56.6064 95.9333C56.1024 95.6333 55.5444 95.4833 54.9324 95.4833C54.3204 95.4833 53.7624 95.6333 53.2584 95.9333C52.7544 96.2213 52.3404 96.6293 52.0164 97.1573C51.7044 97.6733 51.5244 98.2673 51.4764 98.9393Z" fill="white"/>
<path d="M48.0644 91.2891V104.069H46.8224V98.0931H39.2444V104.069H37.9844V91.2891H39.2444V96.9771H46.8224V91.2891H48.0644Z" fill="white"/>
<path d="M112.121 81.0697V71.6917H113.345V81.0697H112.121ZM112.121 69.7297V67.9297H113.345V69.7297H112.121Z" fill="white"/>
<path d="M102.473 80.2414L108.755 72.6094H102.617V71.6914H110.141V72.5194L103.895 80.1514H110.123V81.0694H102.473V80.2414Z" fill="white"/>
<path d="M99.0508 81.0705V68.2905H100.311V81.0705H99.0508ZM99.1228 66.3105V64.5645H100.239V66.3105H99.1228Z" fill="white"/>
<path d="M91.3601 81.0697L87.8861 76.2637L85.8881 78.1357V81.0697H84.6641V67.9297H85.8881V76.8217L91.1981 71.7097H92.5481L88.7141 75.5437L92.6921 81.0697H91.3601Z" fill="white"/>
<path d="M74.1016 78.3693C74.1016 77.7813 74.2696 77.2773 74.6056 76.8573C74.9416 76.4253 75.4036 76.0953 75.9916 75.8673C76.5916 75.6273 77.2816 75.5073 78.0616 75.5073C78.5176 75.5073 78.9916 75.5433 79.4836 75.6153C79.9756 75.6873 80.4136 75.7953 80.7976 75.9393V75.1473C80.7976 74.3553 80.5636 73.7253 80.0956 73.2573C79.6276 72.7893 78.9796 72.5553 78.1516 72.5553C77.6476 72.5553 77.1496 72.6513 76.6576 72.8433C76.1776 73.0233 75.6736 73.2933 75.1456 73.6533L74.6776 72.7893C75.2896 72.3693 75.8896 72.0573 76.4776 71.8533C77.0656 71.6373 77.6656 71.5293 78.2776 71.5293C79.4296 71.5293 80.3416 71.8593 81.0136 72.5193C81.6856 73.1793 82.0216 74.0913 82.0216 75.2553V79.5933C82.0216 79.7613 82.0576 79.8873 82.1296 79.9713C82.2016 80.0433 82.3156 80.0853 82.4716 80.0973V81.0693C82.3396 81.0813 82.2256 81.0933 82.1296 81.1053C82.0336 81.1173 81.9616 81.1173 81.9136 81.1053C81.6136 81.0933 81.3856 80.9973 81.2296 80.8173C81.0736 80.6373 80.9896 80.4453 80.9776 80.2413L80.9596 79.5573C80.5396 80.0973 79.9936 80.5173 79.3216 80.8173C78.6496 81.1053 77.9656 81.2493 77.2696 81.2493C76.6696 81.2493 76.1236 81.1233 75.6316 80.8713C75.1516 80.6073 74.7736 80.2593 74.4976 79.8273C74.2336 79.3833 74.1016 78.8973 74.1016 78.3693ZM80.3836 79.0893C80.5156 78.9213 80.6176 78.7593 80.6896 78.6033C80.7616 78.4473 80.7976 78.3093 80.7976 78.1893V76.8213C80.3896 76.6653 79.9636 76.5453 79.5196 76.4613C79.0876 76.3773 78.6496 76.3353 78.2056 76.3353C77.3296 76.3353 76.6216 76.5093 76.0816 76.8573C75.5416 77.2053 75.2716 77.6793 75.2716 78.2793C75.2716 78.6273 75.3616 78.9573 75.5416 79.2693C75.7216 79.5693 75.9856 79.8213 76.3336 80.0253C76.6816 80.2173 77.0896 80.3133 77.5576 80.3133C78.1456 80.3133 78.6916 80.1993 79.1956 79.9713C79.7116 79.7433 80.1076 79.4493 80.3836 79.0893Z" fill="white"/>
<path d="M65.8895 83.9494C66.0575 83.9614 66.2195 83.9674 66.3755 83.9674C66.5315 83.9794 66.6455 83.9734 66.7175 83.9494C66.8615 83.9254 66.9995 83.8414 67.1315 83.6974C67.2635 83.5534 67.4195 83.2774 67.5995 82.8694C67.7795 82.4614 68.0315 81.8614 68.3555 81.0694L64.2695 71.6914H65.5655L69.0035 79.8094L72.1715 71.6914H73.3955L68.5355 83.7874C68.4515 84.0154 68.3255 84.2254 68.1575 84.4174C67.9895 84.6214 67.7795 84.7774 67.5275 84.8854C67.2875 85.0054 66.9875 85.0714 66.6275 85.0834C66.5195 85.0954 66.4055 85.0954 66.2855 85.0834C66.1775 85.0834 66.0455 85.0714 65.8895 85.0474V83.9494Z" fill="white"/>
<path d="M58.0296 68.2891H59.0916L64.4016 81.0691H63.0696L61.4136 77.0731H55.6716L54.0336 81.0691H52.6836L58.0296 68.2891ZM61.1256 76.0831L58.5516 69.7651L55.9416 76.0831H61.1256Z" fill="white"/>
<path d="M112.318 57.0693H111.094V51.8313C111.094 50.7273 110.932 49.9233 110.608 49.4193C110.284 48.9033 109.774 48.6453 109.078 48.6453C108.598 48.6453 108.124 48.7653 107.656 49.0053C107.188 49.2333 106.774 49.5513 106.414 49.9593C106.066 50.3553 105.814 50.8113 105.658 51.3273V57.0693H104.434V47.6913H105.55V49.8153C105.802 49.3593 106.132 48.9633 106.54 48.6273C106.948 48.2793 107.41 48.0093 107.926 47.8173C108.442 47.6253 108.976 47.5293 109.528 47.5293C110.044 47.5293 110.482 47.6253 110.842 47.8173C111.202 48.0093 111.49 48.2853 111.706 48.6453C111.922 48.9933 112.078 49.4193 112.174 49.9233C112.27 50.4153 112.318 50.9673 112.318 51.5793V57.0693Z" fill="white"/>
<path d="M97.7221 57.2493C97.0501 57.2493 96.4261 57.1233 95.8501 56.8713C95.2861 56.6073 94.7941 56.2533 94.3741 55.8093C93.9661 55.3533 93.6481 54.8373 93.4201 54.2613C93.1921 53.6733 93.0781 53.0553 93.0781 52.4073C93.0781 51.7353 93.1921 51.1113 93.4201 50.5353C93.6481 49.9473 93.9721 49.4313 94.3921 48.9873C94.8121 48.5313 95.3041 48.1773 95.8681 47.9253C96.4441 47.6613 97.0681 47.5293 97.7401 47.5293C98.4121 47.5293 99.0301 47.6613 99.5941 47.9253C100.158 48.1773 100.65 48.5313 101.07 48.9873C101.49 49.4313 101.814 49.9473 102.042 50.5353C102.27 51.1113 102.384 51.7353 102.384 52.4073C102.384 53.0553 102.27 53.6733 102.042 54.2613C101.814 54.8373 101.49 55.3533 101.07 55.8093C100.662 56.2533 100.17 56.6073 99.5941 56.8713C99.0301 57.1233 98.4061 57.2493 97.7221 57.2493ZM94.3201 52.4253C94.3201 53.1213 94.4701 53.7573 94.7701 54.3333C95.0821 54.8973 95.4961 55.3473 96.0121 55.6833C96.5281 56.0073 97.0981 56.1693 97.7221 56.1693C98.3461 56.1693 98.9161 56.0013 99.4321 55.6653C99.9481 55.3293 100.362 54.8733 100.674 54.2973C100.986 53.7093 101.142 53.0733 101.142 52.3893C101.142 51.6933 100.986 51.0573 100.674 50.4813C100.362 49.9053 99.9481 49.4493 99.4321 49.1133C98.9161 48.7773 98.3461 48.6093 97.7221 48.6093C97.0981 48.6093 96.5281 48.7833 96.0121 49.1313C95.5081 49.4793 95.1001 49.9413 94.7881 50.5173C94.4761 51.0813 94.3201 51.7173 94.3201 52.4253Z" fill="white"/>
<path d="M87.2072 57.2497C86.4752 57.2497 85.7972 57.0637 85.1732 56.6917C84.5492 56.3077 84.0632 55.8277 83.7152 55.2517V57.0697H82.6172V43.9297H83.8412V49.6537C84.2612 49.0177 84.7652 48.5077 85.3532 48.1237C85.9412 47.7277 86.6252 47.5297 87.4052 47.5297C88.0652 47.5297 88.6532 47.6677 89.1692 47.9437C89.6972 48.2197 90.1472 48.5917 90.5192 49.0597C90.8912 49.5157 91.1732 50.0377 91.3652 50.6257C91.5572 51.2017 91.6532 51.7957 91.6532 52.4077C91.6532 53.0677 91.5392 53.6857 91.3112 54.2617C91.0952 54.8377 90.7832 55.3537 90.3752 55.8097C89.9672 56.2537 89.4932 56.6077 88.9532 56.8717C88.4252 57.1237 87.8432 57.2497 87.2072 57.2497ZM86.9192 56.1697C87.4232 56.1697 87.8912 56.0677 88.3232 55.8637C88.7552 55.6597 89.1272 55.3777 89.4392 55.0177C89.7512 54.6577 89.9912 54.2557 90.1592 53.8117C90.3272 53.3557 90.4112 52.8877 90.4112 52.4077C90.4112 51.7477 90.2672 51.1297 89.9792 50.5537C89.7032 49.9657 89.3132 49.4977 88.8092 49.1497C88.3172 48.7897 87.7352 48.6097 87.0632 48.6097C86.5832 48.6097 86.1332 48.7177 85.7132 48.9337C85.3052 49.1497 84.9392 49.4377 84.6152 49.7977C84.3032 50.1457 84.0452 50.5297 83.8412 50.9497V53.8657C83.8892 54.1897 84.0152 54.4957 84.2192 54.7837C84.4232 55.0597 84.6752 55.2997 84.9752 55.5037C85.2872 55.7077 85.6112 55.8697 85.9472 55.9897C86.2832 56.1097 86.6072 56.1697 86.9192 56.1697Z" fill="white"/>
<path d="M80.9886 48.7707C80.1726 48.7947 79.4526 49.0227 78.8286 49.4547C78.2166 49.8867 77.7846 50.4807 77.5326 51.2367V57.0687H76.3086V47.6907H77.4606V49.9407C77.7846 49.2807 78.2106 48.7467 78.7386 48.3387C79.2786 47.9307 79.8486 47.7027 80.4486 47.6547C80.5686 47.6427 80.6706 47.6367 80.7546 47.6367C80.8506 47.6367 80.9286 47.6427 80.9886 47.6547V48.7707Z" fill="white"/>
<path d="M65.7422 54.3693C65.7422 53.7813 65.9102 53.2773 66.2462 52.8573C66.5822 52.4253 67.0442 52.0953 67.6322 51.8673C68.2322 51.6273 68.9222 51.5073 69.7022 51.5073C70.1582 51.5073 70.6322 51.5433 71.1242 51.6153C71.6162 51.6873 72.0542 51.7953 72.4382 51.9393V51.1473C72.4382 50.3553 72.2042 49.7253 71.7362 49.2573C71.2682 48.7893 70.6202 48.5553 69.7922 48.5553C69.2882 48.5553 68.7902 48.6513 68.2982 48.8433C67.8182 49.0233 67.3142 49.2933 66.7862 49.6533L66.3182 48.7893C66.9302 48.3693 67.5302 48.0573 68.1182 47.8533C68.7062 47.6373 69.3062 47.5293 69.9182 47.5293C71.0702 47.5293 71.9822 47.8593 72.6542 48.5193C73.3262 49.1793 73.6622 50.0913 73.6622 51.2553V55.5933C73.6622 55.7613 73.6982 55.8873 73.7702 55.9713C73.8422 56.0433 73.9562 56.0853 74.1122 56.0973V57.0693C73.9802 57.0813 73.8662 57.0933 73.7702 57.1053C73.6742 57.1173 73.6022 57.1173 73.5542 57.1053C73.2542 57.0933 73.0262 56.9973 72.8702 56.8173C72.7142 56.6373 72.6302 56.4453 72.6182 56.2413L72.6002 55.5573C72.1802 56.0973 71.6342 56.5173 70.9622 56.8173C70.2902 57.1053 69.6062 57.2493 68.9102 57.2493C68.3102 57.2493 67.7642 57.1233 67.2722 56.8713C66.7922 56.6073 66.4142 56.2593 66.1382 55.8273C65.8742 55.3833 65.7422 54.8973 65.7422 54.3693ZM72.0242 55.0893C72.1562 54.9213 72.2582 54.7593 72.3302 54.6033C72.4022 54.4473 72.4382 54.3093 72.4382 54.1893V52.8213C72.0302 52.6653 71.6042 52.5453 71.1602 52.4613C70.7282 52.3773 70.2902 52.3353 69.8462 52.3353C68.9702 52.3353 68.2622 52.5093 67.7222 52.8573C67.1822 53.2053 66.9122 53.6793 66.9122 54.2793C66.9122 54.6273 67.0022 54.9573 67.1822 55.2693C67.3622 55.5693 67.6262 55.8213 67.9742 56.0253C68.3222 56.2173 68.7302 56.3133 69.1982 56.3133C69.7862 56.3133 70.3322 56.1993 70.8362 55.9713C71.3522 55.7433 71.7482 55.4493 72.0242 55.0893Z" fill="white"/>
<path d="M55.1836 57.0691V44.3071H56.4436V51.7231L63.4816 44.2891H64.8676L59.6476 49.9051L65.1376 57.0691H63.7156L58.8376 50.6611L56.4436 53.1451V57.0691H55.1836Z" fill="white"/>
</svg>
