<svg width="167" height="167" viewBox="0 0 167 167" fill="none" xmlns="http://www.w3.org/2000/svg">
<path d="M83.1868 159.561C125.005 159.561 158.905 125.661 158.905 83.8431C158.905 42.0251 125.005 8.125 83.1868 8.125C41.3689 8.125 7.46875 42.0251 7.46875 83.8431C7.46875 125.661 41.3689 159.561 83.1868 159.561Z" fill="white"/>
<path d="M83.4533 153.137C121.945 153.137 153.149 121.933 153.149 83.4416C153.149 44.9498 121.945 13.7461 83.4533 13.7461C44.9616 13.7461 13.7578 44.9498 13.7578 83.4416C13.7578 121.933 44.9616 153.137 83.4533 153.137Z" fill="#D7EEF0"/>
<path d="M164.334 87.531L164.351 87.5229C167.752 85.8656 167.752 81.0237 164.351 79.3664L164.337 79.3556C162.663 78.5405 161.789 76.9103 161.789 75.2719C161.789 73.9288 162.374 72.5802 163.587 71.6622C166.604 69.3766 165.661 64.6214 162.003 63.6601H161.992C158.723 62.7962 157.507 58.7938 159.752 56.2619L159.758 56.2537C162.268 53.4212 160.41 48.9449 156.633 48.7174H156.627C153.253 48.5143 151.276 44.826 152.98 41.9041L152.985 41.8906C154.19 39.8271 153.557 37.463 151.986 36.128C151.068 35.3508 149.83 34.9202 148.449 35.1125H148.441C145.089 35.5755 142.429 32.3395 143.532 29.1413L143.537 29.1305C144.769 25.556 141.346 22.1277 137.769 23.3598L137.755 23.3652C134.56 24.4674 131.321 21.8081 131.784 18.4583V18.4502C132.299 14.7023 128.275 12.0052 125.003 13.9116L124.993 13.9197C122.071 15.6231 118.38 13.6462 118.179 10.2721V10.2667C117.952 6.48902 113.473 4.63405 110.64 7.14435L110.635 7.14977C108.942 8.64729 106.586 8.60125 104.956 7.42598C104.149 6.84647 103.521 5.99075 103.237 4.90755V4.89943C102.663 2.73033 100.759 1.51444 98.8254 1.51444C97.4984 1.51444 96.158 2.08583 95.2291 3.31526C93.1846 6.01241 89.017 5.60621 87.5357 2.56514L87.5249 2.54889C85.8676 -0.849631 81.0284 -0.849631 79.3712 2.54889L79.3603 2.56514C78.5452 4.23868 76.9177 5.11336 75.2767 5.11336C73.9362 5.11336 72.5876 4.52573 71.6669 3.31255C69.3841 0.295848 64.6262 1.23823 63.6648 4.89943V4.90755C62.801 8.1761 58.7986 9.39198 56.2639 7.14977L56.2585 7.14435C53.4259 4.63405 48.9469 6.48902 48.7221 10.2667V10.2721C48.519 13.6462 44.828 15.6231 41.9061 13.9197L41.8953 13.9116C38.6295 12.0079 34.6 14.7023 35.1145 18.4502V18.4556C35.5776 21.8081 32.3415 24.4674 29.1434 23.3652L29.1325 23.3598C25.558 22.1277 22.1324 25.5533 23.3645 29.1278L23.3699 29.1386C24.4721 32.3368 21.8129 35.5728 18.4604 35.1125H18.4522C14.7071 34.5952 12.0099 38.622 13.9164 41.8906L13.9245 41.9014C15.6278 44.8233 13.6483 48.5143 10.2768 48.7174H10.2714C6.49376 48.9422 4.63879 53.4212 7.14638 56.2537L7.1518 56.2591C9.39401 58.7911 8.18083 62.7962 4.91229 63.6574H4.90146C2.73236 64.2315 1.51647 66.1352 1.51647 68.0687C1.51647 69.3956 2.08786 70.7361 3.31729 71.6649C6.01444 73.7094 5.60824 77.877 2.56717 79.3583L2.55093 79.3691C-0.850309 81.0264 -0.850309 85.8683 2.55093 87.5256L2.56447 87.5337C4.238 88.3488 5.11268 89.979 5.11268 91.6173C5.11268 92.9605 4.52776 94.3091 3.31458 95.2271C0.297879 97.5126 1.24026 102.268 4.89875 103.229H4.90958C8.17813 104.093 9.39401 108.098 7.14909 110.63L7.14368 110.636C4.63337 113.468 6.49105 117.947 10.2687 118.175H10.2741C13.6483 118.375 15.6251 122.066 13.9218 124.988L13.9164 124.999C12.0099 128.265 14.7071 132.294 18.4522 131.78H18.4604C21.2875 131.39 23.6191 133.632 23.6218 136.261C23.6218 136.751 23.5405 137.252 23.3699 137.753L23.3645 137.764C22.1324 141.339 25.5553 144.764 29.1325 143.532L29.1434 143.527C32.3388 142.425 35.5776 145.084 35.1145 148.436V148.445C34.6 152.19 38.624 154.89 41.8953 152.98L41.9061 152.975C44.828 151.269 48.519 153.248 48.7194 156.623C48.9469 160.403 53.4259 162.261 56.2585 159.75L56.2639 159.745C58.7932 157.503 62.801 158.716 63.6621 161.984V161.995C64.2362 164.164 66.1399 165.38 68.0734 165.38C69.4003 165.38 70.7408 164.809 71.6696 163.579C73.7142 160.882 77.8818 161.288 79.363 164.332L79.3739 164.349C81.0311 167.747 85.8703 167.747 87.5276 164.349L87.5385 164.332C88.3536 162.659 89.9838 161.784 91.6248 161.784C92.9653 161.784 94.3138 162.369 95.2318 163.582C97.5147 166.599 102.273 165.656 103.234 161.998V161.987C104.098 158.719 108.1 157.503 110.635 159.748L110.64 159.753C113.473 162.263 117.952 160.406 118.177 156.628C118.38 153.248 122.071 151.272 124.993 152.978L125.003 152.983C128.269 154.89 132.299 152.192 131.784 148.447V148.439C131.321 145.087 134.557 142.427 137.755 143.532H137.769C138.83 143.9 139.876 143.854 140.794 143.519C142.966 142.72 144.406 140.28 143.537 137.767L143.532 137.756C142.429 134.558 145.089 131.319 148.441 131.782H148.449C152.194 132.297 154.892 128.273 152.985 125.001L152.977 124.991C151.274 122.069 153.251 118.378 156.625 118.177H156.63C160.408 117.95 162.263 113.474 159.755 110.638L159.75 110.633C157.507 108.104 158.721 104.096 161.989 103.235H162C164.169 102.663 165.385 100.76 165.385 98.8233C165.385 97.4964 164.814 96.1559 163.584 95.2271C160.887 93.1826 161.293 89.015 164.334 87.5337V87.531ZM136.001 133.911C135.665 134.265 135.318 134.615 134.972 134.964C121.21 148.726 102.914 156.303 83.4548 156.303C63.9952 156.303 46.182 148.924 32.485 135.506C32.3036 135.327 32.1195 135.148 31.938 134.967C18.176 121.205 10.5964 102.91 10.5964 83.4473C10.5964 63.985 18.176 45.6926 31.938 31.9306C45.6973 18.1686 63.9952 10.5889 83.4548 10.5889C91.8604 10.5889 100.049 12.0025 107.748 14.7186C117.876 18.2904 127.156 24.1126 134.972 31.9279C138.887 35.8436 142.305 40.1304 145.189 44.7069C152.435 56.2023 156.313 69.5256 156.313 83.4446C156.313 102.414 149.113 120.276 136.001 133.911Z" fill="#3C3C3B"/>
<path d="M83.5781 156.07C123.619 156.07 156.078 123.611 156.078 83.5703C156.078 43.5297 123.619 11.0703 83.5781 11.0703C43.5375 11.0703 11.0781 43.5297 11.0781 83.5703C11.0781 123.611 43.5375 156.07 83.5781 156.07Z" fill="#3C3C3B"/>
<path d="M120.395 114.071V104.693H121.619V114.071H120.395Z" fill="white"/>
<path d="M114.77 114.251C114.002 114.251 113.288 114.125 112.628 113.873C111.968 113.621 111.398 113.237 110.918 112.721L111.422 111.857C111.95 112.349 112.478 112.709 113.006 112.937C113.546 113.153 114.116 113.261 114.716 113.261C115.448 113.261 116.042 113.117 116.498 112.829C116.954 112.529 117.182 112.103 117.182 111.551C117.182 111.179 117.068 110.897 116.84 110.705C116.624 110.501 116.306 110.339 115.886 110.219C115.478 110.087 114.986 109.949 114.41 109.805C113.762 109.625 113.216 109.439 112.772 109.247C112.34 109.043 112.01 108.791 111.782 108.491C111.566 108.179 111.458 107.777 111.458 107.285C111.458 106.673 111.608 106.169 111.908 105.773C112.22 105.365 112.64 105.059 113.168 104.855C113.708 104.639 114.308 104.531 114.968 104.531C115.688 104.531 116.324 104.645 116.876 104.873C117.428 105.101 117.878 105.419 118.226 105.827L117.632 106.655C117.296 106.271 116.894 105.989 116.426 105.809C115.97 105.617 115.46 105.521 114.896 105.521C114.512 105.521 114.146 105.575 113.798 105.683C113.45 105.779 113.162 105.947 112.934 106.187C112.718 106.415 112.61 106.733 112.61 107.141C112.61 107.477 112.694 107.741 112.862 107.933C113.03 108.113 113.282 108.269 113.618 108.401C113.954 108.521 114.368 108.653 114.86 108.797C115.568 108.989 116.186 109.187 116.714 109.391C117.242 109.583 117.65 109.835 117.938 110.147C118.226 110.459 118.37 110.897 118.37 111.461C118.37 112.337 118.04 113.021 117.38 113.513C116.72 114.005 115.85 114.251 114.77 114.251Z" fill="white"/>
<path d="M101.129 111.371C101.129 110.783 101.297 110.279 101.633 109.859C101.969 109.427 102.431 109.097 103.019 108.869C103.619 108.629 104.309 108.509 105.089 108.509C105.545 108.509 106.019 108.545 106.511 108.617C107.003 108.689 107.441 108.797 107.825 108.941V108.149C107.825 107.357 107.591 106.727 107.123 106.259C106.655 105.791 106.007 105.557 105.179 105.557C104.675 105.557 104.177 105.653 103.685 105.845C103.205 106.025 102.701 106.295 102.173 106.655L101.705 105.791C102.317 105.371 102.917 105.059 103.505 104.855C104.093 104.639 104.693 104.531 105.305 104.531C106.457 104.531 107.369 104.861 108.041 105.521C108.713 106.181 109.049 107.093 109.049 108.257V112.595C109.049 112.763 109.085 112.889 109.157 112.973C109.229 113.045 109.343 113.087 109.499 113.099V114.071C109.367 114.083 109.253 114.095 109.157 114.107C109.061 114.119 108.989 114.119 108.941 114.107C108.641 114.095 108.413 113.999 108.257 113.819C108.101 113.639 108.017 113.447 108.005 113.243L107.987 112.559C107.567 113.099 107.021 113.519 106.349 113.819C105.677 114.107 104.993 114.251 104.297 114.251C103.697 114.251 103.151 114.125 102.659 113.873C102.179 113.609 101.801 113.261 101.525 112.829C101.261 112.385 101.129 111.899 101.129 111.371ZM107.411 112.091C107.543 111.923 107.645 111.761 107.717 111.605C107.789 111.449 107.825 111.311 107.825 111.191V109.823C107.417 109.667 106.991 109.547 106.547 109.463C106.115 109.379 105.677 109.337 105.233 109.337C104.357 109.337 103.649 109.511 103.109 109.859C102.569 110.207 102.299 110.681 102.299 111.281C102.299 111.629 102.389 111.959 102.569 112.271C102.749 112.571 103.013 112.823 103.361 113.027C103.709 113.219 104.117 113.315 104.585 113.315C105.173 113.315 105.719 113.201 106.223 112.973C106.739 112.745 107.135 112.451 107.411 112.091Z" fill="white"/>
<path d="M99.071 114.07L95.597 109.264L93.599 111.136V114.07H92.375V100.93H93.599V109.822L98.909 104.71H100.259L96.425 108.544L100.403 114.07H99.071Z" fill="white"/>
<path d="M83.753 105.664H82.457V104.692H83.753V104.44C83.753 103.996 83.819 103.558 83.951 103.126C84.083 102.694 84.281 102.298 84.545 101.938C84.821 101.578 85.163 101.29 85.571 101.074C85.991 100.858 86.489 100.75 87.065 100.75C87.509 100.75 87.905 100.798 88.253 100.894C88.613 100.99 88.925 101.104 89.189 101.236C89.453 101.368 89.651 101.488 89.783 101.596L89.225 102.478C89.033 102.298 88.745 102.148 88.361 102.028C87.989 101.896 87.581 101.83 87.137 101.83C86.633 101.83 86.219 101.962 85.895 102.226C85.583 102.478 85.349 102.802 85.193 103.198C85.049 103.594 84.977 103.996 84.977 104.404V104.692H89.675V114.07H88.451V105.664H84.977V114.07H83.753V105.664Z" fill="white"/>
<path d="M79.3828 114.07V104.692H80.6068V114.07H79.3828ZM79.3828 102.73V100.93H80.6068V102.73H79.3828Z" fill="white"/>
<path d="M77.8531 113.621C77.7571 113.657 77.6071 113.723 77.4031 113.819C77.1991 113.915 76.9531 113.999 76.6651 114.071C76.3771 114.143 76.0651 114.179 75.7291 114.179C75.3811 114.179 75.0511 114.113 74.7391 113.981C74.4391 113.849 74.1991 113.651 74.0191 113.387C73.8391 113.111 73.7491 112.775 73.7491 112.379V105.665H72.4531V104.693H73.7491V101.525H74.9731V104.693H77.1331V105.665H74.9731V112.037C74.9971 112.373 75.1171 112.625 75.3331 112.793C75.5611 112.961 75.8191 113.045 76.1071 113.045C76.4431 113.045 76.7491 112.991 77.0251 112.883C77.3011 112.763 77.4691 112.679 77.5291 112.631L77.8531 113.621Z" fill="white"/>
<path d="M71.723 105.773C70.907 105.797 70.187 106.025 69.563 106.457C68.951 106.889 68.519 107.483 68.267 108.239V114.071H67.043V104.693H68.195V106.943C68.519 106.283 68.945 105.749 69.473 105.341C70.013 104.933 70.583 104.705 71.183 104.657C71.303 104.645 71.405 104.639 71.489 104.639C71.585 104.639 71.663 104.645 71.723 104.657V105.773Z" fill="white"/>
<path d="M60.53 114.251C59.858 114.251 59.234 114.125 58.658 113.873C58.082 113.609 57.584 113.255 57.164 112.811C56.744 112.355 56.414 111.833 56.174 111.245C55.946 110.657 55.832 110.027 55.832 109.355C55.832 108.479 56.03 107.675 56.426 106.943C56.834 106.211 57.392 105.629 58.1 105.197C58.808 104.753 59.612 104.531 60.512 104.531C61.436 104.531 62.24 104.753 62.924 105.197C63.62 105.641 64.166 106.229 64.562 106.961C64.958 107.681 65.156 108.473 65.156 109.337C65.156 109.433 65.156 109.529 65.156 109.625C65.156 109.709 65.15 109.775 65.138 109.823H57.11C57.17 110.495 57.356 111.095 57.668 111.623C57.992 112.139 58.406 112.553 58.91 112.865C59.426 113.165 59.984 113.315 60.584 113.315C61.196 113.315 61.772 113.159 62.312 112.847C62.864 112.535 63.248 112.127 63.464 111.623L64.526 111.911C64.334 112.355 64.04 112.757 63.644 113.117C63.248 113.477 62.78 113.759 62.24 113.963C61.712 114.155 61.142 114.251 60.53 114.251ZM57.074 108.941H64.004C63.956 108.257 63.77 107.657 63.446 107.141C63.134 106.625 62.72 106.223 62.204 105.935C61.7 105.635 61.142 105.485 60.53 105.485C59.918 105.485 59.36 105.635 58.856 105.935C58.352 106.223 57.938 106.631 57.614 107.159C57.302 107.675 57.122 108.269 57.074 108.941Z" fill="white"/>
<path d="M53.2694 103.685C53.0894 103.481 52.8794 103.301 52.6394 103.145C52.3994 102.977 52.1294 102.833 51.8294 102.713C51.5294 102.593 51.2054 102.497 50.8574 102.425C50.5214 102.353 50.1614 102.317 49.7774 102.317C48.6614 102.317 47.8394 102.533 47.3114 102.965C46.7954 103.385 46.5374 103.961 46.5374 104.693C46.5374 105.197 46.6574 105.593 46.8974 105.881C47.1494 106.169 47.5394 106.403 48.0674 106.583C48.5954 106.763 49.2674 106.949 50.0834 107.141C50.9954 107.333 51.7814 107.561 52.4414 107.825C53.1014 108.089 53.6114 108.449 53.9714 108.905C54.3314 109.349 54.5114 109.955 54.5114 110.723C54.5114 111.311 54.3974 111.821 54.1694 112.253C53.9414 112.685 53.6234 113.045 53.2154 113.333C52.8074 113.621 52.3214 113.837 51.7574 113.981C51.1934 114.113 50.5754 114.179 49.9034 114.179C49.2434 114.179 48.6074 114.113 47.9954 113.981C47.3954 113.837 46.8254 113.633 46.2854 113.369C45.7454 113.093 45.2414 112.745 44.7734 112.325L45.4034 111.299C45.6314 111.539 45.9014 111.767 46.2134 111.983C46.5374 112.187 46.8914 112.373 47.2754 112.541C47.6714 112.709 48.0914 112.841 48.5354 112.937C48.9914 113.021 49.4594 113.063 49.9394 113.063C50.9594 113.063 51.7514 112.877 52.3154 112.505C52.8914 112.133 53.1794 111.581 53.1794 110.849C53.1794 110.321 53.0354 109.901 52.7474 109.589C52.4594 109.265 52.0274 109.001 51.4514 108.797C50.8754 108.593 50.1674 108.395 49.3274 108.203C48.4394 107.999 47.6894 107.771 47.0774 107.519C46.4654 107.267 46.0034 106.937 45.6914 106.529C45.3914 106.109 45.2414 105.557 45.2414 104.873C45.2414 104.081 45.4334 103.415 45.8174 102.875C46.2134 102.323 46.7534 101.909 47.4374 101.633C48.1214 101.345 48.9074 101.201 49.7954 101.201C50.3594 101.201 50.8814 101.261 51.3614 101.381C51.8534 101.489 52.3034 101.651 52.7114 101.867C53.1314 102.083 53.5214 102.353 53.8814 102.677L53.2694 103.685Z" fill="white"/>
<path d="M121.562 88.3713C121.562 87.7832 121.73 87.2792 122.066 86.8592C122.402 86.4272 122.864 86.0973 123.452 85.8693C124.052 85.6293 124.742 85.5093 125.522 85.5093C125.978 85.5093 126.452 85.5453 126.944 85.6173C127.436 85.6893 127.874 85.7972 128.258 85.9412V85.1493C128.258 84.3573 128.024 83.7273 127.556 83.2593C127.088 82.7913 126.44 82.5573 125.612 82.5573C125.108 82.5573 124.61 82.6532 124.118 82.8452C123.638 83.0252 123.134 83.2953 122.606 83.6553L122.138 82.7913C122.75 82.3713 123.35 82.0593 123.938 81.8553C124.526 81.6393 125.126 81.5312 125.738 81.5312C126.89 81.5312 127.802 81.8613 128.474 82.5213C129.146 83.1813 129.482 84.0933 129.482 85.2573V89.5952C129.482 89.7632 129.518 89.8893 129.59 89.9733C129.662 90.0453 129.776 90.0873 129.932 90.0993V91.0713C129.8 91.0833 129.686 91.0953 129.59 91.1073C129.494 91.1193 129.422 91.1193 129.374 91.1073C129.074 91.0953 128.846 90.9993 128.69 90.8193C128.534 90.6393 128.45 90.4473 128.438 90.2433L128.421 89.5592C128.001 90.0992 127.455 90.5193 126.783 90.8193C126.111 91.1073 125.426 91.2513 124.73 91.2513C124.13 91.2513 123.584 91.1252 123.092 90.8732C122.612 90.6092 122.234 90.2613 121.958 89.8293C121.694 89.3853 121.562 88.8993 121.562 88.3713ZM127.844 89.0913C127.976 88.9233 128.078 88.7613 128.15 88.6053C128.222 88.4493 128.258 88.3112 128.258 88.1912V86.8232C127.85 86.6672 127.424 86.5472 126.98 86.4632C126.548 86.3792 126.11 86.3372 125.666 86.3372C124.79 86.3372 124.082 86.5112 123.542 86.8592C123.002 87.2072 122.732 87.6812 122.732 88.2812C122.732 88.6293 122.822 88.9593 123.002 89.2713C123.182 89.5713 123.446 89.8233 123.794 90.0273C124.142 90.2193 124.551 90.3153 125.019 90.3153C125.607 90.3153 126.153 90.2013 126.657 89.9733C127.173 89.7453 127.568 89.4513 127.844 89.0913Z" fill="white"/>
<path d="M119.727 91.0713H118.503V85.8333C118.503 84.7413 118.329 83.9372 117.981 83.4212C117.633 82.9052 117.117 82.6473 116.433 82.6473C115.725 82.6473 115.089 82.8993 114.525 83.4033C113.973 83.9073 113.583 84.5553 113.355 85.3473V91.0713H112.131V85.8333C112.131 84.7293 111.963 83.9252 111.627 83.4212C111.291 82.9052 110.775 82.6473 110.079 82.6473C109.383 82.6473 108.753 82.8932 108.189 83.3853C107.625 83.8773 107.229 84.5253 107.001 85.3293V91.0713H105.777V81.6932H106.893V83.8172C107.289 83.0852 107.793 82.5213 108.405 82.1253C109.029 81.7293 109.719 81.5312 110.475 81.5312C111.255 81.5312 111.885 81.7533 112.365 82.1973C112.845 82.6413 113.139 83.2232 113.247 83.9432C113.679 83.1512 114.195 82.5512 114.795 82.1432C115.407 81.7352 116.097 81.5312 116.865 81.5312C117.393 81.5312 117.837 81.6273 118.197 81.8193C118.569 82.0113 118.863 82.2873 119.079 82.6473C119.307 82.9953 119.469 83.4213 119.565 83.9253C119.673 84.4173 119.727 84.9692 119.727 85.5812V91.0713Z" fill="white"/>
<path d="M95.2109 88.3713C95.2109 87.7832 95.3789 87.2792 95.7149 86.8592C96.0509 86.4272 96.5129 86.0973 97.1009 85.8693C97.7009 85.6293 98.3909 85.5093 99.1709 85.5093C99.6269 85.5093 100.101 85.5453 100.593 85.6173C101.085 85.6893 101.523 85.7972 101.907 85.9412V85.1493C101.907 84.3573 101.673 83.7273 101.205 83.2593C100.737 82.7913 100.089 82.5573 99.2609 82.5573C98.7569 82.5573 98.2589 82.6532 97.7669 82.8452C97.2869 83.0252 96.7829 83.2953 96.2549 83.6553L95.7869 82.7913C96.3989 82.3713 96.9989 82.0593 97.5869 81.8553C98.1749 81.6393 98.7749 81.5312 99.3869 81.5312C100.539 81.5312 101.451 81.8613 102.123 82.5213C102.795 83.1813 103.131 84.0933 103.131 85.2573V89.5952C103.131 89.7632 103.167 89.8893 103.239 89.9733C103.311 90.0453 103.425 90.0873 103.581 90.0993V91.0713C103.449 91.0833 103.335 91.0953 103.239 91.1073C103.143 91.1193 103.071 91.1193 103.023 91.1073C102.723 91.0953 102.495 90.9993 102.339 90.8193C102.183 90.6393 102.099 90.4473 102.087 90.2433L102.069 89.5592C101.649 90.0992 101.103 90.5193 100.431 90.8193C99.7589 91.1073 99.0749 91.2513 98.3789 91.2513C97.7789 91.2513 97.2329 91.1252 96.7409 90.8732C96.2609 90.6092 95.8829 90.2613 95.6069 89.8293C95.3429 89.3853 95.2109 88.8993 95.2109 88.3713ZM101.493 89.0913C101.625 88.9233 101.727 88.7613 101.799 88.6053C101.871 88.4493 101.907 88.3112 101.907 88.1912V86.8232C101.499 86.6672 101.073 86.5472 100.629 86.4632C100.197 86.3792 99.7589 86.3372 99.3149 86.3372C98.4389 86.3372 97.7309 86.5112 97.1909 86.8592C96.6509 87.2072 96.3809 87.6812 96.3809 88.2812C96.3809 88.6293 96.4709 88.9593 96.6509 89.2713C96.8309 89.5713 97.0949 89.8233 97.4429 90.0273C97.7909 90.2193 98.1989 90.3153 98.6669 90.3153C99.2549 90.3153 99.8009 90.2013 100.305 89.9733C100.821 89.7453 101.217 89.4513 101.493 89.0913Z" fill="white"/>
<path d="M91.1172 77.9297H92.3412V88.9457C92.3412 89.4137 92.4252 89.7197 92.5932 89.8637C92.7612 90.0077 92.9652 90.0797 93.2052 90.0797C93.4212 90.0797 93.6372 90.0557 93.8532 90.0077C94.0692 89.9597 94.2552 89.9117 94.4112 89.8637L94.6272 90.8537C94.3992 90.9497 94.1172 91.0277 93.7812 91.0877C93.4572 91.1477 93.1752 91.1777 92.9352 91.1777C92.3832 91.1777 91.9392 91.0157 91.6032 90.6917C91.2792 90.3677 91.1172 89.9237 91.1172 89.3597V77.9297Z" fill="white"/>
<path d="M84.7411 91.2513C83.9611 91.2513 83.2591 91.0473 82.6351 90.6393C82.0231 90.2313 81.5371 89.7273 81.1771 89.1273V94.9053H79.9531V81.6932H81.0511V83.5112C81.4231 82.9232 81.9211 82.4493 82.5451 82.0893C83.1691 81.7173 83.8351 81.5312 84.5431 81.5312C85.1911 81.5312 85.7851 81.6693 86.3251 81.9453C86.8651 82.2093 87.3331 82.5692 87.7291 83.0252C88.1251 83.4812 88.4311 84.0033 88.6471 84.5913C88.8751 85.1673 88.9891 85.7673 88.9891 86.3913C88.9891 87.2673 88.8091 88.0773 88.4491 88.8213C88.1011 89.5533 87.6091 90.1413 86.9731 90.5853C86.3371 91.0293 85.5931 91.2513 84.7411 91.2513ZM84.3991 90.1712C84.9151 90.1712 85.3771 90.0693 85.7851 89.8652C86.1931 89.6493 86.5411 89.3613 86.8291 89.0013C87.1291 88.6413 87.3571 88.2393 87.5131 87.7952C87.6691 87.3393 87.7471 86.8713 87.7471 86.3913C87.7471 85.8873 87.6571 85.4073 87.4771 84.9513C87.3091 84.4953 87.0631 84.0933 86.7391 83.7453C86.4151 83.3973 86.0431 83.1213 85.6231 82.9173C85.2031 82.7133 84.7471 82.6113 84.2551 82.6113C83.9431 82.6113 83.6191 82.6713 83.2831 82.7913C82.9471 82.9113 82.6231 83.0853 82.3111 83.3133C82.0111 83.5293 81.7591 83.7753 81.5551 84.0513C81.3511 84.3273 81.2251 84.6213 81.1771 84.9333V87.8133C81.3691 88.2573 81.6271 88.6592 81.9511 89.0192C82.2751 89.3672 82.6471 89.6493 83.0671 89.8652C83.4991 90.0693 83.9431 90.1712 84.3991 90.1712Z" fill="white"/>
<path d="M69.3906 88.3713C69.3906 87.7832 69.5586 87.2792 69.8946 86.8592C70.2306 86.4272 70.6926 86.0973 71.2806 85.8693C71.8806 85.6293 72.5706 85.5093 73.3506 85.5093C73.8066 85.5093 74.2806 85.5453 74.7726 85.6173C75.2646 85.6893 75.7026 85.7972 76.0866 85.9412V85.1493C76.0866 84.3573 75.8526 83.7273 75.3846 83.2593C74.9166 82.7913 74.2686 82.5573 73.4406 82.5573C72.9366 82.5573 72.4386 82.6532 71.9466 82.8452C71.4666 83.0252 70.9626 83.2953 70.4346 83.6553L69.9666 82.7913C70.5786 82.3713 71.1786 82.0593 71.7666 81.8553C72.3546 81.6393 72.9546 81.5312 73.5666 81.5312C74.7186 81.5312 75.6306 81.8613 76.3026 82.5213C76.9746 83.1813 77.3106 84.0933 77.3106 85.2573V89.5952C77.3106 89.7632 77.3466 89.8893 77.4186 89.9733C77.4906 90.0453 77.6046 90.0873 77.7606 90.0993V91.0713C77.6286 91.0833 77.5146 91.0953 77.4186 91.1073C77.3226 91.1193 77.2506 91.1193 77.2026 91.1073C76.9026 91.0953 76.6746 90.9993 76.5186 90.8193C76.3626 90.6393 76.2786 90.4473 76.2666 90.2433L76.2486 89.5592C75.8286 90.0992 75.2826 90.5193 74.6106 90.8193C73.9386 91.1073 73.2546 91.2513 72.5586 91.2513C71.9586 91.2513 71.4126 91.1252 70.9206 90.8732C70.4406 90.6092 70.0626 90.2613 69.7866 89.8293C69.5226 89.3853 69.3906 88.8993 69.3906 88.3713ZM75.6726 89.0913C75.8046 88.9233 75.9066 88.7613 75.9786 88.6053C76.0506 88.4493 76.0866 88.3112 76.0866 88.1912V86.8232C75.6786 86.6672 75.2526 86.5472 74.8086 86.4632C74.3766 86.3792 73.9386 86.3372 73.4946 86.3372C72.6186 86.3372 71.9106 86.5112 71.3706 86.8592C70.8306 87.2072 70.5606 87.6812 70.5606 88.2812C70.5606 88.6293 70.6506 88.9593 70.8306 89.2713C71.0106 89.5713 71.2746 89.8233 71.6226 90.0273C71.9706 90.2193 72.3786 90.3153 72.8466 90.3153C73.4346 90.3153 73.9806 90.2013 74.4846 89.9733C75.0006 89.7453 75.3966 89.4513 75.6726 89.0913Z" fill="white"/>
<path d="M64.5239 91.2513C63.7559 91.2513 63.0419 91.1252 62.3819 90.8732C61.7219 90.6212 61.1519 90.2373 60.6719 89.7213L61.1759 88.8573C61.7039 89.3493 62.2319 89.7093 62.7599 89.9373C63.2999 90.1533 63.8699 90.2612 64.4699 90.2612C65.2019 90.2612 65.7959 90.1173 66.2519 89.8293C66.7079 89.5293 66.9359 89.1033 66.9359 88.5513C66.9359 88.1793 66.8219 87.8972 66.5939 87.7052C66.3779 87.5012 66.0599 87.3392 65.6399 87.2192C65.2319 87.0872 64.7399 86.9493 64.1639 86.8053C63.5159 86.6253 62.9699 86.4392 62.5259 86.2472C62.0939 86.0432 61.7639 85.7912 61.5359 85.4912C61.3199 85.1792 61.2119 84.7773 61.2119 84.2853C61.2119 83.6733 61.3619 83.1693 61.6619 82.7733C61.9739 82.3653 62.3939 82.0593 62.9219 81.8553C63.4619 81.6393 64.0619 81.5312 64.7219 81.5312C65.4419 81.5312 66.0779 81.6452 66.6299 81.8732C67.1819 82.1012 67.6319 82.4193 67.9799 82.8273L67.3859 83.6553C67.0499 83.2713 66.6479 82.9892 66.1799 82.8092C65.7239 82.6172 65.2139 82.5213 64.6499 82.5213C64.2659 82.5213 63.8999 82.5753 63.5519 82.6833C63.2039 82.7793 62.9159 82.9473 62.6879 83.1873C62.4719 83.4153 62.3639 83.7333 62.3639 84.1413C62.3639 84.4773 62.4479 84.7413 62.6159 84.9333C62.7839 85.1133 63.0359 85.2692 63.3719 85.4012C63.7079 85.5212 64.1219 85.6532 64.6139 85.7972C65.3219 85.9892 65.9399 86.1873 66.4679 86.3913C66.9959 86.5833 67.4039 86.8353 67.6919 87.1473C67.9799 87.4593 68.1239 87.8973 68.1239 88.4613C68.1239 89.3373 67.7939 90.0213 67.1339 90.5133C66.4739 91.0053 65.6039 91.2513 64.5239 91.2513Z" fill="white"/>
<path d="M54.9324 91.2513C54.2604 91.2513 53.6364 91.1252 53.0604 90.8732C52.4844 90.6092 51.9864 90.2553 51.5664 89.8113C51.1464 89.3553 50.8164 88.8333 50.5764 88.2453C50.3484 87.6573 50.2344 87.0273 50.2344 86.3553C50.2344 85.4793 50.4324 84.6752 50.8284 83.9432C51.2364 83.2112 51.7944 82.6293 52.5024 82.1973C53.2104 81.7533 54.0144 81.5312 54.9144 81.5312C55.8384 81.5312 56.6424 81.7533 57.3264 82.1973C58.0224 82.6413 58.5684 83.2293 58.9644 83.9613C59.3604 84.6813 59.5584 85.4732 59.5584 86.3372C59.5584 86.4332 59.5584 86.5293 59.5584 86.6253C59.5584 86.7093 59.5524 86.7752 59.5404 86.8232H51.5124C51.5724 87.4952 51.7584 88.0952 52.0704 88.6232C52.3944 89.1392 52.8084 89.5532 53.3124 89.8652C53.8284 90.1652 54.3864 90.3153 54.9864 90.3153C55.5984 90.3153 56.1744 90.1593 56.7144 89.8473C57.2664 89.5353 57.6504 89.1272 57.8664 88.6232L58.9284 88.9113C58.7364 89.3553 58.4424 89.7573 58.0464 90.1173C57.6504 90.4773 57.1824 90.7592 56.6424 90.9632C56.1144 91.1552 55.5444 91.2513 54.9324 91.2513ZM51.4764 85.9412H58.4064C58.3584 85.2573 58.1724 84.6573 57.8484 84.1413C57.5364 83.6253 57.1224 83.2232 56.6064 82.9352C56.1024 82.6352 55.5444 82.4852 54.9324 82.4852C54.3204 82.4852 53.7624 82.6352 53.2584 82.9352C52.7544 83.2232 52.3404 83.6313 52.0164 84.1593C51.7044 84.6753 51.5244 85.2692 51.4764 85.9412Z" fill="white"/>
<path d="M48.0644 78.291V91.071H46.8224V85.095H39.2444V91.071H37.9844V78.291H39.2444V83.979H46.8224V78.291H48.0644Z" fill="white"/>
<path d="M124.945 67.0697V57.6917H126.169V67.0697H124.945ZM124.945 55.7297V53.9297H126.169V55.7297H124.945Z" fill="white"/>
<path d="M115.293 66.2434L121.575 58.6114H115.437V57.6934H122.961V58.5214L116.715 66.1534H122.943V67.0714H115.293V66.2434Z" fill="white"/>
<path d="M111.875 67.0705V54.2905H113.135V67.0705H111.875ZM111.947 52.3105V50.5645H113.063V52.3105H111.947Z" fill="white"/>
<path d="M104.184 67.0697L100.71 62.2637L98.7123 64.1357V67.0697H97.4883V53.9297H98.7123V62.8217L104.022 57.7097H105.372L101.538 61.5437L105.516 67.0697H104.184Z" fill="white"/>
<path d="M86.9258 64.3713C86.9258 63.7833 87.0938 63.2793 87.4298 62.8593C87.7658 62.4273 88.2278 62.0973 88.8158 61.8693C89.4158 61.6293 90.1058 61.5093 90.8858 61.5093C91.3418 61.5093 91.8158 61.5453 92.3078 61.6173C92.7998 61.6892 93.2378 61.7973 93.6218 61.9413V61.1493C93.6218 60.3573 93.3878 59.7273 92.9198 59.2593C92.4518 58.7913 91.8038 58.5573 90.9758 58.5573C90.4718 58.5573 89.9738 58.6533 89.4818 58.8453C89.0018 59.0253 88.4978 59.2953 87.9698 59.6553L87.5018 58.7913C88.1138 58.3713 88.7138 58.0593 89.3018 57.8553C89.8898 57.6393 90.4898 57.5312 91.1018 57.5312C92.2538 57.5312 93.1658 57.8613 93.8378 58.5213C94.5098 59.1813 94.8458 60.0933 94.8458 61.2573V65.5953C94.8458 65.7633 94.8818 65.8893 94.9538 65.9733C95.0258 66.0453 95.1398 66.0873 95.2958 66.0993V67.0713C95.1638 67.0833 95.0498 67.0953 94.9538 67.1073C94.8578 67.1193 94.7858 67.1193 94.7378 67.1073C94.4378 67.0953 94.2098 66.9993 94.0538 66.8193C93.8978 66.6392 93.8138 66.4473 93.8018 66.2433L93.7838 65.5592C93.3638 66.0992 92.8178 66.5192 92.1458 66.8193C91.4738 67.1073 90.7898 67.2513 90.0938 67.2513C89.4938 67.2513 88.9478 67.1253 88.4558 66.8733C87.9758 66.6093 87.5978 66.2613 87.3218 65.8293C87.0578 65.3853 86.9258 64.8993 86.9258 64.3713ZM93.2078 65.0913C93.3398 64.9233 93.4418 64.7613 93.5138 64.6053C93.5858 64.4493 93.6218 64.3113 93.6218 64.1913V62.8233C93.2138 62.6673 92.7878 62.5473 92.3438 62.4633C91.9118 62.3793 91.4738 62.3373 91.0298 62.3373C90.1538 62.3373 89.4458 62.5113 88.9058 62.8593C88.3658 63.2073 88.0958 63.6813 88.0958 64.2813C88.0958 64.6293 88.1858 64.9593 88.3658 65.2713C88.5458 65.5713 88.8098 65.8232 89.1578 66.0273C89.5058 66.2193 89.9138 66.3153 90.3818 66.3153C90.9698 66.3153 91.5158 66.2013 92.0198 65.9733C92.5358 65.7453 92.9318 65.4513 93.2078 65.0913Z" fill="white"/>
<path d="M78.7098 69.9514C78.8778 69.9634 79.0398 69.9694 79.1958 69.9694C79.3518 69.9814 79.4658 69.9754 79.5378 69.9514C79.6818 69.9274 79.8198 69.8434 79.9518 69.6994C80.0838 69.5554 80.2398 69.2794 80.4198 68.8714C80.5998 68.4634 80.8518 67.8634 81.1758 67.0714L77.0898 57.6934H78.3858L81.8238 65.8114L84.9918 57.6934H86.2158L81.3558 69.7894C81.2718 70.0174 81.1458 70.2274 80.9778 70.4194C80.8098 70.6234 80.5998 70.7794 80.3478 70.8874C80.1078 71.0074 79.8078 71.0734 79.4478 71.0854C79.3398 71.0974 79.2258 71.0974 79.1058 71.0854C78.9978 71.0854 78.8658 71.0734 78.7098 71.0494V69.9514Z" fill="white"/>
<path d="M70.8499 54.291H71.9119L77.2219 67.071H75.8899L74.2339 63.075H68.4919L66.8539 67.071H65.5039L70.8499 54.291ZM73.9459 62.085L71.3719 55.767L68.7619 62.085H73.9459Z" fill="white"/>
<path d="M51.8359 63.2014V57.6934H53.0599V62.9854C53.0599 64.0534 53.2399 64.8514 53.5999 65.3794C53.9719 65.9074 54.5179 66.1714 55.2379 66.1714C55.7179 66.1714 56.1799 66.0694 56.6239 65.8654C57.0799 65.6494 57.4819 65.3494 57.8299 64.9654C58.1779 64.5694 58.4419 64.1134 58.6219 63.5974V57.6934H59.8459V65.5954C59.8459 65.7634 59.8819 65.8894 59.9539 65.9734C60.0259 66.0454 60.1339 66.0874 60.2779 66.0994V67.0714C60.1339 67.0834 60.0199 67.0894 59.9359 67.0894C59.8519 67.1014 59.7739 67.1074 59.7019 67.1074C59.4619 67.0834 59.2519 66.9874 59.0719 66.8194C58.9039 66.6514 58.8139 66.4474 58.8019 66.2074L58.7659 64.9474C58.3579 65.6674 57.7999 66.2314 57.0919 66.6394C56.3959 67.0474 55.6399 67.2514 54.8239 67.2514C53.8399 67.2514 53.0959 66.9094 52.5919 66.2254C52.0879 65.5414 51.8359 64.5334 51.8359 63.2014Z" fill="white"/>
<path d="M48.7148 56.6852C48.5347 56.4812 48.3247 56.3012 48.0848 56.1452C47.8448 55.9772 47.5747 55.8332 47.2747 55.7132C46.9747 55.5932 46.6507 55.4972 46.3027 55.4252C45.9667 55.3532 45.6067 55.3172 45.2227 55.3172C44.1067 55.3172 43.2847 55.5332 42.7568 55.9652C42.2408 56.3852 41.9827 56.9612 41.9827 57.6932C41.9827 58.1972 42.1028 58.5932 42.3428 58.8812C42.5947 59.1692 42.9847 59.4032 43.5127 59.5832C44.0407 59.7632 44.7128 59.9492 45.5288 60.1412C46.4408 60.3332 47.2268 60.5612 47.8868 60.8252C48.5468 61.0892 49.0568 61.4492 49.4168 61.9052C49.7768 62.3492 49.9567 62.9552 49.9567 63.7232C49.9567 64.3112 49.8427 64.8212 49.6147 65.2532C49.3868 65.6852 49.0688 66.0452 48.6608 66.3332C48.2528 66.6212 47.7668 66.8372 47.2028 66.9812C46.6388 67.1132 46.0208 67.1792 45.3488 67.1792C44.6888 67.1792 44.0528 67.1132 43.4408 66.9812C42.8408 66.8372 42.2708 66.6332 41.7308 66.3692C41.1908 66.0932 40.6867 65.7452 40.2188 65.3252L40.8487 64.2992C41.0767 64.5392 41.3468 64.7672 41.6588 64.9832C41.9828 65.1872 42.3368 65.3732 42.7207 65.5412C43.1168 65.7092 43.5368 65.8412 43.9808 65.9372C44.4367 66.0212 44.9048 66.0632 45.3848 66.0632C46.4048 66.0632 47.1968 65.8772 47.7608 65.5052C48.3368 65.1332 48.6248 64.5812 48.6248 63.8492C48.6248 63.3212 48.4808 62.9012 48.1927 62.5892C47.9047 62.2652 47.4728 62.0012 46.8968 61.7972C46.3208 61.5932 45.6128 61.3952 44.7727 61.2032C43.8847 60.9992 43.1347 60.7712 42.5227 60.5192C41.9107 60.2672 41.4487 59.9372 41.1367 59.5292C40.8367 59.1092 40.6867 58.5572 40.6867 57.8732C40.6867 57.0812 40.8787 56.4152 41.2627 55.8752C41.6587 55.3232 42.1988 54.9092 42.8828 54.6332C43.5668 54.3452 44.3528 54.2012 45.2408 54.2012C45.8048 54.2012 46.3267 54.2612 46.8068 54.3812C47.2987 54.4892 47.7487 54.6512 48.1567 54.8672C48.5767 55.0832 48.9668 55.3532 49.3268 55.6772L48.7148 56.6852Z" fill="white"/>
</svg>
