<svg width="167" height="167" viewBox="0 0 167 167" fill="none" xmlns="http://www.w3.org/2000/svg">
<path d="M83.1868 159.561C125.005 159.561 158.905 125.661 158.905 83.8431C158.905 42.0251 125.005 8.125 83.1868 8.125C41.3689 8.125 7.46875 42.0251 7.46875 83.8431C7.46875 125.661 41.3689 159.561 83.1868 159.561Z" fill="white"/>
<path d="M83.4533 153.137C121.945 153.137 153.149 121.933 153.149 83.4416C153.149 44.9498 121.945 13.7461 83.4533 13.7461C44.9616 13.7461 13.7578 44.9498 13.7578 83.4416C13.7578 121.933 44.9616 153.137 83.4533 153.137Z" fill="#D7EEF0"/>
<path d="M164.334 87.531L164.351 87.5229C167.752 85.8656 167.752 81.0237 164.351 79.3664L164.337 79.3556C162.663 78.5405 161.789 76.9103 161.789 75.2719C161.789 73.9288 162.374 72.5802 163.587 71.6622C166.604 69.3766 165.661 64.6214 162.003 63.6601H161.992C158.723 62.7962 157.507 58.7938 159.752 56.2619L159.758 56.2537C162.268 53.4212 160.41 48.9449 156.633 48.7174H156.627C153.253 48.5143 151.276 44.826 152.98 41.9041L152.985 41.8906C154.19 39.8271 153.557 37.463 151.986 36.128C151.068 35.3508 149.83 34.9202 148.449 35.1125H148.441C145.089 35.5755 142.429 32.3395 143.532 29.1413L143.537 29.1305C144.769 25.556 141.346 22.1277 137.769 23.3598L137.755 23.3652C134.56 24.4674 131.321 21.8081 131.784 18.4583V18.4502C132.299 14.7023 128.275 12.0052 125.003 13.9116L124.993 13.9197C122.071 15.6231 118.38 13.6462 118.179 10.2721V10.2667C117.952 6.48902 113.473 4.63405 110.64 7.14435L110.635 7.14977C108.942 8.64729 106.586 8.60125 104.956 7.42598C104.149 6.84647 103.521 5.99075 103.237 4.90755V4.89943C102.663 2.73033 100.759 1.51444 98.8254 1.51444C97.4984 1.51444 96.158 2.08583 95.2291 3.31526C93.1846 6.01241 89.017 5.60621 87.5357 2.56514L87.5249 2.54889C85.8676 -0.849631 81.0284 -0.849631 79.3712 2.54889L79.3603 2.56514C78.5452 4.23868 76.9177 5.11336 75.2767 5.11336C73.9362 5.11336 72.5876 4.52573 71.6669 3.31255C69.3841 0.295848 64.6262 1.23823 63.6648 4.89943V4.90755C62.801 8.1761 58.7986 9.39198 56.2639 7.14977L56.2585 7.14435C53.4259 4.63405 48.9469 6.48902 48.7221 10.2667V10.2721C48.519 13.6462 44.828 15.6231 41.9061 13.9197L41.8953 13.9116C38.6295 12.0079 34.6 14.7023 35.1145 18.4502V18.4556C35.5776 21.8081 32.3415 24.4674 29.1434 23.3652L29.1325 23.3598C25.558 22.1277 22.1324 25.5533 23.3645 29.1278L23.3699 29.1386C24.4721 32.3368 21.8129 35.5728 18.4604 35.1125H18.4522C14.7071 34.5952 12.0099 38.622 13.9164 41.8906L13.9245 41.9014C15.6278 44.8233 13.6483 48.5143 10.2768 48.7174H10.2714C6.49376 48.9422 4.63879 53.4212 7.14638 56.2537L7.1518 56.2591C9.39401 58.7911 8.18083 62.7962 4.91229 63.6574H4.90146C2.73236 64.2315 1.51647 66.1352 1.51647 68.0687C1.51647 69.3956 2.08786 70.7361 3.31729 71.6649C6.01444 73.7094 5.60824 77.877 2.56717 79.3583L2.55093 79.3691C-0.850309 81.0264 -0.850309 85.8683 2.55093 87.5256L2.56447 87.5337C4.238 88.3488 5.11268 89.979 5.11268 91.6173C5.11268 92.9605 4.52776 94.3091 3.31458 95.2271C0.297879 97.5126 1.24026 102.268 4.89875 103.229H4.90958C8.17813 104.093 9.39401 108.098 7.14909 110.63L7.14368 110.636C4.63337 113.468 6.49105 117.947 10.2687 118.175H10.2741C13.6483 118.375 15.6251 122.066 13.9218 124.988L13.9164 124.999C12.0099 128.265 14.7071 132.294 18.4522 131.78H18.4604C21.2875 131.39 23.6191 133.632 23.6218 136.261C23.6218 136.751 23.5405 137.252 23.3699 137.753L23.3645 137.764C22.1324 141.339 25.5553 144.764 29.1325 143.532L29.1434 143.527C32.3388 142.425 35.5776 145.084 35.1145 148.436V148.445C34.6 152.19 38.624 154.89 41.8953 152.98L41.9061 152.975C44.828 151.269 48.519 153.248 48.7194 156.623C48.9469 160.403 53.4259 162.261 56.2585 159.75L56.2639 159.745C58.7932 157.503 62.801 158.716 63.6621 161.984V161.995C64.2362 164.164 66.1399 165.38 68.0734 165.38C69.4003 165.38 70.7408 164.809 71.6696 163.579C73.7142 160.882 77.8818 161.288 79.363 164.332L79.3739 164.349C81.0311 167.747 85.8703 167.747 87.5276 164.349L87.5385 164.332C88.3536 162.659 89.9838 161.784 91.6248 161.784C92.9653 161.784 94.3138 162.369 95.2318 163.582C97.5147 166.599 102.273 165.656 103.234 161.998V161.987C104.098 158.719 108.1 157.503 110.635 159.748L110.64 159.753C113.473 162.263 117.952 160.406 118.177 156.628C118.38 153.248 122.071 151.272 124.993 152.978L125.003 152.983C128.269 154.89 132.299 152.192 131.784 148.447V148.439C131.321 145.087 134.557 142.427 137.755 143.532H137.769C138.83 143.9 139.876 143.854 140.794 143.519C142.966 142.72 144.406 140.28 143.537 137.767L143.532 137.756C142.429 134.558 145.089 131.319 148.441 131.782H148.449C152.194 132.297 154.892 128.273 152.985 125.001L152.977 124.991C151.274 122.069 153.251 118.378 156.625 118.177H156.63C160.408 117.95 162.263 113.474 159.755 110.638L159.75 110.633C157.507 108.104 158.721 104.096 161.989 103.235H162C164.169 102.663 165.385 100.76 165.385 98.8233C165.385 97.4964 164.814 96.1559 163.584 95.2271C160.887 93.1826 161.293 89.015 164.334 87.5337V87.531ZM136.001 133.911C135.665 134.265 135.318 134.615 134.972 134.964C121.21 148.726 102.914 156.303 83.4548 156.303C63.9952 156.303 46.182 148.924 32.485 135.506C32.3036 135.327 32.1195 135.148 31.938 134.967C18.176 121.205 10.5964 102.91 10.5964 83.4473C10.5964 63.985 18.176 45.6926 31.938 31.9306C45.6973 18.1686 63.9952 10.5889 83.4548 10.5889C91.8604 10.5889 100.049 12.0025 107.748 14.7186C117.876 18.2904 127.156 24.1126 134.972 31.9279C138.887 35.8436 142.305 40.1304 145.189 44.7069C152.435 56.2023 156.313 69.5256 156.313 83.4446C156.313 102.414 149.113 120.276 136.001 133.911Z" fill="#3C3C3B"/>
<path d="M83.5781 156.07C123.619 156.07 156.078 123.611 156.078 83.5703C156.078 43.5297 123.619 11.0703 83.5781 11.0703C43.5375 11.0703 11.0781 43.5297 11.0781 83.5703C11.0781 123.611 43.5375 156.07 83.5781 156.07Z" fill="#3C3C3B"/>
<path d="M111.234 128.07V118.692H112.458V128.07H111.234ZM111.234 116.73V114.93H112.458V116.73H111.234Z" fill="white"/>
<path d="M108.641 128.069H107.417V122.831C107.417 121.739 107.243 120.935 106.895 120.419C106.547 119.903 106.031 119.645 105.347 119.645C104.639 119.645 104.003 119.897 103.439 120.401C102.887 120.905 102.497 121.553 102.269 122.345V128.069H101.045V122.831C101.045 121.727 100.877 120.923 100.541 120.419C100.205 119.903 99.6894 119.645 98.9934 119.645C98.2974 119.645 97.6674 119.891 97.1034 120.383C96.5394 120.875 96.1434 121.523 95.9154 122.327V128.069H94.6914V118.691H95.8074V120.815C96.2034 120.083 96.7074 119.519 97.3194 119.123C97.9434 118.727 98.6334 118.529 99.3894 118.529C100.169 118.529 100.799 118.751 101.279 119.195C101.759 119.639 102.053 120.221 102.161 120.941C102.593 120.149 103.109 119.549 103.709 119.141C104.321 118.733 105.011 118.529 105.779 118.529C106.307 118.529 106.751 118.625 107.111 118.817C107.483 119.009 107.777 119.285 107.993 119.645C108.221 119.993 108.383 120.419 108.479 120.923C108.587 121.415 108.641 121.967 108.641 122.579V128.069Z" fill="white"/>
<path d="M88.1785 128.249C87.5065 128.249 86.8825 128.123 86.3065 127.871C85.7305 127.607 85.2325 127.253 84.8125 126.809C84.3925 126.353 84.0625 125.831 83.8225 125.243C83.5945 124.655 83.4805 124.025 83.4805 123.353C83.4805 122.477 83.6785 121.673 84.0745 120.941C84.4825 120.209 85.0405 119.627 85.7485 119.195C86.4565 118.751 87.2605 118.529 88.1605 118.529C89.0845 118.529 89.8885 118.751 90.5725 119.195C91.2685 119.639 91.8145 120.227 92.2105 120.959C92.6065 121.679 92.8045 122.471 92.8045 123.335C92.8045 123.431 92.8045 123.527 92.8045 123.623C92.8045 123.707 92.7985 123.773 92.7865 123.821H84.7585C84.8185 124.493 85.0045 125.093 85.3165 125.621C85.6405 126.137 86.0545 126.551 86.5585 126.863C87.0745 127.163 87.6325 127.313 88.2325 127.313C88.8445 127.313 89.4205 127.157 89.9605 126.845C90.5125 126.533 90.8965 126.125 91.1125 125.621L92.1745 125.909C91.9825 126.353 91.6885 126.755 91.2925 127.115C90.8965 127.475 90.4285 127.757 89.8885 127.961C89.3605 128.153 88.7905 128.249 88.1785 128.249ZM84.7225 122.939H91.6525C91.6045 122.255 91.4185 121.655 91.0945 121.139C90.7825 120.623 90.3685 120.221 89.8525 119.933C89.3485 119.633 88.7905 119.483 88.1785 119.483C87.5665 119.483 87.0085 119.633 86.5045 119.933C86.0005 120.221 85.5865 120.629 85.2625 121.157C84.9505 121.673 84.7705 122.267 84.7225 122.939Z" fill="white"/>
<path d="M82.7555 127.619C82.6595 127.655 82.5095 127.721 82.3055 127.817C82.1015 127.913 81.8555 127.997 81.5675 128.069C81.2795 128.141 80.9675 128.177 80.6315 128.177C80.2835 128.177 79.9535 128.111 79.6415 127.979C79.3415 127.847 79.1015 127.649 78.9215 127.385C78.7415 127.109 78.6515 126.773 78.6515 126.377V119.663H77.3555V118.691H78.6515V115.523H79.8755V118.691H82.0355V119.663H79.8755V126.035C79.8995 126.371 80.0195 126.623 80.2355 126.791C80.4635 126.959 80.7215 127.043 81.0095 127.043C81.3455 127.043 81.6515 126.989 81.9275 126.881C82.2035 126.761 82.3715 126.677 82.4315 126.629L82.7555 127.619Z" fill="white"/>
<path d="M72.6333 128.249C71.8653 128.249 71.1512 128.123 70.4912 127.871C69.8312 127.619 69.2613 127.235 68.7812 126.719L69.2853 125.855C69.8133 126.347 70.3413 126.707 70.8693 126.935C71.4093 127.151 71.9793 127.259 72.5793 127.259C73.3113 127.259 73.9052 127.115 74.3612 126.827C74.8172 126.527 75.0452 126.101 75.0452 125.549C75.0452 125.177 74.9313 124.895 74.7033 124.703C74.4873 124.499 74.1692 124.337 73.7492 124.217C73.3412 124.085 72.8493 123.947 72.2733 123.803C71.6253 123.623 71.0793 123.437 70.6353 123.245C70.2033 123.041 69.8732 122.789 69.6452 122.489C69.4292 122.177 69.3213 121.775 69.3213 121.283C69.3213 120.671 69.4713 120.167 69.7713 119.771C70.0833 119.363 70.5033 119.057 71.0312 118.853C71.5712 118.637 72.1712 118.529 72.8312 118.529C73.5512 118.529 74.1873 118.643 74.7393 118.871C75.2913 119.099 75.7412 119.417 76.0892 119.825L75.4953 120.653C75.1593 120.269 74.7572 119.987 74.2892 119.807C73.8332 119.615 73.3233 119.519 72.7593 119.519C72.3753 119.519 72.0093 119.573 71.6613 119.681C71.3133 119.777 71.0252 119.945 70.7972 120.185C70.5812 120.413 70.4733 120.731 70.4733 121.139C70.4733 121.475 70.5573 121.739 70.7253 121.931C70.8933 122.111 71.1453 122.267 71.4813 122.399C71.8173 122.519 72.2313 122.651 72.7233 122.795C73.4313 122.987 74.0493 123.185 74.5773 123.389C75.1053 123.581 75.5133 123.833 75.8013 124.145C76.0893 124.457 76.2332 124.895 76.2332 125.459C76.2332 126.335 75.9033 127.019 75.2433 127.511C74.5833 128.003 73.7133 128.249 72.6333 128.249Z" fill="white"/>
<path d="M65.6367 128.07V118.692H66.8607V128.07H65.6367ZM65.6367 116.73V114.93H66.8607V116.73H65.6367Z" fill="white"/>
<path d="M62.4257 117.683C62.2457 117.479 62.0357 117.299 61.7957 117.143C61.5557 116.975 61.2857 116.831 60.9857 116.711C60.6857 116.591 60.3617 116.495 60.0137 116.423C59.6777 116.351 59.3177 116.315 58.9337 116.315C57.8177 116.315 56.9957 116.531 56.4677 116.963C55.9517 117.383 55.6937 117.959 55.6937 118.691C55.6937 119.195 55.8137 119.591 56.0537 119.879C56.3057 120.167 56.6957 120.401 57.2237 120.581C57.7517 120.761 58.4237 120.947 59.2397 121.139C60.1517 121.331 60.9377 121.559 61.5977 121.823C62.2577 122.087 62.7677 122.447 63.1277 122.903C63.4877 123.347 63.6677 123.953 63.6677 124.721C63.6677 125.309 63.5537 125.819 63.3257 126.251C63.0977 126.683 62.7797 127.043 62.3717 127.331C61.9637 127.619 61.4777 127.835 60.9137 127.979C60.3497 128.111 59.7317 128.177 59.0597 128.177C58.3997 128.177 57.7637 128.111 57.1517 127.979C56.5517 127.835 55.9817 127.631 55.4417 127.367C54.9017 127.091 54.3977 126.743 53.9297 126.323L54.5597 125.297C54.7877 125.537 55.0577 125.765 55.3697 125.981C55.6937 126.185 56.0477 126.371 56.4317 126.539C56.8277 126.707 57.2477 126.839 57.6917 126.935C58.1477 127.019 58.6157 127.061 59.0957 127.061C60.1157 127.061 60.9077 126.875 61.4717 126.503C62.0477 126.131 62.3357 125.579 62.3357 124.847C62.3357 124.319 62.1917 123.899 61.9037 123.587C61.6157 123.263 61.1837 122.999 60.6077 122.795C60.0317 122.591 59.3237 122.393 58.4837 122.201C57.5957 121.997 56.8457 121.769 56.2337 121.517C55.6217 121.265 55.1597 120.935 54.8477 120.527C54.5477 120.107 54.3977 119.555 54.3977 118.871C54.3977 118.079 54.5897 117.413 54.9737 116.873C55.3697 116.321 55.9097 115.907 56.5937 115.631C57.2777 115.343 58.0637 115.199 58.9517 115.199C59.5157 115.199 60.0377 115.259 60.5177 115.379C61.0097 115.487 61.4597 115.649 61.8677 115.865C62.2877 116.081 62.6777 116.351 63.0377 116.675L62.4257 117.683Z" fill="white"/>
<path d="M116.454 104.069H115.23V98.8313C115.23 97.7393 115.056 96.9353 114.708 96.4193C114.36 95.9033 113.844 95.6453 113.16 95.6453C112.452 95.6453 111.816 95.8973 111.252 96.4013C110.7 96.9053 110.31 97.5533 110.082 98.3453V104.069H108.858V98.8313C108.858 97.7273 108.69 96.9233 108.354 96.4193C108.018 95.9033 107.502 95.6453 106.806 95.6453C106.11 95.6453 105.48 95.8913 104.916 96.3833C104.352 96.8753 103.956 97.5233 103.728 98.3273V104.069H102.504V94.6913H103.62V96.8153C104.016 96.0833 104.52 95.5193 105.132 95.1233C105.756 94.7273 106.446 94.5293 107.202 94.5293C107.982 94.5293 108.612 94.7513 109.092 95.1953C109.572 95.6393 109.866 96.2213 109.974 96.9413C110.406 96.1493 110.922 95.5493 111.522 95.1413C112.134 94.7333 112.824 94.5293 113.592 94.5293C114.12 94.5293 114.564 94.6253 114.924 94.8173C115.296 95.0093 115.59 95.2853 115.806 95.6453C116.034 95.9933 116.196 96.4193 116.292 96.9233C116.4 97.4153 116.454 97.9673 116.454 98.5793V104.069Z" fill="white"/>
<path d="M98.5859 104.07V94.6917H99.8099V104.07H98.5859ZM98.5859 92.7297V90.9297H99.8099V92.7297H98.5859Z" fill="white"/>
<path d="M97.0562 103.619C96.9602 103.655 96.8103 103.721 96.6063 103.817C96.4023 103.913 96.1563 103.997 95.8683 104.069C95.5803 104.141 95.2683 104.177 94.9323 104.177C94.5843 104.177 94.2542 104.111 93.9422 103.979C93.6422 103.847 93.4022 103.649 93.2222 103.385C93.0422 103.109 92.9522 102.773 92.9522 102.377V95.6634H91.6562V94.6914H92.9522V91.5234H94.1763V94.6914H96.3362V95.6634H94.1763V102.035C94.2003 102.371 94.3203 102.623 94.5363 102.791C94.7643 102.959 95.0223 103.043 95.3103 103.043C95.6463 103.043 95.9523 102.989 96.2283 102.881C96.5043 102.761 96.6723 102.677 96.7323 102.629L97.0562 103.619Z" fill="white"/>
<path d="M86.1316 104.249C85.4596 104.249 84.8356 104.123 84.2596 103.871C83.6836 103.607 83.1856 103.253 82.7656 102.809C82.3456 102.353 82.0156 101.831 81.7756 101.243C81.5476 100.655 81.4336 100.025 81.4336 99.3533C81.4336 98.4773 81.6316 97.6733 82.0276 96.9413C82.4356 96.2093 82.9936 95.6273 83.7016 95.1953C84.4096 94.7513 85.2136 94.5293 86.1136 94.5293C87.0376 94.5293 87.8416 94.7513 88.5256 95.1953C89.2216 95.6393 89.7676 96.2273 90.1636 96.9593C90.5596 97.6793 90.7576 98.4713 90.7576 99.3353C90.7576 99.4313 90.7576 99.5273 90.7576 99.6233C90.7576 99.7073 90.7516 99.7733 90.7396 99.8213H82.7116C82.7716 100.493 82.9576 101.093 83.2696 101.621C83.5936 102.137 84.0076 102.551 84.5116 102.863C85.0276 103.163 85.5856 103.313 86.1856 103.313C86.7976 103.313 87.3736 103.157 87.9136 102.845C88.4656 102.533 88.8496 102.125 89.0656 101.621L90.1276 101.909C89.9356 102.353 89.6416 102.755 89.2456 103.115C88.8496 103.475 88.3816 103.757 87.8416 103.961C87.3136 104.153 86.7436 104.249 86.1316 104.249ZM82.6756 98.9393H89.6056C89.5576 98.2553 89.3716 97.6553 89.0476 97.1393C88.7356 96.6233 88.3216 96.2213 87.8056 95.9333C87.3016 95.6333 86.7436 95.4833 86.1316 95.4833C85.5196 95.4833 84.9616 95.6333 84.4576 95.9333C83.9536 96.2213 83.5396 96.6293 83.2156 97.1573C82.9036 97.6733 82.7236 98.2673 82.6756 98.9393Z" fill="white"/>
<path d="M79.4699 104.069H78.2459V98.8313C78.2459 97.7273 78.0839 96.9233 77.7599 96.4193C77.4359 95.9033 76.9259 95.6453 76.2299 95.6453C75.7499 95.6453 75.2759 95.7653 74.8079 96.0053C74.3399 96.2333 73.9259 96.5513 73.5659 96.9593C73.2179 97.3553 72.9659 97.8113 72.8099 98.3273V104.069H71.5859V94.6913H72.7019V96.8153C72.9539 96.3593 73.2839 95.9633 73.6919 95.6273C74.0999 95.2793 74.5619 95.0093 75.0779 94.8173C75.5939 94.6253 76.1279 94.5293 76.6799 94.5293C77.1959 94.5293 77.6339 94.6253 77.9939 94.8173C78.3539 95.0093 78.6419 95.2853 78.8579 95.6453C79.0739 95.9933 79.2299 96.4193 79.3259 96.9233C79.4219 97.4153 79.4699 97.9673 79.4699 98.5793V104.069Z" fill="white"/>
<path d="M64.8784 104.249C64.2064 104.249 63.5824 104.123 63.0064 103.871C62.4424 103.607 61.9504 103.253 61.5304 102.809C61.1224 102.353 60.8044 101.837 60.5764 101.261C60.3484 100.673 60.2344 100.055 60.2344 99.4068C60.2344 98.7348 60.3484 98.1108 60.5764 97.5348C60.8044 96.9468 61.1284 96.4308 61.5484 95.9868C61.9684 95.5308 62.4604 95.1768 63.0244 94.9248C63.6004 94.6608 64.2244 94.5288 64.8964 94.5288C65.5684 94.5288 66.1864 94.6608 66.7504 94.9248C67.3144 95.1768 67.8064 95.5308 68.2264 95.9868C68.6464 96.4308 68.9704 96.9468 69.1984 97.5348C69.4264 98.1108 69.5404 98.7348 69.5404 99.4068C69.5404 100.055 69.4264 100.673 69.1984 101.261C68.9704 101.837 68.6464 102.353 68.2264 102.809C67.8184 103.253 67.3264 103.607 66.7504 103.871C66.1864 104.123 65.5624 104.249 64.8784 104.249ZM61.4764 99.4248C61.4764 100.121 61.6264 100.757 61.9264 101.333C62.2384 101.897 62.6524 102.347 63.1684 102.683C63.6844 103.007 64.2544 103.169 64.8784 103.169C65.5024 103.169 66.0724 103.001 66.5884 102.665C67.1044 102.329 67.5184 101.873 67.8304 101.297C68.1424 100.709 68.2984 100.073 68.2984 99.3888C68.2984 98.6928 68.1424 98.0568 67.8304 97.4808C67.5184 96.9048 67.1044 96.4488 66.5884 96.1128C66.0724 95.7768 65.5024 95.6088 64.8784 95.6088C64.2544 95.6088 63.6844 95.7828 63.1684 96.1308C62.6644 96.4788 62.2564 96.9408 61.9444 97.5168C61.6324 98.0808 61.4764 98.7168 61.4764 99.4248ZM63.0244 92.6568V90.9648H64.0684V92.6568H63.0244ZM65.7064 92.6568V90.9648H66.7504V92.6568H65.7064Z" fill="white"/>
<path d="M51.1321 91.2891L55.3081 98.1651L59.5201 91.2891H60.8881L55.9381 99.3171V104.069H54.6781V99.2811L49.7461 91.2891H51.1321Z" fill="white"/>
<path d="M135.537 80.6194C135.441 80.6554 135.291 80.7214 135.087 80.8174C134.883 80.9134 134.637 80.9974 134.349 81.0694C134.061 81.1414 133.749 81.1774 133.413 81.1774C133.065 81.1774 132.735 81.1114 132.423 80.9794C132.123 80.8474 131.883 80.6494 131.703 80.3854C131.523 80.1094 131.433 79.7734 131.433 79.3774V72.6634H130.137V71.6914H131.433V68.5234H132.657V71.6914H134.817V72.6634H132.657V79.0354C132.681 79.3714 132.801 79.6234 133.017 79.7914C133.245 79.9594 133.503 80.0434 133.791 80.0434C134.127 80.0434 134.433 79.9894 134.709 79.8814C134.985 79.7614 135.153 79.6774 135.213 79.6294L135.537 80.6194Z" fill="white"/>
<path d="M124.608 81.2493C123.936 81.2493 123.312 81.1233 122.736 80.8713C122.16 80.6073 121.662 80.2533 121.242 79.8093C120.822 79.3533 120.492 78.8313 120.252 78.2433C120.024 77.6553 119.91 77.0253 119.91 76.3533C119.91 75.4773 120.108 74.6733 120.504 73.9413C120.912 73.2093 121.47 72.6273 122.178 72.1953C122.886 71.7513 123.69 71.5293 124.59 71.5293C125.514 71.5293 126.318 71.7513 127.002 72.1953C127.698 72.6393 128.244 73.2273 128.64 73.9593C129.036 74.6793 129.234 75.4713 129.234 76.3353C129.234 76.4313 129.234 76.5273 129.234 76.6233C129.234 76.7073 129.228 76.7733 129.216 76.8213H121.188C121.248 77.4933 121.434 78.0933 121.746 78.6213C122.07 79.1373 122.484 79.5513 122.988 79.8633C123.504 80.1633 124.062 80.3133 124.662 80.3133C125.274 80.3133 125.85 80.1573 126.39 79.8453C126.942 79.5333 127.326 79.1253 127.542 78.6213L128.604 78.9093C128.412 79.3533 128.118 79.7553 127.722 80.1153C127.326 80.4753 126.858 80.7573 126.318 80.9613C125.79 81.1533 125.22 81.2493 124.608 81.2493ZM121.152 75.9393H128.082C128.034 75.2553 127.848 74.6553 127.524 74.1393C127.212 73.6233 126.798 73.2213 126.282 72.9333C125.778 72.6333 125.22 72.4833 124.608 72.4833C123.996 72.4833 123.438 72.6333 122.934 72.9333C122.43 73.2213 122.016 73.6293 121.692 74.1573C121.38 74.6733 121.2 75.2673 121.152 75.9393Z" fill="white"/>
<path d="M111.679 83.9494C111.847 83.9614 112.009 83.9674 112.165 83.9674C112.321 83.9794 112.435 83.9734 112.507 83.9494C112.651 83.9254 112.789 83.8414 112.921 83.6974C113.053 83.5534 113.209 83.2774 113.389 82.8694C113.569 82.4614 113.821 81.8614 114.145 81.0694L110.059 71.6914H111.355L114.793 79.8094L117.961 71.6914H119.185L114.325 83.7874C114.241 84.0154 114.115 84.2254 113.947 84.4174C113.779 84.6214 113.569 84.7774 113.317 84.8854C113.077 85.0054 112.777 85.0714 112.417 85.0834C112.309 85.0954 112.195 85.0954 112.075 85.0834C111.967 85.0834 111.835 85.0714 111.679 85.0474V83.9494Z" fill="white"/>
<path d="M107.215 81.0697V71.6917H108.439V81.0697H107.215ZM107.215 69.7297V67.9297H108.439V69.7297H107.215Z" fill="white"/>
<path d="M104.607 81.0693H103.383V75.8313C103.383 74.7273 103.221 73.9233 102.897 73.4193C102.573 72.9033 102.063 72.6453 101.367 72.6453C100.887 72.6453 100.413 72.7653 99.9447 73.0053C99.4767 73.2333 99.0627 73.5513 98.7027 73.9593C98.3547 74.3553 98.1027 74.8113 97.9467 75.3273V81.0693H96.7227V71.6913H97.8387V73.8153C98.0907 73.3593 98.4207 72.9633 98.8287 72.6273C99.2367 72.2793 99.6987 72.0093 100.215 71.8173C100.731 71.6253 101.265 71.5293 101.817 71.5293C102.333 71.5293 102.771 71.6253 103.131 71.8173C103.491 72.0093 103.779 72.2853 103.995 72.6453C104.211 72.9933 104.367 73.4193 104.463 73.9233C104.559 74.4153 104.607 74.9673 104.607 75.5793V81.0693Z" fill="white"/>
<path d="M85.9453 77.1994V71.6914H87.1693V76.9834C87.1693 78.0514 87.3493 78.8494 87.7093 79.3774C88.0813 79.9054 88.6273 80.1694 89.3473 80.1694C89.8273 80.1694 90.2893 80.0674 90.7333 79.8634C91.1893 79.6474 91.5913 79.3474 91.9393 78.9634C92.2873 78.5674 92.5513 78.1114 92.7313 77.5954V71.6914H93.9553V79.5934C93.9553 79.7614 93.9913 79.8874 94.0633 79.9714C94.1353 80.0434 94.2433 80.0854 94.3873 80.0974V81.0694C94.2433 81.0814 94.1293 81.0874 94.0453 81.0874C93.9613 81.0994 93.8833 81.1054 93.8113 81.1054C93.5713 81.0814 93.3613 80.9854 93.1813 80.8174C93.0133 80.6494 92.9233 80.4454 92.9113 80.2054L92.8753 78.9454C92.4673 79.6654 91.9093 80.2294 91.2013 80.6374C90.5053 81.0454 89.7493 81.2494 88.9333 81.2494C87.9493 81.2494 87.2053 80.9074 86.7013 80.2234C86.1973 79.5394 85.9453 78.5314 85.9453 77.1994Z" fill="white"/>
<path d="M83.4231 81.0693H82.1991V75.8313C82.1991 74.7273 82.0371 73.9233 81.7131 73.4193C81.3891 72.9033 80.8791 72.6453 80.1831 72.6453C79.7031 72.6453 79.2291 72.7653 78.7611 73.0053C78.2931 73.2333 77.8791 73.5513 77.5191 73.9593C77.1711 74.3553 76.9191 74.8113 76.7631 75.3273V81.0693H75.5391V71.6913H76.6551V73.8153C76.9071 73.3593 77.2371 72.9633 77.6451 72.6273C78.0531 72.2793 78.5151 72.0093 79.0311 71.8173C79.5471 71.6253 80.0811 71.5293 80.6331 71.5293C81.1491 71.5293 81.5871 71.6253 81.9471 71.8173C82.3071 72.0093 82.5951 72.2853 82.8111 72.6453C83.0271 72.9933 83.1831 73.4193 83.2791 73.9233C83.3751 74.4153 83.4231 74.9673 83.4231 75.5793V81.0693Z" fill="white"/>
<path d="M72.95 81.0693H71.726V75.8313C71.726 74.7393 71.552 73.9353 71.204 73.4193C70.856 72.9033 70.34 72.6453 69.656 72.6453C68.948 72.6453 68.312 72.8973 67.748 73.4013C67.196 73.9053 66.806 74.5533 66.578 75.3453V81.0693H65.354V75.8313C65.354 74.7273 65.186 73.9233 64.85 73.4193C64.514 72.9033 63.998 72.6453 63.302 72.6453C62.606 72.6453 61.976 72.8913 61.412 73.3833C60.848 73.8753 60.452 74.5233 60.224 75.3273V81.0693H59V71.6913H60.116V73.8153C60.512 73.0833 61.016 72.5193 61.628 72.1233C62.252 71.7273 62.942 71.5293 63.698 71.5293C64.478 71.5293 65.108 71.7513 65.588 72.1953C66.068 72.6393 66.362 73.2213 66.47 73.9413C66.902 73.1493 67.418 72.5493 68.018 72.1413C68.63 71.7333 69.32 71.5293 70.088 71.5293C70.616 71.5293 71.06 71.6253 71.42 71.8173C71.792 72.0093 72.086 72.2853 72.302 72.6453C72.53 72.9933 72.692 73.4193 72.788 73.9233C72.896 74.4153 72.95 74.9673 72.95 75.5793V81.0693Z" fill="white"/>
<path d="M52.4871 81.2493C51.8151 81.2493 51.1911 81.1233 50.6151 80.8713C50.0391 80.6073 49.5411 80.2533 49.1211 79.8093C48.7011 79.3533 48.3711 78.8313 48.1311 78.2433C47.9031 77.6553 47.7891 77.0253 47.7891 76.3533C47.7891 75.4773 47.9871 74.6733 48.3831 73.9413C48.7911 73.2093 49.3491 72.6273 50.0571 72.1953C50.7651 71.7513 51.5691 71.5293 52.4691 71.5293C53.3931 71.5293 54.1971 71.7513 54.8811 72.1953C55.5771 72.6393 56.1231 73.2273 56.5191 73.9593C56.9151 74.6793 57.1131 75.4713 57.1131 76.3353C57.1131 76.4313 57.1131 76.5273 57.1131 76.6233C57.1131 76.7073 57.1071 76.7733 57.0951 76.8213H49.0671C49.1271 77.4933 49.3131 78.0933 49.6251 78.6213C49.9491 79.1373 50.3631 79.5513 50.8671 79.8633C51.3831 80.1633 51.9411 80.3133 52.5411 80.3133C53.1531 80.3133 53.7291 80.1573 54.2691 79.8453C54.8211 79.5333 55.2051 79.1253 55.4211 78.6213L56.4831 78.9093C56.2911 79.3533 55.9971 79.7553 55.6011 80.1153C55.2051 80.4753 54.7371 80.7573 54.1971 80.9613C53.6691 81.1533 53.0991 81.2493 52.4871 81.2493ZM49.0311 75.9393H55.9611C55.9131 75.2553 55.7271 74.6553 55.4031 74.1393C55.0911 73.6233 54.6771 73.2213 54.1611 72.9333C53.6571 72.6333 53.0991 72.4833 52.4871 72.4833C51.8751 72.4833 51.3171 72.6333 50.8131 72.9333C50.3091 73.2213 49.8951 73.6293 49.5711 74.1573C49.2591 74.6733 49.0791 75.2673 49.0311 75.9393Z" fill="white"/>
<path d="M44.365 81.0691V70.6651L39.739 78.7471H38.947L34.303 70.6651V81.0691H33.043V68.2891H34.339L39.325 77.0371L44.347 68.2891H45.625V81.0691H44.365Z" fill="white"/>
<path d="M111.926 57.0697V47.6917H113.15V57.0697H111.926ZM111.926 45.7297V43.9297H113.15V45.7297H111.926Z" fill="white"/>
<path d="M110.297 48.7707C109.481 48.7947 108.761 49.0227 108.137 49.4547C107.525 49.8867 107.093 50.4807 106.841 51.2367V57.0687H105.617V47.6907H106.769V49.9407C107.093 49.2807 107.519 48.7467 108.047 48.3387C108.587 47.9307 109.157 47.7027 109.757 47.6547C109.877 47.6427 109.979 47.6367 110.063 47.6367C110.159 47.6367 110.237 47.6427 110.297 47.6547V48.7707Z" fill="white"/>
<path d="M99.1043 57.2493C98.4323 57.2493 97.8083 57.1233 97.2323 56.8713C96.6562 56.6073 96.1582 56.2533 95.7382 55.8093C95.3182 55.3533 94.9882 54.8313 94.7482 54.2433C94.5202 53.6553 94.4062 53.0253 94.4062 52.3533C94.4062 51.4773 94.6043 50.6733 95.0003 49.9413C95.4083 49.2093 95.9663 48.6273 96.6743 48.1953C97.3823 47.7513 98.1863 47.5293 99.0863 47.5293C100.01 47.5293 100.814 47.7513 101.498 48.1953C102.194 48.6393 102.74 49.2273 103.136 49.9593C103.532 50.6793 103.73 51.4713 103.73 52.3353C103.73 52.4313 103.73 52.5273 103.73 52.6233C103.73 52.7073 103.724 52.7733 103.712 52.8213H95.6843C95.7443 53.4933 95.9303 54.0933 96.2423 54.6213C96.5663 55.1373 96.9802 55.5513 97.4842 55.8633C98.0002 56.1633 98.5583 56.3133 99.1583 56.3133C99.7703 56.3133 100.346 56.1573 100.886 55.8453C101.438 55.5333 101.822 55.1253 102.038 54.6213L103.1 54.9093C102.908 55.3533 102.614 55.7553 102.218 56.1153C101.822 56.4753 101.354 56.7573 100.814 56.9613C100.286 57.1533 99.7163 57.2493 99.1043 57.2493ZM95.6483 51.9393H102.578C102.53 51.2553 102.344 50.6553 102.02 50.1393C101.708 49.6233 101.294 49.2213 100.778 48.9333C100.274 48.6333 99.7163 48.4833 99.1043 48.4833C98.4923 48.4833 97.9342 48.6333 97.4302 48.9333C96.9262 49.2213 96.5123 49.6293 96.1883 50.1573C95.8763 50.6733 95.6963 51.2673 95.6483 51.9393Z" fill="white"/>
<path d="M93.6812 56.6194C93.5852 56.6554 93.4353 56.7214 93.2313 56.8174C93.0273 56.9134 92.7812 56.9974 92.4932 57.0694C92.2052 57.1414 91.8933 57.1774 91.5573 57.1774C91.2093 57.1774 90.8792 57.1114 90.5672 56.9794C90.2672 56.8474 90.0272 56.6494 89.8472 56.3854C89.6672 56.1094 89.5772 55.7734 89.5772 55.3774V48.6634H88.2812V47.6914H89.5772V44.5234H90.8013V47.6914H92.9613V48.6634H90.8013V55.0354C90.8253 55.3714 90.9453 55.6234 91.1613 55.7914C91.3893 55.9594 91.6472 56.0434 91.9352 56.0434C92.2712 56.0434 92.5772 55.9894 92.8532 55.8814C93.1292 55.7614 93.2973 55.6774 93.3573 55.6294L93.6812 56.6194Z" fill="white"/>
<path d="M83.559 57.2493C82.791 57.2493 82.077 57.1233 81.417 56.8713C80.757 56.6193 80.187 56.2353 79.707 55.7193L80.211 54.8553C80.739 55.3473 81.267 55.7073 81.795 55.9353C82.335 56.1513 82.905 56.2593 83.505 56.2593C84.237 56.2593 84.831 56.1153 85.287 55.8273C85.743 55.5273 85.971 55.1013 85.971 54.5493C85.971 54.1773 85.857 53.8953 85.629 53.7033C85.413 53.4993 85.095 53.3373 84.675 53.2173C84.267 53.0853 83.775 52.9473 83.199 52.8033C82.551 52.6233 82.005 52.4373 81.561 52.2453C81.129 52.0413 80.799 51.7893 80.571 51.4893C80.355 51.1773 80.247 50.7753 80.247 50.2833C80.247 49.6713 80.397 49.1673 80.697 48.7713C81.009 48.3633 81.429 48.0573 81.957 47.8533C82.497 47.6373 83.097 47.5293 83.757 47.5293C84.477 47.5293 85.113 47.6433 85.665 47.8713C86.217 48.0993 86.667 48.4173 87.015 48.8253L86.421 49.6533C86.085 49.2693 85.683 48.9873 85.215 48.8073C84.759 48.6153 84.249 48.5193 83.685 48.5193C83.301 48.5193 82.935 48.5733 82.587 48.6813C82.239 48.7773 81.951 48.9453 81.723 49.1853C81.507 49.4133 81.399 49.7313 81.399 50.1393C81.399 50.4753 81.483 50.7393 81.651 50.9313C81.819 51.1113 82.071 51.2673 82.407 51.3993C82.743 51.5193 83.157 51.6513 83.649 51.7953C84.357 51.9873 84.975 52.1853 85.503 52.3893C86.031 52.5813 86.439 52.8333 86.727 53.1453C87.015 53.4573 87.159 53.8953 87.159 54.4593C87.159 55.3353 86.829 56.0193 86.169 56.5113C85.509 57.0033 84.639 57.2493 83.559 57.2493ZM83.325 60.3093C83.025 60.3093 82.689 60.2673 82.317 60.1833C81.957 60.0993 81.609 59.9733 81.273 59.8053L81.633 59.1033C81.885 59.2233 82.125 59.3193 82.353 59.3913C82.581 59.4633 82.839 59.4993 83.127 59.4993C83.523 59.4993 83.829 59.4213 84.045 59.2653C84.261 59.1213 84.369 58.8933 84.369 58.5813C84.369 58.2693 84.261 57.9933 84.045 57.7533C83.829 57.5253 83.517 57.2973 83.109 57.0693L83.631 56.7273C84.099 57.0153 84.477 57.3093 84.765 57.6093C85.053 57.9213 85.197 58.3113 85.197 58.7793C85.197 59.2593 85.029 59.6313 84.693 59.8953C84.357 60.1713 83.901 60.3093 83.325 60.3093Z" fill="white"/>
<path d="M69.7031 53.1988V47.6908H70.9271V52.9828C70.9271 54.0508 71.1071 54.8488 71.4671 55.3768C71.8391 55.9048 72.3851 56.1688 73.1051 56.1688C73.5851 56.1688 74.0471 56.0668 74.4911 55.8628C74.9471 55.6468 75.3491 55.3468 75.6971 54.9628C76.0451 54.5668 76.3091 54.1108 76.4891 53.5948V47.6908H77.7131V55.5928C77.7131 55.7608 77.7491 55.8868 77.8211 55.9708C77.8931 56.0428 78.0011 56.0848 78.1451 56.0968V57.0688C78.0011 57.0808 77.8871 57.0868 77.8031 57.0868C77.7191 57.0988 77.6411 57.1048 77.5691 57.1048C77.3291 57.0808 77.1191 56.9848 76.9391 56.8168C76.7711 56.6488 76.6811 56.4448 76.6691 56.2048L76.6331 54.9448C76.2251 55.6648 75.6671 56.2288 74.9591 56.6368C74.2631 57.0448 73.5071 57.2488 72.6911 57.2488C71.7071 57.2488 70.9631 56.9068 70.4591 56.2228C69.9551 55.5388 69.7031 54.5308 69.7031 53.1988ZM71.8091 45.6568V43.9648H72.8531V45.6568H71.8091ZM74.4911 45.6568V43.9648H75.5351V45.6568H74.4911Z" fill="white"/>
<path d="M65.5798 57.0691V46.6651L60.9538 54.7471H60.1618L55.5178 46.6651V57.0691H54.2578V44.2891H55.5538L60.5398 53.0371L65.5618 44.2891H66.8398V57.0691H65.5798Z" fill="white"/>
</svg>
