<svg width="167" height="168" viewBox="0 0 167 168" fill="none" xmlns="http://www.w3.org/2000/svg">
<path d="M83.1868 160.491C125.005 160.491 158.905 126.591 158.905 84.7728C158.905 42.9548 125.005 9.05469 83.1868 9.05469C41.3689 9.05469 7.46875 42.9548 7.46875 84.7728C7.46875 126.591 41.3689 160.491 83.1868 160.491Z" fill="white"/>
<path d="M83.4533 154.067C121.945 154.067 153.149 122.863 153.149 84.3713C153.149 45.8795 121.945 14.6758 83.4533 14.6758C44.9616 14.6758 13.7578 45.8795 13.7578 84.3713C13.7578 122.863 44.9616 154.067 83.4533 154.067Z" fill="#D7EEF0"/>
<path d="M164.334 88.4607L164.351 88.4526C167.752 86.7953 167.752 81.9534 164.351 80.2961L164.337 80.2853C162.663 79.4702 161.789 77.84 161.789 76.2016C161.789 74.8585 162.374 73.5099 163.587 72.5919C166.604 70.3063 165.661 65.5511 162.003 64.5898H161.992C158.723 63.7259 157.507 59.7235 159.752 57.1915L159.758 57.1834C162.268 54.3509 160.41 49.8746 156.633 49.6471H156.627C153.253 49.444 151.276 45.7557 152.98 42.8338L152.985 42.8202C154.19 40.7568 153.557 38.3927 151.986 37.0576C151.068 36.2804 149.83 35.8499 148.449 36.0421H148.441C145.089 36.5052 142.429 33.2692 143.532 30.071L143.537 30.0602C144.769 26.4857 141.346 23.0573 137.769 24.2895L137.755 24.2949C134.56 25.397 131.321 22.7378 131.784 19.388V19.3799C132.299 15.632 128.275 12.9349 125.003 14.8413L124.993 14.8494C122.071 16.5528 118.38 14.5759 118.179 11.2018V11.1964C117.952 7.41871 113.473 5.56373 110.64 8.07404L110.635 8.07946C108.942 9.57697 106.586 9.53094 104.956 8.35567C104.149 7.77616 103.521 6.92044 103.237 5.83724V5.82912C102.663 3.66002 100.759 2.44413 98.8254 2.44413C97.4984 2.44413 96.158 3.01552 95.2291 4.24494C93.1846 6.9421 89.017 6.5359 87.5357 3.49483L87.5249 3.47858C85.8676 0.080056 81.0284 0.080056 79.3712 3.47858L79.3603 3.49483C78.5452 5.16837 76.9177 6.04305 75.2767 6.04305C73.9362 6.04305 72.5876 5.45541 71.6669 4.24223C69.3841 1.22554 64.6262 2.16792 63.6648 5.82912V5.83724C62.801 9.10578 58.7986 10.3217 56.2639 8.07946L56.2585 8.07404C53.4259 5.56373 48.9469 7.41871 48.7221 11.1964V11.2018C48.519 14.5759 44.828 16.5528 41.9061 14.8494L41.8953 14.8413C38.6295 12.9376 34.6 15.632 35.1145 19.3799V19.3853C35.5776 22.7378 32.3415 25.397 29.1434 24.2949L29.1325 24.2895C25.558 23.0573 22.1324 26.4829 23.3645 30.0575L23.3699 30.0683C24.4721 33.2665 21.8129 36.5025 18.4604 36.0421H18.4522C14.7071 35.5249 12.0099 39.5517 13.9164 42.8202L13.9245 42.8311C15.6278 45.753 13.6483 49.444 10.2768 49.6471H10.2714C6.49376 49.8718 4.63879 54.3509 7.14638 57.1834L7.1518 57.1888C9.39401 59.7208 8.18084 63.7259 4.91229 64.5871H4.90146C2.73236 65.1612 1.51647 67.0649 1.51647 68.9984C1.51647 70.3253 2.08786 71.6657 3.31729 72.5946C6.01444 74.6391 5.60825 78.8067 2.56717 80.288L2.55093 80.2988C-0.850309 81.9561 -0.850309 86.798 2.55093 88.4553L2.56447 88.4634C4.238 89.2785 5.11268 90.9087 5.11268 92.547C5.11268 93.8902 4.52776 95.2388 3.31458 96.1568C0.297879 98.4423 1.24026 103.198 4.89875 104.159H4.90958C8.17813 105.023 9.39401 109.028 7.14909 111.56L7.14368 111.565C4.63337 114.398 6.49105 118.877 10.2687 119.104H10.2741C13.6483 119.305 15.6251 122.996 13.9218 125.918L13.9164 125.928C12.0099 129.194 14.7071 133.224 18.4522 132.709H18.4604C21.2875 132.319 23.6191 134.561 23.6218 137.191C23.6218 137.681 23.5405 138.182 23.3699 138.683L23.3645 138.694C22.1324 142.268 25.5553 145.694 29.1325 144.462L29.1434 144.456C32.3388 143.354 35.5776 146.014 35.1145 149.366V149.374C34.6 153.119 38.624 155.819 41.8953 153.91L41.9061 153.905C44.828 152.199 48.519 154.178 48.7194 157.552C48.9469 161.333 53.4259 163.19 56.2585 160.68L56.2639 160.675C58.7932 158.432 62.801 159.646 63.6621 162.914V162.925C64.2362 165.094 66.1399 166.31 68.0734 166.31C69.4003 166.31 70.7408 165.739 71.6696 164.509C73.7142 161.812 77.8818 162.218 79.363 165.262L79.3739 165.278C81.0311 168.677 85.8703 168.677 87.5276 165.278L87.5385 165.262C88.3536 163.588 89.9838 162.714 91.6248 162.714C92.9653 162.714 94.3138 163.299 95.2318 164.512C97.5147 167.529 102.273 166.586 103.234 162.928V162.917C104.098 159.648 108.1 158.432 110.635 160.677L110.64 160.683C113.473 163.193 117.952 161.335 118.177 157.558C118.38 154.178 122.071 152.201 124.993 153.907L125.003 153.913C128.269 155.819 132.299 153.122 131.784 149.377V149.369C131.321 146.016 134.557 143.357 137.755 144.462H137.769C138.83 144.83 139.876 144.784 140.794 144.448C142.966 143.649 144.406 141.21 143.537 138.697L143.532 138.686C142.429 135.488 145.089 132.249 148.441 132.712H148.449C152.194 133.226 154.892 129.202 152.985 125.931L152.977 125.92C151.274 122.998 153.251 119.307 156.625 119.107H156.63C160.408 118.88 162.263 114.403 159.755 111.568L159.75 111.563C157.507 109.033 158.721 105.025 161.989 104.164H162C164.169 103.593 165.385 101.689 165.385 99.753C165.385 98.4261 164.814 97.0856 163.584 96.1568C160.887 94.1123 161.293 89.9447 164.334 88.4634V88.4607ZM136.001 134.84C135.665 135.195 135.318 135.544 134.972 135.894C121.21 149.656 102.914 157.233 83.4548 157.233C63.9952 157.233 46.182 149.854 32.485 136.435C32.3036 136.257 32.1195 136.078 31.938 135.897C18.176 122.135 10.5964 103.839 10.5964 84.377C10.5964 64.9147 18.176 46.6223 31.938 32.8603C45.6973 19.0983 63.9952 11.5186 83.4548 11.5186C91.8604 11.5186 100.049 12.9322 107.748 15.6483C117.876 19.2201 127.156 25.0423 134.972 32.8576C138.887 36.7733 142.305 41.0601 145.189 45.6366C152.435 57.132 156.313 70.4553 156.313 84.3743C156.313 103.344 149.113 121.206 136.001 134.84Z" fill="#3C3C3B"/>
<path d="M83.5781 157C123.619 157 156.078 124.541 156.078 84.5C156.078 44.4594 123.619 12 83.5781 12C43.5375 12 11.0781 44.4594 11.0781 84.5C11.0781 124.541 43.5375 157 83.5781 157Z" fill="#3C3C3B"/>
<path d="M111.234 114.999V105.621H112.458V114.999H111.234ZM111.234 103.659V101.859H112.458V103.659H111.234Z" fill="white"/>
<path d="M108.641 115.001H107.417V109.763C107.417 108.671 107.243 107.867 106.895 107.351C106.547 106.835 106.031 106.577 105.347 106.577C104.639 106.577 104.003 106.829 103.439 107.333C102.887 107.837 102.497 108.485 102.269 109.277V115.001H101.045V109.763C101.045 108.659 100.877 107.855 100.541 107.351C100.205 106.835 99.6894 106.577 98.9934 106.577C98.2974 106.577 97.6674 106.823 97.1034 107.315C96.5394 107.807 96.1434 108.455 95.9154 109.259V115.001H94.6914V105.623H95.8074V107.747C96.2034 107.015 96.7074 106.451 97.3194 106.055C97.9434 105.659 98.6334 105.461 99.3894 105.461C100.169 105.461 100.799 105.683 101.279 106.127C101.759 106.571 102.053 107.153 102.161 107.873C102.593 107.081 103.109 106.481 103.709 106.073C104.321 105.665 105.011 105.461 105.779 105.461C106.307 105.461 106.751 105.557 107.111 105.749C107.483 105.941 107.777 106.217 107.993 106.577C108.221 106.925 108.383 107.351 108.479 107.855C108.587 108.347 108.641 108.899 108.641 109.511V115.001Z" fill="white"/>
<path d="M88.1785 115.181C87.5065 115.181 86.8825 115.055 86.3065 114.803C85.7305 114.539 85.2325 114.185 84.8125 113.741C84.3925 113.285 84.0625 112.763 83.8225 112.175C83.5945 111.587 83.4805 110.957 83.4805 110.285C83.4805 109.409 83.6785 108.605 84.0745 107.873C84.4825 107.141 85.0405 106.559 85.7485 106.127C86.4565 105.683 87.2605 105.461 88.1605 105.461C89.0845 105.461 89.8885 105.683 90.5725 106.127C91.2685 106.571 91.8145 107.159 92.2105 107.891C92.6065 108.611 92.8045 109.403 92.8045 110.267C92.8045 110.363 92.8045 110.459 92.8045 110.555C92.8045 110.639 92.7985 110.705 92.7865 110.753H84.7585C84.8185 111.425 85.0045 112.025 85.3165 112.553C85.6405 113.069 86.0545 113.483 86.5585 113.795C87.0745 114.095 87.6325 114.245 88.2325 114.245C88.8445 114.245 89.4205 114.089 89.9605 113.777C90.5125 113.465 90.8965 113.057 91.1125 112.553L92.1745 112.841C91.9825 113.285 91.6885 113.687 91.2925 114.047C90.8965 114.407 90.4285 114.689 89.8885 114.893C89.3605 115.085 88.7905 115.181 88.1785 115.181ZM84.7225 109.871H91.6525C91.6045 109.187 91.4185 108.587 91.0945 108.071C90.7825 107.555 90.3685 107.153 89.8525 106.865C89.3485 106.565 88.7905 106.415 88.1785 106.415C87.5665 106.415 87.0085 106.565 86.5045 106.865C86.0005 107.153 85.5865 107.561 85.2625 108.089C84.9505 108.605 84.7705 109.199 84.7225 109.871Z" fill="white"/>
<path d="M82.7555 114.549C82.6595 114.585 82.5095 114.651 82.3055 114.747C82.1015 114.843 81.8555 114.927 81.5675 114.999C81.2795 115.071 80.9675 115.107 80.6315 115.107C80.2835 115.107 79.9535 115.041 79.6415 114.909C79.3415 114.777 79.1015 114.579 78.9215 114.315C78.7415 114.039 78.6515 113.703 78.6515 113.307V106.593H77.3555V105.621H78.6515V102.453H79.8755V105.621H82.0355V106.593H79.8755V112.965C79.8995 113.301 80.0195 113.553 80.2355 113.721C80.4635 113.889 80.7215 113.973 81.0095 113.973C81.3455 113.973 81.6515 113.919 81.9275 113.811C82.2035 113.691 82.3715 113.607 82.4315 113.559L82.7555 114.549Z" fill="white"/>
<path d="M72.6332 115.181C71.8652 115.181 71.1512 115.055 70.4912 114.803C69.8312 114.551 69.2613 114.167 68.7812 113.651L69.2852 112.787C69.8132 113.279 70.3412 113.639 70.8692 113.867C71.4092 114.083 71.9793 114.191 72.5793 114.191C73.3113 114.191 73.9053 114.047 74.3612 113.759C74.8173 113.459 75.0452 113.033 75.0452 112.481C75.0452 112.109 74.9313 111.827 74.7033 111.635C74.4873 111.431 74.1693 111.269 73.7493 111.149C73.3413 111.017 72.8493 110.879 72.2733 110.735C71.6253 110.555 71.0793 110.369 70.6353 110.177C70.2033 109.973 69.8733 109.721 69.6453 109.421C69.4293 109.109 69.3212 108.707 69.3212 108.215C69.3212 107.603 69.4712 107.099 69.7712 106.703C70.0832 106.295 70.5033 105.989 71.0312 105.785C71.5712 105.569 72.1712 105.461 72.8312 105.461C73.5512 105.461 74.1873 105.575 74.7393 105.803C75.2913 106.031 75.7413 106.349 76.0893 106.757L75.4953 107.585C75.1593 107.201 74.7572 106.919 74.2892 106.739C73.8332 106.547 73.3233 106.451 72.7593 106.451C72.3753 106.451 72.0092 106.505 71.6612 106.613C71.3132 106.709 71.0253 106.877 70.7973 107.117C70.5813 107.345 70.4732 107.663 70.4732 108.071C70.4732 108.407 70.5573 108.671 70.7253 108.863C70.8933 109.043 71.1453 109.199 71.4813 109.331C71.8173 109.451 72.2312 109.583 72.7232 109.727C73.4312 109.919 74.0492 110.117 74.5772 110.321C75.1052 110.513 75.5133 110.765 75.8013 111.077C76.0893 111.389 76.2332 111.827 76.2332 112.391C76.2332 113.267 75.9032 113.951 75.2432 114.443C74.5833 114.935 73.7132 115.181 72.6332 115.181Z" fill="white"/>
<path d="M65.6367 114.999V105.621H66.8607V114.999H65.6367ZM65.6367 103.659V101.859H66.8607V103.659H65.6367Z" fill="white"/>
<path d="M62.4257 104.615C62.2457 104.411 62.0357 104.231 61.7957 104.075C61.5557 103.907 61.2857 103.763 60.9857 103.643C60.6857 103.523 60.3617 103.427 60.0137 103.355C59.6777 103.283 59.3177 103.247 58.9337 103.247C57.8177 103.247 56.9957 103.463 56.4677 103.895C55.9517 104.315 55.6937 104.891 55.6937 105.623C55.6937 106.127 55.8137 106.523 56.0537 106.811C56.3057 107.099 56.6957 107.333 57.2237 107.513C57.7517 107.693 58.4237 107.879 59.2397 108.071C60.1517 108.263 60.9377 108.491 61.5977 108.755C62.2577 109.019 62.7677 109.379 63.1277 109.835C63.4877 110.279 63.6677 110.885 63.6677 111.653C63.6677 112.241 63.5537 112.751 63.3257 113.183C63.0977 113.615 62.7797 113.975 62.3717 114.263C61.9637 114.551 61.4777 114.767 60.9137 114.911C60.3497 115.043 59.7317 115.109 59.0597 115.109C58.3997 115.109 57.7637 115.043 57.1517 114.911C56.5517 114.767 55.9817 114.563 55.4417 114.299C54.9017 114.023 54.3977 113.675 53.9297 113.255L54.5597 112.229C54.7877 112.469 55.0577 112.697 55.3697 112.913C55.6937 113.117 56.0477 113.303 56.4317 113.471C56.8277 113.639 57.2477 113.771 57.6917 113.867C58.1477 113.951 58.6157 113.993 59.0957 113.993C60.1157 113.993 60.9077 113.807 61.4717 113.435C62.0477 113.063 62.3357 112.511 62.3357 111.779C62.3357 111.251 62.1917 110.831 61.9037 110.519C61.6157 110.195 61.1837 109.931 60.6077 109.727C60.0317 109.523 59.3237 109.325 58.4837 109.133C57.5957 108.929 56.8457 108.701 56.2337 108.449C55.6217 108.197 55.1597 107.867 54.8477 107.459C54.5477 107.039 54.3977 106.487 54.3977 105.803C54.3977 105.011 54.5897 104.345 54.9737 103.805C55.3697 103.253 55.9097 102.839 56.5937 102.563C57.2777 102.275 58.0637 102.131 58.9517 102.131C59.5157 102.131 60.0377 102.191 60.5177 102.311C61.0097 102.419 61.4597 102.581 61.8677 102.797C62.2877 103.013 62.6777 103.283 63.0377 103.607L62.4257 104.615Z" fill="white"/>
<path d="M116.458 92.0009H115.234V86.7629C115.234 85.6709 115.06 84.8669 114.712 84.3509C114.364 83.8349 113.848 83.5769 113.164 83.5769C112.456 83.5769 111.82 83.8289 111.256 84.3329C110.704 84.8369 110.314 85.4849 110.086 86.2769V92.0009H108.862V86.7629C108.862 85.6589 108.694 84.8549 108.358 84.3509C108.022 83.8349 107.506 83.5769 106.81 83.5769C106.114 83.5769 105.484 83.8229 104.92 84.3149C104.356 84.8069 103.96 85.4549 103.732 86.2589V92.0009H102.508V82.6229H103.624V84.7469C104.02 84.0149 104.524 83.4509 105.136 83.0549C105.76 82.6589 106.45 82.4609 107.206 82.4609C107.986 82.4609 108.616 82.6829 109.096 83.1269C109.576 83.5709 109.87 84.1529 109.978 84.8729C110.41 84.0809 110.926 83.4809 111.526 83.0729C112.138 82.6649 112.828 82.4609 113.596 82.4609C114.124 82.4609 114.568 82.5569 114.928 82.7489C115.3 82.9409 115.594 83.2169 115.81 83.5769C116.038 83.9249 116.2 84.3509 116.296 84.8549C116.404 85.3469 116.458 85.8989 116.458 86.5109V92.0009Z" fill="white"/>
<path d="M98.5859 91.9994V82.6214H99.8099V91.9994H98.5859ZM98.5859 80.6594V78.8594H99.8099V80.6594H98.5859Z" fill="white"/>
<path d="M97.0562 91.5491C96.9602 91.5851 96.8103 91.6511 96.6063 91.7471C96.4023 91.8431 96.1562 91.9271 95.8682 91.9991C95.5802 92.0711 95.2683 92.1071 94.9323 92.1071C94.5843 92.1071 94.2542 92.0411 93.9422 91.9091C93.6422 91.7771 93.4022 91.5791 93.2222 91.3151C93.0422 91.0391 92.9522 90.7031 92.9522 90.3071V83.5931H91.6562V82.6211H92.9522V79.4531H94.1763V82.6211H96.3363V83.5931H94.1763V89.9651C94.2003 90.3011 94.3203 90.5531 94.5363 90.7211C94.7643 90.8891 95.0222 90.9731 95.3102 90.9731C95.6462 90.9731 95.9522 90.9191 96.2282 90.8111C96.5042 90.6911 96.6723 90.6071 96.7323 90.5591L97.0562 91.5491Z" fill="white"/>
<path d="M86.1316 92.1809C85.4596 92.1809 84.8356 92.0549 84.2596 91.8029C83.6836 91.5389 83.1856 91.1849 82.7656 90.7409C82.3456 90.2849 82.0156 89.7629 81.7756 89.1749C81.5476 88.5869 81.4336 87.9569 81.4336 87.2849C81.4336 86.4089 81.6316 85.6049 82.0276 84.8729C82.4356 84.1409 82.9936 83.5589 83.7016 83.1269C84.4096 82.6829 85.2136 82.4609 86.1136 82.4609C87.0376 82.4609 87.8416 82.6829 88.5256 83.1269C89.2216 83.5709 89.7676 84.1589 90.1636 84.8909C90.5596 85.6109 90.7576 86.4029 90.7576 87.2669C90.7576 87.3629 90.7576 87.4589 90.7576 87.5549C90.7576 87.6389 90.7516 87.7049 90.7396 87.7529H82.7116C82.7716 88.4249 82.9576 89.0249 83.2696 89.5529C83.5936 90.0689 84.0076 90.4829 84.5116 90.7949C85.0276 91.0949 85.5856 91.2449 86.1856 91.2449C86.7976 91.2449 87.3736 91.0889 87.9136 90.7769C88.4656 90.4649 88.8496 90.0569 89.0656 89.5529L90.1276 89.8409C89.9356 90.2849 89.6416 90.6869 89.2456 91.0469C88.8496 91.4069 88.3816 91.6889 87.8416 91.8929C87.3136 92.0849 86.7436 92.1809 86.1316 92.1809ZM82.6756 86.8709H89.6056C89.5576 86.1869 89.3716 85.5869 89.0476 85.0709C88.7356 84.5549 88.3216 84.1529 87.8056 83.8649C87.3016 83.5649 86.7436 83.4149 86.1316 83.4149C85.5196 83.4149 84.9616 83.5649 84.4576 83.8649C83.9536 84.1529 83.5396 84.5609 83.2156 85.0889C82.9036 85.6049 82.7236 86.1989 82.6756 86.8709Z" fill="white"/>
<path d="M79.4699 92.0009H78.2459V86.7629C78.2459 85.6589 78.0839 84.8549 77.7599 84.3509C77.4359 83.8349 76.9259 83.5769 76.2299 83.5769C75.7499 83.5769 75.2759 83.6969 74.8079 83.9369C74.3399 84.1649 73.9259 84.4829 73.5659 84.8909C73.2179 85.2869 72.9659 85.7429 72.8099 86.2589V92.0009H71.5859V82.6229H72.7019V84.7469C72.9539 84.2909 73.2839 83.8949 73.6919 83.5589C74.0999 83.2109 74.5619 82.9409 75.0779 82.7489C75.5939 82.5569 76.1279 82.4609 76.6799 82.4609C77.1959 82.4609 77.6339 82.5569 77.9939 82.7489C78.3539 82.9409 78.6419 83.2169 78.8579 83.5769C79.0739 83.9249 79.2299 84.3509 79.3259 84.8549C79.4219 85.3469 79.4699 85.8989 79.4699 86.5109V92.0009Z" fill="white"/>
<path d="M64.8784 92.1805C64.2064 92.1805 63.5824 92.0545 63.0064 91.8025C62.4424 91.5385 61.9504 91.1845 61.5304 90.7405C61.1224 90.2845 60.8044 89.7685 60.5764 89.1925C60.3484 88.6045 60.2344 87.9865 60.2344 87.3385C60.2344 86.6665 60.3484 86.0425 60.5764 85.4665C60.8044 84.8785 61.1284 84.3625 61.5484 83.9185C61.9684 83.4625 62.4604 83.1085 63.0244 82.8565C63.6004 82.5925 64.2244 82.4605 64.8964 82.4605C65.5684 82.4605 66.1864 82.5925 66.7504 82.8565C67.3144 83.1085 67.8064 83.4625 68.2264 83.9185C68.6464 84.3625 68.9704 84.8785 69.1984 85.4665C69.4264 86.0425 69.5404 86.6665 69.5404 87.3385C69.5404 87.9865 69.4264 88.6045 69.1984 89.1925C68.9704 89.7685 68.6464 90.2845 68.2264 90.7405C67.8184 91.1845 67.3264 91.5385 66.7504 91.8025C66.1864 92.0545 65.5624 92.1805 64.8784 92.1805ZM61.4764 87.3565C61.4764 88.0525 61.6264 88.6885 61.9264 89.2645C62.2384 89.8285 62.6524 90.2785 63.1684 90.6145C63.6844 90.9385 64.2544 91.1005 64.8784 91.1005C65.5024 91.1005 66.0724 90.9325 66.5884 90.5965C67.1044 90.2605 67.5184 89.8045 67.8304 89.2285C68.1424 88.6405 68.2984 88.0045 68.2984 87.3205C68.2984 86.6245 68.1424 85.9885 67.8304 85.4125C67.5184 84.8365 67.1044 84.3805 66.5884 84.0445C66.0724 83.7085 65.5024 83.5405 64.8784 83.5405C64.2544 83.5405 63.6844 83.7145 63.1684 84.0625C62.6644 84.4105 62.2564 84.8725 61.9444 85.4485C61.6324 86.0125 61.4764 86.6485 61.4764 87.3565ZM63.0244 80.5885V78.8965H64.0684V80.5885H63.0244ZM65.7064 80.5885V78.8965H66.7504V80.5885H65.7064Z" fill="white"/>
<path d="M51.1321 79.2207L55.3081 86.0967L59.5201 79.2207H60.8881L55.9381 87.2487V92.0007H54.6781V87.2127L49.7461 79.2207H51.1321Z" fill="white"/>
<path d="M101.82 67.9994V58.6214H103.044V67.9994H101.82ZM101.82 56.6594V54.8594H103.044V56.6594H101.82Z" fill="white"/>
<path d="M96.3723 71.2574C95.9763 71.2574 95.6043 71.2034 95.2563 71.0954C94.8963 70.9874 94.5843 70.8074 94.3203 70.5554L94.9143 69.7274C95.0943 69.8954 95.3043 70.0094 95.5443 70.0694C95.7723 70.1294 96.0003 70.1594 96.2283 70.1594C96.5163 70.1594 96.7863 70.0874 97.0383 69.9434C97.2903 69.7994 97.4943 69.5954 97.6503 69.3314C97.8183 69.0794 97.9023 68.7974 97.9023 68.4854V58.6214H99.1263V68.4134C99.1263 68.9654 98.9943 69.4574 98.7303 69.8894C98.4663 70.3214 98.1243 70.6574 97.7043 70.8974C97.2843 71.1374 96.8403 71.2574 96.3723 71.2574ZM97.9023 56.6594V54.8594H99.1263V56.6594H97.9023Z" fill="white"/>
<path d="M96.1488 59.7024C95.3328 59.7264 94.6128 59.9544 93.9888 60.3864C93.3768 60.8184 92.9448 61.4124 92.6928 62.1684V68.0004H91.4688V58.6224H92.6208V60.8724C92.9448 60.2124 93.3708 59.6784 93.8988 59.2704C94.4388 58.8624 95.0088 58.6344 95.6088 58.5864C95.7288 58.5744 95.8308 58.5684 95.9148 58.5684C96.0108 58.5684 96.0888 58.5744 96.1488 58.5864V59.7024Z" fill="white"/>
<path d="M84.9519 68.1809C84.2799 68.1809 83.6559 68.0549 83.0799 67.8029C82.5039 67.5389 82.0059 67.1849 81.5859 66.7409C81.1659 66.2849 80.8359 65.7629 80.5959 65.1749C80.3679 64.5869 80.2539 63.9569 80.2539 63.2849C80.2539 62.4089 80.4519 61.6049 80.8479 60.8729C81.2559 60.1409 81.8139 59.5589 82.5219 59.1269C83.2299 58.6829 84.0339 58.4609 84.9339 58.4609C85.8579 58.4609 86.6619 58.6829 87.3459 59.1269C88.0419 59.5709 88.5879 60.1589 88.9839 60.8909C89.3799 61.6109 89.5779 62.4029 89.5779 63.2669C89.5779 63.3629 89.5779 63.4589 89.5779 63.5549C89.5779 63.6389 89.5719 63.7049 89.5599 63.7529H81.5319C81.5919 64.4249 81.7779 65.0249 82.0899 65.5529C82.4139 66.0689 82.8279 66.4829 83.3319 66.7949C83.8479 67.0949 84.4059 67.2449 85.0059 67.2449C85.6179 67.2449 86.1939 67.0889 86.7339 66.7769C87.2859 66.4649 87.6699 66.0569 87.8859 65.5529L88.9479 65.8409C88.7559 66.2849 88.4619 66.6869 88.0659 67.0469C87.6699 67.4069 87.2019 67.6889 86.6619 67.8929C86.1339 68.0849 85.5639 68.1809 84.9519 68.1809ZM81.4959 62.8709H88.4259C88.3779 62.1869 88.1919 61.5869 87.8679 61.0709C87.5559 60.5549 87.1419 60.1529 86.6259 59.8649C86.1219 59.5649 85.5639 59.4149 84.9519 59.4149C84.3399 59.4149 83.7819 59.5649 83.2779 59.8649C82.7739 60.1529 82.3599 60.5609 82.0359 61.0889C81.7239 61.6049 81.5439 62.1989 81.4959 62.8709Z" fill="white"/>
<path d="M78.2942 68.0009H77.0702V62.7629C77.0702 61.6589 76.9082 60.8549 76.5842 60.3509C76.2602 59.8349 75.7502 59.5769 75.0542 59.5769C74.5742 59.5769 74.1002 59.6969 73.6322 59.9369C73.1642 60.1649 72.7502 60.4829 72.3902 60.8909C72.0422 61.2869 71.7902 61.7429 71.6342 62.2589V68.0009H70.4102V58.6229H71.5262V60.7469C71.7782 60.2909 72.1082 59.8949 72.5162 59.5589C72.9242 59.2109 73.3862 58.9409 73.9022 58.7489C74.4182 58.5569 74.9522 58.4609 75.5042 58.4609C76.0202 58.4609 76.4582 58.5569 76.8182 58.7489C77.1782 58.9409 77.4662 59.2169 77.6822 59.5769C77.8982 59.9249 78.0542 60.3509 78.1502 60.8549C78.2462 61.3469 78.2942 61.8989 78.2942 62.5109V68.0009Z" fill="white"/>
<path d="M68.3673 66.8847V68.0007H59.7812V55.2207H68.2053V56.3367H61.0413V60.9447H67.2873V62.0067H61.0413V66.8847H68.3673Z" fill="white"/>
</svg>
