<svg width="172" height="171" viewBox="0 0 172 171" fill="none" xmlns="http://www.w3.org/2000/svg">
<path d="M85.3782 161.227C127.196 161.227 161.096 127.444 161.096 85.7716C161.096 44.0988 127.196 10.3164 85.3782 10.3164C43.5603 10.3164 9.66016 44.0988 9.66016 85.7716C9.66016 127.444 43.5603 161.227 85.3782 161.227Z" fill="white"/>
<path d="M85.9533 154.831C124.445 154.831 155.649 123.735 155.649 85.3773C155.649 47.0192 124.445 15.9238 85.9533 15.9238C47.4616 15.9238 16.2578 47.0192 16.2578 85.3773C16.2578 123.735 47.4616 154.831 85.9533 154.831Z" fill="#D7EEF0"/>
<path d="M166.834 89.4517L166.851 89.4436C170.252 87.792 170.252 82.967 166.851 81.3154L166.837 81.3046C165.163 80.4924 164.289 78.8678 164.289 77.2352C164.289 75.8967 164.874 74.5528 166.087 73.638C169.104 71.3604 168.161 66.6216 164.503 65.6636H164.492C161.223 64.8028 160.007 60.8143 162.252 58.2911L162.258 58.283C164.768 55.4603 162.91 50.9995 159.133 50.7728H159.127C155.753 50.5704 153.776 46.895 155.48 43.9832L155.485 43.9697C156.69 41.9134 156.056 39.5575 154.486 38.2271C153.568 37.4526 152.33 37.0235 150.949 37.2151H150.941C147.589 37.6766 144.929 34.4518 146.032 31.2648L146.037 31.254C147.269 27.6918 143.846 24.2754 140.269 25.5033L140.255 25.5087C137.06 26.607 133.821 23.957 134.284 20.6188V20.6108C134.799 16.8759 130.775 14.1881 127.503 16.0879L127.493 16.096C124.571 17.7934 120.88 15.8235 120.679 12.461V12.4556C120.452 8.6911 115.973 6.84256 113.14 9.34415L113.135 9.34955C111.442 10.8419 109.086 10.796 107.456 9.62481C106.649 9.04731 106.021 8.19456 105.737 7.11512V7.10703C105.163 4.94546 103.259 3.73379 101.325 3.73379C99.9984 3.73379 98.658 4.3032 97.7291 5.52835C95.6846 8.21615 91.517 7.81136 90.0357 4.78084L90.0249 4.76465C88.3676 1.37793 83.5284 1.37793 81.8711 4.76465L81.8603 4.78084C81.0452 6.44857 79.4177 7.32021 77.7767 7.32021C76.4362 7.32021 75.0876 6.73462 74.1669 5.52565C71.8841 2.51943 67.1262 3.45854 66.1648 7.10703V7.11512C65.301 10.3723 61.2986 11.584 58.7639 9.34955L58.7585 9.34415C55.9259 6.84256 51.4469 8.6911 51.2221 12.4556V12.461C51.019 15.8235 47.328 17.7934 44.4061 16.096L44.3953 16.0879C41.1295 14.1908 37.1 16.8759 37.6145 20.6108V20.6161C38.0776 23.957 34.8415 26.607 31.6434 25.5087L31.6325 25.5033C28.058 24.2754 24.6324 27.6891 25.8645 31.2513L25.8699 31.2621C26.9721 34.4491 24.3128 37.6739 20.9604 37.2151H20.9522C17.2071 36.6997 14.5099 40.7125 16.4164 43.9697L16.4245 43.9805C18.1278 46.8923 16.1483 50.5704 12.7768 50.7728H12.7714C8.99376 50.9968 7.13878 55.4603 9.64638 58.283L9.6518 58.2884C11.894 60.8116 10.6808 64.8028 7.41229 65.6609H7.40146C5.23236 66.233 4.01647 68.1301 4.01647 70.0569C4.01647 71.3792 4.58786 72.715 5.81729 73.6407C8.51444 75.6781 8.10824 79.8312 5.06717 81.3073L5.05093 81.3181C1.64969 82.9697 1.64969 87.7947 5.05093 89.4463L5.06447 89.4544C6.738 90.2666 7.61268 91.8912 7.61268 93.5238C7.61268 94.8623 7.02776 96.2062 5.81458 97.1211C2.79788 99.3987 3.74026 104.137 7.39875 105.095H7.40958C10.6781 105.956 11.894 109.947 9.64909 112.471L9.64367 112.476C7.13337 115.299 8.99105 119.762 12.7687 119.989H12.7741C16.1483 120.189 18.1251 123.867 16.4218 126.779L16.4164 126.789C14.5099 130.044 17.2071 134.059 20.9522 133.547H20.9604C23.7875 133.158 26.1191 135.392 26.1218 138.013C26.1218 138.501 26.0405 139 25.8699 139.5L25.8645 139.51C24.6324 143.073 28.0553 146.486 31.6325 145.258L31.6434 145.253C34.8388 144.155 38.0776 146.805 37.6145 150.146V150.154C37.1 153.886 41.124 156.576 44.3953 154.674L44.4061 154.668C47.328 152.968 51.019 154.941 51.2194 158.303C51.4469 162.071 55.9259 163.922 58.7585 161.42L58.7639 161.415C61.2931 159.18 65.301 160.389 66.1621 163.647V163.657C66.7362 165.819 68.6399 167.031 70.5734 167.031C71.9003 167.031 73.2408 166.461 74.1696 165.236C76.2142 162.548 80.3818 162.953 81.863 165.986L81.8738 166.002C83.5311 169.389 88.3703 169.389 90.0276 166.002L90.0384 165.986C90.8535 164.319 92.4838 163.447 94.1248 163.447C95.4652 163.447 96.8138 164.03 97.7318 165.239C100.015 168.245 104.773 167.306 105.734 163.66V163.649C106.598 160.392 110.6 159.18 113.135 161.418L113.14 161.423C115.973 163.925 120.452 162.073 120.677 158.309C120.88 154.941 124.571 152.971 127.493 154.671L127.503 154.676C130.769 156.576 134.799 153.889 134.284 150.156V150.148C133.821 146.807 137.057 144.157 140.255 145.258H140.269C141.33 145.625 142.376 145.58 143.294 145.245C145.466 144.449 146.906 142.017 146.037 139.513L146.032 139.502C144.929 136.315 147.589 133.088 150.941 133.549H150.949C154.694 134.062 157.392 130.052 155.485 126.792L155.477 126.781C153.774 123.869 155.75 120.191 159.125 119.992H159.13C162.908 119.765 164.763 115.304 162.255 112.479L162.25 112.473C160.007 109.953 161.221 105.959 164.489 105.101H164.5C166.669 104.531 167.885 102.634 167.885 100.705C167.885 99.3825 167.314 98.0467 166.084 97.1211C163.387 95.0836 163.793 90.9305 166.834 89.4544V89.4517ZM138.501 135.67C138.165 136.024 137.818 136.372 137.472 136.72C123.71 150.434 105.414 157.985 85.9548 157.985C66.4952 157.985 48.682 150.631 34.985 137.26C34.8036 137.082 34.6195 136.904 34.438 136.723C20.676 123.009 13.0964 104.777 13.0964 85.3822C13.0964 65.9875 20.676 47.7585 34.438 34.0443C48.1973 20.3301 66.4952 12.7768 85.9548 12.7768C94.3604 12.7768 102.549 14.1854 110.248 16.8921C120.376 20.4515 129.656 26.2535 137.472 34.0416C141.387 37.9438 144.805 42.2156 147.689 46.7762C154.935 58.2317 158.813 71.5088 158.813 85.3795C158.813 104.283 151.613 122.083 138.501 135.67Z" fill="#11C187"/>
<path d="M85.9533 154.831C124.445 154.831 155.649 123.735 155.649 85.3773C155.649 47.0192 124.445 15.9238 85.9533 15.9238C47.4616 15.9238 16.2578 47.0192 16.2578 85.3773C16.2578 123.735 47.4616 154.831 85.9533 154.831Z" fill="#11C187"/>
<path style="mix-blend-mode:multiply" opacity="0.75" d="M85.9515 154.829C122.091 154.829 151.387 125.634 151.387 89.6207C151.387 53.607 122.091 24.4121 85.9515 24.4121C49.8122 24.4121 20.5156 53.607 20.5156 89.6207C20.5156 125.634 49.8122 154.829 85.9515 154.829Z" fill="url(#paint0_radial_725_4048)"/>
<path d="M128.642 127.92C152.219 104.425 152.219 66.3326 128.642 42.8378C105.066 19.3429 66.8403 19.3429 43.2636 42.8378C19.6869 66.3326 19.6869 104.425 43.2636 127.92C66.8403 151.415 105.066 151.415 128.642 127.92Z" fill="url(#paint1_linear_725_4048)"/>
<path d="M127.95 127.229C151.143 104.116 151.143 66.6419 127.95 43.5285C104.756 20.4152 67.151 20.4152 43.9571 43.5285C20.7633 66.6419 20.7633 104.116 43.9571 127.229C67.151 150.343 104.756 150.343 127.95 127.229Z" fill="url(#paint2_linear_725_4048)"/>
<path style="mix-blend-mode:color-burn" opacity="0.25" d="M114.982 46.0634C114.982 55.9186 113.427 65.4095 110.546 74.3122C110.327 74.9949 110.099 75.6776 109.861 76.3523C109.525 77.3157 109.173 78.271 108.802 79.2182C108.55 79.8793 108.285 80.5378 108.011 81.1908C107.573 82.2514 107.115 83.2984 106.636 84.3347C106.313 85.0417 105.978 85.7434 105.636 86.4396C104.613 88.5256 103.513 90.5711 102.335 92.5654C102.13 92.9189 101.916 93.2724 101.702 93.6259C99.706 96.9101 97.5125 100.059 95.1376 103.057C94.8072 103.476 94.4741 103.886 94.1383 104.296C93.7646 104.755 93.3828 105.208 92.9983 105.659C92.5217 106.22 92.0342 106.771 91.5441 107.319C87.3386 112.017 82.6538 116.281 77.5654 120.034C77.319 120.215 77.0753 120.396 76.8262 120.574C69.1571 126.122 60.5945 130.524 51.3954 133.522C51.0109 133.649 50.6237 133.773 50.2364 133.892C47.0112 134.898 43.7075 135.729 40.3414 136.382C39.8865 136.469 39.4261 136.558 38.9685 136.636C37.647 136.871 36.3174 137.076 34.9769 137.254C32.0685 137.643 29.1114 137.894 26.1218 138.004C26.1218 135.384 23.7875 133.152 20.9604 133.538H20.9522C17.2071 134.051 14.5072 130.038 16.4164 126.781L16.4218 126.77C18.1278 123.858 16.1483 120.18 12.7741 119.98H12.7687C8.99105 119.754 7.13337 115.29 9.64367 112.467L9.64909 112.462C11.8913 109.942 10.6781 105.948 7.40958 105.09H7.39875C3.74026 104.126 2.79788 99.3874 5.81458 97.1125C7.02776 96.195 7.61268 94.8538 7.61268 93.5153C7.61268 91.8826 6.738 90.2581 5.06447 89.4458L5.05093 89.4377C1.64969 87.7862 1.64969 82.9611 5.05093 81.3096L5.06717 81.2988C8.10824 79.8227 8.51444 75.6668 5.81729 73.6321C4.58786 72.7065 4.01647 71.3707 4.01647 70.0484C4.01647 68.1243 5.22965 66.2245 7.40146 65.6551H7.41229C10.6808 64.7942 11.8967 60.8057 9.6518 58.2798L9.64638 58.2745C7.13878 55.4517 8.99376 50.9883 12.7714 50.7643H12.7768C16.151 50.5619 18.1278 46.8837 16.4245 43.9719L16.4164 43.9612C14.5126 40.7067 17.2071 36.6912 20.9522 37.2066H20.9604C24.3128 37.668 26.9721 34.4432 25.8699 31.2562L25.8645 31.2454C24.6324 27.6833 28.058 24.2696 31.6325 25.4974L31.6434 25.5028C34.8415 26.6011 38.0776 23.9511 37.6172 20.6103V20.6049C37.1 16.87 41.1267 14.1823 44.3953 16.0821L44.4061 16.0902C47.328 17.7876 51.019 15.8176 51.2221 12.4552V12.4498C51.4469 8.68524 55.9259 6.83671 58.7585 9.33829L58.7639 9.34369C61.2958 11.5754 65.301 10.3665 66.1621 7.10926V7.10117C67.1289 3.45268 71.8841 2.51357 74.1669 5.5198C75.0876 6.72876 76.4362 7.31436 77.7767 7.31436C79.4177 7.31436 81.0452 6.44271 81.8603 4.77499L81.8711 4.75879C83.5284 1.37207 88.3676 1.37207 90.0249 4.75879L90.0357 4.77499C91.517 7.8055 95.6873 8.21029 97.7291 5.52249C98.658 4.29734 99.9984 3.72793 101.325 3.72793C103.256 3.72793 105.163 4.9396 105.734 7.10117V7.10926C106.021 8.1887 106.649 9.04145 107.456 9.61895C108.485 11.991 109.417 14.417 110.243 16.8862C110.668 18.1546 111.069 19.4364 111.437 20.729C112.358 23.9322 113.102 27.2029 113.671 30.5357C113.758 31.0349 113.839 31.5369 113.92 32.0415C113.98 32.4409 114.039 32.8403 114.096 33.2451C114.681 37.4333 114.984 41.7132 114.984 46.0606L114.982 46.0634Z" fill="url(#paint3_linear_725_4048)"/>
<path style="mix-blend-mode:color-burn" opacity="0.2" d="M166.082 97.1183C167.311 98.0439 167.883 99.3797 167.883 100.702C167.883 102.629 166.669 104.526 164.498 105.095H164.487C161.218 105.956 160.002 109.947 162.247 112.471L162.253 112.476C164.76 115.301 162.905 119.762 159.128 119.989H159.122C155.748 120.191 153.771 123.867 155.475 126.778L155.483 126.789C157.386 130.046 154.692 134.059 150.947 133.546H150.939C147.586 133.085 144.927 136.313 146.029 139.5L146.035 139.51C146.904 142.017 145.463 144.449 143.291 145.242C142.563 143.982 141.867 142.705 141.206 141.418C140.876 140.781 140.554 140.139 140.242 139.491C139.798 138.574 139.37 137.651 138.959 136.72C138.804 136.375 138.65 136.024 138.498 135.673C138.368 135.373 138.244 135.068 138.116 134.766C137.791 133.992 137.48 133.209 137.179 132.427C137.071 132.143 136.96 131.86 136.857 131.577C136.773 131.353 136.692 131.131 136.611 130.905C136.424 130.397 136.243 129.893 136.072 129.383C135.316 127.186 134.645 124.965 134.06 122.725C133.995 122.48 133.93 122.237 133.87 121.988C133.832 121.835 133.792 121.683 133.757 121.53C133.694 121.276 133.632 121.017 133.572 120.761C132.744 117.285 132.124 113.769 131.707 110.233C131.644 109.704 131.587 109.178 131.533 108.652C131.474 108.066 131.422 107.473 131.374 106.884C131.314 106.153 131.265 105.419 131.225 104.685C130.864 98.4001 131.151 92.0827 132.083 85.8436C132.129 85.544 132.175 85.2418 132.224 84.9422C133.567 76.5119 136.091 68.2272 139.795 60.3635C139.974 59.983 140.156 59.6052 140.34 59.2274C140.562 58.7714 140.784 58.318 141.017 57.8673C141.198 57.5084 141.385 57.1468 141.575 56.7879C141.718 56.5126 141.864 56.2428 142.011 55.9702C143.156 53.8383 144.394 51.7442 145.726 49.6906C146.078 49.1428 146.438 48.5977 146.806 48.0553C147.066 47.6721 147.329 47.2862 147.594 46.9084C147.627 46.8652 147.657 46.8193 147.689 46.7761C148.426 45.7237 149.189 44.6847 149.977 43.6593C151.399 41.808 152.902 39.9946 154.486 38.2324C156.057 39.5628 156.691 41.9187 155.485 43.975L155.48 43.9885C153.774 46.9003 155.754 50.5785 159.128 50.7781H159.133C162.911 51.0048 164.768 55.4656 162.258 58.2883L162.253 58.2964C160.011 60.8169 161.224 64.8081 164.492 65.6662H164.503C168.162 66.6296 169.104 71.3684 166.087 73.6433C164.874 74.5608 164.289 75.902 164.289 77.2405C164.289 78.8731 165.164 80.4977 166.837 81.31L166.851 81.3207C170.252 82.9723 170.252 87.7974 166.851 89.4489L166.835 89.457C163.794 90.9331 163.387 95.0889 166.085 97.1237L166.082 97.1183Z" fill="url(#paint4_linear_725_4048)"/>
<path d="M128.696 92.5645H43.2188V93.6223H128.696V92.5645Z" fill="#11C187"/>
<path d="M57.8225 82.2271H56.3223V62.7784L51.586 66.4539L50.8359 65.1693L57.7007 59.8828H57.8198V82.2298L57.8225 82.2271Z" fill="black"/>
<path d="M72.4516 75.7764H75.9286V77.1796H72.4516V82.2287H70.9514V77.1796H61.1484V77.0609L72.2999 60.2109H72.4489V75.7764H72.4516ZM63.7292 75.7764H70.9541V64.6339L63.7292 75.7764Z" fill="black"/>
<path d="M92.6858 71.2338C92.6858 78.1935 90.1078 82.6164 85.2496 82.6164C80.3915 82.6164 77.7539 78.1962 77.7539 71.2338C77.7539 64.2715 80.3617 59.8809 85.2496 59.8809C90.1375 59.8809 92.6858 64.3011 92.6858 71.2338ZM79.2866 71.2338C79.2866 77.3272 81.296 81.2132 85.2523 81.2132C89.2087 81.2132 91.1882 77.3299 91.1882 71.2338C91.1882 65.1377 89.1491 61.2868 85.2523 61.2868C81.3555 61.2868 79.2866 65.1701 79.2866 71.2338Z" fill="black"/>
<path d="M110.162 71.2338C110.162 78.1935 107.584 82.6164 102.726 82.6164C97.868 82.6164 95.2305 78.1962 95.2305 71.2338C95.2305 64.2715 97.8383 59.8809 102.726 59.8809C107.614 59.8809 110.162 64.3011 110.162 71.2338ZM96.7632 71.2338C96.7632 77.3272 98.7725 81.2132 102.729 81.2132C106.685 81.2132 108.665 77.3299 108.665 71.2338C108.665 65.1377 106.626 61.2868 102.729 61.2868C98.8321 61.2868 96.7632 65.1701 96.7632 71.2338Z" fill="black"/>
<path d="M119.338 82.2291H117.838V62.7803L113.102 66.4558L112.352 65.1713L119.216 59.8848H119.335V82.2318L119.338 82.2291Z" fill="black"/>
<path d="M61.9996 100.941L61.5934 101.548C60.8839 100.941 59.9009 100.509 58.8015 100.509C57.4258 100.509 56.3129 101.186 56.3129 102.686C56.3129 103.955 57.1388 104.373 59.1346 104.821C61.5501 105.382 62.5927 106.133 62.5927 107.763C62.5927 109.565 61.2035 110.79 59.0479 110.79C57.5152 110.79 56.3264 110.299 55.3867 109.492L55.8362 108.885C56.6324 109.635 57.8483 110.097 59.0642 110.097C60.6267 110.097 61.8724 109.303 61.8724 107.79C61.8724 106.564 60.9327 105.987 58.9342 105.539C56.5187 104.991 55.5763 104.298 55.5763 102.697C55.5763 100.865 56.9086 99.8125 58.8177 99.8125C60.1636 99.8125 61.2062 100.287 62.0023 100.938L61.9996 100.941Z" fill="black"/>
<path d="M70.1619 106.94V107.271H64.272C64.3153 108.988 65.3146 110.113 67.1073 110.113C68.2934 110.113 69.076 109.579 69.5228 109.017L70.0292 109.436C69.363 110.259 68.38 110.747 67.1073 110.747C64.8488 110.747 63.5625 109.19 63.5625 107.026C63.5625 104.862 64.9219 103.291 66.9204 103.291C68.9189 103.291 70.1619 104.878 70.1619 106.94ZM64.272 106.651H69.4659C69.409 105.064 68.4829 103.925 66.9204 103.925C65.3579 103.925 64.3586 105.05 64.272 106.651Z" fill="black"/>
<path d="M74.805 103.998H74.7183C73.7787 103.998 73.1694 104.473 72.6197 105.339V110.601H71.9102V103.434H72.5763L72.5899 104.486C72.9527 103.909 73.6758 103.291 74.805 103.291V103.998Z" fill="black"/>
<path d="M77.6421 103.437H80.1172V104.071H77.6421V108.483C77.6421 109.536 78.2649 110.1 79.1315 110.1C79.6812 110.1 80.0441 109.984 80.2607 109.841L80.5369 110.402C80.2472 110.588 79.7706 110.748 79.1044 110.748C77.8154 110.748 76.9489 109.984 76.9489 108.483V104.071H75.4297V103.437H76.9489V100.957H77.6421V103.437Z" fill="black"/>
<path d="M82.8325 101.07C82.8325 101.415 82.5562 101.66 82.2259 101.66C81.8955 101.66 81.6328 101.415 81.6328 101.07C81.6328 100.724 81.8928 100.479 82.2259 100.479C82.5589 100.479 82.8325 100.738 82.8325 101.07ZM82.5725 110.601H81.863V103.433H82.5725V110.601Z" fill="black"/>
<path d="M88.7382 99.9899L88.4782 100.567C88.2481 100.395 87.9583 100.292 87.5521 100.292C86.6828 100.292 86.1494 100.999 86.1494 101.936V103.436H88.3049V104.07H86.1494V110.603H85.4534V104.07H84.1211V103.436H85.4534V101.952C85.4534 100.64 86.2631 99.6445 87.5359 99.6445C88.0125 99.6445 88.4187 99.7741 88.7382 99.9899ZM90.7936 101.072C90.7936 101.417 90.5174 101.663 90.187 101.663C89.8566 101.663 89.5939 101.417 89.5939 101.072C89.5939 100.727 89.8539 100.481 90.187 100.481C90.5201 100.481 90.7936 100.74 90.7936 101.072ZM90.5336 110.603H89.8241V103.436H90.5336V110.603Z" fill="black"/>
<path d="M93.772 109.305L97.593 103.436H98.4162L96.2173 106.739L98.9388 110.603H98.0994L95.7976 107.344L93.6556 110.603H93.0625V99.6445H93.772V109.305Z" fill="black"/>
<path d="M105.481 104.446L105.494 103.437H106.16V110.604H105.494L105.481 109.565C105.031 110.127 104.251 110.747 102.889 110.747C100.92 110.747 99.5312 109.177 99.5312 107.026C99.5312 104.875 100.92 103.291 102.889 103.291C104.249 103.291 105.031 103.882 105.481 104.443V104.446ZM100.243 107.029C100.243 108.831 101.386 110.1 102.979 110.1C104.178 110.1 104.904 109.522 105.454 108.729V105.31C104.904 104.516 104.181 103.939 102.979 103.939C101.386 103.939 100.243 105.223 100.243 107.026V107.029Z" fill="black"/>
<path d="M112.845 104.057L112.512 104.604C112.02 104.229 111.426 103.941 110.617 103.941C109.618 103.941 108.908 104.329 108.908 105.252C108.908 106.046 109.458 106.305 110.804 106.623C112.469 106.998 113.235 107.559 113.235 108.642C113.235 109.91 112.193 110.746 110.63 110.746C109.531 110.746 108.678 110.415 108.012 109.88L108.375 109.319C108.968 109.81 109.75 110.099 110.647 110.099C111.732 110.099 112.542 109.624 112.542 108.671C112.542 107.878 111.919 107.546 110.573 107.244C108.908 106.869 108.201 106.377 108.201 105.282C108.201 103.997 109.171 103.293 110.603 103.293C111.529 103.293 112.282 103.625 112.845 104.057Z" fill="black"/>
<path d="M115.78 110.605H115.07V103.438H115.78V110.605Z" fill="black"/>
<path d="M77.2229 123.657C77.2229 125.114 76.7463 126.007 75.7768 127.189L72.7655 130.794H77.4097V131.472H71.3601V131.385L75.1946 126.757C76.1207 125.648 76.4971 124.868 76.4971 123.643C76.4971 122.202 75.5277 121.366 74.2549 121.366C72.9822 121.366 72.2294 122 71.9396 123.341L71.2734 123.195C71.6065 121.595 72.6058 120.686 74.2549 120.686C75.9041 120.686 77.2229 121.884 77.2229 123.657Z" fill="#11C187"/>
<path d="M85.7606 126.162C85.7606 129.522 84.5177 131.657 82.1726 131.657C79.8274 131.657 78.5547 129.522 78.5547 126.162C78.5547 122.803 79.8139 120.682 82.1726 120.682C84.5312 120.682 85.7606 122.816 85.7606 126.162ZM79.294 126.162C79.294 129.104 80.2634 130.979 82.1726 130.979C84.0817 130.979 85.0376 129.104 85.0376 126.162C85.0376 123.221 84.0546 121.362 82.1726 121.362C80.2905 121.362 79.294 123.237 79.294 126.162Z" fill="#11C187"/>
<path d="M93.2698 123.657C93.2698 125.114 92.7932 126.007 91.8237 127.189L88.8124 130.794H93.4566V131.472H87.407V131.385L91.2415 126.757C92.1676 125.648 92.544 124.868 92.544 123.643C92.544 122.202 91.5746 121.366 90.3018 121.366C89.0291 121.366 88.2762 122 87.9865 123.341L87.3203 123.195C87.6534 121.595 88.6526 120.686 90.3018 120.686C91.951 120.686 93.2671 121.884 93.2671 123.657H93.2698Z" fill="#11C187"/>
<path d="M100.736 123.496C100.736 124.794 100.04 125.501 99.0867 125.847C100.376 126.252 101.185 127.218 101.185 128.543C101.185 130.418 99.9127 131.657 98.0469 131.657C96.1811 131.657 95.2983 130.734 94.7188 129.379L95.3687 129.163C95.8317 130.216 96.5412 130.979 98.0469 130.979C99.5525 130.979 100.462 130.013 100.462 128.543C100.462 127.215 99.3765 126.192 97.8004 126.192H96.6008V125.528H97.8438C98.9297 125.528 100.016 124.924 100.016 123.48C100.016 122.182 99.103 121.359 97.8736 121.359C96.6441 121.359 95.9346 122.036 95.5014 123.089L94.865 122.816C95.3416 121.618 96.2108 120.682 97.8898 120.682C99.5688 120.682 100.741 121.793 100.741 123.494L100.736 123.496Z" fill="#11C187"/>
<path d="M75.6297 51.3991H74.8281V39.9004H75.6297V51.3991Z" fill="black"/>
<path d="M84.7973 40.9182L84.3586 41.5767C83.5895 40.9182 82.5226 40.4514 81.3283 40.4514C79.8362 40.4514 78.6285 41.1854 78.6285 42.8126C78.6285 44.1889 79.5221 44.6423 81.6885 45.128C84.3098 45.7379 85.4391 46.5502 85.4391 48.3205C85.4391 50.2769 83.9334 51.6046 81.5937 51.6046C79.931 51.6046 78.642 51.073 77.6211 50.196L78.1085 49.5375C78.9724 50.3498 80.2912 50.8517 81.61 50.8517C83.3052 50.8517 84.6565 49.9909 84.6565 48.3501C84.6565 47.0197 83.6355 46.3937 81.4692 45.9106C78.8478 45.3169 77.8269 44.564 77.8269 42.8288C77.8269 40.8427 79.2703 39.7012 81.3446 39.7012C82.8042 39.7012 83.9361 40.2166 84.7973 40.9209V40.9182Z" fill="black"/>
<path d="M97.9343 45.6584C97.9343 49.0991 95.5323 51.6034 92.2367 51.6034C88.9411 51.6034 86.5391 49.1018 86.5391 45.6584C86.5391 42.215 88.9248 39.6973 92.2367 39.6973C95.5485 39.6973 97.9343 42.2312 97.9343 45.6584ZM87.3542 45.6584C87.3542 48.662 89.3797 50.8532 92.2367 50.8532C95.0936 50.8532 97.1354 48.662 97.1354 45.6584C97.1354 42.6549 95.0801 40.4502 92.2367 40.4502C89.3933 40.4502 87.3542 42.6711 87.3542 45.6584Z" fill="black"/>
<defs>
<radialGradient id="paint0_radial_725_4048" cx="0" cy="0" r="1" gradientUnits="userSpaceOnUse" gradientTransform="translate(85.9515 89.6207) scale(65.4358 65.2086)">
<stop offset="0.56" stop-color="#231F20"/>
<stop offset="0.64" stop-color="#262223"/>
<stop offset="0.7" stop-color="#302C2D"/>
<stop offset="0.75" stop-color="#413D3E"/>
<stop offset="0.8" stop-color="#585556"/>
<stop offset="0.85" stop-color="#777575"/>
<stop offset="0.9" stop-color="#9D9B9B"/>
<stop offset="0.95" stop-color="#C9C8C9"/>
<stop offset="1" stop-color="white"/>
</radialGradient>
<linearGradient id="paint1_linear_725_4048" x1="25.5811" y1="85.3789" x2="146.328" y2="85.3789" gradientUnits="userSpaceOnUse">
<stop stop-color="#EFF6FD"/>
<stop offset="1" stop-color="#FAFEFF"/>
</linearGradient>
<linearGradient id="paint2_linear_725_4048" x1="26.5617" y1="85.3789" x2="145.345" y2="85.3789" gradientUnits="userSpaceOnUse">
<stop stop-color="#FAFEFF"/>
<stop offset="1" stop-color="#EFF6FD"/>
</linearGradient>
<linearGradient id="paint3_linear_725_4048" x1="115.033" y1="92.7759" x2="1.55789" y2="43.5224" gradientUnits="userSpaceOnUse">
<stop stop-color="#231F20"/>
<stop offset="1" stop-color="white"/>
</linearGradient>
<linearGradient id="paint4_linear_725_4048" x1="107.129" y1="64.7865" x2="217.339" y2="136.403" gradientUnits="userSpaceOnUse">
<stop stop-color="#231F20"/>
<stop offset="1" stop-color="white"/>
</linearGradient>
</defs>
</svg>
