<svg width="171" height="171" viewBox="0 0 171 171" fill="none" xmlns="http://www.w3.org/2000/svg">
<path d="M87.8223 161.321C129.495 161.321 163.278 127.421 163.278 85.6028C163.278 43.7849 129.495 9.88477 87.8223 9.88477C46.1496 9.88477 12.3672 43.7849 12.3672 85.6028C12.3672 127.421 46.1496 161.321 87.8223 161.321Z" fill="white"/>
<path d="M85.2074 155.071C123.566 155.071 154.661 123.867 154.661 85.3752C154.661 46.8834 123.566 15.6797 85.2074 15.6797C46.8493 15.6797 15.7539 46.8834 15.7539 85.3752C15.7539 123.867 46.8493 155.071 85.2074 155.071Z" fill="#D7EEF0"/>
<path d="M165.807 89.4646L165.823 89.4565C169.212 87.7992 169.212 82.9573 165.823 81.3L165.809 81.2892C164.142 80.4741 163.27 78.8439 163.27 77.2055C163.27 75.8624 163.853 74.5138 165.062 73.5958C168.068 71.3102 167.129 66.555 163.483 65.5937H163.472C160.215 64.7298 159.004 60.7274 161.241 58.1954L161.246 58.1873C163.748 55.3548 161.896 50.8785 158.132 50.651H158.126C154.764 50.4479 152.794 46.7596 154.491 43.8377L154.497 43.8241C155.698 41.7607 155.066 39.3966 153.501 38.0615C152.586 37.2844 151.353 36.8538 149.977 37.046H149.969C146.628 37.5091 143.978 34.2731 145.076 31.0749L145.082 31.0641C146.309 27.4896 142.898 24.0612 139.334 25.2934L139.32 25.2988C136.136 26.4009 132.908 23.7417 133.37 20.3919V20.3838C133.882 16.6359 129.872 13.9388 126.612 15.8452L126.602 15.8533C123.69 17.5567 120.012 15.5798 119.812 12.2057V12.2003C119.585 8.42261 115.122 6.56764 112.299 9.07794L112.294 9.08336C110.607 10.5809 108.259 10.5348 106.635 9.35958C105.831 8.78007 105.205 7.92434 104.921 6.84115V6.83302C104.349 4.66392 102.452 3.44804 100.525 3.44804C99.2029 3.44804 97.8671 4.01942 96.9414 5.24885C94.904 7.94601 90.7509 7.53981 89.2747 4.49874L89.264 4.48249C87.6124 1.08396 82.7901 1.08396 81.1385 4.48249L81.1277 4.49874C80.3154 6.17227 78.6936 7.04695 77.0583 7.04695C75.7225 7.04695 74.3786 6.45932 73.461 5.24614C71.1861 2.22944 66.4447 3.17182 65.4867 6.83302V6.84115C64.6259 10.1097 60.6374 11.3256 58.1115 9.08336L58.1061 9.07794C55.2834 6.56764 50.8199 8.42261 50.5959 12.2003V12.2057C50.3935 15.5798 46.7154 17.5567 43.8036 15.8533L43.7928 15.8452C40.5383 13.9415 36.5228 16.6359 37.0355 20.3838V20.3892C37.497 23.7417 34.2722 26.4009 31.0851 25.2988L31.0744 25.2934C27.5122 24.0612 24.0985 27.4869 25.3264 31.0614L25.3318 31.0722C26.4301 34.2704 23.7801 37.5064 20.4392 37.046H20.4311C16.699 36.5288 14.0112 40.5556 15.911 43.8241L15.9191 43.835C17.6165 46.7569 15.6438 50.4479 12.2841 50.651H12.2787C8.51418 50.8757 6.66565 55.3548 9.16454 58.1873L9.16993 58.1927C11.4044 60.7247 10.1954 64.7298 6.9382 65.591H6.92741C4.76584 66.1651 3.55418 68.0688 3.55418 70.0023C3.55418 71.3292 4.12358 72.6696 5.34874 73.5985C8.03653 75.643 7.63174 79.8106 4.60123 81.2919L4.58504 81.3027C1.19561 82.96 1.19561 87.8019 4.58504 89.4592L4.59853 89.4673C6.26625 90.2824 7.1379 91.9126 7.1379 93.5509C7.1379 94.8941 6.555 96.2427 5.34604 97.1607C2.33981 99.4462 3.27892 104.201 6.92471 105.163H6.9355C10.1927 106.027 11.4044 110.032 9.16724 112.564L9.16184 112.569C6.66025 115.402 8.51148 119.881 12.276 120.108H12.2814C15.6438 120.309 17.6138 124 15.9164 126.921L15.911 126.932C14.0112 130.198 16.699 134.228 20.4311 133.713H20.4392C23.2565 133.323 25.58 135.565 25.5827 138.195C25.5827 138.685 25.5018 139.186 25.3318 139.687L25.3264 139.698C24.0985 143.272 27.5095 146.698 31.0744 145.466L31.0851 145.46C34.2695 144.358 37.497 147.017 37.0355 150.37V150.378C36.5228 154.123 40.5329 156.823 43.7928 154.914L43.8036 154.909C46.7154 153.202 50.3935 155.182 50.5932 158.556C50.8199 162.337 55.2834 164.194 58.1061 161.684L58.1115 161.679C60.632 159.436 64.6259 160.649 65.484 163.918V163.929C66.0561 166.098 67.9532 167.314 69.88 167.314C71.2023 167.314 72.5381 166.742 73.4637 165.513C75.5012 162.816 79.6543 163.222 81.1304 166.266L81.1412 166.282C82.7927 169.681 87.6151 169.681 89.2667 166.282L89.2775 166.266C90.0897 164.592 91.7143 163.718 93.3496 163.718C94.6854 163.718 96.0293 164.303 96.9441 165.516C99.219 168.532 103.96 167.59 104.918 163.932V163.921C105.779 160.652 109.768 159.436 112.294 161.681L112.299 161.687C115.122 164.197 119.585 162.339 119.809 158.562C120.012 155.182 123.69 153.205 126.602 154.911L126.612 154.917C129.867 156.823 133.882 154.126 133.37 150.381V150.373C132.908 147.02 136.133 144.361 139.32 145.466H139.334C140.391 145.834 141.433 145.788 142.348 145.452C144.512 144.653 145.948 142.214 145.082 139.7L145.076 139.69C143.978 136.492 146.628 133.253 149.969 133.716H149.977C153.709 134.23 156.397 130.206 154.497 126.935L154.489 126.924C152.791 124.002 154.761 120.311 158.124 120.111H158.129C161.894 119.883 163.742 115.407 161.243 112.572L161.238 112.566C159.004 110.037 160.212 106.029 163.47 105.168H163.48C165.642 104.597 166.854 102.693 166.854 100.757C166.854 99.43 166.284 98.0895 165.059 97.1607C162.371 95.1162 162.776 90.9486 165.807 89.4673V89.4646ZM137.571 135.844C137.237 136.199 136.891 136.548 136.546 136.898C122.832 150.66 104.6 158.237 85.208 158.237C65.8159 158.237 48.0646 150.857 34.4152 137.439C34.2344 137.261 34.0509 137.082 33.8701 136.9C20.1559 123.138 12.6025 104.843 12.6025 85.3809C12.6025 65.9186 20.1559 47.6262 33.8701 33.8642C47.5816 20.1022 65.8159 12.5225 85.208 12.5225C93.5844 12.5225 101.745 13.9361 109.417 16.6522C119.51 20.224 128.758 26.0462 136.546 33.8615C140.448 37.7772 143.854 42.064 146.728 46.6405C153.949 58.1359 157.813 71.4592 157.813 85.3782C157.813 104.348 150.638 122.21 137.571 135.844Z" fill="#EA3731"/>
<path d="M85.2074 155.071C123.566 155.071 154.661 123.867 154.661 85.3752C154.661 46.8834 123.566 15.6797 85.2074 15.6797C46.8493 15.6797 15.7539 46.8834 15.7539 85.3752C15.7539 123.867 46.8493 155.071 85.2074 155.071Z" fill="#EA3731"/>
<path style="mix-blend-mode:multiply" opacity="0.75" d="M85.2086 155.071C121.222 155.071 150.417 125.774 150.417 89.635C150.417 53.4958 121.222 24.1992 85.2086 24.1992C49.1949 24.1992 20 53.4958 20 89.635C20 125.774 49.1949 155.071 85.2086 155.071Z" fill="url(#paint0_radial_725_4131)"/>
<path d="M127.748 128.068C151.243 104.492 151.243 66.2662 127.748 42.6895C104.254 19.1128 66.161 19.1128 42.6661 42.6895C19.1713 66.2662 19.1713 104.492 42.6661 128.068C66.161 151.645 104.254 151.645 127.748 128.068Z" fill="url(#paint1_linear_725_4131)"/>
<path d="M127.059 127.375C150.172 104.181 150.172 66.5766 127.059 43.3827C103.946 20.1888 66.4715 20.1888 43.3582 43.3827C20.2449 66.5766 20.2449 104.181 43.3582 127.375C66.4715 150.569 103.946 150.569 127.059 127.375Z" fill="url(#paint2_linear_725_4131)"/>
<path style="mix-blend-mode:color-burn" opacity="0.25" d="M114.138 45.9271C114.138 55.8166 112.589 65.3406 109.718 74.2743C109.499 74.9594 109.272 75.6445 109.035 76.3215C108.7 77.2883 108.35 78.2469 107.98 79.1974C107.729 79.8609 107.464 80.5216 107.192 81.1769C106.755 82.2412 106.299 83.2919 105.821 84.3318C105.5 85.0412 105.165 85.7453 104.825 86.444C103.805 88.5373 102.71 90.5899 101.536 92.5911C101.331 92.9459 101.117 93.3006 100.904 93.6554C98.9153 96.951 96.7295 100.111 94.3628 103.12C94.0336 103.54 93.7016 103.951 93.367 104.363C92.9946 104.823 92.6141 105.278 92.2309 105.73C91.756 106.294 91.2702 106.846 90.7818 107.396C86.5909 112.11 81.9223 116.389 76.8517 120.156C76.6061 120.337 76.3632 120.519 76.115 120.697C68.4726 126.265 59.9396 130.682 50.7725 133.69C50.3893 133.818 50.0034 133.942 49.6175 134.061C46.4035 135.071 43.1113 135.905 39.7569 136.561C39.3035 136.647 38.8448 136.737 38.3887 136.815C37.0718 137.051 35.7468 137.257 34.411 137.435C31.5127 137.825 28.5659 138.077 25.5866 138.188C25.5866 135.559 23.2605 133.319 20.4431 133.707H20.435C16.7029 134.221 14.0124 130.194 15.9149 126.926L15.9203 126.915C17.6204 123.993 15.6477 120.302 12.2853 120.102H12.2799C8.51539 119.874 6.66416 115.395 9.16574 112.563L9.17114 112.557C11.4056 110.028 10.1966 106.02 6.93941 105.159H6.92862C3.28283 104.192 2.34372 99.4369 5.34994 97.1541C6.55891 96.2334 7.14181 94.8875 7.14181 93.5443C7.14181 91.906 6.27016 90.2758 4.60244 89.4607L4.58894 89.4526C1.19952 87.7953 1.19952 82.9534 4.58894 81.2961L4.60513 81.2853C7.63565 79.804 8.04043 75.6337 5.35264 73.5919C4.12748 72.663 3.55808 71.3226 3.55808 69.9957C3.55808 68.0649 4.76705 66.1584 6.93132 65.5871H6.94211C10.1993 64.7232 11.411 60.7208 9.17384 58.1861L9.16844 58.1807C6.66955 55.3481 8.51808 50.8691 12.2826 50.6444H12.288C15.6504 50.4413 17.6204 46.7503 15.923 43.8284L15.9149 43.8175C14.0178 40.5517 16.7029 36.5222 20.435 37.0394H20.4431C23.784 37.5025 26.434 34.2665 25.3357 31.0683L25.3303 31.0575C24.1024 27.4829 27.5161 24.0573 31.0783 25.2895L31.0891 25.2949C34.2761 26.397 37.5009 23.7378 37.0421 20.3853V20.3799C36.5267 16.632 40.5395 13.9349 43.7967 15.8413L43.8075 15.8494C46.7193 17.5528 50.3974 15.5759 50.5998 12.2018V12.1964C50.8238 8.41871 55.2873 6.56373 58.11 9.07404L58.1154 9.07945C60.6386 11.319 64.6298 10.1058 65.4879 6.83724V6.82912C66.4513 3.16792 71.19 2.22554 73.465 5.24223C74.3825 6.45541 75.7264 7.04305 77.0622 7.04305C78.6975 7.04305 80.3194 6.16837 81.1316 4.49483L81.1424 4.47858C82.794 1.08006 87.6163 1.08006 89.2679 4.47858L89.2787 4.49483C90.7548 7.5359 94.9106 7.9421 96.9453 5.24494C97.871 4.01552 99.2068 3.44413 100.529 3.44413C102.453 3.44413 104.353 4.66002 104.922 6.82912V6.83724C105.208 7.92044 105.834 8.77616 106.639 9.35567C107.664 11.736 108.592 14.1705 109.416 16.6483C109.839 17.921 110.239 19.2073 110.606 20.5045C111.523 23.7188 112.265 27.0009 112.832 30.3453C112.918 30.8463 112.999 31.35 113.08 31.8563C113.14 32.2571 113.199 32.6579 113.256 33.0641C113.838 37.2669 114.141 41.5618 114.141 45.9243L114.138 45.9271Z" fill="url(#paint3_linear_725_4131)"/>
<path style="mix-blend-mode:color-burn" opacity="0.2" d="M165.058 97.1574C166.283 98.0863 166.853 99.4267 166.853 100.754C166.853 102.687 165.644 104.591 163.479 105.162H163.468C160.211 106.026 159 110.031 161.237 112.563L161.242 112.569C163.741 115.404 161.892 119.88 158.128 120.108H158.123C154.76 120.311 152.79 123.999 154.488 126.921L154.496 126.932C156.393 130.2 153.708 134.227 149.976 133.713H149.967C146.627 133.25 143.977 136.488 145.075 139.686L145.08 139.697C145.947 142.213 144.511 144.653 142.347 145.449C141.621 144.184 140.927 142.903 140.269 141.612C139.939 140.973 139.618 140.328 139.308 139.678C138.865 138.758 138.439 137.831 138.029 136.897C137.875 136.551 137.721 136.198 137.57 135.846C137.441 135.546 137.316 135.24 137.19 134.937C136.866 134.159 136.555 133.374 136.256 132.589C136.148 132.304 136.037 132.02 135.935 131.736C135.851 131.511 135.77 131.289 135.689 131.061C135.503 130.552 135.322 130.046 135.152 129.534C134.399 127.33 133.73 125.101 133.147 122.854C133.082 122.607 133.018 122.363 132.958 122.114C132.92 121.96 132.88 121.808 132.845 121.654C132.783 121.399 132.721 121.139 132.661 120.882C131.836 117.394 131.218 113.866 130.802 110.318C130.74 109.787 130.683 109.259 130.629 108.731C130.57 108.144 130.519 107.548 130.47 106.958C130.411 106.224 130.362 105.487 130.322 104.751C129.963 98.4437 130.249 92.1043 131.177 85.8434C131.223 85.5429 131.269 85.2396 131.318 84.939C132.656 76.4792 135.171 68.1657 138.863 60.2746C139.041 59.8928 139.222 59.5137 139.405 59.1346C139.626 58.6769 139.848 58.222 140.08 57.7697C140.261 57.4096 140.447 57.0467 140.636 56.6865C140.779 56.4103 140.924 56.1395 141.07 55.866C142.212 53.7267 143.445 51.6253 144.773 49.5645C145.123 49.0148 145.482 48.4678 145.849 47.9235C146.108 47.5389 146.37 47.1517 146.635 46.7726C146.667 46.7293 146.697 46.6832 146.729 46.6399C147.463 45.5838 148.224 44.5412 149.009 43.5122C150.426 41.6545 151.924 39.8347 153.503 38.0664C155.068 39.4014 155.699 41.7655 154.498 43.829L154.493 43.8425C152.793 46.7645 154.766 50.4555 158.128 50.6558H158.133C161.898 50.8833 163.749 55.3596 161.248 58.1922L161.242 58.2003C159.008 60.7296 160.217 64.7347 163.474 65.5958H163.485C167.13 66.5626 168.07 71.3178 165.063 73.6006C163.854 74.5214 163.271 75.8672 163.271 77.2104C163.271 78.8487 164.143 80.4789 165.811 81.294L165.824 81.3049C169.214 82.9621 169.214 87.804 165.824 89.4613L165.808 89.4694C162.778 90.9507 162.373 95.121 165.061 97.1628L165.058 97.1574Z" fill="url(#paint4_linear_725_4131)"/>
<path d="M127.798 92.5898H42.6172V93.6514H127.798V92.5898Z" fill="#EA3731"/>
<path d="M53.8413 82.2171H52.3462V62.7006L47.6264 66.3889L46.8789 65.0999L53.7198 59.7949H53.8386V82.2198L53.8413 82.2171Z" fill="black"/>
<path d="M72.6 71.1835C72.6 78.1674 70.0309 82.6058 65.1923 82.6058C60.3538 82.6058 57.7227 78.1701 57.7227 71.1835C57.7227 64.1969 60.3214 59.791 65.1923 59.791C70.0633 59.791 72.6 64.2267 72.6 71.1835ZM59.2474 71.1835C59.2474 77.2982 61.2497 81.1977 65.1923 81.1977C69.135 81.1977 71.1076 77.3009 71.1076 71.1835C71.1076 65.0662 69.0756 61.2019 65.1923 61.2019C61.3091 61.2019 59.2474 65.0987 59.2474 71.1835Z" fill="black"/>
<path d="M90.0179 71.1835C90.0179 78.1674 87.4489 82.6058 82.6103 82.6058C77.7717 82.6058 75.1406 78.1701 75.1406 71.1835C75.1406 64.1969 77.7394 59.791 82.6103 59.791C87.4813 59.791 90.0179 64.2267 90.0179 71.1835ZM76.6653 71.1835C76.6653 77.2982 78.6677 81.1977 82.6103 81.1977C86.5529 81.1977 88.5256 77.3009 88.5256 71.1835C88.5256 65.0662 86.4936 61.2019 82.6103 61.2019C78.727 61.2019 76.6653 65.0987 76.6653 71.1835Z" fill="black"/>
<path d="M107.435 71.1835C107.435 78.1674 104.866 82.6058 100.024 82.6058C95.1831 82.6058 92.5547 78.1701 92.5547 71.1835C92.5547 64.1969 95.1534 59.791 100.024 59.791C104.895 59.791 107.435 64.2267 107.435 71.1835ZM94.0821 71.1835C94.0821 77.2982 96.0844 81.1977 100.027 81.1977C103.97 81.1977 105.942 77.3009 105.942 71.1835C105.942 65.0662 103.91 61.2019 100.027 61.2019C96.1438 61.2019 94.0821 65.0987 94.0821 71.1835Z" fill="black"/>
<path d="M122.94 65.9691C122.94 68.9967 121.955 70.8543 119.953 73.3132L113.738 80.8089H123.329V82.2171H110.842V82.0383L118.76 72.4141C120.67 70.1069 121.448 68.4876 121.448 65.9393C121.448 62.9416 119.445 61.2031 116.817 61.2031C114.188 61.2031 112.634 62.5219 112.038 65.3111L110.664 65.0105C111.352 61.6824 113.411 59.7949 116.817 59.7949C120.222 59.7949 122.94 62.2836 122.94 65.9691Z" fill="black"/>
<path d="M61.3399 100.991L60.9352 101.601C60.2281 100.991 59.2485 100.558 58.1529 100.558C56.782 100.558 55.6729 101.238 55.6729 102.743C55.6729 104.016 56.4933 104.436 58.4848 104.885C60.892 105.449 61.9309 106.201 61.9309 107.837C61.9309 109.646 60.5466 110.875 58.3985 110.875C56.8711 110.875 55.6864 110.383 54.75 109.573L55.198 108.964C55.9914 109.716 57.203 110.18 58.4147 110.18C59.9718 110.18 61.2131 109.383 61.2131 107.864C61.2131 106.635 60.2767 106.055 58.2851 105.606C55.878 105.056 54.9389 104.36 54.9389 102.754C54.9389 100.915 56.2666 99.8594 58.1691 99.8594C59.5103 99.8594 60.5493 100.336 61.3426 100.989L61.3399 100.991Z" fill="black"/>
<path d="M69.471 107.011V107.344H63.6016C63.6447 109.066 64.6405 110.195 66.427 110.195C67.609 110.195 68.3889 109.659 68.8341 109.096L69.3388 109.516C68.6749 110.342 67.6953 110.832 66.427 110.832C64.1764 110.832 62.8945 109.269 62.8945 107.097C62.8945 104.926 64.2492 103.35 66.2408 103.35C68.2323 103.35 69.471 104.942 69.471 107.011ZM63.6016 106.721H68.7774C68.7208 105.129 67.7979 103.986 66.2408 103.986C64.6837 103.986 63.6879 105.115 63.6016 106.721Z" fill="black"/>
<path d="M74.0957 104.059H74.0094C73.073 104.059 72.4658 104.536 71.918 105.405V110.686H71.2109V103.493H71.8748L71.8883 104.549C72.2499 103.97 72.9704 103.35 74.0957 103.35V104.059Z" fill="black"/>
<path d="M76.9235 103.496H79.39V104.133H76.9235V108.56C76.9235 109.617 77.5442 110.182 78.4077 110.182C78.9555 110.182 79.3171 110.066 79.533 109.923L79.8083 110.486C79.5195 110.673 79.0446 110.832 78.3807 110.832C77.0962 110.832 76.2327 110.066 76.2327 108.56V104.133H74.7188V103.496H76.2327V101.008H76.9262V103.496H76.9235Z" fill="black"/>
<path d="M82.1017 101.12C82.1017 101.467 81.8265 101.713 81.4972 101.713C81.168 101.713 80.9062 101.467 80.9062 101.12C80.9062 100.774 81.1653 100.527 81.4972 100.527C81.8292 100.527 82.1017 100.787 82.1017 101.12ZM81.8427 110.685H81.1356V103.493H81.8427V110.685Z" fill="black"/>
<path d="M87.9839 100.038L87.7248 100.618C87.4955 100.444 87.2067 100.341 86.8019 100.341C85.9357 100.341 85.4041 101.051 85.4041 101.99V103.496H87.5521V104.133H85.4041V110.689H84.7105V104.133H83.3828V103.496H84.7105V102.007C84.7105 100.691 85.5174 99.6914 86.7884 99.6914C87.2634 99.6914 87.6682 99.8214 87.9866 100.038H87.9839ZM90.0321 101.124C90.0321 101.471 89.7569 101.717 89.4276 101.717C89.0984 101.717 88.8367 101.471 88.8367 101.124C88.8367 100.777 89.0957 100.531 89.4276 100.531C89.7596 100.531 90.0321 100.791 90.0321 101.124ZM89.7731 110.689H89.066V103.496H89.7731V110.689Z" fill="black"/>
<path d="M93.0012 109.386L96.8089 103.496H97.632L95.4407 106.811L98.1528 110.689H97.3162L95.0224 107.417L92.8879 110.689H92.2969V99.6914H93.0039V109.386H93.0012Z" fill="black"/>
<path d="M104.671 104.509L104.684 103.496H105.348V110.688H104.684L104.671 109.646C104.223 110.209 103.446 110.832 102.088 110.832C100.127 110.832 98.7422 109.256 98.7422 107.097C98.7422 104.939 100.127 103.35 102.088 103.35C103.443 103.35 104.223 103.943 104.671 104.506V104.509ZM99.4519 107.1C99.4519 108.909 100.591 110.182 102.177 110.182C103.373 110.182 104.096 109.602 104.644 108.806V105.375C104.096 104.579 103.376 104 102.177 104C100.591 104 99.4519 105.289 99.4519 107.097V107.1Z" fill="black"/>
<path d="M112.008 104.12L111.676 104.67C111.185 104.293 110.594 104.003 109.787 104.003C108.792 104.003 108.085 104.393 108.085 105.32C108.085 106.116 108.632 106.376 109.974 106.695C111.633 107.072 112.397 107.635 112.397 108.721C112.397 109.994 111.358 110.833 109.801 110.833C108.705 110.833 107.855 110.5 107.191 109.964L107.553 109.4C108.144 109.893 108.924 110.183 109.817 110.183C110.899 110.183 111.706 109.706 111.706 108.751C111.706 107.954 111.085 107.621 109.744 107.318C108.085 106.942 107.38 106.449 107.38 105.349C107.38 104.06 108.346 103.354 109.774 103.354C110.697 103.354 111.447 103.687 112.008 104.12Z" fill="black"/>
<path d="M114.934 110.689H114.227V103.496H114.934V110.689Z" fill="black"/>
<path d="M76.5081 123.79C76.5081 125.252 76.0332 126.149 75.0671 127.335L72.069 130.953H76.697V131.632H70.6684V131.546L74.4896 126.902C75.4125 125.789 75.7876 125.006 75.7876 123.777C75.7876 122.33 74.8215 121.491 73.5532 121.491C72.2848 121.491 71.5346 122.127 71.2459 123.473L70.582 123.327C70.914 121.721 71.9097 120.809 73.5532 120.809C75.1966 120.809 76.5081 122.011 76.5081 123.79Z" fill="#EA3731"/>
<path d="M85.013 126.305C85.013 129.676 83.7716 131.818 81.4373 131.818C79.1031 131.818 77.832 129.676 77.832 126.305C77.832 122.933 79.0869 120.805 81.4373 120.805C83.7878 120.805 85.013 122.947 85.013 126.305ZM78.566 126.305C78.566 129.256 79.5321 131.138 81.4346 131.138C83.3371 131.138 84.2897 129.256 84.2897 126.305C84.2897 123.353 83.3102 121.487 81.4346 121.487C79.5591 121.487 78.566 123.369 78.566 126.305Z" fill="#EA3731"/>
<path d="M92.4991 123.79C92.4991 125.252 92.0242 126.149 91.0581 127.335L88.0572 130.953H92.6853V131.632H86.6567V131.546L90.4779 126.902C91.4008 125.789 91.7759 125.006 91.7759 123.777C91.7759 122.33 90.8098 121.491 89.5415 121.491C88.2731 121.491 87.5229 122.127 87.2342 123.473L86.5703 123.327C86.9022 121.721 87.898 120.809 89.5415 120.809C91.1849 120.809 92.4964 122.011 92.4964 123.79H92.4991Z" fill="#EA3731"/>
<path d="M99.9377 123.629C99.9377 124.932 99.2468 125.641 98.2942 125.988C99.5788 126.394 100.386 127.363 100.386 128.693C100.386 130.575 99.1173 131.818 97.258 131.818C95.3986 131.818 94.5189 130.892 93.9414 129.533L94.5891 129.316C95.0505 130.372 95.7575 131.138 97.258 131.138C98.7584 131.138 99.6651 130.169 99.6651 128.693C99.6651 127.361 98.583 126.334 97.0124 126.334H95.8169V125.668H97.0556C98.1377 125.668 99.2198 125.062 99.2198 123.613C99.2198 122.31 98.3104 121.484 97.0853 121.484C95.8601 121.484 95.1531 122.164 94.7213 123.22L94.0871 122.947C94.5621 121.744 95.4283 120.805 97.1014 120.805C98.7746 120.805 99.9431 121.92 99.9431 123.626L99.9377 123.629Z" fill="#EA3731"/>
<path d="M74.916 51.279H74.1172V39.7402H74.916V51.279Z" fill="black"/>
<path d="M84.0509 40.7623L83.6137 41.4231C82.8473 40.7623 81.7841 40.2938 80.594 40.2938C79.1071 40.2938 77.9035 41.0304 77.9035 42.6633C77.9035 44.0444 78.7941 44.4993 80.9529 44.9868C83.5652 45.5988 84.6932 46.4139 84.6932 48.1903C84.6932 50.1536 83.1901 51.486 80.8612 51.486C79.2042 51.486 77.9197 50.9525 76.9023 50.0724L77.3881 49.4116C78.2489 50.2267 79.5632 50.7304 80.8774 50.7304C82.5667 50.7304 83.9133 49.8666 83.9133 48.2201C83.9133 46.8851 82.8959 46.2568 80.737 45.7721C78.1248 45.1763 77.1074 44.4208 77.1074 42.6796C77.1074 40.6865 78.5458 39.541 80.6102 39.541C82.0647 39.541 83.1927 40.0582 84.0509 40.765V40.7623Z" fill="black"/>
<path d="M97.1447 45.5191C97.1447 48.9717 94.7511 51.4848 91.4669 51.4848C88.1827 51.4848 85.7891 48.9745 85.7891 45.5191C85.7891 42.0637 88.1665 39.5371 91.4669 39.5371C94.7673 39.5371 97.1447 42.0799 97.1447 45.5191ZM86.6013 45.5191C86.6013 48.5331 88.6199 50.7319 91.4669 50.7319C94.3139 50.7319 96.3486 48.5331 96.3486 45.5191C96.3486 42.5051 94.3004 40.2926 91.4669 40.2926C88.6334 40.2926 86.6013 42.5213 86.6013 45.5191Z" fill="black"/>
<defs>
<radialGradient id="paint0_radial_725_4131" cx="0" cy="0" r="1" gradientUnits="userSpaceOnUse" gradientTransform="translate(85.2086 89.6351) scale(65.2086 65.4358)">
<stop offset="0.56" stop-color="#231F20"/>
<stop offset="0.64" stop-color="#262223"/>
<stop offset="0.7" stop-color="#302C2D"/>
<stop offset="0.75" stop-color="#413D3E"/>
<stop offset="0.8" stop-color="#585556"/>
<stop offset="0.85" stop-color="#777575"/>
<stop offset="0.9" stop-color="#9D9B9B"/>
<stop offset="0.95" stop-color="#C9C8C9"/>
<stop offset="1" stop-color="white"/>
</radialGradient>
<linearGradient id="paint1_linear_725_4131" x1="25.045" y1="85.3789" x2="145.372" y2="85.3789" gradientUnits="userSpaceOnUse">
<stop stop-color="#EFF6FD"/>
<stop offset="1" stop-color="#FAFEFF"/>
</linearGradient>
<linearGradient id="paint2_linear_725_4131" x1="26.0232" y1="85.3789" x2="144.394" y2="85.3789" gradientUnits="userSpaceOnUse">
<stop stop-color="#FAFEFF"/>
<stop offset="1" stop-color="#EFF6FD"/>
</linearGradient>
<linearGradient id="paint3_linear_725_4131" x1="114.189" y1="92.8023" x2="0.859806" y2="43.9532" gradientUnits="userSpaceOnUse">
<stop stop-color="#231F20"/>
<stop offset="1" stop-color="white"/>
</linearGradient>
<linearGradient id="paint4_linear_725_4131" x1="106.31" y1="64.713" x2="216.589" y2="135.878" gradientUnits="userSpaceOnUse">
<stop stop-color="#231F20"/>
<stop offset="1" stop-color="white"/>
</linearGradient>
</defs>
</svg>
