<svg width="171" height="171" viewBox="0 0 171 171" fill="none" xmlns="http://www.w3.org/2000/svg">
<path d="M85.1087 161.495C126.927 161.495 160.827 127.595 160.827 85.7767C160.827 43.9587 126.927 10.0586 85.1087 10.0586C43.2908 10.0586 9.39062 43.9587 9.39062 85.7767C9.39062 127.595 43.2908 161.495 85.1087 161.495Z" fill="white"/>
<path d="M85.3791 155.073C123.871 155.073 155.075 123.869 155.075 85.3772C155.075 46.8854 123.871 15.6816 85.3791 15.6816C46.8873 15.6816 15.6836 46.8854 15.6836 85.3772C15.6836 123.869 46.8873 155.073 85.3791 155.073Z" fill="#D7EEF0"/>
<path d="M166.256 89.4646L166.272 89.4565C169.674 87.7992 169.674 82.9573 166.272 81.3L166.259 81.2892C164.585 80.4741 163.711 78.8439 163.711 77.2055C163.711 75.8624 164.296 74.5138 165.509 73.5958C168.525 71.3102 167.583 66.555 163.925 65.5937H163.914C160.645 64.7298 159.429 60.7274 161.674 58.1954L161.68 58.1873C164.19 55.3548 162.332 50.8785 158.555 50.651H158.549C155.175 50.4479 153.198 46.7596 154.902 43.8377L154.907 43.8241C156.112 41.7607 155.478 39.3966 153.908 38.0615C152.99 37.2844 151.752 36.8538 150.371 37.046H150.363C147.01 37.5091 144.351 34.2731 145.453 31.0749L145.459 31.0641C146.691 27.4896 143.268 24.0612 139.691 25.2934L139.677 25.2988C136.482 26.4009 133.243 23.7417 133.706 20.3919V20.3838C134.221 16.6359 130.197 13.9388 126.925 15.8452L126.915 15.8533C123.993 17.5567 120.302 15.5798 120.101 12.2057V12.2003C119.874 8.42261 115.395 6.56764 112.562 9.07794L112.557 9.08336C110.864 10.5809 108.508 10.5348 106.878 9.35958C106.071 8.78007 105.443 7.92434 105.159 6.84115V6.83302C104.584 4.66392 102.681 3.44804 100.747 3.44804C99.4203 3.44804 98.0798 4.01942 97.151 5.24885C95.1065 7.94601 90.9389 7.53981 89.4576 4.49874L89.4468 4.48249C87.7895 1.08396 82.9503 1.08396 81.293 4.48249L81.2822 4.49874C80.4671 6.17227 78.8396 7.04695 77.1985 7.04695C75.8581 7.04695 74.5095 6.45932 73.5888 5.24614C71.306 2.22944 66.548 3.17182 65.5867 6.83302V6.84115C64.7228 10.1097 60.7204 11.3256 58.1858 9.08336L58.1803 9.07794C55.3478 6.56764 50.8688 8.42261 50.644 12.2003V12.2057C50.4409 15.5798 46.7499 17.5567 43.828 15.8533L43.8172 15.8452C40.5513 13.9415 36.5218 16.6359 37.0364 20.3838V20.3892C37.4994 23.7417 34.2634 26.4009 31.0652 25.2988L31.0544 25.2934C27.4799 24.0612 24.0543 27.4869 25.2864 31.0614L25.2918 31.0722C26.394 34.2704 23.7347 37.5064 20.3822 37.046H20.3741C16.629 36.5288 13.9318 40.5556 15.8382 43.8241L15.8464 43.835C17.5497 46.7569 15.5701 50.4479 12.1987 50.651H12.1933C8.41563 50.8757 6.56066 55.3548 9.06826 58.1873L9.07367 58.1927C11.3159 60.7247 10.1027 64.7298 6.83417 65.591H6.82333C4.65424 66.1651 3.43835 68.0688 3.43835 70.0023C3.43835 71.3292 4.00973 72.6696 5.23916 73.5985C7.93632 75.643 7.53012 79.8106 4.48905 81.2919L4.4728 81.3027C1.07157 82.96 1.07157 87.8019 4.4728 89.4592L4.48634 89.4673C6.15988 90.2824 7.03456 91.9126 7.03456 93.5509C7.03456 94.8941 6.44963 96.2427 5.23645 97.1607C2.21975 99.4462 3.16213 104.201 6.82063 105.163H6.83146C10.1 106.027 11.3159 110.032 9.07097 112.564L9.06555 112.569C6.55524 115.402 8.41292 119.881 12.1906 120.108H12.196C15.5701 120.309 17.547 124 15.8436 126.921L15.8382 126.932C13.9318 130.198 16.629 134.228 20.3741 133.713H20.3822C23.2094 133.323 25.541 135.565 25.5437 138.195C25.5437 138.685 25.4624 139.186 25.2918 139.687L25.2864 139.698C24.0543 143.272 27.4772 146.698 31.0544 145.466L31.0652 145.46C34.2607 144.358 37.4994 147.017 37.0364 150.37V150.378C36.5218 154.123 40.5459 156.823 43.8172 154.914L43.828 154.909C46.7499 153.202 50.4409 155.182 50.6413 158.556C50.8688 162.337 55.3478 164.194 58.1803 161.684L58.1858 161.679C60.715 159.436 64.7228 160.649 65.584 163.918V163.929C66.1581 166.098 68.0618 167.314 69.9953 167.314C71.3222 167.314 72.6627 166.742 73.5915 165.513C75.636 162.816 79.8036 163.222 81.2849 166.266L81.2957 166.282C82.953 169.681 87.7922 169.681 89.4495 166.282L89.4603 166.266C90.2754 164.592 91.9056 163.718 93.5467 163.718C94.8871 163.718 96.2357 164.303 97.1537 165.516C99.4365 168.532 104.194 167.59 105.156 163.932V163.921C106.02 160.652 110.022 159.436 112.557 161.681L112.562 161.687C115.395 164.197 119.874 162.339 120.098 158.562C120.302 155.182 123.993 153.205 126.915 154.911L126.925 154.917C130.191 156.823 134.221 154.126 133.706 150.381V150.373C133.243 147.02 136.479 144.361 139.677 145.466H139.691C140.752 145.834 141.798 145.788 142.716 145.452C144.887 144.653 146.328 142.214 145.459 139.7L145.453 139.69C144.351 136.492 147.01 133.253 150.363 133.716H150.371C154.116 134.23 156.813 130.206 154.907 126.935L154.899 126.924C153.196 124.002 155.172 120.311 158.547 120.111H158.552C162.33 119.883 164.185 115.407 161.677 112.572L161.672 112.566C159.429 110.037 160.643 106.029 163.911 105.168H163.922C166.091 104.597 167.307 102.693 167.307 100.757C167.307 99.43 166.735 98.0895 165.506 97.1607C162.809 95.1162 163.215 90.9486 166.256 89.4673V89.4646ZM137.922 135.844C137.587 136.199 137.24 136.548 136.893 136.898C123.131 150.66 104.836 158.237 85.3767 158.237C65.9171 158.237 48.1039 150.857 34.4069 137.439C34.2255 137.261 34.0413 137.082 33.8599 136.9C20.0979 123.138 12.5182 104.843 12.5182 85.3809C12.5182 65.9186 20.0979 47.6262 33.8599 33.8642C47.6192 20.1022 65.9171 12.5225 85.3767 12.5225C93.7823 12.5225 101.971 13.9361 109.67 16.6522C119.798 20.224 129.078 26.0462 136.893 33.8615C140.809 37.7772 144.227 42.064 147.111 46.6405C154.357 58.1359 158.235 71.4592 158.235 85.3782C158.235 104.348 151.035 122.21 137.922 135.844Z" fill="#EBB00E"/>
<path d="M85.3791 155.073C123.871 155.073 155.075 123.869 155.075 85.3772C155.075 46.8854 123.871 15.6816 85.3791 15.6816C46.8873 15.6816 15.6836 46.8854 15.6836 85.3772C15.6836 123.869 46.8873 155.073 85.3791 155.073Z" fill="#EBB00E"/>
<path style="mix-blend-mode:multiply" opacity="0.75" d="M85.3811 155.071C121.52 155.071 150.817 125.774 150.817 89.635C150.817 53.4958 121.52 24.1992 85.3811 24.1992C49.2419 24.1992 19.9453 53.4958 19.9453 89.635C19.9453 125.774 49.2419 155.071 85.3811 155.071Z" fill="url(#paint0_radial_725_4007)"/>
<path d="M128.068 128.068C151.645 104.492 151.645 66.2662 128.068 42.6895C104.491 19.1128 66.2661 19.1128 42.6894 42.6895C19.1127 66.2662 19.1127 104.492 42.6894 128.068C66.2661 151.645 104.491 151.645 128.068 128.068Z" fill="url(#paint1_linear_725_4007)"/>
<path d="M127.375 127.375C150.569 104.181 150.569 66.5766 127.375 43.3827C104.181 20.1888 66.5768 20.1888 43.3829 43.3827C20.1891 66.5766 20.1891 104.181 43.3829 127.375C66.5768 150.569 104.181 150.569 127.375 127.375Z" fill="url(#paint2_linear_725_4007)"/>
<path style="mix-blend-mode:color-burn" opacity="0.25" d="M114.411 45.9271C114.411 55.8166 112.857 65.3406 109.976 74.2743C109.756 74.9594 109.529 75.6445 109.291 76.3215C108.955 77.2883 108.603 78.2469 108.232 79.1974C107.98 79.8609 107.715 80.5216 107.441 81.1769C107.002 82.2412 106.545 83.2919 106.065 84.3318C105.743 85.0412 105.407 85.7453 105.066 86.444C104.043 88.5373 102.943 90.5899 101.765 92.5911C101.559 92.9459 101.345 93.3006 101.131 93.6554C99.1357 96.951 96.9422 100.111 94.5673 103.12C94.2369 103.54 93.9038 103.951 93.568 104.363C93.1943 104.823 92.8125 105.278 92.428 105.73C91.9514 106.294 91.4639 106.846 90.9738 107.396C86.7683 112.11 82.0834 116.389 76.9951 120.156C76.7487 120.337 76.505 120.519 76.2559 120.697C68.5868 126.265 60.0242 130.682 50.8251 133.69C50.4406 133.818 50.0534 133.942 49.6661 134.061C46.4409 135.071 43.1371 135.905 39.7711 136.561C39.3162 136.647 38.8558 136.737 38.3982 136.815C37.0767 137.051 35.7471 137.257 34.4066 137.435C31.4982 137.825 28.5411 138.077 25.5515 138.188C25.5515 135.559 23.2172 133.319 20.39 133.707H20.3819C16.6368 134.221 13.9369 130.194 15.846 126.926L15.8515 126.915C17.5575 123.993 15.578 120.302 12.2038 120.102H12.1984C8.42074 119.874 6.56306 115.395 9.07336 112.563L9.07878 112.557C11.321 110.028 10.1078 106.02 6.83927 105.159H6.82844C3.16995 104.192 2.22757 99.4369 5.24427 97.1541C6.45744 96.2334 7.04237 94.8875 7.04237 93.5443C7.04237 91.906 6.16769 90.2758 4.49415 89.4607L4.48061 89.4526C1.07938 87.7953 1.07938 82.9534 4.48061 81.2961L4.49686 81.2853C7.53793 79.804 7.94413 75.6337 5.24697 73.5919C4.01755 72.663 3.44616 71.3226 3.44616 69.9957C3.44616 68.0649 4.65934 66.1584 6.83115 65.5871H6.84198C10.1105 64.7232 11.3264 60.7208 9.08149 58.1861L9.07607 58.1807C6.56847 55.3481 8.42344 50.8691 12.2011 50.6444H12.2065C15.5807 50.4413 17.5575 46.7503 15.8542 43.8284L15.846 43.8175C13.9423 40.5517 16.6368 36.5222 20.3819 37.0394H20.39C23.7425 37.5025 26.4018 34.2665 25.2996 31.0683L25.2942 31.0575C24.0621 27.4829 27.4877 24.0573 31.0622 25.2895L31.0731 25.2949C34.2712 26.397 37.5072 23.7378 37.0469 20.3853V20.3799C36.5297 16.632 40.5564 13.9349 43.825 15.8413L43.8358 15.8494C46.7577 17.5528 50.4487 15.5759 50.6518 12.2018V12.1964C50.8766 8.41871 55.3556 6.56373 58.1882 9.07404L58.1936 9.07945C60.7255 11.319 64.7307 10.1058 65.5918 6.83724V6.82912C66.5585 3.16792 71.3138 2.22554 73.5966 5.24223C74.5173 6.45541 75.8659 7.04305 77.2064 7.04305C78.8474 7.04305 80.4749 6.16837 81.29 4.49483L81.3008 4.47858C82.9581 1.08006 87.7973 1.08006 89.4546 4.47858L89.4654 4.49483C90.9467 7.5359 95.117 7.9421 97.1588 5.24494C98.0877 4.01552 99.4281 3.44413 100.755 3.44413C102.686 3.44413 104.592 4.66002 105.164 6.82912V6.83724C105.451 7.92044 106.079 8.77616 106.886 9.35567C107.915 11.736 108.846 14.1705 109.672 16.6483C110.098 17.921 110.498 19.2073 110.867 20.5045C111.787 23.7188 112.532 27.0009 113.101 30.3453C113.187 30.8463 113.269 31.35 113.35 31.8563C113.409 32.2571 113.469 32.6579 113.526 33.0641C114.111 37.2669 114.414 41.5618 114.414 45.9243L114.411 45.9271Z" fill="url(#paint3_linear_725_4007)"/>
<path style="mix-blend-mode:color-burn" opacity="0.2" d="M165.508 97.1574C166.737 98.0863 167.308 99.4267 167.308 100.754C167.308 102.687 166.095 104.591 163.923 105.162H163.913C160.644 106.026 159.428 110.031 161.673 112.563L161.679 112.569C164.186 115.404 162.331 119.88 158.553 120.108H158.548C155.174 120.311 153.197 123.999 154.9 126.921L154.909 126.932C156.812 130.2 154.118 134.227 150.373 133.713H150.365C147.012 133.25 144.353 136.488 145.455 139.686L145.46 139.697C146.33 142.213 144.889 144.653 142.717 145.449C141.989 144.184 141.293 142.903 140.632 141.612C140.302 140.973 139.979 140.328 139.668 139.678C139.224 138.758 138.796 137.831 138.384 136.897C138.23 136.551 138.076 136.198 137.924 135.846C137.794 135.546 137.669 135.24 137.542 134.937C137.217 134.159 136.906 133.374 136.605 132.589C136.497 132.304 136.386 132.02 136.283 131.736C136.199 131.511 136.118 131.289 136.037 131.061C135.85 130.552 135.668 130.046 135.498 129.534C134.742 127.33 134.071 125.101 133.486 122.854C133.421 122.607 133.356 122.363 133.296 122.114C133.258 121.96 133.218 121.808 133.182 121.654C133.12 121.399 133.058 121.139 132.998 120.882C132.17 117.394 131.549 113.866 131.132 110.318C131.07 109.787 131.013 109.259 130.959 108.731C130.9 108.144 130.848 107.548 130.799 106.958C130.74 106.224 130.691 105.487 130.65 104.751C130.29 98.4437 130.577 92.1043 131.509 85.8434C131.555 85.5429 131.601 85.2396 131.65 84.939C132.993 76.4792 135.517 68.1657 139.221 60.2746C139.4 59.8928 139.581 59.5137 139.765 59.1346C139.988 58.6769 140.21 58.222 140.442 57.7697C140.624 57.4096 140.811 57.0467 141 56.6865C141.144 56.4103 141.29 56.1395 141.436 55.866C142.582 53.7267 143.819 51.6253 145.152 49.5645C145.504 49.0148 145.864 48.4678 146.232 47.9235C146.492 47.5389 146.755 47.1517 147.02 46.7726C147.053 46.7293 147.082 46.6832 147.115 46.6399C147.852 45.5838 148.615 44.5412 149.403 43.5122C150.825 41.6545 152.328 39.8347 153.912 38.0664C155.483 39.4014 156.116 41.7655 154.911 43.829L154.906 43.8425C153.2 46.7645 155.179 50.4555 158.553 50.6558H158.559C162.337 50.8833 164.194 55.3596 161.684 58.1922L161.679 58.2003C159.436 60.7296 160.649 64.7347 163.918 65.5958H163.929C167.587 66.5626 168.53 71.3178 165.513 73.6006C164.3 74.5214 163.715 75.8672 163.715 77.2104C163.715 78.8487 164.59 80.4789 166.263 81.294L166.277 81.3049C169.678 82.9621 169.678 87.804 166.277 89.4613L166.26 89.4694C163.219 90.9507 162.813 95.121 165.51 97.1628L165.508 97.1574Z" fill="url(#paint4_linear_725_4007)"/>
<path d="M128.118 92.5898H42.6406V93.6514H128.118V92.5898Z" fill="#EBB00E"/>
<path d="M59.386 61.5898H50.1517V70.0143C51.1104 69.4755 52.459 68.9961 54.0783 68.9961C58.1863 68.9961 60.7941 71.8747 60.7941 75.7715C60.7941 79.6683 58.2757 82.6065 54.2002 82.6065C50.4523 82.6065 48.6542 80.7488 47.4844 78.0489L48.8032 77.4505C49.732 79.6385 51.1402 81.1983 54.1406 81.1983C57.1411 81.1983 59.2966 78.8288 59.2966 75.7417C59.2966 72.6546 57.2277 70.4043 54.0215 70.4043C52.134 70.4043 50.604 71.0948 49.3745 71.9939L48.6542 71.6635V60.1816H59.386V61.5898Z" fill="black"/>
<path d="M78.0034 71.1835C78.0034 78.1674 75.4254 82.6058 70.5699 82.6058C65.7145 82.6058 63.0742 78.1701 63.0742 71.1835C63.0742 64.1969 65.682 59.791 70.5699 59.791C75.4579 59.791 78.0034 64.2267 78.0034 71.1835ZM64.6042 71.1835C64.6042 77.2982 66.6136 81.1977 70.5699 81.1977C74.5263 81.1977 76.5058 77.3009 76.5058 71.1835C76.5058 65.0662 74.4667 61.2019 70.5699 61.2019C66.6731 61.2019 64.6042 65.0987 64.6042 71.1835Z" fill="black"/>
<path d="M95.4799 71.1835C95.4799 78.1674 92.9019 82.6058 88.0465 82.6058C83.1911 82.6058 80.5508 78.1701 80.5508 71.1835C80.5508 64.1969 83.1586 59.791 88.0465 59.791C92.9344 59.791 95.4799 64.2267 95.4799 71.1835ZM82.0808 71.1835C82.0808 77.2982 84.0901 81.1977 88.0465 81.1977C92.0029 81.1977 93.9824 77.3009 93.9824 71.1835C93.9824 65.0662 91.9433 61.2019 88.0465 61.2019C84.1497 61.2019 82.0808 65.0987 82.0808 71.1835Z" fill="black"/>
<path d="M112.96 71.1835C112.96 78.1674 110.382 82.6058 105.527 82.6058C100.672 82.6058 98.0312 78.1701 98.0312 71.1835C98.0312 64.1969 100.639 59.791 105.527 59.791C110.415 59.791 112.96 64.2267 112.96 71.1835ZM99.5613 71.1835C99.5613 77.2982 101.571 81.1977 105.527 81.1977C109.483 81.1977 111.463 77.3009 111.463 71.1835C111.463 65.0662 109.424 61.2019 105.527 61.2019C101.63 61.2019 99.5613 65.0987 99.5613 71.1835Z" fill="black"/>
<path d="M122.127 82.2171H120.627V62.7006L115.891 66.3889L115.141 65.0999L122.005 59.7949H122.125V82.2198L122.127 82.2171Z" fill="black"/>
<path d="M61.4254 100.991L61.0192 101.601C60.3097 100.991 59.3267 100.558 58.2273 100.558C56.8516 100.558 55.7386 101.238 55.7386 102.743C55.7386 104.016 56.5619 104.436 58.5604 104.885C60.9759 105.449 62.0185 106.201 62.0185 107.837C62.0185 109.646 60.6293 110.875 58.4737 110.875C56.941 110.875 55.7522 110.383 54.8125 109.573L55.262 108.964C56.0582 109.716 57.2741 110.18 58.4899 110.18C60.0525 110.18 61.2981 109.383 61.2981 107.864C61.2981 106.635 60.3585 106.055 58.36 105.606C55.9444 105.056 55.0021 104.36 55.0021 102.754C55.0021 100.915 56.3344 99.8594 58.2435 99.8594C59.5894 99.8594 60.632 100.336 61.4281 100.989L61.4254 100.991Z" fill="black"/>
<path d="M69.5837 107.011V107.344H63.6939C63.7372 109.066 64.7364 110.195 66.5291 110.195C67.7152 110.195 68.4978 109.659 68.9447 109.096L69.451 109.516C68.7849 110.342 67.8019 110.832 66.5291 110.832C64.2707 110.832 62.9844 109.269 62.9844 107.097C62.9844 104.926 64.3438 103.35 66.3423 103.35C68.3408 103.35 69.5837 104.942 69.5837 107.011ZM63.6939 106.721H68.8878C68.8309 105.129 67.9048 103.986 66.3423 103.986C64.7798 103.986 63.7805 105.115 63.6939 106.721Z" fill="black"/>
<path d="M74.2308 104.059H74.1441C73.2044 104.059 72.5952 104.536 72.0454 105.405V110.686H71.3359V103.493H72.0021L72.0156 104.549C72.3785 103.97 73.1015 103.35 74.2308 103.35V104.059Z" fill="black"/>
<path d="M77.064 103.496H79.5391V104.133H77.064V108.56C77.064 109.617 77.6868 110.182 78.5534 110.182C79.1031 110.182 79.466 110.066 79.6826 109.923L79.9588 110.486C79.6691 110.673 79.1925 110.832 78.5263 110.832C77.2373 110.832 76.3707 110.066 76.3707 108.56V104.133H74.8516V103.496H76.3707V101.008H77.0667V103.496H77.064Z" fill="black"/>
<path d="M82.2621 101.12C82.2621 101.467 81.9859 101.713 81.6556 101.713C81.3252 101.713 81.0625 101.467 81.0625 101.12C81.0625 100.774 81.3225 100.527 81.6556 100.527C81.9886 100.527 82.2621 100.787 82.2621 101.12ZM82.0022 110.685H81.2927V103.493H82.0022V110.685Z" fill="black"/>
<path d="M88.164 100.038L87.904 100.618C87.6738 100.444 87.3841 100.341 86.9779 100.341C86.1086 100.341 85.5752 101.051 85.5752 101.99V103.496H87.7307V104.133H85.5752V110.689H84.8792V104.133H83.5469V103.496H84.8792V102.007C84.8792 100.691 85.6889 99.6914 86.9644 99.6914C87.441 99.6914 87.8472 99.8214 88.1667 100.038H88.164ZM90.2194 101.124C90.2194 101.471 89.9431 101.717 89.6128 101.717C89.2824 101.717 89.0197 101.471 89.0197 101.124C89.0197 100.777 89.2797 100.531 89.6128 100.531C89.9459 100.531 90.2194 100.791 90.2194 101.124ZM89.9594 110.689H89.2499V103.496H89.9594V110.689Z" fill="black"/>
<path d="M93.199 109.386L97.0199 103.496H97.8459L95.647 106.811L98.3685 110.689H97.529L95.2272 107.417L93.0852 110.689H92.4922V99.6914H93.2017V109.386H93.199Z" fill="black"/>
<path d="M104.903 104.509L104.916 103.496H105.582V110.688H104.916L104.903 109.646C104.453 110.209 103.673 110.832 102.311 110.832C100.342 110.832 98.9531 109.256 98.9531 107.097C98.9531 104.939 100.342 103.35 102.311 103.35C103.67 103.35 104.453 103.943 104.903 104.506V104.509ZM99.6653 107.1C99.6653 108.909 100.808 110.182 102.4 110.182C103.6 110.182 104.326 109.602 104.875 108.806V105.375C104.326 104.579 103.603 104 102.4 104C100.808 104 99.6653 105.289 99.6653 107.097V107.1Z" fill="black"/>
<path d="M112.271 104.118L111.938 104.668C111.445 104.291 110.852 104.001 110.043 104.001C109.043 104.001 108.334 104.391 108.334 105.318C108.334 106.114 108.884 106.374 110.229 106.693C111.895 107.07 112.661 107.633 112.661 108.719C112.661 109.992 111.619 110.831 110.056 110.831C108.957 110.831 108.104 110.498 107.438 109.962L107.8 109.398C108.393 109.891 109.176 110.181 110.072 110.181C111.158 110.181 111.968 109.705 111.968 108.749C111.968 107.952 111.345 107.619 109.999 107.316C108.334 106.94 107.627 106.447 107.627 105.347C107.627 104.058 108.597 103.352 110.029 103.352C110.955 103.352 111.708 103.685 112.271 104.118Z" fill="black"/>
<path d="M115.209 110.689H114.5V103.496H115.209V110.689Z" fill="black"/>
<path d="M76.6499 123.79C76.6499 125.252 76.1733 126.149 75.2038 127.335L72.1952 130.953H76.8394V131.632H70.7898V131.546L74.6243 126.902C75.5504 125.789 75.9268 125.006 75.9268 123.777C75.9268 122.33 74.9574 121.491 73.6846 121.491C72.4119 121.491 71.659 122.127 71.3693 123.473L70.7031 123.327C71.0362 121.721 72.0355 120.809 73.6846 120.809C75.3338 120.809 76.6499 122.011 76.6499 123.79Z" fill="#EBB00E"/>
<path d="M85.1825 126.305C85.1825 129.676 83.9368 131.818 81.5944 131.818C79.252 131.818 77.9766 129.676 77.9766 126.305C77.9766 122.933 79.2358 120.805 81.5944 120.805C83.9531 120.805 85.1825 122.947 85.1825 126.305ZM78.7131 126.305C78.7131 129.256 79.6826 131.138 81.5917 131.138C83.5009 131.138 84.4568 129.256 84.4568 126.305C84.4568 123.353 83.4738 121.487 81.5917 121.487C79.7097 121.487 78.7131 123.369 78.7131 126.305Z" fill="#EBB00E"/>
<path d="M92.6955 123.79C92.6955 125.252 92.2189 126.149 91.2495 127.335L88.2382 130.953H92.8824V131.632H86.8328V131.546L90.6673 126.902C91.5934 125.789 91.9698 125.006 91.9698 123.777C91.9698 122.33 91.0003 121.491 89.7276 121.491C88.4548 121.491 87.702 122.127 87.4123 123.473L86.7461 123.327C87.0792 121.721 88.0784 120.809 89.7276 120.809C91.3768 120.809 92.6928 122.011 92.6928 123.79H92.6955Z" fill="#EBB00E"/>
<path d="M100.162 123.629C100.162 124.932 99.4684 125.641 98.5125 125.988C99.8015 126.394 100.611 127.363 100.611 128.693C100.611 130.575 99.3384 131.818 97.4726 131.818C95.6068 131.818 94.724 130.892 94.1445 129.533L94.7944 129.316C95.2575 130.372 95.967 131.138 97.4726 131.138C98.9783 131.138 99.8882 130.169 99.8882 128.693C99.8882 127.361 98.8023 126.334 97.2262 126.334H96.0266V125.668H97.2695C98.3554 125.668 99.4414 125.062 99.4414 123.613C99.4414 122.31 98.5288 121.484 97.2993 121.484C96.0699 121.484 95.3604 122.164 94.9271 123.22L94.2908 122.947C94.7674 121.744 95.6366 120.805 97.3156 120.805C98.9945 120.805 100.167 121.92 100.167 123.626L100.162 123.629Z" fill="#EBB00E"/>
<path d="M75.0516 51.279H74.25V39.7402H75.0516V51.279Z" fill="black"/>
<path d="M84.2164 40.7623L83.7777 41.4231C83.0087 40.7623 81.9417 40.2938 80.7475 40.2938C79.2554 40.2938 78.0476 41.0304 78.0476 42.6633C78.0476 44.0444 78.9413 44.4993 81.1077 44.9868C83.729 45.5988 84.8609 46.4139 84.8609 48.1903C84.8609 50.1536 83.3526 51.486 81.0156 51.486C79.3529 51.486 78.0639 50.9525 77.043 50.0724L77.5304 49.4116C78.3943 50.2267 79.713 50.7304 81.0318 50.7304C82.727 50.7304 84.0783 49.8666 84.0783 48.2201C84.0783 46.8851 83.0574 46.2568 80.891 45.7721C78.2697 45.1763 77.2488 44.4208 77.2488 42.6796C77.2488 40.6865 78.6921 39.541 80.7637 39.541C82.2233 39.541 83.3553 40.0582 84.2164 40.765V40.7623Z" fill="black"/>
<path d="M97.3562 45.5191C97.3562 48.9717 94.9542 51.4848 91.6585 51.4848C88.3629 51.4848 85.9609 48.9745 85.9609 45.5191C85.9609 42.0637 88.3467 39.5371 91.6585 39.5371C94.9704 39.5371 97.3562 42.0799 97.3562 45.5191ZM86.776 45.5191C86.776 48.5331 88.8016 50.7319 91.6585 50.7319C94.5155 50.7319 96.5573 48.5331 96.5573 45.5191C96.5573 42.5051 94.5019 40.2926 91.6585 40.2926C88.8152 40.2926 86.776 42.5213 86.776 45.5191Z" fill="black"/>
<defs>
<radialGradient id="paint0_radial_725_4007" cx="0" cy="0" r="1" gradientUnits="userSpaceOnUse" gradientTransform="translate(85.3811 89.6351) scale(65.4358 65.4358)">
<stop offset="0.56" stop-color="#231F20"/>
<stop offset="0.64" stop-color="#262223"/>
<stop offset="0.7" stop-color="#302C2D"/>
<stop offset="0.75" stop-color="#413D3E"/>
<stop offset="0.8" stop-color="#585556"/>
<stop offset="0.85" stop-color="#777575"/>
<stop offset="0.9" stop-color="#9D9B9B"/>
<stop offset="0.95" stop-color="#C9C8C9"/>
<stop offset="1" stop-color="white"/>
</radialGradient>
<linearGradient id="paint1_linear_725_4007" x1="25.0068" y1="85.3789" x2="145.753" y2="85.3789" gradientUnits="userSpaceOnUse">
<stop stop-color="#EFF6FD"/>
<stop offset="1" stop-color="#FAFEFF"/>
</linearGradient>
<linearGradient id="paint2_linear_725_4007" x1="25.9875" y1="85.3789" x2="144.771" y2="85.3789" gradientUnits="userSpaceOnUse">
<stop stop-color="#FAFEFF"/>
<stop offset="1" stop-color="#EFF6FD"/>
</linearGradient>
<linearGradient id="paint3_linear_725_4007" x1="114.463" y1="92.8023" x2="0.862734" y2="43.6659" gradientUnits="userSpaceOnUse">
<stop stop-color="#231F20"/>
<stop offset="1" stop-color="white"/>
</linearGradient>
<linearGradient id="paint4_linear_725_4007" x1="106.555" y1="64.713" x2="216.992" y2="136.228" gradientUnits="userSpaceOnUse">
<stop stop-color="#231F20"/>
<stop offset="1" stop-color="white"/>
</linearGradient>
</defs>
</svg>
