<svg width="171" height="171" viewBox="0 0 171 171" fill="none" xmlns="http://www.w3.org/2000/svg">
<path d="M86.5411 160.012C128.214 160.012 161.996 126.112 161.996 84.2942C161.996 42.4763 128.214 8.57617 86.5411 8.57617C44.8684 8.57617 11.0859 42.4763 11.0859 84.2942C11.0859 126.112 44.8684 160.012 86.5411 160.012Z" fill="white"/>
<path d="M85.2308 155.071C123.589 155.071 154.684 123.867 154.684 85.3752C154.684 46.8834 123.589 15.6797 85.2308 15.6797C46.8727 15.6797 15.7773 46.8834 15.7773 85.3752C15.7773 123.867 46.8727 155.071 85.2308 155.071Z" fill="#D7EEF0"/>
<path d="M165.83 89.4646L165.846 89.4565C169.236 87.7992 169.236 82.9573 165.846 81.3L165.833 81.2892C164.165 80.4741 163.293 78.8439 163.293 77.2055C163.293 75.8624 163.876 74.5138 165.085 73.5958C168.092 71.3102 167.152 66.555 163.507 65.5937H163.496C160.239 64.7298 159.027 60.7274 161.264 58.1954L161.269 58.1873C163.771 55.3548 161.92 50.8785 158.155 50.651H158.15C154.787 50.4479 152.818 46.7596 154.515 43.8377L154.52 43.8241C155.721 41.7607 155.09 39.3966 153.525 38.0615C152.61 37.2844 151.376 36.8538 150 37.046H149.992C146.651 37.5091 144.001 34.2731 145.1 31.0749L145.105 31.0641C146.333 27.4896 142.922 24.0612 139.357 25.2934L139.343 25.2988C136.159 26.4009 132.932 23.7417 133.393 20.3919V20.3838C133.906 16.6359 129.896 13.9388 126.636 15.8452L126.625 15.8533C123.713 17.5567 120.035 15.5798 119.835 12.2057V12.2003C119.609 8.42261 115.145 6.56764 112.323 9.07794L112.317 9.08336C110.631 10.5809 108.283 10.5348 106.658 9.35958C105.854 8.78007 105.228 7.92434 104.945 6.84115V6.83302C104.372 4.66392 102.475 3.44804 100.549 3.44804C99.2263 3.44804 97.8905 4.01942 96.9649 5.24885C94.9274 7.94601 90.7743 7.53981 89.2982 4.49874L89.2874 4.48249C87.6359 1.08396 82.8135 1.08396 81.162 4.48249L81.1512 4.49874C80.3389 6.17227 78.717 7.04695 77.0817 7.04695C75.7459 7.04695 74.402 6.45932 73.4845 5.24614C71.2096 2.22944 66.4682 3.17182 65.5102 6.83302V6.84115C64.6493 10.1097 60.6608 11.3256 58.1349 9.08336L58.1295 9.07794C55.3068 6.56764 50.8433 8.42261 50.6194 12.2003V12.2057C50.417 15.5798 46.7388 17.5567 43.827 15.8533L43.8162 15.8452C40.5617 13.9415 36.5462 16.6359 37.059 20.3838V20.3892C37.5204 23.7417 34.2956 26.4009 31.1086 25.2988L31.0978 25.2934C27.5357 24.0612 24.1219 27.4869 25.3498 31.0614L25.3552 31.0722C26.4535 34.2704 23.8035 37.5064 20.4627 37.046H20.4546C16.7224 36.5288 14.0346 40.5556 15.9344 43.8241L15.9425 43.835C17.6399 46.7569 15.6673 50.4479 12.3075 50.651H12.3021C8.53761 50.8757 6.68908 55.3548 9.18797 58.1873L9.19337 58.1927C11.4278 60.7247 10.2188 64.7298 6.96164 65.591H6.95085C4.78928 66.1651 3.57761 68.0688 3.57761 70.0023C3.57761 71.3292 4.14702 72.6696 5.37217 73.5985C8.05997 75.643 7.65518 79.8106 4.62467 81.2919L4.60847 81.3027C1.21905 82.96 1.21905 87.8019 4.60847 89.4592L4.62197 89.4673C6.28969 90.2824 7.16134 91.9126 7.16134 93.5509C7.16134 94.8941 6.57844 96.2427 5.36948 97.1607C2.36325 99.4462 3.30236 104.201 6.94815 105.163H6.95894C10.2161 106.027 11.4278 110.032 9.19067 112.564L9.18528 112.569C6.68369 115.402 8.53492 119.881 12.2994 120.108H12.3048C15.6673 120.309 17.6372 124 15.9398 126.921L15.9344 126.932C14.0346 130.198 16.7224 134.228 20.4546 133.713H20.4627C23.28 133.323 25.6035 135.565 25.6062 138.195C25.6062 138.685 25.5252 139.186 25.3552 139.687L25.3498 139.698C24.1219 143.272 27.533 146.698 31.0978 145.466L31.1086 145.46C34.2929 144.358 37.5204 147.017 37.059 150.37V150.378C36.5462 154.123 40.5563 156.823 43.8162 154.914L43.827 154.909C46.7388 153.202 50.417 155.182 50.6167 158.556C50.8433 162.337 55.3068 164.194 58.1295 161.684L58.1349 161.679C60.6554 159.436 64.6493 160.649 65.5075 163.918V163.929C66.0796 166.098 67.9767 167.314 69.9035 167.314C71.2258 167.314 72.5616 166.742 73.4872 165.513C75.5246 162.816 79.6777 163.222 81.1539 166.266L81.1646 166.282C82.8162 169.681 87.6386 169.681 89.2901 166.282L89.3009 166.266C90.1132 164.592 91.7377 163.718 93.3731 163.718C94.7089 163.718 96.0527 164.303 96.9676 165.516C99.2425 168.532 103.984 167.59 104.942 163.932V163.921C105.803 160.652 109.791 159.436 112.317 161.681L112.323 161.687C115.145 164.197 119.609 162.339 119.833 158.562C120.035 155.182 123.713 153.205 126.625 154.911L126.636 154.917C129.89 156.823 133.906 154.126 133.393 150.381V150.373C132.932 147.02 136.156 144.361 139.343 145.466H139.357C140.415 145.834 141.456 145.788 142.371 145.452C144.536 144.653 145.971 142.214 145.105 139.7L145.1 139.69C144.001 136.492 146.651 133.253 149.992 133.716H150C153.732 134.23 156.42 130.206 154.52 126.935L154.512 126.924C152.815 124.002 154.785 120.311 158.147 120.111H158.153C161.917 119.883 163.766 115.407 161.267 112.572L161.261 112.566C159.027 110.037 160.236 106.029 163.493 105.168H163.504C165.665 104.597 166.877 102.693 166.877 100.757C166.877 99.43 166.308 98.0895 165.083 97.1607C162.395 95.1162 162.8 90.9486 165.83 89.4673V89.4646ZM137.595 135.844C137.26 136.199 136.915 136.548 136.569 136.898C122.855 150.66 104.623 158.237 85.2314 158.237C65.8394 158.237 48.0881 150.857 34.4386 137.439C34.2578 137.261 34.0743 137.082 33.8935 136.9C20.1793 123.138 12.626 104.843 12.626 85.3809C12.626 65.9186 20.1793 47.6262 33.8935 33.8642C47.605 20.1022 65.8394 12.5225 85.2314 12.5225C93.6078 12.5225 101.768 13.9361 109.44 16.6522C119.533 20.224 128.781 26.0462 136.569 33.8615C140.471 37.7772 143.877 42.064 146.751 46.6405C153.973 58.1359 157.837 71.4592 157.837 85.3782C157.837 104.348 150.661 122.21 137.595 135.844Z" fill="#3BAFF0"/>
<path d="M85.2308 155.071C123.589 155.071 154.684 123.867 154.684 85.3752C154.684 46.8834 123.589 15.6797 85.2308 15.6797C46.8727 15.6797 15.7773 46.8834 15.7773 85.3752C15.7773 123.867 46.8727 155.071 85.2308 155.071Z" fill="#3BAFF0"/>
<path style="mix-blend-mode:multiply" opacity="0.75" d="M85.2321 155.071C121.246 155.071 150.441 125.774 150.441 89.635C150.441 53.4958 121.246 24.1992 85.2321 24.1992C49.2183 24.1992 20.0234 53.4958 20.0234 89.635C20.0234 125.774 49.2183 155.071 85.2321 155.071Z" fill="url(#paint0_radial_725_4090)"/>
<path d="M127.772 128.068C151.267 104.492 151.267 66.2662 127.772 42.6895C104.277 19.1128 66.1844 19.1128 42.6896 42.6895C19.1948 66.2662 19.1948 104.492 42.6896 128.068C66.1844 151.645 104.277 151.645 127.772 128.068Z" fill="url(#paint1_linear_725_4090)"/>
<path d="M127.082 127.375C150.196 104.181 150.196 66.5766 127.082 43.3827C103.969 20.1888 66.495 20.1888 43.3816 43.3827C20.2683 66.5766 20.2683 104.181 43.3816 127.375C66.495 150.569 103.969 150.569 127.082 127.375Z" fill="url(#paint2_linear_725_4090)"/>
<path style="mix-blend-mode:color-burn" opacity="0.25" d="M114.161 45.9271C114.161 55.8166 112.612 65.3406 109.741 74.2743C109.523 74.9594 109.296 75.6445 109.058 76.3215C108.724 77.2883 108.373 78.2469 108.003 79.1974C107.752 79.8609 107.488 80.5216 107.215 81.1769C106.778 82.2412 106.322 83.2919 105.844 84.3318C105.523 85.0412 105.189 85.7453 104.849 86.444C103.829 88.5373 102.733 90.5899 101.559 92.5911C101.354 92.9459 101.141 93.3006 100.928 93.6554C98.9388 96.951 96.7529 100.111 94.3862 103.12C94.057 103.54 93.7251 103.951 93.3905 104.363C93.0181 104.823 92.6376 105.278 92.2543 105.73C91.7794 106.294 91.2937 106.846 90.8052 107.396C86.6143 112.11 81.9458 116.389 76.8751 120.156C76.6295 120.337 76.3867 120.519 76.1384 120.697C68.496 126.265 59.9631 130.682 50.796 133.69C50.4128 133.818 50.0269 133.942 49.641 134.061C46.427 135.071 43.1347 135.905 39.7803 136.561C39.327 136.647 38.8682 136.737 38.4122 136.815C37.0953 137.051 35.7703 137.257 34.4345 137.435C31.5362 137.825 28.5893 138.077 25.6101 138.188C25.6101 135.559 23.2839 133.319 20.4666 133.707H20.4585C16.7263 134.221 14.0358 130.194 15.9383 126.926L15.9437 126.915C17.6439 123.993 15.6712 120.302 12.3087 120.102H12.3033C8.53882 119.874 6.68759 115.395 9.18918 112.563L9.19458 112.557C11.429 110.028 10.22 106.02 6.96285 105.159H6.95205C3.30626 104.192 2.36716 99.4369 5.37338 97.1541C6.58235 96.2334 7.16524 94.8875 7.16524 93.5443C7.16524 91.906 6.2936 90.2758 4.62587 89.4607L4.61238 89.4526C1.22296 87.7953 1.22296 82.9534 4.61238 81.2961L4.62857 81.2853C7.65908 79.804 8.06387 75.6337 5.37608 73.5919C4.15092 72.663 3.58152 71.3226 3.58152 69.9957C3.58152 68.0649 4.79049 66.1584 6.95475 65.5871H6.96555C10.2227 64.7232 11.4344 60.7208 9.19728 58.1861L9.19188 58.1807C6.69299 55.3481 8.54152 50.8691 12.306 50.6444H12.3114C15.6739 50.4413 17.6439 46.7503 15.9464 43.8284L15.9383 43.8175C14.0412 40.5517 16.7263 36.5222 20.4585 37.0394H20.4666C23.8074 37.5025 26.4574 34.2665 25.3591 31.0683L25.3537 31.0575C24.1259 27.4829 27.5396 24.0573 31.1017 25.2895L31.1125 25.2949C34.2995 26.397 37.5243 23.7378 37.0656 20.3853V20.3799C36.5501 16.632 40.5629 13.9349 43.8201 15.8413L43.8309 15.8494C46.7427 17.5528 50.4209 15.5759 50.6233 12.2018V12.1964C50.8472 8.41871 55.3107 6.56373 58.1334 9.07404L58.1388 9.07945C60.662 11.319 64.6532 10.1058 65.5114 6.83724V6.82912C66.4748 3.16792 71.2135 2.22554 73.4884 5.24223C74.4059 6.45541 75.7498 7.04305 77.0856 7.04305C78.7209 7.04305 80.3428 6.16837 81.1551 4.49483L81.1659 4.47858C82.8174 1.08006 87.6398 1.08006 89.2913 4.47858L89.3021 4.49483C90.7782 7.5359 94.934 7.9421 96.9688 5.24494C97.8944 4.01552 99.2302 3.44413 100.552 3.44413C102.477 3.44413 104.376 4.66002 104.946 6.82912V6.83724C105.232 7.92044 105.858 8.77616 106.662 9.35567C107.688 11.736 108.616 14.1705 109.439 16.6483C109.863 17.921 110.262 19.2073 110.629 20.5045C111.547 23.7188 112.289 27.0009 112.855 30.3453C112.942 30.8463 113.023 31.35 113.104 31.8563C113.163 32.2571 113.222 32.6579 113.279 33.0641C113.862 37.2669 114.164 41.5618 114.164 45.9243L114.161 45.9271Z" fill="url(#paint3_linear_725_4090)"/>
<path style="mix-blend-mode:color-burn" opacity="0.2" d="M165.081 97.1574C166.307 98.0863 166.876 99.4267 166.876 100.754C166.876 102.687 165.667 104.591 163.503 105.162H163.492C160.235 106.026 159.023 110.031 161.26 112.563L161.266 112.569C163.764 115.404 161.916 119.88 158.151 120.108H158.146C154.784 120.311 152.814 123.999 154.511 126.921L154.519 126.932C156.416 130.2 153.731 134.227 149.999 133.713H149.991C146.65 133.25 144 136.488 145.098 139.686L145.104 139.697C145.97 142.213 144.534 144.653 142.37 145.449C141.644 144.184 140.951 142.903 140.292 141.612C139.963 140.973 139.642 140.328 139.331 139.678C138.889 138.758 138.463 137.831 138.052 136.897C137.899 136.551 137.745 136.198 137.594 135.846C137.464 135.546 137.34 135.24 137.213 134.937C136.889 134.159 136.579 133.374 136.279 132.589C136.171 132.304 136.061 132.02 135.958 131.736C135.875 131.511 135.794 131.289 135.713 131.061C135.526 130.552 135.346 130.046 135.176 129.534C134.423 127.33 133.753 125.101 133.171 122.854C133.106 122.607 133.041 122.363 132.982 122.114C132.944 121.96 132.903 121.808 132.868 121.654C132.806 121.399 132.744 121.139 132.685 120.882C131.859 117.394 131.241 113.866 130.826 110.318C130.763 109.787 130.707 109.259 130.653 108.731C130.593 108.144 130.542 107.548 130.494 106.958C130.434 106.224 130.386 105.487 130.345 104.751C129.986 98.4437 130.272 92.1043 131.201 85.8434C131.246 85.5429 131.292 85.2396 131.341 84.939C132.679 76.4792 135.195 68.1657 138.886 60.2746C139.064 59.8928 139.245 59.5137 139.429 59.1346C139.65 58.6769 139.871 58.222 140.103 57.7697C140.284 57.4096 140.47 57.0467 140.659 56.6865C140.802 56.4103 140.948 56.1395 141.094 55.866C142.235 53.7267 143.468 51.6253 144.796 49.5645C145.147 49.0148 145.506 48.4678 145.873 47.9235C146.132 47.5389 146.394 47.1517 146.658 46.7726C146.691 46.7293 146.72 46.6832 146.753 46.6399C147.487 45.5838 148.248 44.5412 149.033 43.5122C150.45 41.6545 151.947 39.8347 153.526 38.0664C155.091 39.4014 155.723 41.7655 154.522 43.829L154.516 43.8425C152.816 46.7645 154.789 50.4555 158.151 50.6558H158.157C161.921 50.8833 163.773 55.3596 161.271 58.1922L161.266 58.2003C159.031 60.7296 160.24 64.7347 163.497 65.5958H163.508C167.154 66.5626 168.093 71.3178 165.087 73.6006C163.878 74.5214 163.295 75.8672 163.295 77.2104C163.295 78.8487 164.167 80.4789 165.834 81.294L165.848 81.3049C169.237 82.9621 169.237 87.804 165.848 89.4613L165.832 89.4694C162.801 90.9507 162.396 95.121 165.084 97.1628L165.081 97.1574Z" fill="url(#paint4_linear_725_4090)"/>
<path d="M127.821 92.5898H42.6406V93.6514H127.821V92.5898Z" fill="#3BAFF0"/>
<path d="M55.267 82.2171H53.772V62.7006L49.0522 66.3889L48.3047 65.0999L55.1456 59.7949H55.2643V82.2198L55.267 82.2171Z" fill="black"/>
<path d="M69.842 75.7427H73.307V77.1509H69.842V82.2175H68.347V77.1509H58.5781V77.0317L69.6909 60.123H69.8393V75.7427H69.842ZM61.1499 75.7427H68.3497V64.5614L61.1499 75.7427Z" fill="black"/>
<path d="M90.0101 71.1835C90.0101 78.1674 87.4411 82.6058 82.6025 82.6058C77.7639 82.6058 75.1328 78.1701 75.1328 71.1835C75.1328 64.1969 77.7315 59.791 82.6025 59.791C87.4734 59.791 90.0101 64.2267 90.0101 71.1835ZM76.6575 71.1835C76.6575 77.2982 78.6599 81.1977 82.6025 81.1977C86.5451 81.1977 88.5178 77.3009 88.5178 71.1835C88.5178 65.0662 86.4858 61.2019 82.6025 61.2019C78.7192 61.2019 76.6575 65.0987 76.6575 71.1835Z" fill="black"/>
<path d="M103.152 75.7408H106.617V77.1489H103.152V82.2156H101.66V77.1489H91.8906V77.0298L103.003 60.1211H103.152V75.7408ZM94.4597 75.7408H101.66V64.5595L94.4597 75.7408Z" fill="black"/>
<path d="M121.944 75.5286C121.944 79.6664 118.867 82.6045 115.103 82.6045C111.338 82.6045 108.262 79.6664 108.262 75.5286C108.262 73.7602 108.828 72.1707 109.786 70.971L117.135 60.1797H118.867L113.041 68.783C113.699 68.5744 114.385 68.4526 115.103 68.4526C118.867 68.4526 121.944 71.4205 121.944 75.5286ZM109.784 75.5286C109.784 78.8567 112.145 81.1937 115.103 81.1937C118.06 81.1937 120.451 78.854 120.451 75.5286C120.451 72.2032 118.031 69.8337 115.103 69.8337C112.175 69.8337 109.784 72.2329 109.784 75.5286Z" fill="black"/>
<path d="M61.3634 100.991L60.9586 101.601C60.2516 100.991 59.272 100.558 58.1764 100.558C56.8055 100.558 55.6964 101.238 55.6964 102.743C55.6964 104.016 56.5194 104.436 58.5083 104.885C60.9154 105.449 61.9544 106.201 61.9544 107.837C61.9544 109.646 60.57 110.875 58.4219 110.875C56.8945 110.875 55.7098 110.383 54.7734 109.573L55.2214 108.964C56.0148 109.716 57.2265 110.18 58.4381 110.18C59.9952 110.18 61.2365 109.383 61.2365 107.864C61.2365 106.635 60.3001 106.055 58.3086 105.606C55.9014 105.056 54.9623 104.36 54.9623 102.754C54.9623 100.915 56.29 99.8594 58.1925 99.8594C59.5337 99.8594 60.5727 100.336 61.3661 100.989L61.3634 100.991Z" fill="black"/>
<path d="M69.4944 107.011V107.344H63.625C63.6682 109.066 64.664 110.195 66.4504 110.195C67.6324 110.195 68.4123 109.659 68.8576 109.096L69.3622 109.516C68.6983 110.342 67.7188 110.832 66.4504 110.832C64.1998 110.832 62.918 109.269 62.918 107.097C62.918 104.926 64.2727 103.35 66.2642 103.35C68.2558 103.35 69.4944 104.942 69.4944 107.011ZM63.625 106.721H68.8009C68.7442 105.129 67.8213 103.986 66.2615 103.986C64.7017 103.986 63.7087 105.115 63.6223 106.721H63.625Z" fill="black"/>
<path d="M74.1231 104.059H74.0367C73.1003 104.059 72.4931 104.536 71.9453 105.405V110.686H71.2383V103.493H71.9021L71.9156 104.549C72.2772 103.97 72.9978 103.35 74.1231 103.35V104.059Z" fill="black"/>
<path d="M76.9469 103.496H79.4134V104.133H76.9469V108.56C76.9469 109.617 77.5676 110.182 78.4311 110.182C78.979 110.182 79.3406 110.066 79.5565 109.923L79.8317 110.486C79.543 110.673 79.068 110.832 78.4042 110.832C77.1196 110.832 76.2561 110.066 76.2561 108.56V104.133H74.7422V103.496H76.2561V101.008H76.9469V103.496Z" fill="black"/>
<path d="M82.1252 101.12C82.1252 101.467 81.8526 101.713 81.5207 101.713C81.1888 101.713 80.9297 101.467 80.9297 101.12C80.9297 100.774 81.1888 100.527 81.5207 100.527C81.8526 100.527 82.1252 100.787 82.1252 101.12ZM81.8661 110.685H81.1591V103.493H81.8661V110.685Z" fill="black"/>
<path d="M88.0125 100.038L87.7534 100.618C87.5213 100.444 87.2353 100.341 86.8305 100.341C85.9642 100.341 85.4326 101.051 85.4326 101.99V103.496H87.5807V104.133H85.4326V110.689H84.7418V104.133H83.4141V103.496H84.7418V102.007C84.7418 100.691 85.5486 99.6914 86.817 99.6914C87.2919 99.6914 87.6967 99.8214 88.0125 100.038ZM90.0607 101.124C90.0607 101.471 89.7881 101.717 89.4562 101.717C89.1243 101.717 88.8652 101.471 88.8652 101.124C88.8652 100.777 89.1243 100.531 89.4562 100.531C89.7881 100.531 90.0607 100.791 90.0607 101.124ZM89.8016 110.689H89.0946V103.496H89.8016V110.689Z" fill="black"/>
<path d="M93.0246 109.386L96.8323 103.496H97.6554L95.4642 106.811L98.1762 110.689H97.3397L95.0459 107.417L92.9113 110.689H92.3203V99.6914H93.0273V109.386H93.0246Z" fill="black"/>
<path d="M104.692 104.509L104.705 103.496H105.369V110.688H104.705L104.692 109.646C104.244 110.209 103.467 110.832 102.112 110.832C100.15 110.832 98.7656 109.256 98.7656 107.097C98.7656 104.939 100.15 103.35 102.112 103.35C103.467 103.35 104.246 103.943 104.692 104.506V104.509ZM99.4727 107.1C99.4727 108.909 100.611 110.182 102.198 110.182C103.396 110.182 104.117 109.602 104.665 108.806V105.375C104.117 104.579 103.396 104 102.198 104C100.611 104 99.4727 105.289 99.4727 107.097V107.1Z" fill="black"/>
<path d="M112.033 104.118L111.701 104.668C111.21 104.291 110.619 104.001 109.812 104.001C108.816 104.001 108.112 104.391 108.112 105.318C108.112 106.114 108.66 106.374 110.001 106.693C111.658 107.07 112.424 107.633 112.424 108.719C112.424 109.992 111.385 110.831 109.828 110.831C108.733 110.831 107.883 110.498 107.219 109.962L107.58 109.398C108.171 109.891 108.951 110.181 109.844 110.181C110.927 110.181 111.733 109.705 111.733 108.749C111.733 107.952 111.113 107.619 109.772 107.316C108.115 106.94 107.408 106.447 107.408 105.347C107.408 104.058 108.374 103.352 109.801 103.352C110.724 103.352 111.474 103.685 112.036 104.118H112.033Z" fill="black"/>
<path d="M114.957 110.689H114.25V103.496H114.957V110.689Z" fill="black"/>
<path d="M76.5277 123.79C76.5277 125.252 76.0527 126.149 75.0866 127.335L72.0885 130.953H76.7166V131.632H70.6879V131.546L74.5091 126.902C75.432 125.789 75.8071 125.006 75.8071 123.777C75.8071 122.33 74.841 121.491 73.5727 121.491C72.3044 121.491 71.5542 122.127 71.2654 123.473L70.6016 123.327C70.9335 121.721 71.9293 120.809 73.5727 120.809C75.2161 120.809 76.5277 122.011 76.5277 123.79Z" fill="#3BAFF0"/>
<path d="M85.0325 126.305C85.0325 129.676 83.7938 131.818 81.4569 131.818C79.1199 131.818 77.8516 129.676 77.8516 126.305C77.8516 122.933 79.1064 120.805 81.4569 120.805C83.8073 120.805 85.0325 122.947 85.0325 126.305ZM78.5856 126.305C78.5856 129.256 79.5517 131.138 81.4542 131.138C83.3567 131.138 84.3093 129.256 84.3093 126.305C84.3093 123.353 83.3297 121.487 81.4542 121.487C79.5787 121.487 78.5856 123.369 78.5856 126.305Z" fill="#3BAFF0"/>
<path d="M92.5147 123.79C92.5147 125.252 92.0398 126.149 91.0737 127.335L88.0729 130.953H92.7009V131.632H86.6723V131.546L90.4935 126.902C91.4164 125.789 91.7915 125.006 91.7915 123.777C91.7915 122.33 90.8254 121.491 89.5571 121.491C88.2887 121.491 87.5385 122.127 87.2498 123.473L86.5859 123.327C86.9179 121.721 87.9136 120.809 89.5571 120.809C91.2005 120.809 92.5147 122.011 92.5147 123.79Z" fill="#3BAFF0"/>
<path d="M99.956 123.629C99.956 124.932 99.2625 125.641 98.3126 125.988C99.5971 126.394 100.404 127.363 100.404 128.693C100.404 130.575 99.1356 131.818 97.2736 131.818C95.4116 131.818 94.5345 130.892 93.957 129.533L94.6074 129.316C95.0688 130.372 95.7759 131.138 97.2763 131.138C98.7767 131.138 99.6834 130.169 99.6834 128.693C99.6834 127.361 98.6013 126.334 97.0307 126.334H95.8326V125.668H97.0739C98.156 125.668 99.2382 125.062 99.2382 123.613C99.2382 122.31 98.3287 121.484 97.1036 121.484C95.8784 121.484 95.1714 122.164 94.7396 123.22L94.1055 122.947C94.5804 121.744 95.4467 120.805 97.1198 120.805C98.7929 120.805 99.9614 121.92 99.9614 123.626L99.956 123.629Z" fill="#3BAFF0"/>
<path d="M73.5643 40.4807H69.2304V51.2802H68.4316V40.4807H64.0977V39.7441H73.5616V40.4807H73.5643Z" fill="black"/>
<path d="M81.5079 40.7604L81.0708 41.4211C80.3044 40.7604 79.2411 40.2919 78.051 40.2919C76.5641 40.2919 75.3605 41.0285 75.3605 42.6614C75.3605 44.0424 76.2511 44.4974 78.41 44.9848C81.0222 45.5968 82.1502 46.4119 82.1502 48.1884C82.1502 50.1517 80.6471 51.484 78.3182 51.484C76.6613 51.484 75.3767 50.9505 74.3594 50.0704L74.8451 49.4097C75.706 50.2248 77.0202 50.7285 78.3344 50.7285C80.0237 50.7285 81.3703 49.8646 81.3703 48.2182C81.3703 46.8831 80.3529 46.2549 78.1941 45.7701C75.5818 45.1744 74.5645 44.4189 74.5645 42.6776C74.5645 40.6845 76.0028 39.5391 78.0672 39.5391C79.5218 39.5391 80.6498 40.0563 81.5079 40.7631V40.7604Z" fill="black"/>
<path d="M94.759 40.4977H88.7519V45.0661H94.0708V45.8027H88.7519V50.5281H94.8831V51.2809H87.9531V39.7422H94.759V40.495V40.4977Z" fill="black"/>
<path d="M105.173 51.4828H105.111L97.5253 41.6393V51.277H96.7266V39.5352H96.7886L104.374 49.3624V39.741H105.173V51.4828Z" fill="black"/>
<defs>
<radialGradient id="paint0_radial_725_4090" cx="0" cy="0" r="1" gradientUnits="userSpaceOnUse" gradientTransform="translate(85.2321 89.6351) scale(65.2086 65.4358)">
<stop offset="0.56" stop-color="#231F20"/>
<stop offset="0.64" stop-color="#262223"/>
<stop offset="0.7" stop-color="#302C2D"/>
<stop offset="0.75" stop-color="#413D3E"/>
<stop offset="0.8" stop-color="#585556"/>
<stop offset="0.85" stop-color="#777575"/>
<stop offset="0.9" stop-color="#9D9B9B"/>
<stop offset="0.95" stop-color="#C9C8C9"/>
<stop offset="1" stop-color="white"/>
</radialGradient>
<linearGradient id="paint1_linear_725_4090" x1="25.0685" y1="85.3789" x2="145.396" y2="85.3789" gradientUnits="userSpaceOnUse">
<stop stop-color="#EFF6FD"/>
<stop offset="1" stop-color="#FAFEFF"/>
</linearGradient>
<linearGradient id="paint2_linear_725_4090" x1="26.0466" y1="85.3789" x2="144.417" y2="85.3789" gradientUnits="userSpaceOnUse">
<stop stop-color="#FAFEFF"/>
<stop offset="1" stop-color="#EFF6FD"/>
</linearGradient>
<linearGradient id="paint3_linear_725_4090" x1="114.213" y1="92.8023" x2="0.883243" y2="43.9532" gradientUnits="userSpaceOnUse">
<stop stop-color="#231F20"/>
<stop offset="1" stop-color="white"/>
</linearGradient>
<linearGradient id="paint4_linear_725_4090" x1="106.333" y1="64.713" x2="216.613" y2="135.878" gradientUnits="userSpaceOnUse">
<stop stop-color="#231F20"/>
<stop offset="1" stop-color="white"/>
</linearGradient>
</defs>
</svg>
