<svg width="34" height="30" viewBox="0 0 34 30" fill="none" xmlns="http://www.w3.org/2000/svg">
<path d="M10.0904 0.0649319C10.0125 0.0909042 9.8891 0.201288 9.81118 0.298685L9.67483 0.474001V8.18789V15.9083H9.3242H8.97356L9.032 15.681C9.07096 15.5447 9.09044 14.298 9.07746 12.5773C9.05798 9.92157 9.05148 9.68781 8.93461 9.48003C8.86967 9.35666 8.77228 9.20732 8.72033 9.14888C8.64241 9.05148 8.64891 9.01252 8.79176 8.79825C8.88266 8.66189 8.98655 8.44762 9.02551 8.31775C9.06447 8.1814 9.09044 6.98016 9.09044 5.31791C9.09044 2.2791 9.07746 2.12976 8.70085 1.67524C8.59696 1.54537 8.35671 1.36357 8.16841 1.27266L7.83077 1.10384H4.84391H1.85055L1.5194 1.25968C1.33759 1.34409 1.09735 1.5259 0.986962 1.66225C0.597372 2.12976 0.584386 2.26612 0.584386 5.31791C0.584386 8.21386 0.603865 8.41515 0.876578 8.81773L1.02592 9.0385L0.870085 9.26576C0.590879 9.68132 0.577892 9.85014 0.597372 12.9604C0.616851 15.7784 0.610358 15.9083 0.499974 15.9083C0.324659 15.9083 0 16.2589 0 16.4537C0 16.5446 0.0714249 16.7004 0.155836 16.7978L0.311672 16.9796L4.99325 16.9991L9.67483 17.0186V21.2586C9.67483 24.2585 9.69431 25.5636 9.74625 25.7195C9.92806 26.2649 10.4021 26.648 11.0189 26.7649C11.402 26.8363 11.415 26.8428 11.4929 27.1025C11.7851 28.1089 12.6617 29.0699 13.7331 29.5829C15.9732 30.6543 18.6938 29.531 19.5574 27.1869L19.6938 26.8168H21.9209H24.1546V27.0635C24.1546 27.3752 24.3104 27.9206 24.5247 28.3427C24.739 28.7583 25.3948 29.4141 25.8104 29.6283C27.0635 30.2582 28.5115 30.0764 29.4985 29.1673C30.0959 28.6089 30.4075 27.9921 30.5504 27.07L30.5828 26.8363L31.2841 26.8038C32.2841 26.7584 32.7191 26.5311 33.0762 25.8753C33.2061 25.6286 33.2126 25.5376 33.2126 23.5702C33.2126 21.5898 33.2061 21.5184 33.0697 21.2586C32.9139 20.9665 32.5373 20.6093 32.297 20.5184C32.1477 20.46 32.1412 20.434 32.1412 19.7263C32.1412 19.1224 32.1152 18.9536 32.0048 18.7198C31.8685 18.4341 31.3425 17.9212 31.1932 17.9212C31.1218 17.9212 31.1023 16.642 31.0893 10.5319L31.0698 3.14919L30.927 2.79206C30.6218 2.05834 30.0504 1.49343 29.3037 1.21422C28.9271 1.07137 28.8946 1.07137 23.8754 1.05189C20.6093 1.03891 18.6938 1.05839 18.4601 1.10384C17.6225 1.25318 16.8498 1.82458 16.4927 2.55831C16.3368 2.87647 15.9862 4.38939 14.6746 10.4215C13.7785 14.5252 13.0253 17.9666 13.0058 18.064C12.9863 18.1679 12.9474 18.2458 12.9149 18.2458C12.8825 18.2458 12.85 14.2915 12.8435 9.34368L12.824 0.441536L12.5838 0.220768L12.337 0L11.2851 0.00649261C10.7007 0.00649261 10.1618 0.032465 10.0904 0.0649319ZM11.8046 9.65535L11.7851 18.2653L11.4929 18.3627C11.3306 18.4146 11.0903 18.5315 10.9605 18.6159L10.7137 18.7653V9.90209V1.03891H11.2657H11.8176L11.8046 9.65535ZM29.031 2.21417C29.3816 2.3765 29.7128 2.69467 29.8816 3.03881L30.0309 3.34398L30.0504 7.01263L30.0699 10.6878L29.6348 10.7592C28.7388 10.915 28.0115 11.4475 27.6349 12.2266C27.4012 12.6942 27.3363 13.1292 27.3363 14.1291V14.9992H25.1935C22.8949 14.9992 22.5962 15.0317 22.0119 15.3239C21.4145 15.6291 21.0768 16.0381 20.5249 17.1355L20.0249 18.116L19.0899 17.4601C18.5705 17.103 18.1095 16.7849 18.064 16.7589C17.9991 16.7264 18.3757 15.9862 19.499 13.9538C20.3366 12.4409 21.0509 11.1358 21.0898 11.0579L21.1677 10.915L21.7262 11.2072C22.1093 11.4085 22.33 11.4864 22.4209 11.4604C22.6092 11.402 22.856 11.1293 22.856 10.9735C22.856 10.6488 22.7131 10.5449 21.2781 9.75924C20.486 9.33069 19.7847 8.96058 19.7198 8.9411C19.5769 8.88915 19.2912 8.99304 19.1808 9.14239C19.1289 9.20083 19.0899 9.34368 19.0899 9.46055C19.0899 9.7008 19.2717 9.87612 19.8237 10.1618C20.0249 10.2722 20.1938 10.3826 20.1938 10.415C20.1938 10.467 17.642 15.1681 17.2394 15.8628L17.0965 16.1031L15.9992 15.3499C15.3953 14.9343 14.8888 14.5837 14.8759 14.5707C14.8499 14.5512 17.2459 3.49982 17.3433 3.21412C17.5186 2.68817 18.0121 2.25962 18.577 2.14924C18.7328 2.11677 21.0963 2.09729 23.8299 2.09729C28.2648 2.11028 28.8232 2.12327 29.031 2.21417ZM3.24659 2.83102C3.24659 3.6167 3.33749 3.9024 3.66215 4.09719C3.90889 4.24653 4.16212 4.25303 4.53223 4.11018C4.79196 4.01278 4.83741 4.01278 5.15558 4.11018C5.59711 4.25303 5.75295 4.24653 6.00618 4.0907C6.34383 3.88292 6.42824 3.62319 6.42824 2.83102V2.14275H6.98016C7.55805 2.14275 7.86973 2.24014 7.94764 2.43494C7.96712 2.49338 7.9866 3.805 7.9866 5.34388C7.98011 7.44767 7.96063 8.1749 7.90219 8.25282C7.71389 8.49956 7.60351 8.50606 4.81144 8.50606H2.0908L1.88951 8.33723L1.68822 8.16841V5.33739C1.69472 3.20763 1.7142 2.4739 1.77264 2.39598C1.92198 2.20119 2.11677 2.14924 2.68168 2.14275H3.24659V2.83102ZM5.38933 2.59727C5.38933 2.84401 5.37635 3.05179 5.36336 3.05179C5.35037 3.05179 5.2335 3.00634 5.09714 2.9479C4.90884 2.86998 4.81144 2.86349 4.6556 2.91543C4.31147 3.03881 4.28549 3.01933 4.28549 2.61025C4.28549 2.40247 4.30497 2.20768 4.33095 2.1882C4.35043 2.16223 4.60366 2.14275 4.88287 2.14275H5.38933V2.59727ZM3.24659 10.2267C3.24659 10.9929 3.3245 11.2592 3.60371 11.4799C3.82448 11.6552 4.24653 11.6682 4.57769 11.5124C4.77898 11.415 4.83741 11.415 5.01922 11.4929C5.1361 11.5384 5.37635 11.5903 5.55166 11.6033C5.81788 11.6293 5.91528 11.6033 6.06462 11.4864C6.35032 11.2592 6.42824 10.9929 6.42824 10.2267V9.54496H7.00613C7.53857 9.54496 7.60351 9.55795 7.78531 9.71379L7.9866 9.88261V12.7331V15.5901L7.82427 15.7459L7.66844 15.9083H4.83741H2.00639L1.85055 15.7459L1.68822 15.5901V12.7331V9.88261L1.88951 9.71379C2.07132 9.55795 2.13625 9.54496 2.66869 9.54496H3.24659V10.2267ZM5.38933 10.006C5.38933 10.454 5.38284 10.4605 5.24648 10.4086C5.16207 10.3826 4.98026 10.3566 4.83741 10.3566C4.69456 10.3566 4.51275 10.3826 4.43484 10.4086C4.29199 10.4605 4.28549 10.4475 4.28549 10.0449C4.28549 9.81768 4.30497 9.6099 4.33095 9.59042C4.35043 9.56444 4.60366 9.54496 4.88287 9.54496H5.38933V10.006ZM30.0504 13.3954L30.0634 14.9992H29.2517H28.4401V13.9993C28.4401 13.0383 28.4466 12.9863 28.6219 12.6617C28.7193 12.4734 28.9076 12.2331 29.0375 12.1228C29.2582 11.9409 29.8102 11.7397 29.966 11.7786C30.005 11.7916 30.0374 12.402 30.0504 13.3954ZM17.0835 17.3757C18.4211 18.2913 19.5185 19.0445 19.5315 19.0575C19.5834 19.1094 19.051 20.0639 18.9795 20.0379C18.9406 20.0185 18.4276 19.6873 17.8432 19.2977C16.2394 18.2263 16.3888 18.2848 15.1486 18.2588C14.1941 18.2393 14.0902 18.2263 14.0902 18.1224C14.0902 17.9147 14.5902 15.7135 14.6421 15.7135C14.6486 15.7135 15.7524 16.4602 17.0835 17.3757ZM30.0309 16.9147V17.7588L26.8493 17.7913C23.3559 17.8238 23.4858 17.8108 23.0313 18.2393C22.6677 18.5705 22.5703 18.8562 22.5443 19.6548L22.5183 20.3886H21.3236C20.6678 20.3886 20.1288 20.3756 20.1288 20.3561C20.1288 20.2197 21.9404 16.7394 22.0963 16.5706C22.3235 16.3303 22.5897 16.1745 22.8884 16.0966C22.9988 16.0706 24.6481 16.0576 26.5571 16.0576L30.0309 16.0706V16.9147ZM30.914 19.0185C31.0958 19.2003 31.1023 19.2328 31.1023 19.7977V20.3886H27.3363H23.5702V19.7977C23.5702 19.2328 23.5767 19.2003 23.7585 19.0185L23.9468 18.8302H27.3363H30.7257L30.914 19.0185ZM17.3692 20.2587C18.3172 20.8885 18.9471 21.2651 19.1678 21.3301C19.46 21.4145 20.2977 21.4275 25.6545 21.4275H31.8101L31.9919 21.5833L32.1737 21.7391L32.1931 23.4468C32.2061 24.3884 32.1931 25.226 32.1737 25.3104C32.1542 25.3883 32.0828 25.5117 32.0113 25.5831C31.8945 25.7 31.7906 25.713 31.1413 25.713H30.3945L30.1803 25.3039C29.5569 24.1221 28.1934 23.4274 26.8817 23.6287C25.8753 23.778 24.9078 24.4663 24.5052 25.3104L24.3169 25.7065H22.0703L19.8237 25.713L19.7847 25.2649C19.6483 23.6676 18.4536 22.1937 16.8563 21.6612C15.0577 21.0574 12.9344 21.8236 11.9345 23.4404C11.5514 24.0507 11.3695 24.5832 11.2657 25.4013C11.2202 25.7584 11.1098 25.8039 10.8631 25.5701L10.7137 25.4338V22.9923C10.7137 20.6743 10.7202 20.5379 10.8501 20.2587C11.0579 19.7912 11.402 19.4925 11.8825 19.3432C11.9734 19.3172 12.9149 19.2912 13.9733 19.2912L15.9083 19.2847L17.3692 20.2587ZM16.7069 22.7261C17.155 22.8949 17.7523 23.3235 18.038 23.6806C18.3627 24.0897 18.6419 24.7585 18.7198 25.2974C18.9666 26.9921 17.7653 28.6219 16.0576 28.9076C14.4928 29.1673 12.9214 28.1934 12.4604 26.674C12.35 26.3103 12.324 26.1026 12.35 25.5636C12.3695 24.9598 12.3955 24.8559 12.6097 24.3949C13.3565 22.8365 15.0966 22.1222 16.7069 22.7261ZM28.1479 24.8104C28.5829 24.9727 29.0634 25.4208 29.2842 25.8753C29.5115 26.3363 29.5374 27.0441 29.3491 27.544C29.1673 28.031 28.7258 28.518 28.2583 28.7453C27.9401 28.9011 27.8103 28.9271 27.3363 28.9206C26.8947 28.9206 26.7194 28.8881 26.4792 28.7712C26.0181 28.5505 25.6156 28.1544 25.4078 27.7388C25.2519 27.4207 25.226 27.2908 25.226 26.8168C25.226 26.3558 25.2519 26.2064 25.3948 25.9078C25.648 25.3818 26.0961 24.9598 26.596 24.7779C26.9856 24.6351 27.7194 24.6481 28.1479 24.8104Z" fill="#3C3C3B"/>
<path d="M2.42876 6.88289C2.24695 6.95431 2.07812 7.19456 2.07812 7.38286C2.07812 7.46078 2.14955 7.61012 2.23396 7.70752C2.3898 7.88933 2.39629 7.88933 3.29235 7.90881C4.31827 7.93478 4.51306 7.88933 4.64293 7.58415C4.74682 7.31793 4.64942 7.01924 4.40917 6.90237C4.22737 6.80497 2.64952 6.79198 2.42876 6.88289Z" fill="#3C3C3B"/>
<path d="M2.2918 14.3827C2.0061 14.584 2.05155 15.1035 2.37621 15.2528C2.47361 15.2918 2.90216 15.3242 3.42811 15.3242C4.39559 15.3242 4.55792 15.2788 4.67479 14.9606C4.74622 14.7788 4.66181 14.4996 4.49299 14.3762C4.32416 14.2464 2.4801 14.2528 2.2918 14.3827Z" fill="#3C3C3B"/>
<path d="M14.8434 24.2846C14.4733 24.4729 14.2915 24.6612 14.1162 25.0313C13.8305 25.6352 13.9344 26.3494 14.3694 26.8039C15.1291 27.6026 16.3693 27.4532 16.9277 26.5052C17.168 26.1027 17.181 25.4339 16.9667 25.0313C16.7914 24.7001 16.4602 24.382 16.1551 24.2586C15.8109 24.1157 15.1616 24.1287 14.8434 24.2846ZM15.9148 25.3819C16.0187 25.4858 16.1031 25.6222 16.1031 25.6806C16.1031 25.8819 15.9083 26.1546 15.7135 26.226C15.1811 26.4078 14.772 25.778 15.1616 25.3624C15.3759 25.1287 15.6681 25.1352 15.9148 25.3819Z" fill="#3C3C3B"/>
<path d="M27.0437 26.0959C26.5762 26.2907 26.4399 27.0309 26.81 27.3621C26.9918 27.5244 27.3424 27.5894 27.5957 27.5049C27.8489 27.427 28.1151 27.0764 28.1151 26.8361C28.1151 26.2907 27.5372 25.8946 27.0437 26.0959Z" fill="#3C3C3B"/>
</svg>
