<svg width="20" height="25" viewBox="0 0 20 25" fill="none" xmlns="http://www.w3.org/2000/svg">
<path d="M9.92647 5.45395C9.05898 5.45395 8.21097 5.70718 7.48968 6.18161C6.76838 6.65605 6.2062 7.33038 5.87423 8.11934C5.54225 8.9083 5.45539 9.77645 5.62463 10.614C5.79387 11.4516 6.21161 12.2209 6.82502 12.8247C7.43843 13.4286 8.21996 13.8398 9.07078 14.0064C9.92161 14.173 10.8035 14.0875 11.605 13.7607C12.4064 13.4339 13.0914 12.8805 13.5734 12.1704C14.0553 11.4604 14.3126 10.6256 14.3126 9.77166C14.3126 8.62653 13.8505 7.5283 13.0279 6.71858C12.2054 5.90885 11.0897 5.45395 9.92647 5.45395ZM9.92647 12.7259C9.33292 12.7259 8.75271 12.5526 8.25919 12.228C7.76567 11.9034 7.38103 11.442 7.15388 10.9022C6.92674 10.3624 6.86731 9.76838 6.98311 9.19532C7.0989 8.62226 7.38472 8.09586 7.80443 7.68271C8.22413 7.26955 8.75886 6.98819 9.341 6.8742C9.92314 6.76021 10.5265 6.81871 11.0749 7.04231C11.6233 7.26591 12.092 7.64456 12.4217 8.13038C12.7515 8.6162 12.9275 9.18737 12.9275 9.77166C12.9275 10.5552 12.6113 11.3066 12.0485 11.8606C11.4857 12.4146 10.7224 12.7259 9.92647 12.7259ZM9.92647 0C7.29474 0.00300718 4.77168 1.03348 2.91077 2.86537C1.04986 4.69726 0.00305482 7.18098 0 9.77166C0 13.2838 1.65518 17.014 4.78664 20.5591C6.20002 22.167 7.79073 23.6152 9.52941 24.8768C9.6458 24.957 9.78442 25 9.92647 25C10.0685 25 10.2071 24.957 10.3235 24.8768C12.0622 23.6152 13.6529 22.167 15.0663 20.5591C18.1978 17.014 19.8529 13.2872 19.8529 9.77166C19.8499 7.18098 18.8031 4.69726 16.9422 2.86537C15.0813 1.03348 12.5582 0.00300718 9.92647 0ZM9.92647 23.4645C8.19511 22.1487 1.38509 16.5459 1.38509 9.77166C1.38509 7.54167 2.28498 5.40302 3.8868 3.82618C5.48862 2.24935 7.66116 1.36349 9.92647 1.36349C12.1918 1.36349 14.3643 2.24935 15.9661 3.82618C17.568 5.40302 18.4679 7.54167 18.4679 9.77166C18.4679 16.5459 11.6578 22.1487 9.92647 23.4645Z" fill="#3C3C3B"/>
</svg>
