<svg width="11" height="7" viewBox="0 0 11 7" fill="none" xmlns="http://www.w3.org/2000/svg">
<path d="M1.03125 0H9.96875C10.5273 0 11 0.401042 11 0.875C11 1.16667 10.8281 1.42188 10.5703 1.58594L5.9082 4.55729C5.65039 4.72135 5.32812 4.72135 5.07031 4.55729L0.408203 1.58594C0.150391 1.42188 0 1.16667 0 0.875C0 0.401042 0.451172 0 1.03125 0ZM0 2.04167L4.66211 5.03125C5.15625 5.34115 5.82227 5.34115 6.31641 5.03125L11 2.04167V5.83333C11 6.48958 10.377 7 9.625 7H1.375C0.601562 7 0 6.48958 0 5.83333V2.04167Z" fill="#fff"/>
</svg>
