<svg width="11" height="11" viewBox="0 0 11 11" fill="none" xmlns="http://www.w3.org/2000/svg">
<path d="M3.52783 0.524076L4.38827 2.58914C4.53885 2.93332 4.45281 3.34203 4.15165 3.57866L3.0976 4.46061C3.80747 5.96639 5.03361 7.19253 6.53939 7.9024L7.42134 6.84835C7.65797 6.54719 8.06668 6.46115 8.41085 6.61173L10.4759 7.47217C10.8846 7.62275 11.0782 8.07448 10.9707 8.4832L10.4544 10.3762C10.3469 10.7419 10.0242 11 9.63699 11C4.30223 11 0 6.69777 0 1.36301C0 0.975809 0.258134 0.653142 0.623823 0.545587L2.5168 0.0293193C2.92551 -0.0782364 3.37725 0.115364 3.52783 0.524076Z" fill="#fff"/>
</svg>
