<svg width="12" height="12" viewBox="0 0 12 12" fill="none" xmlns="http://www.w3.org/2000/svg">
<path d="M3.84854 0.571719L4.78721 2.82452C4.95147 3.19999 4.85761 3.64586 4.52907 3.90399L3.3792 4.86612C4.15361 6.50879 5.49121 7.8464 7.13388 8.6208L8.09601 7.47093C8.35414 7.14239 8.80001 7.04853 9.17548 7.21279L11.4283 8.15146C11.8741 8.31573 12.0853 8.80853 11.968 9.2544L11.4048 11.3195C11.2875 11.7184 10.9355 12 10.5131 12C4.69334 12 0 7.30666 0 1.48692C0 1.06452 0.2816 0.712519 0.680534 0.595185L2.7456 0.0319847C3.19147 -0.0853488 3.68427 0.125851 3.84854 0.571719Z" fill="#EBB00E"/>
</svg>
