<svg width="18" height="18" viewBox="0 0 18 18" fill="none" xmlns="http://www.w3.org/2000/svg">
<circle cx="9" cy="9" r="9" fill="white"/>
<path d="M4.5 8.94539C4.5 8.73828 4.6539 8.56712 4.85358 8.54003L4.90909 8.5363L12.1004 8.53662L9.50237 5.94924C9.34227 5.78983 9.34171 5.53081 9.50112 5.3707C9.64605 5.22515 9.87329 5.21146 10.0337 5.32995L10.0797 5.36946L13.3797 8.65528C13.4008 8.67629 13.4191 8.69903 13.4347 8.72305C13.4391 8.73028 13.4435 8.73767 13.4478 8.74522C13.4517 8.75168 13.4552 8.7584 13.4585 8.76519C13.4631 8.77507 13.4676 8.78527 13.4717 8.79568C13.4751 8.80371 13.4779 8.81152 13.4804 8.81939C13.4834 8.82915 13.4863 8.83955 13.4888 8.85011C13.4907 8.85749 13.4922 8.86458 13.4935 8.87171C13.4953 8.8823 13.4969 8.89327 13.498 8.90437C13.4989 8.91283 13.4995 8.92122 13.4998 8.92962C13.4999 8.93471 13.5 8.94004 13.5 8.94539L13.4998 8.96124C13.4995 8.96926 13.4989 8.97729 13.4981 8.98529L13.5 8.94539C13.5 8.9712 13.4976 8.99646 13.493 9.02095C13.492 9.0268 13.4907 9.0328 13.4893 9.03878C13.4864 9.0511 13.483 9.06296 13.4792 9.07458C13.4773 9.08036 13.4751 9.08653 13.4727 9.09266C13.4679 9.10497 13.4627 9.1167 13.457 9.12813C13.4544 9.13351 13.4514 9.13913 13.4483 9.1447C13.4432 9.15379 13.4379 9.16242 13.4323 9.17084C13.4284 9.1768 13.424 9.183 13.4195 9.1891L13.416 9.19381C13.4049 9.20821 13.393 9.22186 13.3802 9.23466L13.3797 9.23504L10.0797 12.5214C9.9196 12.6808 9.66058 12.6803 9.50115 12.5202C9.35621 12.3747 9.34348 12.1474 9.46264 11.9875L9.50235 11.9417L12.0993 9.35481L4.90909 9.35448C4.68316 9.35448 4.5 9.17132 4.5 8.94539Z" fill="#212529"/>
</svg>
