<svg width="103" height="103" viewBox="0 0 103 103" fill="none" xmlns="http://www.w3.org/2000/svg">
<path d="M51.4982 101.832C79.2959 101.832 101.83 79.2979 101.83 51.5002C101.83 23.7025 79.2959 1.16797 51.4982 1.16797C23.7005 1.16797 1.16602 23.7025 1.16602 51.5002C1.16602 79.2979 23.7005 101.832 51.4982 101.832Z" fill="#EBB00E"/>
<path d="M51.3263 86.801C70.9271 86.801 86.8167 70.9115 86.8167 51.3107C86.8167 31.7099 70.9271 15.8203 51.3263 15.8203C31.7255 15.8203 15.8359 31.7099 15.8359 51.3107C15.8359 70.9115 31.7255 86.801 51.3263 86.801Z" fill="white"/>
<path opacity="0.1" d="M79.1831 29.0056C73.0513 24.0294 65.2385 21.0526 56.7355 21.0526C37.0333 21.0526 21.0559 37.0299 21.0559 56.7433C21.0559 65.282 24.0461 73.1059 29.0557 79.2376C20.9735 72.7096 15.8125 62.7126 15.8125 51.4999C15.8125 31.7977 31.7899 15.8203 51.5033 15.8203C62.6803 15.8203 72.655 20.9591 79.1831 29.0056Z" fill="black"/>
<path d="M45.5315 68.3365C44.0887 68.3365 42.7083 67.742 41.7175 66.6866L34.1563 58.6423C32.1769 56.536 32.2794 53.223 34.3856 51.2414C36.4919 49.2598 39.8071 49.3645 41.7843 51.4708L45.3934 55.3092L60.734 37.7756C62.6354 35.6003 65.944 35.3799 68.1215 37.2835C70.2968 39.1872 70.5172 42.4935 68.6136 44.671L49.4701 66.5486C48.4972 67.6596 47.0989 68.3098 45.625 68.3342C45.5916 68.3342 45.5626 68.3342 45.5315 68.3342V68.3365Z" fill="#EBB00E"/>
<path d="M0 51.4989C0 79.8956 23.1021 102.998 51.5011 102.998C79.9001 102.998 103 79.8956 103 51.4989C103 23.1021 79.8979 0 51.5011 0C23.1044 0 0 23.1021 0 51.4989ZM51.5011 2.3356C78.6109 2.3356 100.664 24.3913 100.664 51.4989C100.664 78.6065 78.6109 100.662 51.5011 100.662C24.3913 100.662 2.3356 78.6087 2.3356 51.4989C2.3356 24.3891 24.3913 2.3356 51.5011 2.3356Z" fill="#3C3C3B"/>
<path d="M51.5014 88.3522C71.8204 88.3522 88.3522 71.8204 88.3522 51.4992C88.3522 31.178 71.8204 14.6484 51.5014 14.6484C31.1824 14.6484 14.6484 31.1802 14.6484 51.4992C14.6484 71.8182 31.1802 88.35 51.5014 88.35V88.3522ZM51.5014 16.984C70.5335 16.984 86.0166 32.4671 86.0166 51.4992C86.0166 70.5313 70.5335 86.0144 51.5014 86.0144C32.4693 86.0144 16.9863 70.5313 16.9863 51.4992C16.9863 32.4671 32.4671 16.984 51.5014 16.984Z" fill="#3C3C3B"/>
<path d="M40.8662 67.4875C43.44 70.2283 47.8463 70.1793 50.3511 67.3183L69.4945 45.4407C71.819 42.7845 71.5496 38.7301 68.8911 36.4056C66.226 34.0767 62.1849 34.3439 59.856 37.009L45.3637 53.5741L42.6363 50.673C40.2005 48.0836 36.1505 47.9812 33.5856 50.3925C31.014 52.8104 30.8893 56.8693 33.3073 59.4432L40.8662 67.4875ZM35.1864 52.0957C36.814 50.5639 39.39 50.6307 40.9352 52.2738L44.5444 56.1123C45.0075 56.6044 45.8113 56.6088 46.2744 56.0812L61.6149 38.5453C63.1045 36.842 65.6761 36.6928 67.3549 38.1623C69.0425 39.6385 69.214 42.2145 67.7378 43.9022L48.5944 65.7798C47.0492 67.5476 44.2505 67.6745 42.5717 65.8867L35.0105 57.8445C33.4742 56.2103 33.5544 53.6298 35.1886 52.0935L35.1864 52.0957Z" fill="#25294F"/>
</svg>
