<svg width="40" height="30" viewBox="0 0 40 30" fill="none" xmlns="http://www.w3.org/2000/svg">
<path d="M21.5403 0.124352C21.385 0.240932 21.385 0.357512 21.3461 10.3212L21.3073 20.4015H18.8302H16.353L15.6464 19.0337C15.2581 18.2798 14.8932 17.6036 14.831 17.5337C14.7378 17.4249 14.4583 17.4093 12.3384 17.4093C10.0476 17.4093 9.94663 17.4171 9.81462 17.5647C9.63602 17.7668 9.63602 18.1399 9.81462 18.342C9.94663 18.4896 10.0476 18.4974 12.02 18.4974H14.0856L14.567 19.4223C14.831 19.9274 15.0252 20.3627 15.0019 20.3938C14.9087 20.4793 5.19424 20.4482 5.19424 20.3549C5.19424 20.3083 5.40391 19.873 5.66793 19.3834L6.14161 18.4974H7.14334C8.04412 18.4974 8.1606 18.4818 8.30038 18.342C8.50228 18.1399 8.50228 17.7668 8.30038 17.5647C8.1606 17.4249 8.04412 17.4093 6.87156 17.4093C6.17267 17.4093 5.54368 17.4326 5.47379 17.4559C5.41167 17.4793 5.01564 18.1632 4.59631 18.9715L3.84307 20.4404H2.5385C1.10967 20.4404 0.892244 20.487 0.511743 20.8756C0.0691185 21.3186 0.0302918 21.4585 0.00699575 22.8963C-0.0240656 24.4041 0.0380571 24.7383 0.403028 25.158C0.729172 25.5311 1.1718 25.7254 1.69984 25.7254H2.12693L2.22012 26.2072C2.35213 26.8989 2.86464 27.886 3.37715 28.4378C4.49536 29.6425 6.26586 30.2254 7.83446 29.8912C9.00702 29.6425 10.1796 28.8808 10.8241 27.9482L11.1192 27.5129L11.3677 27.886C11.5075 28.0881 11.8491 28.4689 12.1365 28.7331C13.6429 30.1476 15.957 30.3886 17.7663 29.3238C18.8457 28.6865 19.7232 27.4896 19.995 26.2772L20.1192 25.7254L23.6913 25.7409L27.2633 25.7642L27.4109 26.3316C27.9622 28.5155 29.8803 30.0077 32.1089 30C33.5144 29.9922 35.1219 29.1606 35.8984 28.0337L36.2012 27.5906H37.5213C38.7327 27.5906 38.857 27.5751 39.1365 27.4197C39.6879 27.1088 39.75 26.8601 39.75 24.9792C39.75 24.0855 39.7112 23.2305 39.6723 23.0751C39.6335 22.9274 39.4937 22.702 39.3617 22.5777L39.1288 22.3523V18.2331C39.1288 15.9637 39.0977 13.9041 39.0511 13.6554C38.9346 12.9404 38.6473 12.4041 38.0416 11.7746L37.4903 11.215L37.102 7.18134C36.8924 4.95854 36.6827 3.06994 36.6439 2.96891C36.4963 2.62694 33.8406 1.08808 33.3824 1.08808C33.1262 1.08808 32.9398 1.22021 32.8544 1.46891C32.7224 1.84974 32.8777 2.02072 33.825 2.49482C34.2987 2.73575 34.8889 3.06994 35.1452 3.23316L35.5955 3.53626L35.9916 7.57771C36.209 9.80051 36.4264 11.6891 36.473 11.7746C36.5196 11.8601 36.7836 12.1554 37.071 12.4352C37.8708 13.2202 37.9251 13.3523 37.9251 14.6425V15.715L37.5136 15.8705C37.0166 16.057 36.4342 16.601 36.1779 17.1373C35.9838 17.5181 35.9838 17.5647 35.9605 19.873C35.945 21.171 35.9217 22.228 35.8906 22.228C35.8673 22.228 35.6111 22.0026 35.3238 21.7305C34.4074 20.8679 33.3358 20.4404 32.0701 20.4404C30.9208 20.4404 30.0278 20.7357 29.1193 21.4197C28.3117 22.0259 27.5895 23.1528 27.3876 24.1088L27.2944 24.5596H24.8638H22.4333V12.8549V1.15026L26.1063 1.18912C29.1115 1.21243 29.8725 1.24352 30.3539 1.35233C31.1227 1.51554 31.3867 1.50777 31.5576 1.32124C31.7362 1.12694 31.7439 0.746113 31.5653 0.551811C31.4178 0.396372 30.6024 0.209843 29.4609 0.0777187C29.0804 0.0388584 27.1702 0 25.2288 0C22.2003 0.00777054 21.6723 0.0233154 21.5403 0.124352ZM37.964 19.5855V22.228H37.4981H37.0321V20.1995C37.0321 18.816 37.0632 18.0622 37.1253 17.8445C37.2185 17.5414 37.7232 16.943 37.8863 16.943C37.9329 16.943 37.964 17.8756 37.964 19.5855ZM3.71883 21.5673C3.71883 21.5984 3.59458 21.7461 3.43928 21.9015C2.84911 22.5077 2.42202 23.285 2.24341 24.1088L2.14246 24.5596H1.79302C1.18733 24.5596 1.15627 24.4974 1.15627 23.0673C1.15627 21.4508 1.07861 21.5285 2.59285 21.5285C3.21408 21.5285 3.71883 21.544 3.71883 21.5673ZM7.53161 21.6062C7.76457 21.6451 8.19943 21.8083 8.49451 21.9559C11.2512 23.316 11.1891 27.1787 8.39356 28.5077C7.3996 28.9818 6.04066 28.9274 5.11659 28.3912C4.54972 28.057 3.99061 27.4663 3.69553 26.9067C3.33833 26.215 3.22185 25.6865 3.2762 24.9559C3.42374 22.7953 5.4272 21.2176 7.53161 21.6062ZM11.7637 22.0259C11.5308 22.3057 11.3056 22.601 11.2512 22.6865C11.1425 22.8963 11.0648 22.8886 10.9639 22.671C10.9173 22.5699 10.6999 22.2979 10.4824 22.057C10.265 21.816 10.0864 21.5984 10.0864 21.5751C10.0864 21.5518 10.5601 21.5285 11.1347 21.5285H12.1908L11.7637 22.0259ZM16.0735 21.6373C16.8034 21.7927 17.347 22.0958 17.8983 22.6476C19.4592 24.2098 19.3039 26.7435 17.5644 28.0725C16.9199 28.5621 16.3375 28.772 15.5144 28.8186C14.4583 28.873 13.5575 28.5388 12.812 27.8083C12.02 27.0311 11.6783 26.1528 11.7327 25.0026C11.756 24.373 11.7948 24.2098 12.051 23.6813C12.649 22.4067 13.907 21.5751 15.2892 21.5362C15.4367 21.5362 15.7939 21.5829 16.0735 21.6373ZM21.3306 23.0673L21.3461 24.5673L20.7172 24.544L20.0882 24.5207L19.9406 23.9456C19.762 23.2383 19.3738 22.5311 18.8535 21.9559L18.4574 21.5285L19.8785 21.544L21.3073 21.5673L21.3306 23.0673ZM32.8233 21.6451C34.6948 22.0881 35.945 23.9067 35.6421 25.7409C35.3393 27.5596 33.8483 28.8264 32.008 28.8342C30.4161 28.8342 28.9329 27.6995 28.5368 26.1528C27.9312 23.8445 29.6318 21.5984 32.0235 21.5362C32.1943 21.5362 32.5515 21.5829 32.8233 21.6451ZM38.5697 24.9248L38.5464 26.4637L37.6456 26.487L36.737 26.5103L36.7759 25.5544C36.8147 24.6528 36.737 24.0233 36.5274 23.5259C36.473 23.4015 36.5507 23.3938 37.5291 23.3938H38.5852L38.5697 24.9248Z" fill="#3C3C3B"/>
<path d="M6.31249 22.7023C6.14165 22.7412 5.80774 22.8889 5.57478 23.0287C3.44708 24.3034 4.26244 27.5831 6.74735 27.7308C7.50058 27.7697 8.09851 27.5598 8.62656 27.0624C9.18566 26.5417 9.42639 25.9899 9.42639 25.2205C9.42639 24.5132 9.22449 23.9692 8.7741 23.4484C8.24606 22.85 7.11232 22.508 6.31249 22.7023ZM7.42293 23.8992C7.79567 24.0547 7.97427 24.2179 8.15287 24.5754C8.61879 25.4925 7.93544 26.5961 6.90265 26.5961C6.12612 26.5961 5.50489 25.9899 5.50489 25.236C5.50489 24.5987 5.76115 24.1868 6.32025 23.9303C6.70075 23.7515 7.05019 23.7438 7.42293 23.8992Z" fill="#3C3C3B"/>
<path d="M14.7453 22.7252C14.5511 22.7796 14.3027 22.8651 14.1862 22.9118C13.8445 23.0516 13.2776 23.6268 13.0524 24.0542C12.8738 24.3962 12.8428 24.5361 12.8428 25.1812C12.8428 25.8107 12.8738 25.9739 13.0291 26.3081C13.4562 27.1708 14.2328 27.676 15.2034 27.7304C16.2828 27.7848 17.1448 27.2796 17.6262 26.3003C17.8437 25.8651 17.8747 25.7097 17.8747 25.2356C17.8669 24.9247 17.8126 24.5206 17.7427 24.334C17.4554 23.5568 16.772 22.9506 15.9489 22.733C15.4053 22.5931 15.2112 22.5931 14.7453 22.7252ZM15.9722 23.9454C16.7876 24.3418 16.9972 25.4066 16.3993 26.1216C15.8247 26.8055 14.7298 26.7589 14.2017 26.0206C13.7979 25.461 13.8367 24.8081 14.3027 24.2719C14.7453 23.7667 15.351 23.6501 15.9722 23.9454Z" fill="#3C3C3B"/>
<path d="M31.4329 22.7177C30.9282 22.8654 30.4079 23.184 30.0895 23.5649C29.2431 24.5441 29.3208 26.0908 30.2604 27.0312C30.9204 27.6918 32.0464 27.925 32.9316 27.5908C34.6556 26.9379 35.1525 24.6996 33.848 23.3939C33.2345 22.7799 32.225 22.4923 31.4329 22.7177ZM32.8385 24.0467C33.6616 24.5908 33.6383 25.8421 32.7996 26.3939C32.1241 26.8369 31.1301 26.5571 30.7806 25.8343C30.1594 24.5208 31.6271 23.2462 32.8385 24.0467Z" fill="#3C3C3B"/>
<path d="M24.6381 4.8493C24.5061 4.91148 24.3275 5.05138 24.2343 5.16796C23.9004 5.58765 23.9703 5.83635 25.1972 8.80526C25.8185 10.3053 26.3853 11.6032 26.4552 11.6809C26.7969 12.0617 27.2861 12.1395 27.6899 11.8907C28.2257 11.5643 28.2179 11.642 28.2179 8.38557C28.2179 5.54101 28.2102 5.44775 28.0549 5.23013C27.7443 4.80267 27.488 4.7405 26.1213 4.7405C25.2594 4.74827 24.809 4.77936 24.6381 4.8493ZM27.092 8.09801C27.092 9.38816 27.0609 10.2509 27.0221 10.1809C26.96 10.0876 26.6105 9.24049 25.337 6.155L25.2361 5.9063H26.1679H27.092V8.09801Z" fill="#3C3C3B"/>
<path d="M29.4298 4.8804C29.2822 4.95034 29.0881 5.11356 29.0027 5.23014C28.8474 5.43998 28.8396 5.56433 28.8163 8.22236C28.8008 9.98661 28.8241 11.098 28.8707 11.269C28.9173 11.4244 29.057 11.6498 29.1891 11.7742L29.4298 12.0073L31.8526 12.0306C34.4617 12.054 34.5627 12.0462 34.8966 11.642C35.1528 11.3389 35.1451 11.199 34.85 8.08246C34.6947 6.46589 34.5627 5.4633 34.485 5.30008C34.4151 5.14464 34.2521 4.98143 34.0734 4.89594C33.8017 4.75604 33.6075 4.7405 31.7361 4.7405C29.9423 4.7405 29.6627 4.75604 29.4298 4.8804ZM33.4678 5.92185C33.4755 5.93739 33.5842 7.05656 33.724 8.40889L33.9725 10.8804H31.969H29.9656V8.39335V5.9063H31.7128C32.6757 5.9063 33.46 5.91407 33.4678 5.92185Z" fill="#3C3C3B"/>
<path d="M29.2826 13.2667C29.0186 13.4921 28.9953 13.7797 29.2127 14.0362C29.3991 14.246 29.4379 14.2616 30.23 14.2849C30.6804 14.3004 31.1774 14.2927 31.3249 14.2693C31.8685 14.1683 32.0626 13.7408 31.7442 13.3367C31.5889 13.1346 31.5811 13.1346 30.5095 13.1346C29.601 13.1346 29.4146 13.1579 29.2826 13.2667Z" fill="#3C3C3B"/>
</svg>
