<svg width="28" height="21" viewBox="0 0 28 21" fill="none" xmlns="http://www.w3.org/2000/svg">
<path d="M18.9568 13.4167C18.7247 13.4167 18.5021 13.5089 18.338 13.6729C18.1739 13.837 18.0817 14.0596 18.0817 14.2917C18.0817 14.5237 18.1739 14.7463 18.338 14.9104C18.5021 15.0745 18.7247 15.1667 18.9568 15.1667H23.0408C23.2729 15.1667 23.4955 15.0745 23.6597 14.9104C23.8238 14.7463 23.916 14.5237 23.916 14.2917C23.916 14.0596 23.8238 13.837 23.6597 13.6729C23.4955 13.5089 23.2729 13.4167 23.0408 13.4167H18.9568ZM0 4.375C0 3.21468 0.461013 2.10188 1.28162 1.28141C2.10223 0.460936 3.21521 0 4.37573 0H23.6243C24.7848 0 25.8978 0.460936 26.7184 1.28141C27.539 2.10188 28 3.21468 28 4.375V16.625C28 17.7853 27.539 18.8981 26.7184 19.7186C25.8978 20.5391 24.7848 21 23.6243 21H4.3769C3.21638 21 2.1034 20.5391 1.28279 19.7186C0.46218 18.8981 0.00116705 17.7853 0.00116705 16.625V4.375H0ZM4.37573 1.75C3.67942 1.75 3.01163 2.02656 2.51926 2.51884C2.0269 3.01113 1.75029 3.67881 1.75029 4.375V5.25H26.2497V4.375C26.2497 3.67881 25.9731 3.01113 25.4807 2.51884C24.9884 2.02656 24.3206 1.75 23.6243 1.75H4.37573ZM1.75029 16.625C1.75029 17.3212 2.0269 17.9889 2.51926 18.4812C3.01163 18.9734 3.67942 19.25 4.37573 19.25H23.6243C24.3206 19.25 24.9884 18.9734 25.4807 18.4812C25.9731 17.9889 26.2497 17.3212 26.2497 16.625V7H1.75146V16.625H1.75029Z" fill="#3D3D3B"/>
</svg>
