<svg width="178" height="41" viewBox="0 0 178 41" fill="none" xmlns="http://www.w3.org/2000/svg">
<path d="M23.7162 31.8602H15.5189L9.625 23.986L6.58519 27.2629V31.8589H0V0H6.58519V17.7036L14.2305 9.10292H23.3951L14.0925 19.1159L23.7175 31.8589L23.7162 31.8602Z" fill="white"/>
<path d="M38.2866 9.10408H44.8266V31.8601H38.2866V30.1305C37.2729 30.8901 36.1599 31.4726 34.9476 31.883C33.734 32.2934 32.5139 32.4974 31.2861 32.4974C28.8911 32.4974 26.8263 31.9799 25.0917 30.95C23.3571 29.9189 22.03 28.5003 21.1078 26.6943C20.187 24.8895 19.7266 22.8336 19.7266 20.528C19.7266 18.2223 20.187 16.1511 21.1078 14.3158C22.0287 12.4804 23.3571 11.0465 25.0917 10.0141C26.8263 8.98427 28.8911 8.4668 31.2861 8.4668C32.5436 8.4668 33.7726 8.67965 34.9695 9.10408C36.1676 9.52978 37.2729 10.1212 38.2853 10.8795V9.10408H38.2866ZM36.49 24.669C37.6559 23.5767 38.2402 22.1658 38.2402 20.4362C38.2402 18.7066 37.6572 17.4027 36.49 16.3397C35.3229 15.278 33.8797 14.7465 32.1605 14.7465C30.4414 14.7465 29.0291 15.278 27.9239 16.3397C26.8186 17.4015 26.2666 18.7971 26.2666 20.5267C26.2666 22.2563 26.8199 23.6519 27.9239 24.7136C29.0291 25.7753 30.4414 26.3068 32.1605 26.3068C33.8797 26.3068 35.3229 25.76 36.49 24.6677V24.669Z" fill="white"/>
<path d="M76.9921 9.33113C78.3746 9.9085 79.556 10.9243 80.5375 12.3812C81.5202 13.8367 82.0116 15.7944 82.0116 18.2518V31.8603H75.4715V18.2518C75.4715 16.7962 75.0575 15.7486 74.2283 15.1125C73.4003 14.4753 72.4175 14.1566 71.2813 14.1566C70.3295 14.1566 69.508 14.4383 68.8167 14.9991C68.1267 15.5612 67.674 16.433 67.4587 17.6158V31.8615H60.8735V18.253C60.8735 16.7975 60.4595 15.7498 59.6302 15.1138C58.8009 14.4765 57.8182 14.1579 56.6832 14.1579C55.7314 14.1579 54.9022 14.4472 54.1967 15.0233C53.4899 15.6007 53.045 16.526 52.8606 17.7993V31.8628H46.2754V9.1068H52.8606V10.5624C54.5488 9.16671 56.375 8.46826 58.3405 8.46826C59.6908 8.46826 61.0643 8.75758 62.4611 9.33368C63.8591 9.91105 65.0018 10.867 65.8917 12.2014C66.69 11.1397 67.7037 10.2526 68.9315 9.53888C70.1593 8.8264 71.4799 8.46826 72.8909 8.46826C74.3018 8.46826 75.6082 8.75758 76.9895 9.33368L76.9921 9.33113Z" fill="white"/>
<path d="M97.9441 9.10425H104.805L97.0684 31.5416C95.7787 34.8185 94.0363 37.2605 91.8412 38.869C89.6462 40.4763 87.0281 41.1747 83.9896 40.9632V34.6821C84.174 34.7114 84.45 34.728 84.8188 34.728C86.1085 34.728 87.1829 34.3941 88.0431 33.7262C88.902 33.0583 89.6243 32.133 90.2072 30.9502L80.2598 9.10425H87.3518L93.385 22.1659L97.9441 9.10425Z" fill="white"/>
<path d="M109.789 30.9222C107.93 29.8465 106.458 28.382 105.368 26.5301C104.278 24.6794 103.732 22.6771 103.732 20.5231C103.732 18.3691 104.278 16.3285 105.368 14.4931C106.458 12.6578 107.93 11.2022 109.789 10.124C111.646 9.04696 113.68 8.50781 115.89 8.50781C118.101 8.50781 120.088 9.04696 121.946 10.124C123.803 11.2022 125.277 12.6578 126.367 14.4931C127.456 16.3298 128.001 18.3385 128.001 20.5231C128.001 22.7077 127.455 24.6794 126.367 26.5301C125.276 28.382 123.803 29.8465 121.946 30.9222C120.088 31.9992 118.07 32.5384 115.89 32.5384C113.711 32.5384 111.645 31.9992 109.789 30.9222ZM119.806 24.4143C120.911 23.3373 121.463 22.0411 121.463 20.5231C121.463 19.0051 120.91 17.7012 119.806 16.6089C118.701 15.5166 117.38 14.9711 115.845 14.9711C114.311 14.9711 112.998 15.5166 111.908 16.6089C110.818 17.7012 110.272 19.0064 110.272 20.5231C110.272 22.0398 110.818 23.3373 111.908 24.4143C112.998 25.4913 114.309 26.0292 115.845 26.0292C117.381 26.0292 118.701 25.4913 119.806 24.4143Z" fill="white"/>
<path d="M115.889 33.4368C113.525 33.4368 111.317 32.8518 109.327 31.6971C107.343 30.5474 105.745 28.9606 104.58 26.9812C103.414 25.0005 102.822 22.8274 102.822 20.523C102.822 18.2186 103.414 16.0059 104.583 14.038C105.747 12.0777 107.343 10.4998 109.327 9.34891C111.319 8.19543 113.527 7.60913 115.889 7.60913C118.252 7.60913 120.414 8.19416 122.405 9.34891C124.389 10.4998 125.985 12.0777 127.15 14.038C128.318 16.0059 128.91 18.188 128.91 20.523C128.91 22.858 128.32 25.0005 127.152 26.9812C125.986 28.9606 124.389 30.5461 122.405 31.6971C120.414 32.8518 118.223 33.4368 115.889 33.4368ZM115.889 9.40627C113.853 9.40627 111.955 9.90845 110.247 10.8988C108.533 11.8929 107.156 13.2554 106.151 14.9468C105.149 16.6356 104.641 18.5117 104.641 20.523C104.641 22.5342 105.149 24.376 106.152 26.0775C107.158 27.7867 108.536 29.1543 110.248 30.1472C111.956 31.1375 113.854 31.6397 115.889 31.6397C117.925 31.6397 119.777 31.1375 121.485 30.1472C123.197 29.1556 124.576 27.7867 125.582 26.0775C126.584 24.3747 127.092 22.5049 127.092 20.523C127.092 18.541 126.584 16.6356 125.583 14.9468C124.577 13.2542 123.198 11.8917 121.485 10.8988C119.778 9.90845 117.895 9.40627 115.891 9.40627H115.889ZM115.843 26.9277C114.065 26.9277 112.523 26.2955 111.263 25.049C110.002 23.8024 109.362 22.2793 109.362 20.523C109.362 18.7666 110.001 17.2384 111.259 15.9779C112.519 14.7135 114.062 14.0724 115.844 14.0724C117.627 14.0724 119.172 14.7123 120.447 15.9741C121.724 17.2359 122.371 18.7654 122.371 20.523C122.371 22.2806 121.723 23.8075 120.443 25.0541C119.168 26.2968 117.62 26.9277 115.844 26.9277H115.843ZM115.843 15.8696C114.549 15.8696 113.473 16.3169 112.553 17.2397C111.628 18.165 111.179 19.2395 111.179 20.523C111.179 21.8065 111.627 22.8695 112.548 23.7795C113.467 24.6895 114.546 25.1318 115.843 25.1318C117.14 25.1318 118.229 24.6883 119.165 23.7757C120.098 22.8669 120.552 21.8026 120.552 20.5243C120.552 19.2459 120.096 18.1702 119.16 17.2448C118.224 16.3195 117.139 15.8696 115.842 15.8696H115.843Z" fill="#3C3C3B"/>
<path d="M136.691 30.8532C134.833 29.7774 133.36 28.3129 132.27 26.461C131.18 24.6103 130.635 22.608 130.635 20.454C130.635 18.3 131.18 16.2594 132.27 14.4241C133.36 12.5887 134.833 11.1331 136.691 10.0549C138.548 8.97787 140.582 8.43872 142.793 8.43872C145.003 8.43872 146.991 8.97787 148.848 10.0549C150.705 11.1331 152.179 12.5887 153.269 14.4241C154.359 16.2607 154.903 18.2694 154.903 20.454C154.903 22.6386 154.357 24.6103 153.269 26.461C152.178 28.3129 150.705 29.7774 148.848 30.8532C146.991 31.9302 144.972 32.4693 142.793 32.4693C140.613 32.4693 138.547 31.9302 136.691 30.8532ZM146.708 24.3452C147.814 23.2682 148.366 21.972 148.366 20.454C148.366 18.936 147.812 17.6321 146.708 16.5398C145.604 15.4475 144.282 14.902 142.748 14.902C141.213 14.902 139.9 15.4475 138.81 16.5398C137.72 17.6321 137.175 18.9373 137.175 20.454C137.175 21.9707 137.72 23.2682 138.81 24.3452C139.9 25.4222 141.212 25.9601 142.748 25.9601C144.284 25.9601 145.603 25.4222 146.708 24.3452Z" fill="white"/>
<path d="M142.794 33.368C140.43 33.368 138.222 32.783 136.232 31.6282C134.247 30.4785 132.649 28.8917 131.484 26.9123C130.319 24.9317 129.727 22.7585 129.727 20.4541C129.727 18.1497 130.319 15.9371 131.487 13.9692C132.652 12.0089 134.247 10.431 136.232 9.28006C138.223 8.12658 140.431 7.54028 142.794 7.54028C145.156 7.54028 147.318 8.12531 149.309 9.28006C151.293 10.431 152.889 12.0089 154.054 13.9692C155.223 15.9371 155.815 18.1191 155.815 20.4541C155.815 22.7891 155.224 24.9317 154.057 26.9123C152.891 28.8917 151.293 30.4773 149.309 31.6282C147.318 32.783 145.127 33.368 142.794 33.368ZM142.794 9.33741C140.757 9.33741 138.859 9.83958 137.151 10.8299C135.437 11.8241 134.06 13.1866 133.055 14.8779C132.053 16.5667 131.545 18.4429 131.545 20.4541C131.545 22.4654 132.053 24.3071 133.057 26.0087C134.063 27.7179 135.44 29.0854 137.153 30.0783C138.86 31.0687 140.759 31.5708 142.794 31.5708C144.829 31.5708 146.681 31.0687 148.39 30.0783C150.101 29.0867 151.48 27.7179 152.486 26.0087C153.488 24.3059 153.996 22.4361 153.996 20.4541C153.996 18.4722 153.488 16.5667 152.487 14.8779C151.481 13.1853 150.102 11.8228 148.39 10.8299C146.682 9.83958 144.799 9.33741 142.795 9.33741H142.794ZM142.747 26.8588C140.969 26.8588 139.428 26.2266 138.168 24.9801C136.906 23.7336 136.267 22.2105 136.267 20.4541C136.267 18.6978 136.905 17.1696 138.164 15.9091C139.424 14.6447 140.966 14.0036 142.749 14.0036C144.531 14.0036 146.076 14.6434 147.352 15.9052C148.628 17.167 149.276 18.6965 149.276 20.4541C149.276 22.2117 148.627 23.7387 147.348 24.9852C146.072 26.2279 144.525 26.8588 142.749 26.8588H142.747ZM142.747 15.8007C141.454 15.8007 140.377 16.2481 139.457 17.1709C138.533 18.0962 138.084 19.1706 138.084 20.4541C138.084 21.7376 138.531 22.8006 139.452 23.7106C140.372 24.6207 141.45 25.0629 142.747 25.0629C144.045 25.0629 145.133 24.6194 146.07 23.7068C147.002 22.798 147.456 21.7338 147.456 20.4554C147.456 19.177 147.001 18.1013 146.064 17.176C145.128 16.2506 144.043 15.8007 142.746 15.8007H142.747Z" fill="#3C3C3B"/>
<path d="M172.981 9.37191C174.362 9.94929 175.545 10.9651 176.528 12.4219C177.509 13.8775 178.001 15.8352 178.001 18.2926V31.901H171.416V18.2926C171.416 16.837 171.008 15.7893 170.195 15.1533C169.382 14.516 168.407 14.1974 167.27 14.1974C166.134 14.1974 165.19 14.5925 164.438 15.3815C163.685 16.1704 163.31 17.4297 163.31 19.1593V31.9023H156.725V9.14631H163.31V10.6936C165.06 9.23808 166.917 8.50903 168.883 8.50903C170.233 8.50903 171.599 8.79836 172.981 9.37446V9.37191Z" fill="white"/>
</svg>
