<svg width="98" height="97" viewBox="0 0 98 97" fill="none" xmlns="http://www.w3.org/2000/svg">
<path d="M49.1499 96.7218C75.8589 96.7218 97.5108 75.0699 97.5108 48.3609C97.5108 21.6519 75.8589 0 49.1499 0C22.441 0 0.789062 21.6519 0.789062 48.3609C0.789062 75.0699 22.441 96.7218 49.1499 96.7218Z" fill="#E9B020"/>
<path d="M72.3747 30.7818H61.8848C61.3038 30.7818 60.8354 31.2476 60.8354 31.8253C60.8354 32.403 61.3038 32.8688 61.8848 32.8688H72.3747C72.9558 32.8688 73.4242 33.3346 73.4242 33.9123V53.7117H29.2799V33.9078C29.2799 33.3301 29.7484 32.8643 30.3294 32.8643H64.6908C65.2718 32.8643 65.7403 32.3986 65.7403 31.8208C65.7403 31.2431 65.2718 30.7773 64.6908 30.7773H30.3294C28.5953 30.7818 27.1855 32.1836 27.1855 33.9078V58.9201C27.1855 60.6488 28.5953 62.0461 30.3294 62.0461H47.8366V66.2156H38.4052C36.6666 66.2156 35.2613 67.6173 35.2613 69.3416V72.4675C35.2613 73.0453 35.7297 73.511 36.3108 73.511H67.7536C68.3346 73.511 68.803 73.0453 68.803 72.4675V69.3416C68.803 67.6129 67.3933 66.2156 65.6592 66.2156H56.2277V62.0461H72.3838C74.1223 62.0461 75.5276 60.6443 75.5276 58.9201V33.9078C75.5276 32.1791 74.1178 30.7818 72.3838 30.7818H72.3747ZM66.6996 69.3416V71.424H37.3557V69.3416C37.3557 68.7638 37.8241 68.2981 38.4052 68.2981H65.6547C66.2357 68.2981 66.7041 68.7638 66.7041 69.3416H66.6996ZM54.1243 66.2156H49.931V62.0461H54.1243V66.2156ZM73.4242 58.9201C73.4242 59.4979 72.9558 59.9636 72.3747 59.9636H30.3294C29.7484 59.9636 29.2799 59.4979 29.2799 58.9201V55.7941H73.4197V58.9201H73.4242Z" fill="white"/>
<path d="M46.7007 43.7064H48.8806V48.9149C48.8806 49.4926 49.3491 49.9584 49.9301 49.9584H54.1234C54.7044 49.9584 55.1728 49.4926 55.1728 48.9149V43.7064H57.3528C57.9338 43.7064 58.4022 43.2451 58.4067 42.6719C58.4067 42.3898 58.2986 42.121 58.0959 41.924L52.7631 36.6304C52.3533 36.2274 51.6957 36.2274 51.2858 36.6304L45.962 41.924C45.5521 42.3271 45.5476 42.9899 45.9575 43.3974C46.1557 43.5945 46.4259 43.7064 46.7097 43.7064H46.7007ZM52.0245 38.8383L54.8215 41.6195H54.1189C53.5378 41.6195 53.0694 42.0852 53.0694 42.6629V47.8714H50.975V42.6629C50.975 42.0852 50.5066 41.6195 49.9256 41.6195H49.2229L52.02 38.8383H52.0245Z" fill="white"/>
</svg>
