<svg width="97" height="97" viewBox="0 0 97 97" fill="none" xmlns="http://www.w3.org/2000/svg">
<path d="M48.6382 96.7218C75.3472 96.7218 96.9991 75.0699 96.9991 48.3609C96.9991 21.6519 75.3472 0 48.6382 0C21.9292 0 0.277344 21.6519 0.277344 48.3609C0.277344 75.0699 21.9292 96.7218 48.6382 96.7218Z" fill="#E9B020"/>
<path d="M69.2352 27.5389C63.7125 22.0638 56.3712 19.0508 48.5627 19.0508C42.6232 19.0508 36.9025 20.8076 32.0196 24.1378C31.5018 24.4925 31.3671 25.1978 31.7249 25.7111C32.0827 26.2244 32.7941 26.358 33.3119 26.0032C37.8118 22.936 43.082 21.3168 48.5627 21.3168C63.422 21.3168 75.5115 33.302 75.5115 48.0332C75.5115 62.7644 63.422 74.7497 48.5627 74.7497C33.7034 74.7497 21.6138 62.7644 21.6138 48.0332C21.6138 42.604 23.2471 37.375 26.341 32.9181C26.6989 32.4048 26.5684 31.6996 26.0464 31.3448C25.5286 30.9901 24.8172 31.1195 24.4594 31.637C21.1045 36.4737 19.3281 42.1449 19.3281 48.0374C19.3281 55.7786 22.3673 63.0565 27.8901 68.5317C33.4129 74.0068 40.7542 77.0199 48.5627 77.0199C56.3712 77.0199 63.7125 74.0068 69.2352 68.5317C74.758 63.0565 77.7972 55.7786 77.7972 48.0374C77.7972 40.2962 74.758 33.0183 69.2352 27.5431V27.5389Z" fill="white"/>
<path d="M48.5617 71.358C61.531 71.358 72.0841 60.896 72.0841 48.0385C72.0841 45.3677 71.6252 42.7971 70.7875 40.4059C70.7875 40.4017 70.7833 40.3934 70.7791 40.385C67.5757 31.2709 58.8243 24.7148 48.5575 24.7148C35.5882 24.7148 25.0352 35.1769 25.0352 48.0344C25.0352 60.8918 35.5882 71.3539 48.5575 71.3539L48.5617 71.358ZM69.8025 48.0385C69.8025 48.581 69.7815 49.1194 69.7394 49.6494C68.5397 49.712 67.3737 49.8872 66.2456 50.1668C66.616 47.0662 66.1487 43.8863 64.9112 41.0277C66.2287 41.2489 67.5379 41.4992 68.8428 41.7788C69.4658 43.7569 69.8025 45.8602 69.8025 48.0427V48.0385ZM62.1624 40.602C63.8967 43.7235 64.4902 47.4376 63.8167 50.9514C58.6054 53.0379 54.5644 57.4114 52.9648 62.8115C50.1066 63.6461 47.0253 63.6461 44.1671 62.8115C42.5675 57.4114 38.5264 53.0379 33.3151 50.9514C32.6416 47.4376 33.2351 43.7235 34.9694 40.602C39.4735 39.9719 44.0239 39.6505 48.5701 39.6505C53.1163 39.6505 57.6667 39.9719 62.1708 40.602H62.1624ZM30.8821 50.1668C29.7539 49.8872 28.5837 49.712 27.3882 49.6494C27.3461 49.1194 27.3251 48.581 27.3251 48.0385C27.3251 45.8602 27.6618 43.7569 28.2848 41.7746C29.5898 41.4992 30.9031 41.2489 32.2165 41.0235C30.9747 43.8821 30.5116 47.0621 30.8821 50.1627V50.1668ZM27.6913 51.9404C36.0386 52.5914 42.6264 59.5272 42.6264 67.9653C42.6264 68.0613 42.6264 68.1614 42.6264 68.2574C35.0284 66.0582 29.1772 59.7525 27.6955 51.9404H27.6913ZM44.8911 68.7832C44.9037 68.512 44.9121 68.2365 44.9121 67.9653C44.9121 67.0555 44.8448 66.1583 44.7143 65.2862C45.9813 65.5616 47.2736 65.6993 48.5659 65.6993C49.8582 65.6993 51.1547 65.5616 52.4176 65.2862C52.2871 66.1625 52.2197 67.0555 52.2197 67.9653C52.2197 68.2365 52.2281 68.5078 52.2408 68.7832C51.0453 68.9919 49.8203 69.1004 48.5659 69.1004C47.3115 69.1004 46.0866 68.9919 44.8911 68.7832ZM54.5054 68.2616C54.5054 68.1656 54.5054 68.0654 54.5054 67.9695C54.5054 59.5314 61.0974 52.5914 69.4405 51.9446C67.9588 59.7609 62.1077 66.0624 54.5096 68.2616H54.5054ZM48.5617 26.9851C57.1153 26.9851 64.5071 32.0262 67.8662 39.2708C61.5184 38.023 55.0316 37.3887 48.5575 37.3887C42.0834 37.3887 35.6008 38.023 29.253 39.2708C32.6164 32.0262 40.0039 26.9851 48.5617 26.9851Z" fill="white"/>
<path d="M42.8555 48.0318C42.8555 51.1533 45.4148 53.6906 48.5635 53.6906C51.7121 53.6906 54.2715 51.1533 54.2715 48.0318C54.2715 44.9103 51.7121 42.373 48.5635 42.373C45.4148 42.373 42.8555 44.9103 42.8555 48.0318ZM48.5635 44.6349C50.4535 44.6349 51.99 46.1581 51.99 48.0318C51.99 49.9055 50.4535 51.4287 48.5635 51.4287C46.6734 51.4287 45.137 49.9055 45.137 48.0318C45.137 46.1581 46.6734 44.6349 48.5635 44.6349Z" fill="white"/>
<path d="M28.6995 29.4732C28.99 29.4732 29.2846 29.3605 29.5077 29.1394C29.9539 28.697 29.9539 27.9792 29.5077 27.5368C29.0615 27.0945 28.3375 27.0945 27.8913 27.5368C27.4451 27.9792 27.4451 28.697 27.8913 29.1394C28.1144 29.3605 28.4048 29.469 28.6995 29.469V29.4732Z" fill="white"/>
</svg>
