<svg width="98" height="97" viewBox="0 0 98 97" fill="none" xmlns="http://www.w3.org/2000/svg">
<path d="M49.3199 96.7218C76.0289 96.7218 97.6808 75.0699 97.6808 48.3609C97.6808 21.6519 76.0289 0 49.3199 0C22.6109 0 0.958984 21.6519 0.958984 48.3609C0.958984 75.0699 22.6109 96.7218 49.3199 96.7218Z" fill="#E9B020"/>
<path d="M57.9891 56.7667C57.9891 56.3538 57.6513 56.0234 57.2394 56.0234H34.3415C33.925 56.0234 33.5918 56.3583 33.5918 56.7667C33.5918 57.175 33.9296 57.5099 34.3415 57.5099H57.2394C57.6559 57.5099 57.9891 57.175 57.9891 56.7667Z" fill="white"/>
<path d="M54.0821 61.3819C54.0821 60.969 53.7442 60.6387 53.3324 60.6387H34.3356C33.9191 60.6387 33.5859 60.9736 33.5859 61.3819C33.5859 61.7902 33.9238 62.1251 34.3356 62.1251H53.3324C53.7489 62.1251 54.0821 61.7902 54.0821 61.3819Z" fill="white"/>
<path d="M34.3356 65.25C33.9191 65.25 33.5859 65.5849 33.5859 65.9932C33.5859 66.4016 33.9238 66.7365 34.3356 66.7365H49.4127C49.8292 66.7365 50.1624 66.4016 50.1624 65.9932C50.1624 65.5849 49.8246 65.25 49.4127 65.25H34.3356Z" fill="white"/>
<path d="M70.4774 60.6057C70.1581 60.3442 69.6861 60.3854 69.4177 60.6974L64.2948 66.7762L61.0184 63.9456C60.7037 63.6749 60.2317 63.707 59.9586 64.019C59.6856 64.3309 59.718 64.7989 60.0327 65.0696L63.8875 68.4003C64.0264 68.5196 64.2022 68.5838 64.3827 68.5838C64.4012 68.5838 64.4244 68.5838 64.4429 68.5838C64.6465 68.5701 64.8316 68.4737 64.9612 68.3178L70.5792 61.6563C70.843 61.3397 70.8013 60.8718 70.4867 60.6057H70.4774Z" fill="white"/>
<path d="M44.4352 29.8165H51.8766C52.2931 29.8165 52.6263 29.4816 52.6263 29.0733C52.6263 28.665 52.2885 28.3301 51.8766 28.3301H44.4352C44.0187 28.3301 43.6855 28.665 43.6855 29.0733C43.6855 29.4816 44.0234 29.8165 44.4352 29.8165Z" fill="white"/>
<path d="M44.4352 34.4298H51.8766C52.2931 34.4298 52.6263 34.0949 52.6263 33.6866C52.6263 33.2783 52.2885 32.9434 51.8766 32.9434H44.4352C44.0187 32.9434 43.6855 33.2783 43.6855 33.6866C43.6855 34.0949 44.0234 34.4298 44.4352 34.4298Z" fill="white"/>
<path d="M65.2673 55.0176C59.9223 55.0176 55.5723 59.3301 55.5723 64.629C55.5723 69.9279 59.9223 74.2405 65.2673 74.2405H65.744C65.8828 74.2405 66.0216 74.2267 66.1605 74.1992C71.089 73.7496 74.9577 69.6297 74.9577 64.629C74.9577 59.3301 70.6077 55.0176 65.2627 55.0176H65.2673ZM65.8365 72.7265C65.7717 72.7265 65.7116 72.7357 65.6514 72.7403C65.5218 72.7448 65.3969 72.7494 65.2673 72.7494C60.7507 72.7494 57.0763 69.1067 57.0763 64.629C57.0763 60.1513 60.7507 56.5086 65.2673 56.5086C69.784 56.5086 73.4584 60.1513 73.4584 64.629C73.4584 68.9186 70.0894 72.4375 65.8365 72.7265Z" fill="white"/>
<path d="M63.1582 49.2913V40.5929C63.1582 39.7487 62.4641 39.0605 61.6126 39.0605H35.1375C34.286 39.0605 33.5918 39.7487 33.5918 40.5929V49.2913C33.5918 50.1355 34.286 50.8237 35.1375 50.8237H61.6126C62.4641 50.8237 63.1582 50.1355 63.1582 49.2913ZM54.833 49.3372H35.1328C35.1097 49.3372 35.0865 49.3189 35.0865 49.2913V40.5929C35.0865 40.5699 35.1051 40.547 35.1328 40.547H54.833V49.3372ZM56.3324 40.547H61.6079C61.6357 40.547 61.6542 40.5653 61.6542 40.5929V49.2913C61.6542 49.3143 61.6357 49.3372 61.6079 49.3372H56.3324V40.547Z" fill="white"/>
<path d="M58.3117 72.7491H30.9989C30.6148 72.7491 30.3002 72.4371 30.3002 72.0563V25.6186C30.3002 25.2378 30.6148 24.9258 30.9989 24.9258H55.7942V33.4408C55.7942 34.5694 56.7197 35.4824 57.8535 35.4824H66.4426V52.5765C66.4426 52.9894 66.7804 53.3197 67.1922 53.3197C67.6041 53.3197 67.9419 52.9848 67.9419 52.5765V34.7391C67.9419 34.7391 67.9419 34.7208 67.9419 34.7162C67.9419 34.707 67.9419 34.6978 67.9419 34.6932C67.9419 34.6611 67.9373 34.629 67.9281 34.5969C67.9234 34.5648 67.9142 34.5327 67.9003 34.5052L67.891 34.4822C67.8818 34.4547 67.8679 34.4271 67.854 34.3996C67.8401 34.3721 67.8216 34.3446 67.8031 34.317C67.7985 34.3125 67.7938 34.3033 67.7892 34.2987C67.7707 34.2712 67.7476 34.2482 67.7244 34.2253L57.0714 23.6642C57.0483 23.6412 57.0205 23.6183 56.9974 23.5999C56.9881 23.5954 56.9835 23.5908 56.9789 23.5862C56.9511 23.5678 56.9234 23.5495 56.8956 23.5357C56.8956 23.5357 56.8956 23.5357 56.891 23.5357C56.8632 23.5219 56.8354 23.5082 56.8077 23.499C56.7984 23.499 56.7938 23.4944 56.7845 23.4898C56.7521 23.4807 56.7244 23.4715 56.692 23.4623C56.6596 23.4577 56.6318 23.4531 56.5994 23.4531C56.5902 23.4531 56.5809 23.4531 56.5717 23.4531C56.5624 23.4531 56.5578 23.4531 56.5485 23.4531H31.0036C29.7911 23.4531 28.8008 24.4303 28.8008 25.6369V72.0747C28.8008 73.2767 29.7865 74.2584 31.0036 74.2584H58.3163C58.7328 74.2584 59.066 73.9235 59.066 73.5152C59.066 73.1069 58.7282 72.772 58.3163 72.772L58.3117 72.7491ZM57.2982 25.9718L65.3874 33.9913H57.8582C57.5481 33.9913 57.2982 33.7436 57.2982 33.4362V25.9718Z" fill="white"/>
<path d="M38.8397 31.9696C38.8305 33.8414 37.8679 35.1811 35.4754 35.1811C35.3273 35.1811 35.1283 35.1719 34.9756 35.149V32.0843L34.0547 32.4146V31.8641L34.9756 31.5338V31.0062L34.0547 31.3365V30.7859L34.9756 30.4556V28.4141H35.841V30.1437L37.6782 29.4922V30.0427L35.841 30.6942V31.2218L37.6689 30.5703V31.1209L35.841 31.7723V34.4333C36.9887 34.3828 37.9697 33.7084 38.0114 31.9696H38.8351H38.8397Z" fill="white"/>
</svg>
