<svg width="98" height="97" viewBox="0 0 98 97" fill="none" xmlns="http://www.w3.org/2000/svg">
<path d="M48.8082 96.7218C75.5171 96.7218 97.169 75.0699 97.169 48.3609C97.169 21.6519 75.5171 0 48.8082 0C22.0992 0 0.447266 21.6519 0.447266 48.3609C0.447266 75.0699 22.0992 96.7218 48.8082 96.7218Z" fill="#E9B020"/>
<path d="M35.3917 40.3257C35.0114 39.9487 34.392 39.9487 34.0117 40.3257C33.6315 40.7026 33.6315 41.3168 34.0117 41.6937C34.392 42.0707 35.0114 42.0707 35.3917 41.6937C35.7719 41.3168 35.7719 40.7026 35.3917 40.3257Z" fill="white"/>
<path d="M48.6251 66.808C49.0566 66.2278 49.2873 65.5332 49.2873 64.8005C49.2873 62.9326 47.7536 61.4121 45.8695 61.4121H29.2589C28.3446 61.4121 27.4859 61.7636 26.8408 62.4032C26.1957 63.0427 25.8411 63.8941 25.8411 64.8005C25.8411 65.5501 26.0889 66.2447 26.5076 66.808C24.9525 67.617 23.8887 69.2349 23.8887 71.0985V72.0685C23.8887 72.6021 24.3244 73.0383 24.867 73.0383H50.2699C50.8082 73.0383 51.2483 72.6064 51.2483 72.0685V71.0985C51.2483 69.2392 50.1845 67.6212 48.6294 66.8123L48.6251 66.808ZM28.2208 63.7712C28.4984 63.4959 28.8659 63.3477 29.2589 63.3477H45.8695C46.677 63.3477 47.3349 64 47.3349 64.8005C47.3349 65.1901 47.1811 65.5543 46.9077 65.8296C46.63 66.1049 46.2625 66.2532 45.8695 66.2532H29.2589C28.4515 66.2532 27.7935 65.6009 27.7935 64.8005C27.7935 64.4108 27.9473 64.0465 28.2208 63.7712ZM25.8368 71.0943C25.8368 69.4933 27.1527 68.1888 28.7676 68.1888H46.3565C47.9714 68.1888 49.2873 69.4933 49.2873 71.0943H25.8368Z" fill="white"/>
<path d="M73.002 64.1347C72.6687 63.6265 72.2757 63.1733 71.8271 62.7964L67.26 58.8489C67.2259 58.7938 67.1831 58.7473 67.1361 58.7007C67.055 58.6202 66.9653 58.5609 66.8713 58.5143L64.1114 56.1256L51.333 45.0753C51.8542 44.5332 52.1448 43.8258 52.1448 43.0719C52.1448 42.318 51.8414 41.5641 51.286 41.0178C51.0425 40.7763 50.7691 40.59 50.4743 40.4545L51.6577 39.2813C51.9867 39.3702 52.3285 39.4125 52.666 39.4125C53.6657 39.4125 54.6654 39.0356 55.4301 38.2817C56.1692 37.549 56.5751 36.5748 56.5751 35.5413C56.5751 34.5079 56.1692 33.5338 55.4301 32.801L47.1377 24.5843C46.3986 23.8516 45.4159 23.4492 44.3735 23.4492C43.3311 23.4492 42.3484 23.8516 41.6093 24.5843C40.5883 25.5966 40.255 27.0324 40.6011 28.3242L28.8054 40.0182C28.4807 39.9335 28.1389 39.8869 27.7928 39.8869C26.7504 39.8869 25.7678 40.2893 25.0287 41.022C23.5035 42.5341 23.5035 44.9906 25.0287 46.5026L33.3169 54.7236C34.0773 55.4775 35.0813 55.8587 36.081 55.8587C37.0807 55.8587 38.0847 55.4817 38.8452 54.7236C39.8663 53.7113 40.1995 52.2755 39.8534 50.9837L41.0326 49.8148C41.1736 50.107 41.3658 50.3781 41.6051 50.6153C42.1605 51.1659 42.8953 51.4666 43.6771 51.4666C44.4589 51.4666 45.1511 51.1828 45.6979 50.6618L59.3093 66.1677C59.3478 66.227 59.3905 66.2821 59.4418 66.3329C59.4589 66.3499 59.476 66.3668 59.4973 66.3838L63.5517 71.0046C63.6542 71.1232 63.7611 71.2375 63.8721 71.3477C64.9872 72.4531 66.4569 73.0503 68.0034 73.0503C68.2768 73.0503 68.5503 73.0334 68.828 72.9952C70.6693 72.7411 72.2586 71.6526 73.1899 70.0008C74.211 68.1923 74.1341 65.8967 72.9977 64.1517L73.002 64.1347ZM42.9936 25.9439C43.361 25.5796 43.8523 25.3763 44.3735 25.3763C44.8947 25.3763 45.386 25.5796 45.7577 25.9439L54.0502 34.1606C54.4176 34.5249 54.6227 35.0119 54.6227 35.5287C54.6227 36.0454 54.4176 36.5325 54.0502 36.8967C53.2897 37.6506 52.0508 37.6506 51.286 36.8967L42.9936 28.6757C42.2331 27.9218 42.2331 26.6936 42.9936 25.9354V25.9439ZM37.4652 53.3386C36.7048 54.0925 35.4615 54.0925 34.7011 53.3386L26.4129 45.1219C25.6524 44.368 25.6524 43.1355 26.4129 42.3816C26.7803 42.0173 27.2716 41.814 27.7928 41.814C28.314 41.814 28.8054 42.0173 29.1728 42.3816L37.4652 50.6025C38.2257 51.3564 38.2257 52.5847 37.4652 53.3429V53.3386ZM41.5794 46.5196L38.8495 49.2303L30.557 41.0093L41.6093 30.0522L49.9018 38.2732L47.1633 40.9881C47.1633 40.9881 47.1462 41.0051 47.1377 41.0135L41.6136 46.49C41.6136 46.49 41.5923 46.5111 41.5794 46.5238V46.5196ZM45.0699 48.5399C45.0699 48.5399 45.0699 48.5399 45.0656 48.5441L44.3778 49.226C44.1941 49.4081 43.9463 49.5098 43.6857 49.5098C43.4251 49.5098 43.1773 49.4081 42.9936 49.226C42.8099 49.0439 42.7073 48.7983 42.7073 48.5399C42.7073 48.2815 42.8056 48.0486 42.9807 47.8665L48.5304 42.3647C48.9106 41.9962 49.5259 42.0004 49.9018 42.3731C50.0855 42.5552 50.1881 42.8009 50.1881 43.0592C50.1881 43.3176 50.0855 43.559 49.9018 43.7454L49.2183 44.4231C49.2183 44.4231 49.2097 44.4315 49.2054 44.4357L45.0699 48.5357V48.5399ZM47.0949 49.2726L49.9488 46.4434L62.0393 56.9006L57.6261 61.2758L47.0907 49.2768L47.0949 49.2726ZM58.9163 62.7371L63.5175 58.1755L64.9957 59.4504L60.2023 64.2025L58.9163 62.7371ZM71.4939 69.0351C70.8616 70.1533 69.7978 70.886 68.5674 71.0554C67.3412 71.2249 66.1364 70.8225 65.2649 69.9584C65.188 69.8822 65.1196 69.806 65.0513 69.7297C65.0513 69.7297 65.047 69.7213 65.0427 69.717L61.4882 65.6679L66.4697 60.7295L70.5497 64.2576C70.5497 64.2576 70.554 64.2618 70.5582 64.266C70.8616 64.5244 71.135 64.8336 71.3657 65.1851C72.1048 66.316 72.1561 67.8662 71.4939 69.0351Z" fill="white"/>
<path d="M42.3014 33.4761C41.9212 33.0991 41.3017 33.0991 40.9215 33.4761L36.7774 37.5845C36.3971 37.9614 36.3971 38.5756 36.7774 38.9525C36.9696 39.1431 37.2174 39.2363 37.4695 39.2363C37.7215 39.2363 37.9693 39.1431 38.1616 38.9525L42.3057 34.8442C42.6859 34.4672 42.6859 33.853 42.3057 33.4761H42.3014Z" fill="white"/>
</svg>
