<svg width="98" height="97" viewBox="0 0 98 97" fill="none" xmlns="http://www.w3.org/2000/svg">
<path d="M48.8296 96.7218C75.5386 96.7218 97.1905 75.0699 97.1905 48.3609C97.1905 21.6519 75.5386 0 48.8296 0C22.1207 0 0.46875 21.6519 0.46875 48.3609C0.46875 75.0699 22.1207 96.7218 48.8296 96.7218Z" fill="#E9B020"/>
<path d="M75.2025 56.0171H45.5273V27.8105H75.2025V56.0171ZM47.0119 54.5454H73.718V29.2823H47.0119V54.5454Z" fill="white"/>
<path d="M73.5717 29.2821H46.2638C45.3652 29.2821 44.6328 28.5561 44.6328 27.6652V25.3025C44.6328 24.4116 45.3652 23.6855 46.2638 23.6855H73.5717C74.4703 23.6855 75.2027 24.4116 75.2027 25.3025V27.6652C75.2027 28.5561 74.4703 29.2821 73.5717 29.2821ZM46.2638 25.1573C46.1847 25.1573 46.1174 25.224 46.1174 25.3025V27.6652C46.1174 27.7476 46.1847 27.8104 46.2638 27.8104H73.5717C73.6508 27.8104 73.7181 27.7437 73.7181 27.6652V25.3025C73.7181 25.2201 73.6508 25.1573 73.5717 25.1573H46.2638Z" fill="white"/>
<path d="M73.5717 60.1415H46.2638C45.3652 60.1415 44.6328 59.4154 44.6328 58.5245V56.1619C44.6328 55.271 45.3652 54.5449 46.2638 54.5449H73.5717C74.4703 54.5449 75.2027 55.271 75.2027 56.1619V58.5245C75.2027 59.4154 74.4703 60.1415 73.5717 60.1415ZM46.2638 56.0167C46.1847 56.0167 46.1174 56.0834 46.1174 56.1619V58.5245C46.1174 58.607 46.1847 58.6697 46.2638 58.6697H73.5717C73.6508 58.6697 73.7181 58.603 73.7181 58.5245V56.1619C73.7181 56.0795 73.6508 56.0167 73.5717 56.0167H46.2638Z" fill="white"/>
<path d="M73.3909 66.6486H66.9064C66.4947 66.6486 66.1661 66.3189 66.1661 65.9147C66.1661 65.5104 66.4987 65.1807 66.9064 65.1807H73.3909C73.5731 65.1807 73.7195 65.0355 73.7195 64.855V60.1886H48.2209V64.855C48.2209 65.0355 48.3674 65.1807 48.5495 65.1807H52.9833C53.395 65.1807 53.7236 65.5104 53.7236 65.9147C53.7236 66.3189 53.3911 66.6486 52.9833 66.6486H48.5495C47.5479 66.6486 46.7363 65.8401 46.7363 64.8511V58.7129H75.2041V64.8511C75.2041 65.844 74.3886 66.6486 73.3909 66.6486Z" fill="white"/>
<path d="M59.9187 73.1164C55.9124 73.1164 52.6543 69.8864 52.6543 65.9147C52.6543 61.9429 55.9124 58.7129 59.9187 58.7129C63.925 58.7129 67.1831 61.9429 67.1831 65.9147C67.1831 69.8864 63.925 73.1164 59.9187 73.1164ZM59.9187 60.1846C56.7319 60.1846 54.1388 62.7553 54.1388 65.9147C54.1388 69.074 56.7319 71.6447 59.9187 71.6447C63.1055 71.6447 65.6986 69.074 65.6986 65.9147C65.6986 62.7553 63.1055 60.1846 59.9187 60.1846Z" fill="white"/>
<path d="M59.9204 69.597C57.8737 69.597 56.207 67.9448 56.207 65.9157C56.207 63.8867 57.8737 62.2344 59.9204 62.2344C61.9671 62.2344 63.6337 63.8867 63.6337 65.9157C63.6337 67.9448 61.9671 69.597 59.9204 69.597ZM59.9204 63.7061C58.6892 63.7061 57.6916 64.6991 57.6916 65.9157C57.6916 67.1324 58.6932 68.1253 59.9204 68.1253C61.1476 68.1253 62.1492 67.1324 62.1492 65.9157C62.1492 64.6991 61.1476 63.7061 59.9204 63.7061Z" fill="white"/>
<path d="M24.8149 73.2936H20.6106C20.1039 73.2936 19.6684 72.9717 19.5219 72.489C19.3794 72.0063 19.5655 71.5 19.9891 71.2253L44.9335 55.1145C45.2779 54.8947 45.7371 54.9889 45.9588 55.3304C46.1845 55.6718 46.0855 56.1271 45.7411 56.3469L21.7903 71.8218H24.7119L45.365 58.8272C45.7094 58.6114 46.1686 58.7134 46.3903 59.0549C46.6081 59.4002 46.5051 59.8516 46.1607 60.0714L25.4206 73.1209C25.2385 73.2347 25.0286 73.2936 24.8109 73.2936H24.8149Z" fill="white"/>
<path d="M29.7184 61.4328C29.4729 61.4328 29.2354 61.3151 29.0929 61.0953C28.8712 60.7538 28.9702 60.2986 29.3146 60.0788L31.48 58.6973C31.8244 58.4775 32.2837 58.5757 32.5054 58.9171C32.7271 59.2585 32.6281 59.7138 32.2837 59.9336L30.1182 61.3151C29.9955 61.3936 29.8569 61.4328 29.7184 61.4328Z" fill="white"/>
<path d="M29.136 65.3451C28.653 65.3451 28.1819 65.1096 27.9008 64.6779L20.9373 53.9439C20.5018 53.2689 20.6958 52.3701 21.3767 51.9384L32.2041 45.0349C32.885 44.6032 33.7915 44.7955 34.227 45.4705L39.3814 53.418C39.6031 53.7594 39.5041 54.2147 39.1597 54.4345C38.8153 54.6543 38.356 54.5562 38.1343 54.2147L32.98 46.2673L22.1804 53.1786L29.1518 63.8851L39.9514 56.9737L39.3537 56.0907C39.132 55.7492 39.2309 55.294 39.5753 55.0742C39.9198 54.8544 40.379 54.9525 40.6007 55.294L41.1905 56.2045C41.626 56.8796 41.432 57.7783 40.7511 58.2139L29.9238 65.1174C29.6783 65.2744 29.4052 65.349 29.132 65.349L29.136 65.3451Z" fill="white"/>
<path d="M29.2863 56.004C28.8785 56.004 28.4985 55.7999 28.2768 55.4584L25.3116 50.8901C25.0899 50.5487 25.1889 50.0934 25.5333 49.8737C25.8777 49.6539 26.337 49.752 26.5586 50.0934L29.2546 54.2497L29.4486 53.8768C29.7336 53.3234 30.2997 52.9663 30.9252 52.9388L31.3211 52.9231L28.5737 48.6923C28.352 48.3509 28.451 47.8956 28.7954 47.6758C29.1398 47.4561 29.599 47.5542 29.8207 47.8956L32.8373 52.5424C33.0709 52.8996 33.0907 53.3588 32.8927 53.7355C32.6948 54.1123 32.3068 54.3595 31.8793 54.3752L30.9846 54.4106C30.8935 54.4106 30.8104 54.4655 30.7708 54.5479L30.3551 55.3603C30.1612 55.7371 29.7732 55.9844 29.3456 56.0079C29.3259 56.0079 29.3061 56.0079 29.2863 56.0079V56.004Z" fill="white"/>
<path d="M18.7926 60.5383C18.5471 60.5383 18.3096 60.4205 18.1671 60.2008C17.9454 59.8593 18.0444 59.4041 18.3888 59.1843L20.5543 57.8028C20.8987 57.583 21.3579 57.6811 21.5796 58.0226C21.8013 58.364 21.7023 58.8193 21.3579 59.0391L19.1924 60.4205C19.0697 60.499 18.9311 60.5383 18.7926 60.5383Z" fill="white"/>
<path d="M18.9215 64.4606C18.676 64.4606 18.4385 64.3428 18.296 64.1231C18.0743 63.7816 18.1733 63.3264 18.5177 63.1066L22.1281 60.8028C22.4725 60.583 22.9318 60.6811 23.1535 61.0226C23.3751 61.364 23.2762 61.8193 22.9318 62.0391L19.3213 64.3428C19.1986 64.4213 19.06 64.4606 18.9215 64.4606Z" fill="white"/>
<path d="M18.9215 68.4074C18.676 68.4074 18.4385 68.2896 18.296 68.0699C18.0743 67.7284 18.1733 67.2732 18.5177 67.0534L23.9333 63.5997C24.2778 63.3799 24.737 63.478 24.9587 63.8194C25.1804 64.1609 25.0814 64.6162 24.737 64.8359L19.3213 68.2896C19.1986 68.3681 19.06 68.4074 18.9215 68.4074Z" fill="white"/>
<path d="M50.4258 52.5132C50.0141 52.5132 49.6855 52.1835 49.6855 51.7792V31.7124C49.6855 31.3043 50.0181 30.9785 50.4258 30.9785C50.8336 30.9785 51.1661 31.3082 51.1661 31.7124V51.7792C51.1661 52.1874 50.8336 52.5132 50.4258 52.5132Z" fill="white"/>
<path d="M54.6329 52.5132C54.2212 52.5132 53.8926 52.1835 53.8926 51.7792V31.7124C53.8926 31.3043 54.2251 30.9785 54.6329 30.9785C55.0406 30.9785 55.3732 31.3082 55.3732 31.7124V51.7792C55.3732 52.1874 55.0406 52.5132 54.6329 52.5132Z" fill="white"/>
<path d="M58.6309 52.5132C58.2192 52.5132 57.8906 52.1835 57.8906 51.7792V31.7124C57.8906 31.3043 58.2232 30.9785 58.6309 30.9785C59.0387 30.9785 59.3712 31.3082 59.3712 31.7124V51.7792C59.3712 52.1874 59.0387 52.5132 58.6309 52.5132Z" fill="white"/>
<path d="M62.4161 52.5132C62.0044 52.5132 61.6758 52.1835 61.6758 51.7792V31.7124C61.6758 31.3043 62.0083 30.9785 62.4161 30.9785C62.8238 30.9785 63.1564 31.3082 63.1564 31.7124V51.7792C63.1564 52.1874 62.8238 52.5132 62.4161 52.5132Z" fill="white"/>
<path d="M66.4434 52.5132C66.0317 52.5132 65.7031 52.1835 65.7031 51.7792V31.7124C65.7031 31.3043 66.0357 30.9785 66.4434 30.9785C66.8512 30.9785 67.1837 31.3082 67.1837 31.7124V51.7792C67.1837 52.1874 66.8512 52.5132 66.4434 52.5132Z" fill="white"/>
<path d="M70.5176 52.5132C70.1059 52.5132 69.7773 52.1835 69.7773 51.7792V31.7124C69.7773 31.3043 70.1099 30.9785 70.5176 30.9785C70.9254 30.9785 71.2579 31.3082 71.2579 31.7124V51.7792C71.2579 52.1874 70.9254 52.5132 70.5176 52.5132Z" fill="white"/>
<path d="M26.8586 45.5727C26.6171 45.5727 26.3835 45.4589 26.241 45.243C26.0153 44.9055 26.1064 44.4503 26.4469 44.2226L31.5854 40.8356C31.9258 40.6119 32.3851 40.7022 32.6147 41.0397C32.8403 41.3772 32.7493 41.8364 32.4088 42.0601L27.2703 45.4471C27.1436 45.5295 27.0011 45.5688 26.8586 45.5688V45.5727Z" fill="white"/>
<path d="M34.7547 40.3648C34.7072 40.3648 34.6558 40.3608 34.6083 40.3491L31.6431 39.7564C31.2393 39.674 30.982 39.2894 31.0612 38.8891C31.1403 38.4888 31.5323 38.2297 31.9361 38.3122L34.9012 38.9048C35.305 38.9872 35.5623 39.3718 35.4832 39.7721C35.4119 40.1214 35.1031 40.3608 34.7547 40.3608V40.3648Z" fill="white"/>
<path d="M34.1625 43.3053C34.115 43.3053 34.0635 43.3014 34.016 43.2896C33.6162 43.2072 33.3549 42.8226 33.4341 42.4223L34.0318 39.4827C34.115 39.0863 34.5029 38.8233 34.9067 38.9058C35.3066 38.9882 35.5679 39.3728 35.4887 39.7731L34.8909 42.7127C34.8196 43.062 34.5109 43.3014 34.1625 43.3014V43.3053Z" fill="white"/>
</svg>
