<svg width="98" height="97" viewBox="0 0 98 97" fill="none" xmlns="http://www.w3.org/2000/svg">
<path d="M48.98 96.7218C75.689 96.7218 97.3409 75.0699 97.3409 48.3609C97.3409 21.6519 75.689 0 48.98 0C22.271 0 0.619141 21.6519 0.619141 48.3609C0.619141 75.0699 22.271 96.7218 48.98 96.7218Z" fill="#E9B020"/>
<path d="M53.713 74.7391C52.4618 74.7391 51.3466 73.853 50.2586 72.9977C49.5968 72.4713 48.6856 71.7519 48.2459 71.7519C47.8061 71.7519 46.8995 72.4713 46.2376 72.9977C45.0499 73.9364 43.699 75.0067 42.2166 74.6777C40.6843 74.3399 39.9363 72.7827 39.2745 71.4053C38.9435 70.7166 38.4449 69.677 38.0867 69.5103C37.7105 69.3304 36.5409 69.6068 35.7657 69.7866C34.2561 70.1376 32.5516 70.5324 31.3412 69.6024C30.1308 68.6637 30.1489 66.9617 30.1716 65.4571C30.1807 64.6894 30.1943 63.5314 29.9404 63.2199C29.6865 62.9129 28.5215 62.6716 27.7508 62.5137C26.2231 62.1979 24.4959 61.8382 23.8159 60.4783C23.1495 59.1404 23.9292 57.6227 24.6138 56.2804C24.9719 55.5873 25.5114 54.5345 25.4162 54.1353C25.33 53.7757 24.4052 53.0782 23.7887 52.6176C22.5466 51.6832 21.1367 50.6261 21.1367 49.0952C21.1367 47.5643 22.5466 46.5071 23.7887 45.5727C24.4007 45.1121 25.33 44.4147 25.4162 44.055C25.5114 43.6514 24.9719 42.603 24.6138 41.9056C23.9247 40.5676 23.1495 39.0499 23.8159 37.7076C24.4959 36.3477 26.2231 35.988 27.7508 35.6722C28.5215 35.5143 29.6911 35.273 29.9404 34.966C30.1988 34.6545 30.1807 33.4965 30.1716 32.7288C30.1535 31.2242 30.1308 29.5178 31.3412 28.5835C32.547 27.6492 34.2561 28.0483 35.7657 28.3992C36.5409 28.5791 37.7105 28.8511 38.0867 28.6756C38.4449 28.5089 38.9435 27.4693 39.2745 26.7806C39.9363 25.4076 40.6843 23.846 42.2166 23.5082C43.699 23.1836 45.0499 24.2496 46.2376 25.1883C46.8995 25.7147 47.8107 26.4341 48.2504 26.4341C48.6901 26.4341 49.5968 25.7147 50.2586 25.1883C51.4464 24.2452 52.7973 23.1792 54.2797 23.5082C55.8119 23.846 56.5599 25.4032 57.2218 26.7806C57.5527 27.4693 58.0514 28.5089 58.4095 28.6756C58.7858 28.8511 59.9554 28.5791 60.7306 28.3992C62.2402 28.0483 63.9492 27.6535 65.1551 28.5835C66.3655 29.5222 66.3473 31.2242 66.3247 32.7288C66.3156 33.4965 66.302 34.6545 66.5559 34.966C66.8097 35.2687 67.9748 35.5143 68.7454 35.6722C70.2732 35.988 72.0004 36.3477 72.6804 37.7076C73.3467 39.0455 72.567 40.5633 71.8825 41.9056C71.5244 42.5986 70.9849 43.6514 71.0801 44.0506C71.1662 44.4103 72.091 45.1077 72.7076 45.5683C73.9497 46.5027 75.3595 47.5599 75.3595 49.0908C75.3595 50.6217 73.9497 51.6789 72.7076 52.6132C72.0956 53.0738 71.1662 53.7713 71.0801 54.1353C70.9849 54.5389 71.5244 55.5873 71.8825 56.2804C72.5716 57.6183 73.3467 59.136 72.6804 60.4783C72.0004 61.8382 70.2732 62.1979 68.7454 62.5093C67.9748 62.6716 66.8052 62.9129 66.5559 63.2156C66.302 63.527 66.3156 64.6851 66.3247 65.4527C66.3428 66.9573 66.3655 68.6637 65.1551 69.5981C63.9492 70.5324 62.2402 70.1332 60.7306 69.7823C59.9554 69.6025 58.7858 69.3305 58.4095 69.506C58.0514 69.6726 57.5527 70.7122 57.2218 71.3965C56.5599 72.7739 55.8119 74.3311 54.2797 74.6689C54.0893 74.7128 53.8989 74.7303 53.713 74.7303V74.7391ZM37.7059 67.0714C38.2182 67.0714 38.7078 67.1504 39.1566 67.3609C40.3035 67.8961 40.9155 69.1681 41.5048 70.3964C41.7995 71.0061 42.407 72.2695 42.7606 72.3484C43.087 72.4055 44.1614 71.5545 44.6736 71.1465C45.7797 70.2692 46.9267 69.3656 48.2459 69.3656C49.5651 69.3656 50.7074 70.2736 51.8181 71.1465C52.3304 71.5545 53.373 72.3879 53.7357 72.3484C54.0893 72.2695 54.6968 71.0061 54.9914 70.3964C55.5807 69.1681 56.1927 67.8961 57.3397 67.3609C58.5093 66.817 59.9327 67.146 61.3063 67.4662C61.9682 67.6197 63.3508 67.9399 63.6183 67.7381C63.8903 67.5276 63.8722 66.1502 63.8631 65.4878C63.8449 64.1192 63.8268 62.7067 64.6337 61.7329C65.4361 60.7635 66.8596 60.4696 68.2332 60.1844C68.9086 60.0441 70.3094 59.7546 70.4636 59.4475C70.6086 59.158 69.9785 57.9341 69.6793 57.3463C69.0492 56.1137 68.3919 54.8416 68.682 53.609C68.963 52.4158 70.1009 51.5604 71.2025 50.7314C71.7964 50.2839 72.9025 49.4549 72.9025 49.0908C72.9025 48.7267 71.7964 47.8976 71.2025 47.4502C70.1009 46.6255 68.963 45.7701 68.682 44.5726C68.3919 43.34 69.0446 42.0679 69.6793 40.8352C69.9785 40.2474 70.6086 39.0236 70.4636 38.7341C70.3094 38.427 68.9086 38.1375 68.2332 37.9971C66.8551 37.712 65.4316 37.4181 64.6337 36.4486C63.8268 35.4704 63.8449 34.058 63.8631 32.6937C63.8722 32.0314 63.8903 30.6496 63.6183 30.439C63.3554 30.2329 61.9727 30.5575 61.3063 30.711C59.9282 31.0312 58.5093 31.3646 57.3397 30.8163C56.1927 30.2811 55.5807 29.009 54.9914 27.7808C54.6968 27.171 54.0893 25.9077 53.7357 25.8287C53.3957 25.7717 52.3349 26.6227 51.8181 27.0306C50.712 27.908 49.5651 28.816 48.2459 28.816C46.9267 28.816 45.7843 27.908 44.6736 27.0306C44.1614 26.6227 43.087 25.7761 42.756 25.8287C42.4024 25.9077 41.795 27.171 41.5003 27.7808C40.911 29.009 40.299 30.2811 39.1521 30.8163C37.9825 31.3602 36.559 31.0312 35.1854 30.711C34.5236 30.5575 33.1409 30.2372 32.8734 30.439C32.6014 30.6496 32.6196 32.027 32.6286 32.6937C32.6468 34.0623 32.6649 35.4748 31.858 36.4486C31.0556 37.4181 29.6321 37.712 28.2585 37.9971C27.5831 38.1375 26.1823 38.427 26.0282 38.7341C25.8831 39.0236 26.5132 40.2474 26.8124 40.8352C27.4425 42.0679 28.0999 43.34 27.8097 44.5726C27.5287 45.7658 26.3908 46.6211 25.2892 47.4502C24.6954 47.8976 23.5892 48.7267 23.5892 49.0908C23.5892 49.4549 24.6954 50.2839 25.2892 50.7314C26.3908 51.556 27.5287 52.4114 27.8097 53.6046C28.0999 54.8372 27.4471 56.1093 26.8124 57.3419C26.5132 57.9297 25.8831 59.1536 26.0282 59.4431C26.1823 59.7502 27.5831 60.0397 28.2585 60.18C29.6367 60.4652 31.0601 60.7591 31.858 61.7285C32.6649 62.7067 32.6468 64.1192 32.6286 65.4834C32.6196 66.1458 32.6014 67.5276 32.8734 67.7381C33.1364 67.9399 34.519 67.6197 35.1854 67.4662C36.0286 67.2688 36.8899 67.067 37.7014 67.067L37.7059 67.0714ZM40.4939 58.285L57.7477 41.5897C58.2282 41.1247 58.2282 40.3702 57.7477 39.9053C57.2671 39.4403 56.4874 39.4403 56.0069 39.9053L38.7531 56.6006C38.2726 57.0656 38.2726 57.8201 38.7531 58.285C38.9934 58.5175 39.3107 58.636 39.6235 58.636C39.9363 58.636 40.2537 58.5175 40.4939 58.285ZM42.0896 47.3054C39.7097 47.3054 37.7739 45.4324 37.7739 43.1294C37.7739 40.8264 39.7097 38.9534 42.0896 38.9534C44.4696 38.9534 46.4053 40.8264 46.4053 43.1294C46.4053 45.4324 44.4696 47.3054 42.0896 47.3054ZM42.0896 41.3441C41.0696 41.3441 40.24 42.1468 40.24 43.1338C40.24 44.1208 41.0696 44.9235 42.0896 44.9235C43.1096 44.9235 43.9392 44.1208 43.9392 43.1338C43.9392 42.1468 43.1096 41.3441 42.0896 41.3441ZM54.4157 59.2326C52.0357 59.2326 50.1 57.3595 50.1 55.0565C50.1 52.7536 52.0357 50.8805 54.4157 50.8805C56.7957 50.8805 58.7314 52.7536 58.7314 55.0565C58.7314 57.3595 56.7957 59.2326 54.4157 59.2326ZM54.4157 53.2712C53.3957 53.2712 52.5661 54.0739 52.5661 55.0609C52.5661 56.0479 53.3957 56.8506 54.4157 56.8506C55.4357 56.8506 56.2653 56.0479 56.2653 55.0609C56.2653 54.0739 55.4357 53.2712 54.4157 53.2712Z" fill="white"/>
</svg>
