<svg width="98" height="97" viewBox="0 0 98 97" fill="none" xmlns="http://www.w3.org/2000/svg">
<path d="M48.6597 96.7218C75.3687 96.7218 97.0206 75.0699 97.0206 48.3609C97.0206 21.6519 75.3687 0 48.6597 0C21.9507 0 0.298828 21.6519 0.298828 48.3609C0.298828 75.0699 21.9507 96.7218 48.6597 96.7218Z" fill="#E9B020"/>
<path d="M31.2628 39.9532L30.8598 39.6699C30.7938 39.6238 29.202 38.4908 27.5309 36.7583C27.2799 36.4948 27.2865 36.0797 27.5507 35.8294C27.8149 35.5791 28.231 35.5857 28.482 35.8492C29.5784 36.9822 30.6551 37.865 31.2165 38.2997C32.63 37.1008 37.4055 32.8189 37.4055 29.4527C37.4055 26.0865 34.638 23.2999 31.2363 23.2999C27.8347 23.2999 25.0671 26.0601 25.0671 29.4527C25.0671 30.6845 25.5691 32.0482 26.5533 33.5106C26.758 33.8136 26.6788 34.2221 26.3749 34.4263C26.0711 34.6305 25.6616 34.5514 25.4568 34.2484C24.3207 32.562 23.7461 30.9481 23.7461 29.4527C23.7461 25.3355 27.1081 21.9824 31.2363 21.9824C35.3645 21.9824 38.7266 25.3355 38.7266 29.4527C38.7266 34.0178 31.9365 39.4262 31.6458 39.6568L31.2561 39.9598L31.2628 39.9532Z" fill="white"/>
<path d="M31.2423 33.09C29.2079 33.09 27.5566 31.4431 27.5566 29.4141C27.5566 27.3852 29.2079 25.7383 31.2423 25.7383C33.2767 25.7383 34.928 27.3852 34.928 29.4141C34.928 31.4431 33.2767 33.09 31.2423 33.09ZM31.2423 27.0492C29.9345 27.0492 28.8777 28.1098 28.8777 29.4075C28.8777 30.7053 29.9411 31.7659 31.2423 31.7659C32.5435 31.7659 33.607 30.7053 33.607 29.4075C33.607 28.1098 32.5435 27.0492 31.2423 27.0492Z" fill="white"/>
<path d="M66.9444 65.7657L66.5415 65.4824C66.4754 65.4363 64.8836 64.3033 63.2125 62.5707C62.9615 62.3072 62.9681 61.8922 63.2323 61.6419C63.4965 61.3916 63.9126 61.3982 64.1636 61.6617C65.2601 62.8013 66.3367 63.6775 66.8982 64.1122C68.3117 62.9199 73.0872 58.6314 73.0872 55.2652C73.0872 51.899 70.3196 49.1124 66.918 49.1124C63.5163 49.1124 60.7488 51.8726 60.7488 55.2652C60.7488 56.497 61.2508 57.8607 62.2349 59.3231C62.4397 59.6261 62.3604 60.0346 62.0566 60.2388C61.7528 60.443 61.3432 60.3573 61.1385 60.0609C60.0024 58.3745 59.4277 56.7605 59.4277 55.2652C59.4277 51.148 62.7898 47.7949 66.918 47.7949C71.0462 47.7949 74.4082 51.148 74.4082 55.2652C74.4082 59.8303 67.6181 65.2387 67.3275 65.4693L66.9378 65.7723L66.9444 65.7657Z" fill="white"/>
<path d="M66.9259 58.9083C64.8915 58.9083 63.2402 57.2614 63.2402 55.2325C63.2402 53.2035 64.8915 51.5566 66.9259 51.5566C68.9603 51.5566 70.6116 53.2035 70.6116 55.2325C70.6116 57.2614 68.9603 58.9083 66.9259 58.9083ZM66.9259 52.8676C65.6181 52.8676 64.5613 53.9282 64.5613 55.2259C64.5613 56.5236 65.6247 57.5842 66.9259 57.5842C68.2271 57.5842 69.2906 56.5236 69.2906 55.2259C69.2906 53.9282 68.2271 52.8676 66.9259 52.8676Z" fill="white"/>
<path d="M31.2427 44.8618C29.5716 44.8618 28.2109 43.5048 28.2109 41.8381C28.2109 40.1715 29.5716 38.8145 31.2427 38.8145C32.9138 38.8145 34.2745 40.1715 34.2745 41.8381C34.2745 43.5048 32.9138 44.8618 31.2427 44.8618ZM31.2427 40.1254C30.2982 40.1254 29.532 40.8895 29.532 41.8315C29.532 42.7736 30.2982 43.5377 31.2427 43.5377C32.1872 43.5377 32.9534 42.7736 32.9534 41.8315C32.9534 40.8895 32.1872 40.1254 31.2427 40.1254Z" fill="white"/>
<path d="M48.7603 44.8618C47.0892 44.8618 45.7285 43.5048 45.7285 41.8381C45.7285 40.1715 47.0892 38.8145 48.7603 38.8145C50.4314 38.8145 51.792 40.1715 51.792 41.8381C51.792 43.5048 50.4314 44.8618 48.7603 44.8618ZM48.7603 40.1254C47.8157 40.1254 47.0495 40.8895 47.0495 41.8315C47.0495 42.7736 47.8157 43.5377 48.7603 43.5377C49.7048 43.5377 50.471 42.7736 50.471 41.8315C50.471 40.8895 49.7048 40.1254 48.7603 40.1254Z" fill="white"/>
<path d="M37.1997 57.9985C35.5286 57.9985 34.168 56.6415 34.168 54.9748C34.168 53.3082 35.5286 51.9512 37.1997 51.9512C38.8708 51.9512 40.2315 53.3082 40.2315 54.9748C40.2315 56.6415 38.8708 57.9985 37.1997 57.9985ZM37.1997 53.2621C36.2552 53.2621 35.489 54.0262 35.489 54.9683C35.489 55.9103 36.2552 56.6744 37.1997 56.6744C38.1443 56.6744 38.9105 55.9103 38.9105 54.9683C38.9105 54.0262 38.1443 53.2621 37.1997 53.2621Z" fill="white"/>
<path d="M49.3208 71.0005C47.6497 71.0005 46.2891 69.6434 46.2891 67.9768C46.2891 66.3102 47.6497 64.9531 49.3208 64.9531C50.9919 64.9531 52.3526 66.3102 52.3526 67.9768C52.3526 69.6434 50.9919 71.0005 49.3208 71.0005ZM49.3208 66.264C48.3763 66.264 47.6101 67.0282 47.6101 67.9702C47.6101 68.9122 48.3763 69.6764 49.3208 69.6764C50.2654 69.6764 51.0316 68.9122 51.0316 67.9702C51.0316 67.0282 50.2654 66.264 49.3208 66.264Z" fill="white"/>
<path d="M66.9243 71.0005C65.2532 71.0005 63.8926 69.6434 63.8926 67.9768C63.8926 66.3102 65.2532 64.9531 66.9243 64.9531C68.5954 64.9531 69.9561 66.3102 69.9561 67.9768C69.9561 69.6434 68.5954 71.0005 66.9243 71.0005ZM66.9243 66.264C65.9798 66.264 65.2136 67.0282 65.2136 67.9702C65.2136 68.9122 65.9798 69.6764 66.9243 69.6764C67.8689 69.6764 68.6351 68.9122 68.6351 67.9702C68.6351 67.0282 67.8689 66.264 66.9243 66.264Z" fill="white"/>
<path d="M64.4126 68.7628H52.0082C51.6449 68.7628 51.3477 68.4664 51.3477 68.1041C51.3477 67.7418 51.6449 67.4453 52.0082 67.4453H64.4126C64.7759 67.4453 65.0732 67.7418 65.0732 68.1041C65.0732 68.4664 64.7759 68.7628 64.4126 68.7628Z" fill="white"/>
<path d="M46.6897 68.7618H33.0434C29.12 68.7618 25.9297 65.58 25.9297 61.667C25.9297 57.754 29.12 54.5723 33.0434 54.5723H34.5296C34.8929 54.5723 35.1901 54.8687 35.1901 55.231C35.1901 55.5933 34.8929 55.8898 34.5296 55.8898H33.0434C29.8466 55.8898 27.2507 58.4853 27.2507 61.667C27.2507 64.8488 29.8532 67.4443 33.0434 67.4443H46.6897C47.0529 67.4443 47.3502 67.7407 47.3502 68.1031C47.3502 68.4654 47.0529 68.7618 46.6897 68.7618Z" fill="white"/>
<path d="M47.8469 55.8918H39.934C39.5707 55.8918 39.2734 55.5953 39.2734 55.233C39.2734 54.8707 39.5707 54.5743 39.934 54.5743H47.8469C51.0438 54.5743 53.6396 51.9788 53.6396 48.797V48.2766C53.6396 46.2937 52.6422 44.4756 50.9645 43.4084C50.6541 43.2108 50.5682 42.8024 50.7664 42.4993C50.9645 42.1963 51.3741 42.1041 51.6779 42.3017C53.7321 43.6126 54.9607 45.8458 54.9607 48.2832V48.8036C54.9607 52.7166 51.7704 55.8984 47.8469 55.8984V55.8918Z" fill="white"/>
<path d="M46.1552 42.4913H34.266C33.9027 42.4913 33.6055 42.1949 33.6055 41.8326C33.6055 41.4703 33.9027 41.1738 34.266 41.1738H46.1552C46.5185 41.1738 46.8158 41.4703 46.8158 41.8326C46.8158 42.1949 46.5185 42.4913 46.1552 42.4913Z" fill="white"/>
<path d="M47.2927 57.6294C47.1209 57.6294 46.9558 57.5635 46.8237 57.4384L44.5449 55.1657L46.6916 53.0247C46.9492 52.7678 47.3653 52.7678 47.6229 53.0247C47.8805 53.2816 47.8805 53.6966 47.6229 53.9536L46.4142 55.1591L47.755 56.4963C48.0126 56.7533 48.0126 57.1683 47.755 57.4252C47.6229 57.5569 47.4578 57.6162 47.2861 57.6162L47.2927 57.6294Z" fill="white"/>
<path d="M36.472 70.4561C36.3003 70.4561 36.1351 70.3902 36.003 70.265C35.7454 70.0081 35.7454 69.5931 36.003 69.3362L37.2118 68.1307L35.8709 66.7934C35.6133 66.5365 35.6133 66.1215 35.8709 65.8646C36.1285 65.6076 36.5446 65.6076 36.8022 65.8646L39.081 68.1373L36.9344 70.2782C36.8023 70.41 36.6371 70.4692 36.4654 70.4692L36.472 70.4561Z" fill="white"/>
</svg>
