<svg width="97" height="97" viewBox="0 0 97 97" fill="none" xmlns="http://www.w3.org/2000/svg">
<path d="M48.4878 96.7218C75.1968 96.7218 96.8487 75.0699 96.8487 48.3609C96.8487 21.6519 75.1968 0 48.4878 0C21.7789 0 0.126953 21.6519 0.126953 48.3609C0.126953 75.0699 21.7789 96.7218 48.4878 96.7218Z" fill="#E9B020"/>
<path d="M25.9325 53.0396C25.5792 53.0396 25.293 52.7558 25.293 52.4056V39.8191C25.293 37.5625 27.1444 35.7227 29.4251 35.7227H63.1393C65.4156 35.7227 67.2714 37.5581 67.2714 39.8191V46.0614C67.2714 46.4116 66.9852 46.6954 66.6319 46.6954C66.2787 46.6954 65.9924 46.4116 65.9924 46.0614V39.8191C65.9924 38.2586 64.7135 36.9906 63.1393 36.9906H29.4251C27.8509 36.9906 26.572 38.2586 26.572 39.8191V52.4056C26.572 52.7558 26.2857 53.0396 25.9325 53.0396Z" fill="white"/>
<path d="M63.1393 68.875H29.4251C27.1488 68.875 25.293 67.0396 25.293 64.7786V56.5324C25.293 56.1822 25.5792 55.8984 25.9325 55.8984C26.2857 55.8984 26.572 56.1822 26.572 56.5324V64.7786C26.572 66.3391 27.8509 67.6071 29.4251 67.6071H63.1393C64.7135 67.6071 65.9924 66.3391 65.9924 64.7786V58.5097C65.9924 58.1595 66.2787 57.8757 66.6319 57.8757C66.9852 57.8757 67.2714 58.1595 67.2714 58.5097V64.7786C67.2714 67.0352 65.42 68.875 63.1393 68.875Z" fill="white"/>
<path d="M71.0756 58.821H51.6359C47.9599 58.821 44.9727 55.855 44.9727 52.2152C44.9727 48.5753 47.9644 45.6094 51.6359 45.6094H71.0756V58.8254V58.821ZM51.6359 46.8729C48.6665 46.8729 46.2472 49.2669 46.2472 52.2152C46.2472 55.1634 48.662 57.553 51.6359 57.553H69.7966V46.8729H51.6359Z" fill="white"/>
<path d="M51.4811 54.6771C50.1082 54.6771 48.9902 53.5688 48.9902 52.2077C48.9902 50.8466 50.1082 49.7383 51.4811 49.7383C52.854 49.7383 53.972 50.8466 53.972 52.2077C53.972 53.5688 52.854 54.6771 51.4811 54.6771ZM51.4811 51.0062C50.8103 51.0062 50.2692 51.5471 50.2692 52.2077C50.2692 52.8683 50.8148 53.4091 51.4811 53.4091C52.1475 53.4091 52.693 52.8683 52.693 52.2077C52.693 51.5471 52.1475 51.0062 51.4811 51.0062Z" fill="white"/>
<path d="M64.4305 36.9876C64.265 36.9876 64.1041 36.9255 63.9788 36.8014L50.8357 23.7716L37.9564 36.5398C37.706 36.7881 37.3035 36.7881 37.0531 36.5398C36.8026 36.2915 36.8026 35.8925 37.0531 35.6443L50.8357 21.9805L64.8822 35.9058C65.1326 36.1541 65.1326 36.5531 64.8822 36.8014C64.757 36.9255 64.5915 36.9876 64.4305 36.9876Z" fill="white"/>
<path d="M30.4481 36.7349C30.2826 36.7349 30.1216 36.6728 29.9964 36.5487C29.746 36.3004 29.746 35.9014 29.9964 35.6531L43.7835 21.9805L47.5042 25.6691C47.7546 25.9173 47.7546 26.3164 47.5042 26.5646C47.2538 26.8129 46.8513 26.8129 46.6009 26.5646L43.7835 23.7716L30.8998 36.5442C30.7745 36.6684 30.6091 36.7305 30.4481 36.7305V36.7349Z" fill="white"/>
</svg>
