<svg width="67" height="67" viewBox="0 0 67 67" fill="none" xmlns="http://www.w3.org/2000/svg">
<g clip-path="url(#clip0_685_3867)">
<path d="M33.5 67C52.0015 67 67 52.0015 67 33.5C67 14.9985 52.0015 0 33.5 0C14.9985 0 0 14.9985 0 33.5C0 52.0015 14.9985 67 33.5 67Z" fill="#E9B020"/>
<g clip-path="url(#clip1_685_3867)">
<path d="M49.626 49.0003H18.374C15.962 49.0003 14 47.0085 14 44.5598V26.7179C14 24.2691 15.962 22.2773 18.374 22.2773H25.6102V23.1646H18.374C16.447 23.1646 14.8739 24.7571 14.8739 26.7179V44.5642C14.8739 46.525 16.4426 48.1175 18.374 48.1175H49.6303C51.5617 48.1175 53.1304 46.525 53.1304 44.5642V26.7179C53.1304 24.7615 51.5617 23.1646 49.6303 23.1646H42.2019V22.2773H49.6303C52.0424 22.2773 54.0044 24.2691 54.0044 26.7179V44.5642C54.0044 47.0129 52.0424 49.0047 49.6303 49.0047L49.626 49.0003Z" fill="white"/>
<path d="M48.5039 46.3959H19.4936C17.8812 46.3959 16.5703 45.0651 16.5703 43.4282V28.208C16.5703 26.5711 17.8812 25.2402 19.4936 25.2402H28.9278V26.1275H19.4936C18.3619 26.1275 17.4442 27.0635 17.4442 28.208V43.4282C17.4442 44.5771 18.3662 45.5087 19.4936 45.5087H48.5039C49.6356 45.5087 50.5533 44.5727 50.5533 43.4282V28.208C50.5533 27.059 49.6313 26.1275 48.5039 26.1275H39.0698V25.2402H48.5039C50.1163 25.2402 51.4272 26.5711 51.4272 28.208V43.4282C51.4272 45.0651 50.1163 46.3959 48.5039 46.3959Z" fill="white"/>
<path d="M41.5816 24.6549H38.6233V23.7677H41.5816C41.6821 23.7677 41.7651 23.6834 41.7651 23.5813V20.4007C41.7651 20.2987 41.6821 20.2144 41.5816 20.2144H26.4188C26.3183 20.2144 26.2353 20.2987 26.2353 20.4007V23.5813C26.2353 23.6834 26.3183 23.7677 26.4188 23.7677H29.2285V24.6549H26.4188C25.8376 24.6549 25.3613 24.1758 25.3613 23.5813V20.4007C25.3613 19.8107 25.8333 19.3271 26.4188 19.3271H41.5816C42.1627 19.3271 42.639 19.8062 42.639 20.4007V23.5813C42.639 24.1713 42.1671 24.6549 41.5816 24.6549Z" fill="white"/>
<path d="M37.399 19.9038H30.6042C30.1934 19.9038 29.8613 19.5666 29.8613 19.1496V16.7541C29.8613 16.3371 30.1934 16 30.6042 16H37.399C37.8098 16 38.1419 16.3371 38.1419 16.7541V19.1541C38.1419 19.571 37.8098 19.9082 37.399 19.9082V19.9038ZM30.7353 19.0165H37.2679V16.8872H30.7353V19.0165Z" fill="white"/>
<path d="M38.5842 28.563H29.4122C28.901 28.563 28.4902 28.1416 28.4902 27.627V24.7036C28.4902 24.1846 28.9054 23.7676 29.4122 23.7676H38.5842C39.0954 23.7676 39.5062 24.189 39.5062 24.7036V27.627C39.5062 28.1416 39.0911 28.563 38.5842 28.563ZM29.4122 24.6548C29.386 24.6548 29.3642 24.677 29.3642 24.7036V27.627C29.3642 27.6536 29.386 27.6758 29.4122 27.6758H38.5842C38.6104 27.6758 38.6322 27.6536 38.6322 27.627V24.7036C38.6322 24.677 38.6104 24.6548 38.5842 24.6548H29.4122Z" fill="white"/>
<path d="M24.5664 35.6299C24.3261 35.6299 24.0901 35.59 23.8979 35.5013C23.5352 35.3504 21.9883 33.7357 21.7961 33.3542C21.5907 32.9461 21.5863 32.2496 21.7829 31.8637C22.0713 31.287 22.6219 30.9365 23.2555 30.9365C23.7406 30.9365 24.1426 31.1273 24.5577 31.5531C24.5664 31.562 24.5708 31.5665 24.5795 31.5753C24.7106 31.4422 24.8898 31.2559 25.1126 31.0164C25.5059 30.5994 26.0259 30.0804 26.2968 29.9428C26.9042 29.6279 27.6252 29.7344 28.1321 30.2134C28.6521 30.7014 28.8137 31.4422 28.5385 32.0988C28.3899 32.4714 25.6851 35.2883 25.2874 35.4791C25.0864 35.5767 24.8286 35.6255 24.5708 35.6255L24.5664 35.6299ZM23.2555 31.8282C22.9496 31.8282 22.7049 31.9879 22.5607 32.2718C22.4952 32.4004 22.4908 32.7864 22.5739 32.9505C22.7181 33.2122 23.9984 34.5342 24.2605 34.6939C24.4091 34.7604 24.75 34.756 24.9073 34.6761C25.2088 34.4721 27.5378 32.0544 27.7432 31.7173C27.883 31.3757 27.7301 31.043 27.5291 30.8567C27.4373 30.7724 27.1096 30.5107 26.6857 30.728C26.6245 30.7635 26.3405 30.9898 25.7375 31.6241C24.8242 32.6045 24.7849 32.6045 24.5839 32.6045C24.4397 32.6045 24.313 32.5734 23.9285 32.1653C23.6488 31.877 23.4609 31.8149 23.2555 31.8149V31.8282Z" fill="white"/>
<path d="M45.7412 31.9439H30.81C30.5697 31.9439 30.373 31.7442 30.373 31.5002C30.373 31.2563 30.5697 31.0566 30.81 31.0566H45.7412C45.9815 31.0566 46.1782 31.2563 46.1782 31.5002C46.1782 31.7442 45.9815 31.9439 45.7412 31.9439Z" fill="white"/>
<path d="M38.8604 34.4858H30.8159C30.5755 34.4858 30.3789 34.2862 30.3789 34.0422C30.3789 33.7983 30.5755 33.5986 30.8159 33.5986H38.8604C39.1008 33.5986 39.2974 33.7983 39.2974 34.0422C39.2974 34.2862 39.1008 34.4858 38.8604 34.4858Z" fill="white"/>
<path d="M24.5658 44.2139C24.3255 44.2139 24.0896 44.174 23.8973 44.0852C23.5346 43.9344 21.9877 42.3197 21.7955 41.9382C21.5901 41.5301 21.5857 40.8336 21.7867 40.4477C22.0751 39.871 22.6257 39.5205 23.2593 39.5205C23.7443 39.5205 24.1464 39.7113 24.5615 40.1371C24.5702 40.146 24.5746 40.1504 24.5833 40.1593C24.7144 40.0262 24.8936 39.8399 25.1164 39.6004C25.5097 39.1834 26.0297 38.6644 26.3006 38.5268C26.908 38.2119 27.629 38.3183 28.1359 38.7974C28.6559 39.2854 28.8175 40.0262 28.5423 40.6828C28.3937 41.0554 25.6889 43.8723 25.2912 44.0631C25.0902 44.1607 24.8324 44.2095 24.5746 44.2095L24.5658 44.2139ZM23.2549 40.4122C22.9491 40.4122 22.7044 40.5719 22.5602 40.8558C22.4903 40.9844 22.4903 41.3704 22.5733 41.5345C22.7175 41.7962 23.9978 43.1182 24.26 43.2779C24.4085 43.3444 24.7494 43.34 24.9067 43.2601C25.2082 43.0561 27.5372 40.6384 27.7426 40.3013C27.8824 39.9597 27.7251 39.627 27.5285 39.4407C27.4367 39.3564 27.109 39.0902 26.6851 39.312C26.624 39.3475 26.3399 39.5737 25.7369 40.2081C24.8237 41.1885 24.7843 41.1885 24.5833 41.1885C24.4391 41.1885 24.3124 41.1574 23.9279 40.7493C23.6482 40.461 23.4603 40.3989 23.2549 40.3989V40.4122Z" fill="white"/>
<path d="M45.7412 40.5278H30.81C30.5697 40.5278 30.373 40.3282 30.373 40.0842C30.373 39.8402 30.5697 39.6406 30.81 39.6406H45.7412C45.9815 39.6406 46.1782 39.8402 46.1782 40.0842C46.1782 40.3282 45.9815 40.5278 45.7412 40.5278Z" fill="white"/>
<path d="M38.8585 43.0698H30.8139C30.5736 43.0698 30.377 42.8702 30.377 42.6262C30.377 42.3822 30.5736 42.1826 30.8139 42.1826H38.8585C39.0988 42.1826 39.2955 42.3822 39.2955 42.6262C39.2955 42.8702 39.0988 43.0698 38.8585 43.0698Z" fill="white"/>
</g>
</g>
<defs>
<clipPath id="clip0_685_3867">
<rect width="67" height="67" fill="white"/>
</clipPath>
<clipPath id="clip1_685_3867">
<rect width="40" height="33" fill="white" transform="translate(14 16)"/>
</clipPath>
</defs>
</svg>
