<svg width="66" height="66" viewBox="0 0 66 66" fill="none" xmlns="http://www.w3.org/2000/svg">
<g clip-path="url(#clip0_685_3900)">
<path d="M33 66C51.2254 66 66 51.2254 66 33C66 14.7746 51.2254 0 33 0C14.7746 0 0 14.7746 0 33C0 51.2254 14.7746 66 33 66Z" fill="#E9B020"/>
<path d="M53.0015 40.593H31.7168V15.9326H53.0015V40.593ZM32.7816 39.5324H51.9367V16.9933H32.7816V39.5324Z" fill="white"/>
<path d="M51.8299 16.9929H32.2435C31.5993 16.9929 31.0723 16.4678 31.0723 15.8261V14.1238C31.0723 13.4821 31.5993 12.957 32.2435 12.957H51.8299C52.4741 12.957 53.0011 13.4821 53.0011 14.1238V15.8261C53.0011 16.4678 52.4741 16.9929 51.8299 16.9929ZM32.2435 14.0177C32.1849 14.0177 32.137 14.0654 32.137 14.1238V15.8261C32.137 15.8845 32.1849 15.9322 32.2435 15.9322H51.8299C51.8885 15.9322 51.9364 15.8845 51.9364 15.8261V14.1238C51.9364 14.0654 51.8885 14.0177 51.8299 14.0177H32.2435Z" fill="white"/>
<path d="M51.8299 43.5671H32.2435C31.5993 43.5671 31.0723 43.042 31.0723 42.4003V40.698C31.0723 40.0563 31.5993 39.5312 32.2435 39.5312H51.8299C52.4741 39.5312 53.0011 40.0563 53.0011 40.698V42.4003C53.0011 43.042 52.4741 43.5671 51.8299 43.5671ZM32.2435 40.5919C32.1849 40.5919 32.137 40.6396 32.137 40.698V42.4003C32.137 42.4587 32.1849 42.5064 32.2435 42.5064H51.8299C51.8885 42.5064 51.9364 42.4587 51.9364 42.4003V40.698C51.9364 40.6396 51.8885 40.5919 51.8299 40.5919H32.2435Z" fill="white"/>
<path d="M51.6974 48.256H47.0444C46.7516 48.256 46.512 48.0174 46.512 47.7257C46.512 47.434 46.7516 47.1954 47.0444 47.1954H51.6974C51.8305 47.1954 51.9317 47.0893 51.9317 46.962V43.5997H33.639V46.962C33.639 47.0946 33.7455 47.1954 33.8732 47.1954H37.0516C37.3444 47.1954 37.5839 47.434 37.5839 47.7257C37.5839 48.0174 37.3444 48.256 37.0516 48.256H33.8732C33.1545 48.256 32.5742 47.6727 32.5742 46.962V42.5391H52.9965V46.962C52.9965 47.678 52.4108 48.256 51.6974 48.256Z" fill="white"/>
<path d="M42.0343 52.9171C39.1594 52.9171 36.8223 50.5889 36.8223 47.7251C36.8223 44.8614 39.1594 42.5332 42.0343 42.5332C44.9092 42.5332 47.2463 44.8614 47.2463 47.7251C47.2463 50.5889 44.9092 52.9171 42.0343 52.9171ZM42.0343 43.5939C39.7504 43.5939 37.887 45.4447 37.887 47.7251C37.887 50.0056 39.7451 51.8564 42.0343 51.8564C44.3235 51.8564 46.1816 50.0056 46.1816 47.7251C46.1816 45.4447 44.3235 43.5939 42.0343 43.5939Z" fill="white"/>
<path d="M42.033 50.3824C40.5636 50.3824 39.3711 49.1892 39.3711 47.7308C39.3711 46.2723 40.569 45.0791 42.033 45.0791C43.4971 45.0791 44.6949 46.2723 44.6949 47.7308C44.6949 49.1892 43.4971 50.3824 42.033 50.3824ZM42.033 46.1345C41.1493 46.1345 40.4359 46.8504 40.4359 47.7255C40.4359 48.6005 41.1546 49.3165 42.033 49.3165C42.9114 49.3165 43.6302 48.6005 43.6302 47.7255C43.6302 46.8504 42.9114 46.1345 42.033 46.1345Z" fill="white"/>
<path d="M16.8513 53.0442H13.8381C13.476 53.0442 13.1619 52.8109 13.0608 52.4662C12.9596 52.1214 13.0927 51.7555 13.3962 51.554L31.2896 39.945C31.5345 39.7859 31.8646 39.8549 32.0243 40.0988C32.184 40.3428 32.1148 40.6716 31.8699 40.8307L14.6845 51.9836H16.7821L31.5984 42.6179C31.8433 42.4588 32.1733 42.533 32.3331 42.7823C32.4928 43.0316 32.4182 43.3551 32.168 43.5142L17.2879 52.9222C17.1548 53.0071 17.0057 53.0495 16.8513 53.0495V53.0442Z" fill="white"/>
<path d="M20.3708 44.4973C20.1951 44.4973 20.0248 44.4125 19.9236 44.2534C19.7639 44.0094 19.8331 43.6806 20.0833 43.5215L21.6379 42.5245C21.8828 42.3654 22.2129 42.4396 22.3726 42.6836C22.5323 42.9276 22.4631 43.2564 22.2129 43.4155L20.6583 44.4125C20.5678 44.4708 20.472 44.4973 20.3708 44.4973Z" fill="white"/>
<path d="M19.9544 47.3183C19.6083 47.3183 19.2676 47.1486 19.0706 46.8357L14.0768 39.0981C13.7627 38.6102 13.9065 37.9632 14.3909 37.6503L22.1584 32.6758C22.6482 32.3629 23.2977 32.5061 23.6118 32.9887L27.3119 38.7163C27.4716 38.9602 27.4024 39.289 27.1522 39.4481C26.9073 39.6072 26.5772 39.5383 26.4175 39.289L22.7174 33.5615L14.9712 38.5413L19.9703 46.2576L27.7165 41.2778L27.2906 40.6414C27.1309 40.3974 27.2001 40.0686 27.4503 39.9095C27.6952 39.7504 28.0253 39.8247 28.185 40.0686L28.6109 40.7262C28.925 41.2142 28.7813 41.8612 28.2968 42.1741L20.5293 47.1486C20.3536 47.2599 20.1567 47.313 19.965 47.313L19.9544 47.3183Z" fill="white"/>
<path d="M20.0609 40.5831C19.7681 40.5831 19.4966 40.4346 19.3369 40.1907L17.2127 36.8973C17.053 36.6533 17.1222 36.3245 17.3724 36.1654C17.6173 36.0063 17.9474 36.0753 18.1071 36.3245L20.0396 39.3209L20.1781 39.0504C20.3804 38.6527 20.7903 38.3928 21.2375 38.3769L21.5197 38.3663L19.5498 35.3169C19.3901 35.073 19.4593 34.7441 19.7096 34.585C19.9545 34.4259 20.2845 34.5002 20.4442 34.7442L22.6057 38.0958C22.7708 38.3557 22.7867 38.6845 22.6483 38.955C22.5046 39.2255 22.2277 39.4058 21.9189 39.4164L21.2748 39.4429C21.2109 39.4429 21.1523 39.4853 21.1204 39.5383L20.8222 40.1217C20.6838 40.3922 20.407 40.5725 20.0982 40.5884C20.0822 40.5884 20.0716 40.5884 20.0556 40.5884L20.0609 40.5831Z" fill="white"/>
<path d="M12.5349 43.8499C12.3592 43.8499 12.1888 43.765 12.0877 43.6059C11.928 43.362 11.9972 43.0332 12.2474 42.8741L13.802 41.877C14.0469 41.7179 14.3769 41.7922 14.5366 42.0361C14.6964 42.2801 14.6271 42.6089 14.3769 42.768L12.8224 43.765C12.7319 43.8234 12.636 43.8499 12.5349 43.8499Z" fill="white"/>
<path d="M12.6247 46.6817C12.449 46.6817 12.2787 46.5969 12.1775 46.4378C12.0178 46.1938 12.087 45.865 12.3372 45.7059L14.9299 44.046C15.1748 43.8869 15.5049 43.9611 15.6646 44.2051C15.8244 44.449 15.7551 44.7778 15.5049 44.9369L12.9122 46.5969C12.8217 46.6552 12.7259 46.6817 12.6247 46.6817Z" fill="white"/>
<path d="M12.6247 49.5247C12.449 49.5247 12.2787 49.4398 12.1775 49.2807C12.0178 49.0368 12.087 48.708 12.3372 48.5489L16.2236 46.0616C16.4685 45.9025 16.7986 45.9768 16.9583 46.2207C17.118 46.4647 17.0488 46.7935 16.7986 46.9526L12.9122 49.4398C12.8217 49.4982 12.7259 49.5247 12.6247 49.5247Z" fill="white"/>
<path d="M35.2218 38.0685C34.929 38.0685 34.6895 37.8299 34.6895 37.5382V18.7432C34.6895 18.4515 34.929 18.2129 35.2218 18.2129C35.5146 18.2129 35.7542 18.4515 35.7542 18.7432V37.5382C35.7542 37.8299 35.5146 38.0685 35.2218 38.0685Z" fill="white"/>
<path d="M38.2394 38.0685C37.9466 38.0685 37.707 37.8299 37.707 37.5382V18.7432C37.707 18.4515 37.9466 18.2129 38.2394 18.2129C38.5322 18.2129 38.7718 18.4515 38.7718 18.7432V37.5382C38.7718 37.8299 38.5322 38.0685 38.2394 38.0685Z" fill="white"/>
<path d="M41.1105 38.0685C40.8177 38.0685 40.5781 37.8299 40.5781 37.5382V18.7432C40.5781 18.4515 40.8177 18.2129 41.1105 18.2129C41.4033 18.2129 41.6429 18.4515 41.6429 18.7432V37.5382C41.6429 37.8299 41.4033 38.0685 41.1105 38.0685Z" fill="white"/>
<path d="M43.8254 38.0685C43.5325 38.0685 43.293 37.8299 43.293 37.5382V18.7432C43.293 18.4515 43.5325 18.2129 43.8254 18.2129C44.1182 18.2129 44.3577 18.4515 44.3577 18.7432V37.5382C44.3577 37.8299 44.1182 38.0685 43.8254 38.0685Z" fill="white"/>
<path d="M46.7101 38.0685C46.4173 38.0685 46.1777 37.8299 46.1777 37.5382V18.7432C46.1777 18.4515 46.4173 18.2129 46.7101 18.2129C47.0029 18.2129 47.2425 18.4515 47.2425 18.7432V37.5382C47.2425 37.8299 47.0029 38.0685 46.7101 38.0685Z" fill="white"/>
<path d="M49.6339 38.0685C49.3411 38.0685 49.1016 37.8299 49.1016 37.5382V18.7432C49.1016 18.4515 49.3411 18.2129 49.6339 18.2129C49.9268 18.2129 50.1663 18.4515 50.1663 18.7432V37.5382C50.1663 37.8299 49.9268 38.0685 49.6339 38.0685Z" fill="white"/>
<path d="M18.315 33.0674C18.1447 33.0674 17.9743 32.9826 17.8732 32.8288C17.7081 32.5848 17.7773 32.256 18.0222 32.0916L21.7063 29.6521C21.9512 29.4877 22.2813 29.5566 22.4463 29.8006C22.6114 30.0446 22.5422 30.3734 22.2973 30.5378L18.6132 32.9773C18.5227 33.0356 18.4215 33.0674 18.3204 33.0674H18.315Z" fill="white"/>
<path d="M23.9784 29.3122C23.9412 29.3122 23.9092 29.3122 23.872 29.3016L21.7424 28.8773C21.4549 28.819 21.2686 28.5379 21.3272 28.2515C21.3857 27.9651 21.6626 27.7795 21.9554 27.8379L24.0849 28.2621C24.3724 28.3205 24.5587 28.6015 24.5002 28.8879C24.4469 29.1372 24.2287 29.3122 23.9784 29.3122Z" fill="white"/>
<path d="M23.554 31.4336C23.5167 31.4336 23.4848 31.4336 23.4475 31.423C23.16 31.3647 22.9737 31.0836 23.0322 30.7972L23.4582 28.6759C23.5167 28.3895 23.7936 28.1986 24.0864 28.2623C24.3739 28.3206 24.5602 28.6017 24.5016 28.8881L24.0757 31.0094C24.0225 31.2586 23.8042 31.4336 23.554 31.4336Z" fill="white"/>
</g>
<defs>
<clipPath id="clip0_685_3900">
<rect width="66" height="66" fill="white"/>
</clipPath>
</defs>
</svg>
