<svg width="66" height="66" viewBox="0 0 66 66" fill="none" xmlns="http://www.w3.org/2000/svg">
<g clip-path="url(#clip0_685_3881)">
<path d="M33 66C51.2254 66 66 51.2254 66 33C66 14.7746 51.2254 0 33 0C14.7746 0 0 14.7746 0 33C0 51.2254 14.7746 66 33 66Z" fill="#E9B020"/>
<path d="M16.1429 26.3778H46.865C47.2516 26.3778 47.6213 26.1943 47.8546 25.8864L50.844 21.9376C51.1769 21.4977 51.1769 20.8828 50.844 20.4429L49.9095 19.2088C49.7328 18.9758 49.4005 18.9292 49.1665 19.1057C48.9333 19.2822 48.8866 19.614 49.0633 19.847L49.9978 21.0812C50.0466 21.1454 50.0466 21.2344 49.9978 21.2986L47.0085 25.2475C46.9745 25.292 46.9208 25.3188 46.8643 25.3188H25.2757C25.2842 25.2602 25.2905 25.2002 25.2905 25.1388V17.241C25.2905 17.1796 25.2849 17.1196 25.2757 17.061H46.865C46.9215 17.061 46.9752 17.0878 47.0092 17.1323L47.5782 17.8835C47.7549 18.1165 48.0872 18.1631 48.3211 17.9866C48.5551 17.8101 48.6011 17.4783 48.4243 17.2446L47.8553 16.4934C47.622 16.1855 47.2523 16.002 46.8657 16.002H16.1429C15.4594 16.002 14.9023 16.5583 14.9023 17.241V25.1388C14.9023 25.8222 15.4594 26.3778 16.1429 26.3778ZM15.9627 17.241C15.9627 17.1415 16.0432 17.061 16.1429 17.061H24.05C24.1496 17.061 24.2302 17.1415 24.2302 17.241V25.1388C24.2302 25.2383 24.1496 25.3188 24.05 25.3188H16.1429C16.0432 25.3188 15.9627 25.2383 15.9627 25.1388V17.241Z" fill="white"/>
<path d="M28.2802 20.6001H32.4224C32.7151 20.6001 32.9526 20.3628 32.9526 20.0705C32.9526 19.7782 32.7151 19.541 32.4224 19.541H28.2802C27.9875 19.541 27.75 19.7782 27.75 20.0705C27.75 20.3628 27.9875 20.6001 28.2802 20.6001Z" fill="white"/>
<path d="M28.2802 22.8393H41.6047C41.8973 22.8393 42.1348 22.6021 42.1348 22.3098C42.1348 22.0175 41.8973 21.7803 41.6047 21.7803H28.2802C27.9875 21.7803 27.75 22.0175 27.75 22.3098C27.75 22.6021 27.9875 22.8393 28.2802 22.8393Z" fill="white"/>
<path d="M18.7285 23.2224H19.2614C19.9294 23.2224 20.4723 22.6802 20.4723 22.013V20.3679C20.4723 19.7007 19.9294 19.1592 19.2614 19.1592H18.7285C18.0605 19.1592 17.5176 19.7014 17.5176 20.3679V22.013C17.5176 22.6802 18.0605 23.2224 18.7285 23.2224ZM18.5779 20.3679C18.5779 20.2853 18.645 20.2182 18.7285 20.2182H19.2614C19.3448 20.2182 19.412 20.2853 19.412 20.3679V22.013C19.412 22.0956 19.3448 22.1634 19.2614 22.1634H18.7285C18.645 22.1634 18.5779 22.0956 18.5779 22.013V20.3679Z" fill="white"/>
<path d="M21.6005 20.2182H21.6153V22.6929C21.6153 22.9852 21.8528 23.2224 22.1455 23.2224C22.4381 23.2224 22.6756 22.9852 22.6756 22.6929V19.6887C22.6756 19.3964 22.4381 19.1592 22.1455 19.1592H21.6005C21.3078 19.1592 21.0703 19.3964 21.0703 19.6887C21.0703 19.981 21.3078 20.2182 21.6005 20.2182Z" fill="white"/>
<path d="M47.8546 28.2316C47.6213 27.9238 47.2516 27.7402 46.865 27.7402H40.5491C40.2564 27.7402 40.0189 27.9775 40.0189 28.2698C40.0189 28.5621 40.2564 28.7993 40.5491 28.7993H46.865C46.9215 28.7993 46.9752 28.8261 47.0092 28.8713L49.9985 32.8202C50.0466 32.8844 50.0466 32.9734 49.9985 33.0376L47.0092 36.9865C46.9752 37.0309 46.9215 37.0578 46.865 37.0578H25.2757C25.2842 36.9992 25.2905 36.9392 25.2905 36.8777V28.98C25.2905 28.9186 25.2849 28.8586 25.2757 28.8H38.0955C38.3882 28.8 38.6257 28.5628 38.6257 28.2705C38.6257 27.9782 38.3882 27.7409 38.0955 27.7409H16.1429C15.4587 27.7409 14.9023 28.2973 14.9023 28.98V36.8777C14.9023 37.5612 15.4594 38.1168 16.1429 38.1168H46.865C47.2516 38.1168 47.6213 37.9333 47.8546 37.6254L50.844 33.6766C51.1769 33.2367 51.1769 32.6218 50.844 32.1819L47.8546 28.233V28.2316ZM15.9627 36.877V28.9793C15.9627 28.8798 16.0432 28.7993 16.1429 28.7993H24.05C24.1496 28.7993 24.2302 28.8805 24.2302 28.9793V36.877C24.2302 36.9766 24.1496 37.0571 24.05 37.0571H16.1429C16.0432 37.0571 15.9627 36.9766 15.9627 36.877Z" fill="white"/>
<path d="M28.2802 32.3364H32.4224C32.7151 32.3364 32.9526 32.0992 32.9526 31.8069C32.9526 31.5146 32.7151 31.2773 32.4224 31.2773H28.2802C27.9875 31.2773 27.75 31.5146 27.75 31.8069C27.75 32.0992 27.9875 32.3364 28.2802 32.3364Z" fill="white"/>
<path d="M28.2802 34.5766H41.6047C41.8973 34.5766 42.1348 34.3394 42.1348 34.0471C42.1348 33.7548 41.8973 33.5176 41.6047 33.5176H28.2802C27.9875 33.5176 27.75 33.7548 27.75 34.0471C27.75 34.3394 27.9875 34.5766 28.2802 34.5766Z" fill="white"/>
<path d="M47.8546 40.1154C47.6213 39.8076 47.2516 39.624 46.865 39.624H16.1429C15.4587 39.624 14.9023 40.1804 14.9023 40.8631V42.1375C14.9023 42.4298 15.1399 42.667 15.4325 42.667C15.7251 42.667 15.9627 42.4298 15.9627 42.1375V40.8631C15.9627 40.7636 16.0432 40.6831 16.1429 40.6831H24.05C24.1496 40.6831 24.2302 40.7636 24.2302 40.8631V48.7608C24.2302 48.8604 24.1496 48.9409 24.05 48.9409H16.1429C16.0432 48.9409 15.9627 48.8604 15.9627 48.7608V44.5874C15.9627 44.2952 15.7251 44.0579 15.4325 44.0579C15.1399 44.0579 14.9023 44.2952 14.9023 44.5874V48.7608C14.9023 49.4443 15.4594 49.9999 16.1429 49.9999H46.865C47.2516 49.9999 47.6213 49.8156 47.8546 49.5085L50.844 45.5597C51.1769 45.1198 51.1769 44.5048 50.844 44.065L47.8546 40.1161V40.1154ZM49.9985 44.92L47.0092 48.8688C46.9752 48.9133 46.9215 48.9402 46.865 48.9402H25.2757C25.2842 48.8808 25.2905 48.8215 25.2905 48.7601V40.8624C25.2905 40.801 25.2849 40.7417 25.2757 40.6824H46.865C46.9215 40.6824 46.9752 40.7092 47.0092 40.7537L49.9985 44.7025C50.0466 44.7668 50.0466 44.8557 49.9985 44.92Z" fill="white"/>
<path d="M28.2802 44.2212H32.4224C32.7151 44.2212 32.9526 43.9839 32.9526 43.6916C32.9526 43.3993 32.7151 43.1621 32.4224 43.1621H28.2802C27.9875 43.1621 27.75 43.3993 27.75 43.6916C27.75 43.9839 27.9875 44.2212 28.2802 44.2212Z" fill="white"/>
<path d="M41.6047 45.4023H28.2802C27.9875 45.4023 27.75 45.6396 27.75 45.9319C27.75 46.2242 27.9875 46.4614 28.2802 46.4614H41.6047C41.8973 46.4614 42.1348 46.2242 42.1348 45.9319C42.1348 45.6396 41.8973 45.4023 41.6047 45.4023Z" fill="white"/>
<path d="M18.6293 30.874H18.0956C17.4276 30.874 16.8848 31.4163 16.8848 32.0835V33.7278C16.8848 34.395 17.4276 34.9373 18.0956 34.9373H18.6293C19.2973 34.9373 19.8402 34.395 19.8402 33.7278V32.0835C19.8402 31.4163 19.2973 30.874 18.6293 30.874ZM18.7799 33.7278C18.7799 33.8111 18.712 33.8782 18.6293 33.8782H18.0956C18.0129 33.8782 17.9451 33.8104 17.9451 33.7278V32.0835C17.9451 32.0001 18.0129 31.9331 18.0956 31.9331H18.6293C18.7127 31.9331 18.7799 32.0001 18.7799 32.0835V33.7278Z" fill="white"/>
<path d="M22.7794 33.8344H22.3305C22.6345 33.5139 22.9179 33.1595 23.048 32.8453C23.241 32.38 23.1957 31.8632 22.9278 31.4629C22.6769 31.0887 22.2704 30.874 21.8124 30.874C21.0546 30.874 20.4375 31.4904 20.4375 32.2473C20.4375 32.5396 20.675 32.7768 20.9677 32.7768C21.2603 32.7768 21.4978 32.5396 21.4978 32.2473C21.4978 32.0743 21.6392 31.9331 21.8124 31.9331C21.9149 31.9331 21.994 31.9726 22.0463 32.0517C22.1156 32.1562 22.1248 32.3052 22.0683 32.4407C21.9142 32.8135 21.138 33.5478 20.6361 33.9509C20.4608 34.0914 20.393 34.3279 20.4679 34.5398C20.5421 34.7516 20.7429 34.8942 20.9677 34.8942H22.7794C23.072 34.8942 23.3095 34.657 23.3095 34.3647C23.3095 34.0724 23.072 33.8351 22.7794 33.8351V33.8344Z" fill="white"/>
<path d="M18.6918 46.8432C19.3598 46.8432 19.9027 46.3003 19.9027 45.6338V43.9887C19.9027 43.3215 19.3591 42.7793 18.6918 42.7793H18.1581C17.4901 42.7793 16.9473 43.3222 16.9473 43.9887V45.6338C16.9473 46.301 17.4901 46.8432 18.1581 46.8432H18.6918ZM18.0076 45.6338V43.9887C18.0076 43.9061 18.0747 43.8391 18.1581 43.8391H18.6911C18.7745 43.8391 18.8417 43.9061 18.8417 43.9887V45.6338C18.8417 45.7164 18.7745 45.7835 18.6911 45.7835H18.1581C18.0747 45.7835 18.0076 45.7164 18.0076 45.6338Z" fill="white"/>
<path d="M21.9644 45.7842H21.0243C20.7316 45.7842 20.4941 46.0214 20.4941 46.3137C20.4941 46.606 20.7316 46.8432 21.0243 46.8432H21.9644C22.6713 46.8432 23.2467 46.2685 23.2467 45.5625C23.2467 45.2815 23.1548 45.0231 23.0007 44.8113C23.1548 44.6002 23.2467 44.341 23.2467 44.06C23.2467 43.354 22.672 42.7793 21.9644 42.7793H21.0243C20.7316 42.7793 20.4941 43.0165 20.4941 43.3088C20.4941 43.6011 20.7316 43.8383 21.0243 43.8383H21.9644C22.0867 43.8383 22.1864 43.9379 22.1864 44.06C22.1864 44.1822 22.0867 44.2817 21.9644 44.2817H21.0243C20.7316 44.2817 20.4941 44.519 20.4941 44.8113C20.4941 45.1036 20.7316 45.3408 21.0243 45.3408H21.9644C22.0867 45.3408 22.1864 45.4403 22.1864 45.5625C22.1864 45.6846 22.0867 45.7842 21.9644 45.7842Z" fill="white"/>
</g>
<defs>
<clipPath id="clip0_685_3881">
<rect width="66" height="66" fill="white"/>
</clipPath>
</defs>
</svg>
