<svg width="12" height="13" viewBox="0 0 12 13" fill="none" xmlns="http://www.w3.org/2000/svg">
<circle cx="6" cy="6.5" r="6" fill="white"/>
<path d="M3 6.46424C3 6.32617 3.1026 6.21206 3.23572 6.19401L3.27273 6.19152L8.06691 6.19173L6.33491 4.46681C6.22818 4.36054 6.22781 4.18786 6.33408 4.08112C6.4307 3.98409 6.58219 3.97496 6.68913 4.05395L6.71978 4.08029L8.91978 6.27084C8.93385 6.28484 8.94607 6.30001 8.95644 6.31602C8.95937 6.32084 8.96235 6.32577 8.96518 6.3308C8.96778 6.33511 8.97013 6.33958 8.97234 6.34411C8.97542 6.3507 8.97843 6.3575 8.98116 6.36444C8.98338 6.36979 8.98523 6.375 8.98692 6.38025C8.98893 6.38675 8.99089 6.39369 8.99257 6.40073C8.99381 6.40564 8.9948 6.41037 8.99566 6.41512C8.99688 6.42219 8.99791 6.4295 8.99865 6.4369C8.99928 6.44254 8.99967 6.44813 8.99988 6.45373C8.99993 6.45712 9 6.46067 9 6.46424L8.99986 6.47481C8.99965 6.48016 8.99929 6.48551 8.99877 6.49084L9 6.46424C9 6.48145 8.99841 6.49829 8.99536 6.51462C8.99465 6.51852 8.99381 6.52252 8.99288 6.52651C8.99094 6.53472 8.9887 6.54262 8.98612 6.55037C8.98486 6.55422 8.98338 6.55834 8.98181 6.56242C8.97862 6.57063 8.97515 6.57845 8.97134 6.58607C8.96957 6.58965 8.96759 6.59341 8.96551 6.59712C8.96211 6.60318 8.9586 6.60893 8.95488 6.61454C8.95226 6.61852 8.94936 6.62265 8.94633 6.62672L8.94397 6.62986C8.93663 6.63946 8.92865 6.64856 8.92012 6.65709L8.91979 6.65734L6.71979 8.84825C6.61307 8.95454 6.44039 8.95418 6.3341 8.84745C6.23748 8.75043 6.22899 8.5989 6.30843 8.49229L6.3349 8.46176L8.06618 6.73719L3.27273 6.73697C3.1221 6.73697 3 6.61487 3 6.46424Z" fill="#EBB00E"/>
<path d="M9 6.46424C9 6.46067 8.99993 6.45712 8.99988 6.45373C8.99967 6.44813 8.99928 6.44254 8.99865 6.4369C8.99791 6.4295 8.99688 6.42219 8.99566 6.41512C8.9948 6.41037 8.99381 6.40564 8.99256 6.40073C8.99089 6.39369 8.98893 6.38675 8.98692 6.38025C8.98523 6.375 8.98338 6.36979 8.98116 6.36444C8.97843 6.3575 8.97542 6.3507 8.97234 6.34411C8.97013 6.33958 8.96778 6.33511 8.96518 6.3308C8.96235 6.32577 8.95937 6.32084 8.95644 6.31602C8.94607 6.30001 8.93385 6.28484 8.91978 6.27084L6.71978 4.08029L6.68913 4.05395C6.58219 3.97496 6.4307 3.98409 6.33408 4.08112C6.22781 4.18786 6.22818 4.36054 6.33491 4.46681L8.06691 6.19173L3.27273 6.19152L3.23572 6.19401C3.1026 6.21206 3 6.32617 3 6.46424C3 6.61487 3.1221 6.73697 3.27273 6.73697L8.06618 6.73719L6.3349 8.46176L6.30843 8.49229C6.22899 8.5989 6.23748 8.75043 6.3341 8.84745C6.44039 8.95418 6.61307 8.95454 6.71979 8.84825L8.91979 6.65734L8.92012 6.65709C8.92865 6.64856 8.93663 6.63946 8.94397 6.62986L8.94633 6.62672C8.94936 6.62265 8.95226 6.61851 8.95488 6.61454C8.9586 6.60893 8.96211 6.60318 8.96551 6.59712C8.96759 6.59341 8.96957 6.58965 8.97134 6.58607C8.97516 6.57845 8.97862 6.57063 8.98181 6.56242C8.98338 6.55834 8.98486 6.55422 8.98612 6.55037C8.9887 6.54262 8.99094 6.53472 8.99288 6.52651C8.99381 6.52252 8.99465 6.51852 8.99536 6.51462C8.99841 6.49829 9 6.48145 9 6.46424ZM9 6.46424L8.99986 6.47481C8.99965 6.48016 8.99929 6.48551 8.99877 6.49084L9 6.46424Z" stroke="#EBB00E" stroke-width="0.5"/>
</svg>
