<svg width="33" height="32" viewBox="0 0 33 32" fill="none" xmlns="http://www.w3.org/2000/svg">
<path d="M29.4996 14.4705C29.7114 14.2634 29.8612 14.0012 29.932 13.7136C30.0028 13.4259 29.9918 13.1242 29.9003 12.8424C29.8089 12.5607 29.6405 12.3101 29.4142 12.1189C29.1879 11.9277 28.9127 11.8036 28.6196 11.7605L22.0196 10.7605C21.7829 10.7334 21.556 10.6504 21.3577 10.5182C21.1595 10.3861 20.9956 10.2086 20.8796 10.0005L17.8796 4.00046C17.7498 3.7344 17.5478 3.51017 17.2968 3.35331C17.0457 3.19645 16.7556 3.11328 16.4596 3.11328C16.1635 3.11328 15.8735 3.19645 15.6224 3.35331C15.3713 3.51017 15.1694 3.7344 15.0396 4.00046L12.0396 10.0005C11.9318 10.2185 11.7727 10.4071 11.5758 10.5499C11.3789 10.6928 11.1503 10.7856 10.9096 10.8205L4.30958 11.8205C4.03412 11.8809 3.7797 12.0136 3.57241 12.2048C3.36512 12.3961 3.21243 12.639 3.12999 12.9087C3.04755 13.1784 3.03834 13.4652 3.10328 13.7396C3.16823 14.0141 3.30501 14.2663 3.49958 14.4705L8.27958 19.1305C8.45162 19.3 8.58045 19.5084 8.65528 19.7381C8.7301 19.9678 8.74872 20.2121 8.70958 20.4505L7.58958 27.0005C7.53898 27.2919 7.5712 27.5917 7.68258 27.8657C7.79395 28.1397 7.98001 28.377 8.21958 28.5505C8.49321 28.7487 8.82169 28.8571 9.15958 28.8605C9.41829 28.8603 9.67279 28.7949 9.89958 28.6705L15.7996 25.5705C16.0156 25.4574 16.2558 25.3984 16.4996 25.3984C16.7434 25.3984 16.9836 25.4574 17.1996 25.5705L23.0996 28.6705C23.3618 28.8088 23.6574 28.8711 23.9532 28.8503C24.2489 28.8295 24.5329 28.7265 24.7732 28.5528C25.0134 28.3791 25.2003 28.1417 25.3128 27.8674C25.4252 27.5931 25.4588 27.2928 25.4096 27.0005L24.2796 20.4205C24.2404 20.1821 24.2591 19.9378 24.3339 19.7081C24.4087 19.4784 24.5376 19.27 24.7096 19.1005L29.4996 14.4705ZM23.2996 20.6205L24.4296 27.2005C24.4497 27.3075 24.4388 27.4181 24.398 27.5191C24.3572 27.6201 24.2884 27.7074 24.1996 27.7705C24.1117 27.8368 24.0067 27.8767 23.8969 27.8856C23.7871 27.8945 23.677 27.8719 23.5796 27.8205L17.6696 24.7105C17.3117 24.523 16.9136 24.425 16.5096 24.425C16.1055 24.425 15.7075 24.523 15.3496 24.7105L9.42959 27.8205C9.33216 27.8719 9.22211 27.8945 9.11232 27.8856C9.00252 27.8767 8.89751 27.8368 8.80959 27.7705C8.72079 27.7074 8.65193 27.6201 8.61117 27.5191C8.57041 27.4181 8.55945 27.3075 8.57958 27.2005L9.70959 20.6205C9.77837 20.2213 9.74874 19.8114 9.62327 19.4263C9.49781 19.0412 9.28029 18.6925 8.98958 18.4105L4.20958 13.7505C4.13052 13.6748 4.07448 13.5783 4.04794 13.4721C4.0214 13.366 4.02543 13.2544 4.05958 13.1505C4.09196 13.0443 4.15463 12.9499 4.23989 12.8788C4.32516 12.8078 4.42932 12.7632 4.53958 12.7505L11.1396 11.7505C11.5405 11.6916 11.9211 11.5361 12.2486 11.2974C12.5761 11.0588 12.8407 10.7441 13.0196 10.3805L16.0196 4.38046C16.0681 4.28125 16.1435 4.19764 16.2372 4.13917C16.3309 4.08069 16.4391 4.04969 16.5496 4.04969C16.66 4.04969 16.7683 4.08069 16.862 4.13917C16.9557 4.19764 17.0311 4.28125 17.0796 4.38046L20.0296 10.3805C20.2085 10.7441 20.473 11.0588 20.8005 11.2974C21.128 11.5361 21.5086 11.6916 21.9096 11.7505L28.5096 12.7505C28.6199 12.7632 28.724 12.8078 28.8093 12.8788C28.8945 12.9499 28.9572 13.0443 28.9896 13.1505C29.0237 13.2544 29.0278 13.366 29.0012 13.4721C28.9747 13.5783 28.9186 13.6748 28.8396 13.7505L24.0596 18.4105C23.76 18.6875 23.533 19.034 23.3988 19.4194C23.2645 19.8047 23.227 20.2172 23.2896 20.6205H23.2996Z" fill="white"/>
<path d="M24.2156 15.6166C24.3415 15.4959 24.4305 15.3432 24.4726 15.1756C24.5147 15.008 24.5082 14.8322 24.4538 14.6681C24.3994 14.5039 24.2993 14.358 24.1648 14.2466C24.0303 14.1352 23.8667 14.0629 23.6925 14.0377L19.7694 13.4552C19.6287 13.4394 19.4938 13.391 19.376 13.314C19.2582 13.237 19.1607 13.1336 19.0918 13.0124L17.3086 9.51686C17.2314 9.36186 17.1114 9.23122 16.9621 9.13984C16.8129 9.04845 16.6405 9 16.4645 9C16.2885 9 16.1161 9.04845 15.9669 9.13984C15.8176 9.23122 15.6976 9.36186 15.6204 9.51686L13.8372 13.0124C13.7732 13.1394 13.6786 13.2493 13.5615 13.3325C13.4445 13.4157 13.3086 13.4698 13.1655 13.4901L9.24244 14.0727C9.0787 14.1079 8.92747 14.1852 8.80426 14.2966C8.68104 14.408 8.59028 14.5496 8.54128 14.7067C8.49228 14.8638 8.4868 15.0309 8.5254 15.1908C8.56401 15.3507 8.64531 15.4976 8.76097 15.6166L11.6022 18.3314C11.7045 18.4302 11.7811 18.5516 11.8256 18.6854C11.87 18.8192 11.8811 18.9616 11.8578 19.1004L11.1921 22.9164C11.162 23.0862 11.1812 23.2608 11.2474 23.4205C11.3136 23.5801 11.4242 23.7183 11.5666 23.8194C11.7292 23.9349 11.9245 23.998 12.1253 24C12.2791 23.9999 12.4304 23.9618 12.5652 23.8893L16.0722 22.0833C16.2006 22.0174 16.3434 21.983 16.4883 21.983C16.6332 21.983 16.776 22.0174 16.9044 22.0833L20.4114 23.8893C20.5672 23.9699 20.743 24.0062 20.9187 23.9941C21.0945 23.982 21.2633 23.9219 21.4062 23.8207C21.549 23.7196 21.6601 23.5812 21.7269 23.4214C21.7938 23.2616 21.8137 23.0867 21.7845 22.9164L21.1128 19.083C21.0895 18.9441 21.1006 18.8018 21.1451 18.668C21.1895 18.5341 21.2661 18.4127 21.3684 18.3139L24.2156 15.6166ZM20.5303 19.1995L21.2019 23.0329C21.2139 23.0953 21.2074 23.1597 21.1832 23.2186C21.1589 23.2774 21.118 23.3282 21.0652 23.365C21.013 23.4036 20.9505 23.4269 20.8853 23.4321C20.82 23.4372 20.7546 23.4241 20.6967 23.3941L17.1837 21.5823C16.971 21.473 16.7344 21.416 16.4942 21.416C16.254 21.416 16.0175 21.473 15.8047 21.5823L12.2858 23.3941C12.2279 23.4241 12.1625 23.4372 12.0972 23.4321C12.032 23.4269 11.9695 23.4036 11.9173 23.365C11.8645 23.3282 11.8236 23.2774 11.7993 23.2186C11.7751 23.1597 11.7686 23.0953 11.7806 23.0329L12.4522 19.1995C12.4931 18.9669 12.4755 18.7281 12.4009 18.5038C12.3264 18.2794 12.1971 18.0763 12.0243 17.912L9.183 15.1971C9.136 15.153 9.10269 15.0968 9.08691 15.0349C9.07114 14.9731 9.07354 14.9081 9.09384 14.8475C9.11308 14.7857 9.15033 14.7307 9.20101 14.6893C9.2517 14.6479 9.31361 14.6219 9.37915 14.6145L13.3022 14.0319C13.5406 13.9976 13.7668 13.907 13.9615 13.768C14.1561 13.629 14.3134 13.4456 14.4197 13.2338L16.203 9.73824C16.2318 9.68044 16.2766 9.63174 16.3323 9.59767C16.388 9.5636 16.4523 9.54554 16.518 9.54554C16.5836 9.54554 16.648 9.5636 16.7037 9.59767C16.7594 9.63174 16.8042 9.68044 16.833 9.73824L18.5865 13.2338C18.6929 13.4456 18.8501 13.629 19.0448 13.768C19.2395 13.907 19.4657 13.9976 19.704 14.0319L23.6271 14.6145C23.6927 14.6219 23.7546 14.6479 23.8053 14.6893C23.8559 14.7307 23.8932 14.7857 23.9124 14.8475C23.9327 14.9081 23.9351 14.9731 23.9194 15.0349C23.9036 15.0968 23.8703 15.153 23.8233 15.1971L20.982 17.912C20.8039 18.0734 20.669 18.2752 20.5892 18.4997C20.5094 18.7242 20.4871 18.9645 20.5243 19.1995H20.5303Z" fill="white"/>
</svg>
