<svg width="39" height="38" viewBox="0 0 39 38" fill="none" xmlns="http://www.w3.org/2000/svg">
<path d="M6.13806 14.0966L5.83584 13.8842C5.7863 13.8496 4.59231 12.9997 3.33885 11.7002C3.15059 11.5025 3.15554 11.1912 3.35372 11.0035C3.55189 10.8157 3.86402 10.8207 4.05228 11.0183C4.87471 11.8682 5.68226 12.5303 6.10338 12.8564C7.16361 11.9571 10.7456 8.74537 10.7456 6.22045C10.7456 3.69552 8.66974 1.60542 6.11824 1.60542C3.56675 1.60542 1.49087 3.67576 1.49087 6.22045C1.49087 7.14444 1.8674 8.16726 2.6056 9.26419C2.75919 9.49148 2.69974 9.79784 2.47184 9.95101C2.24394 10.1042 1.93676 10.0449 1.78318 9.8176C0.931027 8.55267 0.5 7.34209 0.5 6.22045C0.5 3.13223 3.02177 0.617188 6.11824 0.617188C9.21472 0.617188 11.7365 3.13223 11.7365 6.22045C11.7365 9.64466 6.6434 13.7013 6.42541 13.8743L6.1331 14.1016L6.13806 14.0966Z" fill="white"/>
<path d="M6.12294 8.94791C4.597 8.94791 3.3584 7.71262 3.3584 6.19075C3.3584 4.66888 4.597 3.43359 6.12294 3.43359C7.64888 3.43359 8.88747 4.66888 8.88747 6.19075C8.88747 7.71262 7.64888 8.94791 6.12294 8.94791ZM6.12294 4.41688C5.14198 4.41688 4.34927 5.21241 4.34927 6.18581C4.34927 7.15922 5.14693 7.95474 6.12294 7.95474C7.09895 7.95474 7.89659 7.15922 7.89659 6.18581C7.89659 5.21241 7.09895 4.41688 6.12294 4.41688Z" fill="white"/>
<path d="M32.9017 33.458L32.5995 33.2455C32.55 33.2109 31.356 32.361 30.1025 31.0615C29.9143 30.8639 29.9192 30.5526 30.1174 30.3648C30.3156 30.177 30.6277 30.182 30.816 30.3796C31.6384 31.2344 32.4459 31.8916 32.8671 32.2177C33.9273 31.3234 37.5093 28.1067 37.5093 25.5818C37.5093 23.0568 35.4334 20.9667 32.8819 20.9667C30.3304 20.9667 28.2545 23.0371 28.2545 25.5818C28.2545 26.5058 28.6311 27.5286 29.3693 28.6255C29.5229 28.8528 29.4634 29.1592 29.2355 29.3123C29.0076 29.4655 28.7004 29.4013 28.5469 29.1789C27.6947 27.914 27.2637 26.7034 27.2637 25.5818C27.2637 22.4936 29.7855 19.9785 32.8819 19.9785C35.9784 19.9785 38.5002 22.4936 38.5002 25.5818C38.5002 29.006 33.4071 33.0627 33.1891 33.2356L32.8968 33.4629L32.9017 33.458Z" fill="white"/>
<path d="M32.8905 28.3131C31.3646 28.3131 30.126 27.0779 30.126 25.556C30.126 24.0341 31.3646 22.7988 32.8905 22.7988C34.4164 22.7988 35.655 24.0341 35.655 25.556C35.655 27.0779 34.4164 28.3131 32.8905 28.3131ZM32.8905 23.7821C31.9095 23.7821 31.1168 24.5776 31.1168 25.551C31.1168 26.5245 31.9145 27.32 32.8905 27.32C33.8665 27.32 34.6642 26.5245 34.6642 25.551C34.6642 24.5776 33.8665 23.7821 32.8905 23.7821Z" fill="white"/>
<path d="M6.12171 17.7782C4.86825 17.7782 3.84766 16.7603 3.84766 15.5102C3.84766 14.2601 4.86825 13.2422 6.12171 13.2422C7.37516 13.2422 8.39575 14.2601 8.39575 15.5102C8.39575 16.7603 7.37516 17.7782 6.12171 17.7782ZM6.12171 14.2255C5.41323 14.2255 4.83853 14.7986 4.83853 15.5052C4.83853 16.2118 5.41323 16.785 6.12171 16.785C6.83018 16.785 7.40488 16.2118 7.40488 15.5052C7.40488 14.7986 6.83018 14.2255 6.12171 14.2255Z" fill="white"/>
<path d="M19.2643 17.7782C18.0108 17.7782 16.9902 16.7603 16.9902 15.5102C16.9902 14.2601 18.0108 13.2422 19.2643 13.2422C20.5177 13.2422 21.5383 14.2601 21.5383 15.5102C21.5383 16.7603 20.5177 17.7782 19.2643 17.7782ZM19.2643 14.2255C18.5558 14.2255 17.9811 14.7986 17.9811 15.5052C17.9811 16.2118 18.5558 16.785 19.2643 16.785C19.9728 16.785 20.5475 16.2118 20.5475 15.5052C20.5475 14.7986 19.9728 14.2255 19.2643 14.2255Z" fill="white"/>
<path d="M10.5905 27.6317C9.337 27.6317 8.31641 26.6138 8.31641 25.3637C8.31641 24.1136 9.337 23.0957 10.5905 23.0957C11.8439 23.0957 12.8645 24.1136 12.8645 25.3637C12.8645 26.6138 11.8439 27.6317 10.5905 27.6317ZM10.5905 24.079C9.88198 24.079 9.30728 24.6522 9.30728 25.3587C9.30728 26.0653 9.88198 26.6385 10.5905 26.6385C11.2989 26.6385 11.8736 26.0653 11.8736 25.3587C11.8736 24.6522 11.2989 24.079 10.5905 24.079Z" fill="white"/>
<path d="M19.6823 37.3836C18.4288 37.3836 17.4082 36.3657 17.4082 35.1156C17.4082 33.8655 18.4288 32.8477 19.6823 32.8477C20.9357 32.8477 21.9563 33.8655 21.9563 35.1156C21.9563 36.3657 20.9357 37.3836 19.6823 37.3836ZM19.6823 33.8309C18.9738 33.8309 18.3991 34.4041 18.3991 35.1107C18.3991 35.8173 18.9738 36.3905 19.6823 36.3905C20.3907 36.3905 20.9654 35.8173 20.9654 35.1107C20.9654 34.4041 20.3907 33.8309 19.6823 33.8309Z" fill="white"/>
<path d="M32.8854 37.3836C31.6319 37.3836 30.6113 36.3657 30.6113 35.1156C30.6113 33.8655 31.6319 32.8477 32.8854 32.8477C34.1388 32.8477 35.1594 33.8655 35.1594 35.1156C35.1594 36.3657 34.1388 37.3836 32.8854 37.3836ZM32.8854 33.8309C32.1769 33.8309 31.6022 34.4041 31.6022 35.1107C31.6022 35.8173 32.1769 36.3905 32.8854 36.3905C33.5939 36.3905 34.1686 35.8173 34.1686 35.1107C34.1686 34.4041 33.5939 33.8309 32.8854 33.8309Z" fill="white"/>
<path d="M31.0048 35.705H21.7005C21.428 35.705 21.2051 35.4827 21.2051 35.2109C21.2051 34.9391 21.428 34.7168 21.7005 34.7168H31.0048C31.2773 34.7168 31.5002 34.9391 31.5002 35.2109C31.5002 35.4827 31.2773 35.705 31.0048 35.705Z" fill="white"/>
<path d="M17.7092 35.7038H7.47355C4.53066 35.7038 2.1377 33.3172 2.1377 30.3822C2.1377 27.4471 4.53066 25.0605 7.47355 25.0605H8.58828C8.86077 25.0605 9.08372 25.2829 9.08372 25.5547C9.08372 25.8264 8.86077 26.0488 8.58828 26.0488H7.47355C5.07564 26.0488 3.12857 27.9956 3.12857 30.3822C3.12857 32.7687 5.08059 34.7155 7.47355 34.7155H17.7092C17.9817 34.7155 18.2047 34.9379 18.2047 35.2097C18.2047 35.4814 17.9817 35.7038 17.7092 35.7038Z" fill="white"/>
<path d="M18.5792 26.0512H12.6439C12.3714 26.0512 12.1484 25.8289 12.1484 25.5571C12.1484 25.2853 12.3714 25.063 12.6439 25.063H18.5792C20.9771 25.063 22.9242 23.1162 22.9242 20.7296V20.3392C22.9242 18.852 22.176 17.4882 20.9176 16.6877C20.6848 16.5395 20.6204 16.2332 20.769 16.0059C20.9176 15.7786 21.2248 15.7094 21.4527 15.8576C22.9935 16.8409 23.915 18.516 23.915 20.3442V20.7345C23.915 23.6696 21.5221 26.0562 18.5792 26.0562V26.0512Z" fill="white"/>
<path d="M17.3078 15.998H8.38997C8.11748 15.998 7.89453 15.7756 7.89453 15.5039C7.89453 15.2321 8.11748 15.0098 8.38997 15.0098H17.3078C17.5803 15.0098 17.8032 15.2321 17.8032 15.5039C17.8032 15.7756 17.5803 15.998 17.3078 15.998Z" fill="white"/>
<path d="M18.1616 27.3562C18.0328 27.3562 17.9089 27.3068 17.8098 27.2129L16.1006 25.5082L17.7108 23.9023C17.904 23.7096 18.2161 23.7096 18.4093 23.9023C18.6025 24.095 18.6025 24.4063 18.4093 24.599L17.5027 25.5033L18.5084 26.5063C18.7016 26.699 18.7016 27.0103 18.5084 27.203C18.4093 27.3018 18.2855 27.3463 18.1567 27.3463L18.1616 27.3562Z" fill="white"/>
<path d="M10.045 36.9772C9.91615 36.9772 9.7923 36.9278 9.69321 36.8339C9.49999 36.6412 9.49999 36.3299 9.69321 36.1372L10.5999 35.233L9.59413 34.2299C9.40091 34.0372 9.40091 33.7259 9.59413 33.5332C9.78735 33.3405 10.0995 33.3405 10.2927 33.5332L12.0019 35.2379L10.3918 36.8438C10.2927 36.9426 10.1688 36.9871 10.04 36.9871L10.045 36.9772Z" fill="white"/>
</svg>
