<svg width="33" height="36" viewBox="0 0 33 36" fill="none" xmlns="http://www.w3.org/2000/svg">
<path d="M31.5428 16.6147C30.8841 15.956 29.9717 15.6091 29.0399 15.663C26.6418 15.8014 24.3849 16.8139 22.685 18.5138C20.3843 20.8145 19.3893 24.05 19.9839 27.2339L17.1644 30.0533V21.2457C19.8604 19.4347 21.7639 16.7244 22.5416 13.5747C22.6296 13.2184 22.4121 12.8582 22.0558 12.7703C21.6997 12.6824 21.3393 12.8998 21.2514 13.2561C20.6269 15.7852 19.1931 17.9993 17.1644 19.6025V15.3944L19.1937 13.3652C19.4531 13.1057 19.4531 12.6849 19.1937 12.4254C18.9342 12.1659 18.5134 12.1659 18.2538 12.4254L17.1644 13.5148V11.1198L18.9697 9.31462C19.2292 9.05513 19.2293 8.63437 18.9697 8.37488C18.7102 8.11539 18.2895 8.11539 18.03 8.37488L17.1644 9.24033V7.0236C17.1644 6.65659 16.8669 6.35909 16.4999 6.35909C16.1329 6.35909 15.8354 6.65659 15.8354 7.0236V9.22099L14.9892 8.37481C14.7298 8.11532 14.309 8.11532 14.0494 8.37481C13.7899 8.6343 13.7899 9.05507 14.0494 9.31462L15.8354 11.1006V13.4956L14.7653 12.4254C14.5058 12.166 14.0851 12.166 13.8255 12.4254C13.566 12.6849 13.566 13.1057 13.8255 13.3653L15.8354 15.3751V19.6013C13.0433 17.3946 11.4086 14.0561 11.4086 10.4473C11.4086 8.14821 12.0759 5.92404 13.3385 4.01511C14.0417 2.95197 15.2235 2.3173 16.4999 2.3173C17.7764 2.3173 18.9582 2.95197 19.6614 4.01511C20.3975 5.12809 20.9325 6.34693 21.2513 7.63794C21.3393 7.99418 21.6992 8.21161 22.0558 8.12376C22.4121 8.03571 22.6296 7.67555 22.5416 7.31931C22.1861 5.88038 21.5901 4.522 20.7699 3.28196C19.82 1.84576 18.2237 0.988281 16.4999 0.988281C14.7761 0.988281 13.1799 1.84576 12.23 3.28196C10.8232 5.40898 10.0796 7.88673 10.0796 10.4473C10.0796 14.8109 12.2245 18.8197 15.8355 21.2455V30.0533L13.0161 27.2339C13.6107 24.05 12.6156 20.8145 10.315 18.5138C8.61496 16.8139 6.3581 15.8014 3.96002 15.663C3.02819 15.6092 2.11575 15.9561 1.45716 16.6147C0.798498 17.2733 0.451625 18.1856 0.50545 19.1176C0.643867 21.5156 1.65631 23.7726 3.35625 25.4725C5.21953 27.3357 7.69548 28.3431 10.261 28.343C10.8633 28.343 11.4707 28.2866 12.0762 28.1735L15.8354 31.9329V34.3465C15.8354 34.7136 16.1329 35.0111 16.4999 35.0111C16.8669 35.0111 17.1644 34.7136 17.1644 34.3465V31.9329L20.9238 28.1735C21.5293 28.2866 22.1364 28.343 22.7389 28.343C25.3042 28.343 27.7806 27.3356 29.6437 25.4725C31.3437 23.7725 32.3561 21.5156 32.4946 19.1176C32.5483 18.1856 32.2014 17.2733 31.5428 16.6147ZM10.2639 27.0135C8.04654 27.0134 5.90603 26.1428 4.296 24.5327C2.82684 23.0635 1.95182 21.1132 1.83221 19.041C1.79978 18.4789 2.00026 17.951 2.3969 17.5544C2.7657 17.1856 3.24814 16.9863 3.76592 16.9863C3.80486 16.9863 3.84407 16.9874 3.88347 16.9897C5.95574 17.1093 7.90607 17.9843 9.37523 19.4535C11.137 21.2153 12.0125 23.6118 11.8319 26.0496L7.7014 21.9191C7.44191 21.6596 7.02114 21.6596 6.76159 21.9191C6.5021 22.1786 6.5021 22.5993 6.76159 22.8589L10.8924 26.9897C10.6824 27.0053 10.4728 27.0135 10.2639 27.0135ZM31.1677 19.041C31.0481 21.1133 30.1731 23.0636 28.7039 24.5328C26.9421 26.2946 24.5457 27.1702 22.1078 26.9895L26.2383 22.859C26.4978 22.5995 26.4978 22.1788 26.2383 21.9192C25.9788 21.6597 25.558 21.6597 25.2985 21.9192L21.168 26.0497C20.9873 23.6119 21.8628 21.2154 23.6247 19.4536C25.0938 17.9844 27.0441 17.1094 29.1164 16.9898C29.6786 16.9572 30.2064 17.1579 30.603 17.5545C30.9996 17.951 31.2002 18.479 31.1677 19.041Z" fill="white"/>
<path d="M22.2563 11.1122C22.6233 11.1122 22.9208 10.8147 22.9208 10.4477C22.9208 10.0807 22.6233 9.7832 22.2563 9.7832C21.8893 9.7832 21.5918 10.0807 21.5918 10.4477C21.5918 10.8147 21.8893 11.1122 22.2563 11.1122Z" fill="white"/>
</svg>
