<svg width="39" height="34" viewBox="0 0 39 34" fill="none" xmlns="http://www.w3.org/2000/svg">
<path d="M38.4947 22.0047H18.7656V3.25195H38.4947V22.0047ZM19.7526 21.0262H37.5078V4.23042H19.7526V21.0262Z" fill="white"/>
<path d="M37.4114 4.23057H19.2562C18.6588 4.23057 18.1719 3.74785 18.1719 3.15555V1.58478C18.1719 0.992478 18.6588 0.509766 19.2562 0.509766H37.4114C38.0089 0.509766 38.4958 0.992478 38.4958 1.58478V3.15555C38.4958 3.74785 38.0089 4.23057 37.4114 4.23057ZM19.2562 1.48824C19.2036 1.48824 19.1589 1.53259 19.1589 1.58478V3.15555C19.1589 3.21035 19.2036 3.25209 19.2562 3.25209H37.4114C37.4641 3.25209 37.5088 3.20774 37.5088 3.15555V1.58478C37.5088 1.52998 37.4641 1.48824 37.4114 1.48824H19.2562Z" fill="white"/>
<path d="M37.4114 24.7462H19.2562C18.6588 24.7462 18.1719 24.2635 18.1719 23.6712V22.1004C18.1719 21.5081 18.6588 21.0254 19.2562 21.0254H37.4114C38.0089 21.0254 38.4958 21.5081 38.4958 22.1004V23.6712C38.4958 24.2635 38.0089 24.7462 37.4114 24.7462ZM19.2562 22.0039C19.2036 22.0039 19.1589 22.0482 19.1589 22.1004V23.6712C19.1589 23.726 19.2036 23.7677 19.2562 23.7677H37.4114C37.4641 23.7677 37.5088 23.7234 37.5088 23.6712V22.1004C37.5088 22.0456 37.4641 22.0039 37.4114 22.0039H19.2562Z" fill="white"/>
<path d="M37.2942 29.0728H32.983C32.7093 29.0728 32.4909 28.8536 32.4909 28.5849C32.4909 28.3161 32.712 28.0969 32.983 28.0969H37.2942C37.4152 28.0969 37.5126 28.0004 37.5126 27.8804V24.778H20.5602V27.8804C20.5602 28.0004 20.6576 28.0969 20.7787 28.0969H23.7265C24.0002 28.0969 24.2186 28.3161 24.2186 28.5849C24.2186 28.8536 23.9976 29.0728 23.7265 29.0728H20.7787C20.1128 29.0728 19.5732 28.5353 19.5732 27.8778V23.7969H38.4996V27.8778C38.4996 28.5379 37.9574 29.0728 37.2942 29.0728Z" fill="white"/>
<path d="M28.3374 33.3728C25.6739 33.3728 23.5078 31.2254 23.5078 28.5849C23.5078 25.9443 25.6739 23.7969 28.3374 23.7969C31.001 23.7969 33.1671 25.9443 33.1671 28.5849C33.1671 31.2254 31.001 33.3728 28.3374 33.3728ZM28.3374 24.7753C26.2187 24.7753 24.4948 26.4844 24.4948 28.5849C24.4948 30.6853 26.2187 32.3944 28.3374 32.3944C30.4562 32.3944 32.1801 30.6853 32.1801 28.5849C32.1801 26.4844 30.4562 24.7753 28.3374 24.7753Z" fill="white"/>
<path d="M28.336 31.0336C26.9752 31.0336 25.8672 29.9351 25.8672 28.5862C25.8672 27.2372 26.9752 26.1387 28.336 26.1387C29.6967 26.1387 30.8047 27.2372 30.8047 28.5862C30.8047 29.9351 29.6967 31.0336 28.336 31.0336ZM28.336 27.1171C27.5174 27.1171 26.8542 27.7773 26.8542 28.5862C26.8542 29.395 27.5201 30.0552 28.336 30.0552C29.1519 30.0552 29.8177 29.395 29.8177 28.5862C29.8177 27.7773 29.1519 27.1171 28.336 27.1171Z" fill="white"/>
<path d="M4.9957 33.491H2.20057C1.86368 33.491 1.57416 33.277 1.47678 32.9561C1.38203 32.6351 1.50573 32.2985 1.78735 32.1159L18.3713 21.4049C18.6003 21.2588 18.9056 21.3214 19.053 21.5484C19.203 21.7754 19.1372 22.0781 18.9082 22.2242L2.98489 32.5125H4.92727L18.6582 23.8733C18.8871 23.7297 19.1925 23.7976 19.3398 24.0246C19.4846 24.2542 19.4162 24.5543 19.1872 24.7004L5.39839 33.3762C5.27732 33.4518 5.13783 33.491 4.99307 33.491H4.9957Z" fill="white"/>
<path d="M8.25619 25.6017C8.09301 25.6017 7.9351 25.5234 7.84035 25.3773C7.69296 25.1503 7.75875 24.8476 7.98773 24.7015L9.42741 23.783C9.65639 23.6369 9.9617 23.7021 10.1091 23.9291C10.2565 24.1562 10.1907 24.4588 9.9617 24.6049L8.52202 25.5234C8.44043 25.5756 8.34831 25.6017 8.25619 25.6017Z" fill="white"/>
<path d="M7.86981 28.2028C7.54872 28.2028 7.23551 28.0463 7.04864 27.7593L2.41904 20.6229C2.12953 20.1742 2.25849 19.5766 2.71119 19.2896L9.90958 14.6999C10.3623 14.4129 10.965 14.5408 11.2545 14.9896L14.6813 20.2733C14.8287 20.5003 14.7629 20.803 14.5339 20.9491C14.3049 21.0952 13.9996 21.03 13.8522 20.803L10.4254 15.5192L3.24547 20.1141L7.88034 27.2322L15.0603 22.6373L14.6629 22.0502C14.5155 21.8232 14.5813 21.5205 14.8103 21.3744C15.0393 21.2283 15.3446 21.2935 15.4919 21.5205L15.8841 22.1259C16.1736 22.5747 16.0447 23.1722 15.592 23.4618L8.39357 28.0515C8.23039 28.1559 8.04879 28.2054 7.86718 28.2054L7.86981 28.2028Z" fill="white"/>
<path d="M7.97111 21.9937C7.70002 21.9937 7.44735 21.858 7.29996 21.631L5.32863 18.5938C5.18124 18.3668 5.24704 18.0642 5.47602 17.918C5.705 17.7719 6.0103 17.8372 6.15769 18.0642L7.95005 20.8274L8.07902 20.5795C8.26852 20.2116 8.64489 19.9741 9.06073 19.9559L9.32393 19.9454L7.49736 17.1327C7.34997 16.9056 7.41576 16.603 7.64474 16.4569C7.87372 16.3107 8.17903 16.376 8.32642 16.603L10.332 19.6923C10.4873 19.9298 10.5004 20.2351 10.3688 20.4855C10.2372 20.736 9.97929 20.9004 9.69504 20.9109L9.10021 20.9343C9.03968 20.9343 8.98441 20.9709 8.95809 21.0257L8.68173 21.5658C8.55277 21.8163 8.29484 21.9807 8.01059 21.9963C7.99743 21.9963 7.98427 21.9963 7.97111 21.9963V21.9937Z" fill="white"/>
<path d="M0.994475 25.0079C0.831294 25.0079 0.673377 24.9297 0.578627 24.7835C0.431237 24.5565 0.497036 24.2539 0.726016 24.1077L2.16569 23.1893C2.39467 23.0432 2.69998 23.1084 2.84737 23.3354C2.99476 23.5624 2.92896 23.8651 2.69998 24.0112L1.2603 24.9297C1.17871 24.9818 1.08659 25.0079 0.994475 25.0079Z" fill="white"/>
<path d="M1.07944 27.6152C0.916255 27.6152 0.758338 27.537 0.663588 27.3908C0.516198 27.1638 0.581997 26.8612 0.810977 26.7151L3.21132 25.1834C3.4403 25.0373 3.7456 25.1025 3.89299 25.3295C4.04038 25.5565 3.97458 25.8592 3.7456 26.0053L1.34526 27.537C1.26367 27.5892 1.17155 27.6152 1.07944 27.6152Z" fill="white"/>
<path d="M1.07944 30.2411C0.916255 30.2411 0.758338 30.1628 0.663588 30.0167C0.516198 29.7897 0.581997 29.487 0.810977 29.3409L4.41149 27.0447C4.64047 26.8986 4.94577 26.9639 5.09316 27.1909C5.24055 27.4179 5.17475 27.7205 4.94577 27.8667L1.34526 30.1628C1.26367 30.215 1.17155 30.2411 1.07944 30.2411Z" fill="white"/>
<path d="M22.0215 19.6764C21.7477 19.6764 21.5293 19.4572 21.5293 19.1884V5.84731C21.5293 5.57594 21.7504 5.35938 22.0215 5.35938C22.2926 5.35938 22.5136 5.57855 22.5136 5.84731V19.1884C22.5136 19.4598 22.2926 19.6764 22.0215 19.6764Z" fill="white"/>
<path d="M24.8164 19.6764C24.5427 19.6764 24.3242 19.4572 24.3242 19.1884V5.84731C24.3242 5.57594 24.5453 5.35938 24.8164 5.35938C25.0875 5.35938 25.3086 5.57855 25.3086 5.84731V19.1884C25.3086 19.4598 25.0875 19.6764 24.8164 19.6764Z" fill="white"/>
<path d="M27.4746 19.6764C27.2009 19.6764 26.9824 19.4572 26.9824 19.1884V5.84731C26.9824 5.57594 27.2035 5.35938 27.4746 5.35938C27.7457 5.35938 27.9668 5.57855 27.9668 5.84731V19.1884C27.9668 19.4598 27.7457 19.6764 27.4746 19.6764Z" fill="white"/>
<path d="M29.9912 19.6764C29.7175 19.6764 29.499 19.4572 29.499 19.1884V5.84731C29.499 5.57594 29.7201 5.35938 29.9912 5.35938C30.2623 5.35938 30.4834 5.57855 30.4834 5.84731V19.1884C30.4834 19.4598 30.2623 19.6764 29.9912 19.6764Z" fill="white"/>
<path d="M32.6689 19.6764C32.3952 19.6764 32.1768 19.4572 32.1768 19.1884V5.84731C32.1768 5.57594 32.3978 5.35938 32.6689 5.35938C32.94 5.35938 33.1611 5.57855 33.1611 5.84731V19.1884C33.1611 19.4598 32.94 19.6764 32.6689 19.6764Z" fill="white"/>
<path d="M35.3799 19.6764C35.1061 19.6764 34.8877 19.4572 34.8877 19.1884V5.84731C34.8877 5.57594 35.1088 5.35938 35.3799 5.35938C35.651 5.35938 35.872 5.57855 35.872 5.84731V19.1884C35.872 19.4598 35.651 19.6764 35.3799 19.6764Z" fill="white"/>
<path d="M6.35716 15.063C6.19661 15.063 6.04132 14.9873 5.94657 14.8438C5.79655 14.6194 5.85709 14.3168 6.08343 14.1654L9.49971 11.9136C9.72606 11.7649 10.0314 11.8249 10.184 12.0493C10.334 12.2737 10.2735 12.579 10.0472 12.7277L6.63088 14.9795C6.54666 15.0343 6.45191 15.0604 6.35716 15.0604V15.063Z" fill="white"/>
<path d="M11.6096 11.6014C11.5781 11.6014 11.5438 11.5988 11.5123 11.5909L9.54093 11.1969C9.27248 11.1421 9.1014 10.8864 9.15404 10.6203C9.20668 10.3541 9.46724 10.1819 9.7357 10.2367L11.707 10.6307C11.9755 10.6855 12.1466 10.9412 12.0939 11.2074C12.0466 11.4396 11.8413 11.5988 11.6096 11.5988V11.6014Z" fill="white"/>
<path d="M11.2134 13.5561C11.1818 13.5561 11.1476 13.5535 11.116 13.5457C10.8502 13.4909 10.6765 13.2352 10.7291 12.969L11.1266 11.0147C11.1818 10.7512 11.4398 10.5764 11.7082 10.6312C11.974 10.6859 12.1478 10.9417 12.0951 11.2078L11.6977 13.1621C11.6503 13.3944 11.445 13.5535 11.2134 13.5535V13.5561Z" fill="white"/>
</svg>
