<svg width="39" height="40" viewBox="0 0 39 40" fill="none" xmlns="http://www.w3.org/2000/svg">
<path d="M37.1579 31.2096H36.8123V26.6825C36.8123 25.4906 36.4067 24.3889 35.7306 23.5075V18.6548C35.7306 17.8285 35.2599 17.1174 34.5738 16.7618V11.2381C34.5738 10.6972 34.2583 10.2365 33.7976 10.0162L33.7826 4.12687H34.9193C35.2398 4.12687 35.5003 3.86646 35.5003 3.54595V0.80162C35.5003 0.481114 35.2398 0.220703 34.9193 0.220703H33.6824C31.6342 0.220703 29.9665 1.90336 29.9365 3.98665L29.4707 2.66957C28.9549 1.20726 27.5627 0.220703 26.0103 0.220703H12.9997C11.4473 0.220703 10.0551 1.20225 9.53927 2.66957L9.07354 3.98665C9.04349 1.90336 7.37586 0.220703 5.32762 0.220703H4.09067C3.77016 0.220703 3.50975 0.481114 3.50975 0.80162V3.54595C3.50975 3.86646 3.77016 4.12687 4.09067 4.12687H5.22746L5.21244 10.0162C4.75672 10.2315 4.43621 10.6972 4.43621 11.2381V16.8069C3.79019 17.1725 3.35451 17.8636 3.35451 18.6548V18.8501C3.35451 19.1706 3.61492 19.431 3.93542 19.431C4.25593 19.431 4.51634 19.1706 4.51634 18.8501V18.6548C4.51634 18.124 4.94702 17.6883 5.48287 17.6883H7.91671V21.4492H7.466C6.39931 21.4342 5.38271 21.7447 4.51634 22.3206V21.5494C4.51634 21.2289 4.25593 20.9685 3.93542 20.9685C3.61492 20.9685 3.35451 21.2289 3.35451 21.5494V23.3773C2.60332 24.3037 2.19768 25.4455 2.19768 26.6524V31.2046H1.85213C1.10596 31.2046 0.5 31.8106 0.5 32.5568V34.0341C0.5 35.0757 1.24618 35.9571 2.26779 36.1274L3.74512 36.3778V37.6548C3.74512 38.8267 4.69663 39.7782 5.86848 39.7782H8.64786C9.81971 39.7782 10.7712 38.8267 10.7712 37.6548V37.4595H28.2288V37.6548C28.2288 38.8267 29.1803 39.7782 30.3521 39.7782H33.1315C34.3034 39.7782 35.2549 38.8267 35.2549 37.6548V36.3778L36.7322 36.1274C37.7588 35.9521 38.5 35.0707 38.5 34.0341V32.5568C38.5 31.8106 37.894 31.2046 37.1479 31.2046L37.1579 31.2096ZM29.01 31.2096V29.6622H33.1415C33.8877 29.6622 34.4937 29.0562 34.4937 28.3101V26.377C34.4937 25.6308 33.8877 25.0249 33.1415 25.0249H29.01V22.6211H31.5991C33.8376 22.6211 35.6555 24.4389 35.6555 26.6775V31.2046H29.01V31.2096ZM11.1618 31.2096V21.7447C11.1618 19.9318 12.6342 18.4595 14.447 18.4595H24.568C26.3809 18.4595 27.8532 19.9318 27.8532 21.7447V31.2096H11.1668H11.1618ZM10.005 28.5054H5.87348C5.76832 28.5054 5.67817 28.4202 5.67817 28.3101V26.377C5.67817 26.2718 5.76331 26.1817 5.87348 26.1817H10.005V28.5004V28.5054ZM29.01 26.1867H33.1415C33.2467 26.1867 33.3368 26.2718 33.3368 26.382V28.3151C33.3368 28.4202 33.2517 28.5104 33.1415 28.5104H29.01V26.1917V26.1867ZM33.412 11.2381V16.5315H31.0933V11.0478H33.2167C33.3218 11.0478 33.412 11.1329 33.412 11.2431V11.2381ZM31.0933 17.6883H33.6023C34.1331 17.6883 34.5688 18.119 34.5688 18.6548V22.4007C33.7225 21.8098 32.7008 21.4643 31.5941 21.4643H31.0933V17.6883ZM31.0933 4.05175C31.0933 2.58444 32.2551 1.38755 33.6824 1.38755H34.3384V2.97004H33.6824C33.0965 2.97004 32.6207 3.4458 32.6207 4.03172L32.6357 9.88597H31.0933V4.05175ZM10.631 3.06019C10.9866 2.05861 11.9381 1.38755 12.9997 1.38755H13.3252V2.35407C13.3252 3.52592 14.2768 4.47743 15.4486 4.47743H16.1848C16.5053 4.47743 16.7657 4.21701 16.7657 3.89651C16.7657 3.576 16.5053 3.31559 16.1848 3.31559H15.4486C14.9178 3.31559 14.4821 2.88491 14.4821 2.34906V1.38254H24.5229V2.34906C24.5229 2.8799 24.0923 3.31559 23.5564 3.31559H18.884C18.5635 3.31559 18.3031 3.576 18.3031 3.89651C18.3031 4.21701 18.5635 4.47743 18.884 4.47743H23.5564C24.7283 4.47743 25.6798 3.52592 25.6798 2.35407V1.38755H26.0053C27.0669 1.38755 28.0184 2.05861 28.374 3.06019L29.6911 6.79108H9.31392L10.631 3.06019ZM4.67159 2.97004V1.38755H5.32762C6.75487 1.38755 7.91671 2.58444 7.91671 4.05175V9.88597H6.37427L6.3893 4.03172C6.3893 3.4458 5.91355 2.97004 5.32762 2.97004H4.67159ZM5.59805 16.5264V11.2331C5.59805 11.1279 5.68318 11.0378 5.79336 11.0378H7.91671V16.5214H5.59805V16.5264ZM9.07354 10.4619V7.95291H29.9315V21.4643H28.995C28.8498 19.1456 26.9167 17.3027 24.563 17.3027H14.442C12.0833 17.3027 10.1502 19.1456 10.01 21.4693L9.07354 21.4592V10.4669V10.4619ZM3.35451 26.6524C3.35451 25.5607 3.78018 24.5391 4.55641 23.7729C5.33263 23.0067 6.35925 22.586 7.45097 22.601L10 22.6261V25.0249H5.86848C5.1223 25.0249 4.51634 25.6308 4.51634 26.377V28.3101C4.51634 29.0562 5.1223 29.6622 5.86848 29.6622H10V31.2096H3.35451V26.6574V26.6524ZM8.64786 38.6213H5.86848C5.33764 38.6213 4.90195 38.1907 4.90195 37.6548V36.5731L9.61439 37.3694V37.6548C9.61439 38.1856 9.18371 38.6213 8.64786 38.6213ZM11.5424 36.3027V34.7552H13.0899V36.3027H11.5424ZM25.9101 36.3027V34.7552H27.4576V36.3027H25.9101ZM34.098 37.6548C34.098 38.1856 33.6674 38.6213 33.1315 38.6213H30.3521C29.8213 38.6213 29.3856 38.1907 29.3856 37.6548V37.3694L34.098 36.5731V37.6548ZM37.3432 34.0341C37.3432 34.5048 37.0026 34.9055 36.5369 34.9856L28.7546 36.3027H28.6094V34.5649C28.6094 34.0341 28.1787 33.5984 27.6429 33.5984H25.7098C25.179 33.5984 24.7433 34.0291 24.7433 34.5649V36.3027H14.2367V34.5649C14.2367 34.0341 13.806 33.5984 13.2702 33.5984H11.3371C10.8063 33.5984 10.3706 34.0291 10.3706 34.5649V36.3027H10.2254L2.44307 34.9856C1.97733 34.9055 1.63679 34.5048 1.63679 34.0341V32.5568C1.63679 32.4516 1.72193 32.3615 1.8321 32.3615H37.1378C37.243 32.3615 37.3332 32.4466 37.3332 32.5568V34.0341H37.3432Z" fill="white"/>
<path d="M24.1771 19.623H18.1125C17.792 19.623 17.5316 19.8835 17.5316 20.204C17.5316 20.5245 17.792 20.7849 18.1125 20.7849H24.1771C24.9233 20.7849 25.5292 21.3908 25.5292 22.137V27.5456C25.5292 28.2917 24.9233 28.8977 24.1771 28.8977H14.8273C14.0811 28.8977 13.4752 28.2917 13.4752 27.5456V22.137C13.4752 21.3908 14.0811 20.7849 14.8273 20.7849H15.4082C15.7287 20.7849 15.9892 20.5245 15.9892 20.204C15.9892 19.8835 15.7287 19.623 15.4082 19.623H14.8273C13.4451 19.623 12.3184 20.7498 12.3184 22.132V27.5405C12.3184 28.9227 13.4451 30.0495 14.8273 30.0495H24.1771C25.5593 30.0495 26.686 28.9227 26.686 27.5405V22.132C26.686 20.7498 25.5593 19.623 24.1771 19.623Z" fill="white"/>
<path d="M23.8713 21.9395H15.2176C14.8971 21.9395 14.6367 22.1999 14.6367 22.5204C14.6367 22.8409 14.8971 23.1013 15.2176 23.1013H23.8713C24.1918 23.1013 24.4522 22.8409 24.4522 22.5204C24.4522 22.1999 24.1918 21.9395 23.8713 21.9395Z" fill="white"/>
<path d="M23.8713 24.2539H15.2176C14.8971 24.2539 14.6367 24.5143 14.6367 24.8348C14.6367 25.1553 14.8971 25.4157 15.2176 25.4157H23.8713C24.1918 25.4157 24.4522 25.1553 24.4522 24.8348C24.4522 24.5143 24.1918 24.2539 23.8713 24.2539Z" fill="white"/>
<path d="M23.8713 26.5723H15.2176C14.8971 26.5723 14.6367 26.8327 14.6367 27.1532C14.6367 27.4737 14.8971 27.7341 15.2176 27.7341H23.8713C24.1918 27.7341 24.4522 27.4737 24.4522 27.1532C24.4522 26.8327 24.1918 26.5723 23.8713 26.5723Z" fill="white"/>
<path d="M11.3521 16.1463H27.6529C28.399 16.1463 29.005 15.5404 29.005 14.7942V14.5989C29.005 14.2784 28.7446 14.018 28.4241 14.018C28.1036 14.018 27.8432 14.2784 27.8432 14.5989V14.7942C27.8432 14.8994 27.758 14.9895 27.6479 14.9895H11.3471C11.242 14.9895 11.1518 14.9044 11.1518 14.7942V10.4674C11.1518 10.3622 11.237 10.2721 11.3471 10.2721H27.6479C27.753 10.2721 27.8432 10.3572 27.8432 10.4674V11.8946C27.8432 12.2151 28.1036 12.4755 28.4241 12.4755C28.7446 12.4755 29.005 12.2151 29.005 11.8946V10.4674C29.005 9.72119 28.399 9.11523 27.6529 9.11523H11.3521C10.606 9.11523 10 9.72119 10 10.4674V14.7942C10 15.5404 10.606 16.1463 11.3521 16.1463Z" fill="white"/>
</svg>
