<svg width="38" height="32" viewBox="0 0 38 32" fill="none" xmlns="http://www.w3.org/2000/svg">
<path d="M2.80626 31.4886C2.1956 31.4854 1.61088 31.2414 1.17907 30.8095C0.74726 30.3777 0.50324 29.793 0.5 29.1824V10.2143C0.503256 8.94942 1.00715 7.73732 1.90153 6.84294C2.79591 5.94856 4.00802 5.44466 5.27285 5.44141H27.7805C29.0475 5.4414 30.2627 5.94386 31.1598 6.83859C32.0568 7.73332 32.5624 8.94729 32.5657 10.2143V22.8555C32.5657 24.1225 32.0632 25.3378 31.1685 26.2348C30.2738 27.1319 29.0598 27.6375 27.7928 27.6407H9.02207C8.80888 27.6425 8.60168 27.7115 8.43009 27.8381L4.19989 31.0323C3.79654 31.3304 3.3078 31.4904 2.80626 31.4886ZM5.27285 7.908C4.66219 7.91124 4.07747 8.15526 3.64566 8.58707C3.21385 9.01887 2.96983 9.6036 2.96659 10.2143V28.874L6.95014 25.8648C7.54952 25.4196 8.27547 25.1776 9.02207 25.1741H27.7805C28.3954 25.1741 28.9852 24.9299 29.42 24.495C29.8548 24.0602 30.0991 23.4705 30.0991 22.8555V10.2143C30.0959 9.6036 29.8518 9.01887 29.42 8.58707C28.9882 8.15526 28.4035 7.91124 27.7928 7.908H5.27285Z" fill="white"/>
<path d="M21.3925 17.8846C22.0736 17.8846 22.6258 17.3324 22.6258 16.6513C22.6258 15.9701 22.0736 15.418 21.3925 15.418C20.7113 15.418 20.1592 15.9701 20.1592 16.6513C20.1592 17.3324 20.7113 17.8846 21.3925 17.8846Z" fill="white"/>
<path d="M16.6093 17.8846C17.2904 17.8846 17.8426 17.3324 17.8426 16.6513C17.8426 15.9701 17.2904 15.418 16.6093 15.418C15.9281 15.418 15.376 15.9701 15.376 16.6513C15.376 17.3324 15.9281 17.8846 16.6093 17.8846Z" fill="white"/>
<path d="M11.6737 17.8846C12.3549 17.8846 12.907 17.3324 12.907 16.6513C12.907 15.9701 12.3549 15.418 11.6737 15.418C10.9926 15.418 10.4404 15.9701 10.4404 16.6513C10.4404 17.3324 10.9926 17.8846 11.6737 17.8846Z" fill="white"/>
<path d="M36.2671 19.0092C35.94 19.0092 35.6263 18.8793 35.395 18.648C35.1637 18.4167 35.0338 18.103 35.0338 17.7759V5.28262C35.0305 4.67196 34.7865 4.08723 34.3547 3.65543C33.9229 3.22362 33.3382 2.9796 32.7275 2.97636H7.90126C7.57417 2.97636 7.26048 2.84642 7.02919 2.61513C6.79791 2.38384 6.66797 2.07015 6.66797 1.74306C6.66797 1.41597 6.79791 1.10228 7.02919 0.87099C7.26048 0.639702 7.57417 0.509766 7.90126 0.509766H32.7275C33.9923 0.513021 35.2044 1.01692 36.0988 1.9113C36.9932 2.80568 37.4971 4.01778 37.5004 5.28262V17.7759C37.5004 18.103 37.3704 18.4167 37.1391 18.648C36.9079 18.8793 36.5942 19.0092 36.2671 19.0092Z" fill="white"/>
</svg>
