<svg width="33" height="38" viewBox="0 0 33 38" fill="none" xmlns="http://www.w3.org/2000/svg">
<path d="M32.3185 6.56176C27.0902 5.12919 21.8312 2.89855 17.1099 0.11105C16.8591 -0.0370165 16.5479 -0.0370165 16.2972 0.11105C11.4397 2.97863 6.46487 5.08859 1.08811 6.56176C0.740765 6.65683 0.5 6.97256 0.5 7.33274V15.5002C0.5 23.9109 4.38007 29.4781 7.63515 32.6674C11.1395 36.1011 15.2215 38 16.7035 38C18.1855 38 22.2675 36.1011 25.7718 32.6674C29.0268 29.4782 32.9067 23.9109 32.9067 15.5002V7.33266C32.9067 6.97256 32.6659 6.65683 32.3185 6.56176ZM31.308 15.5001C31.308 23.3556 27.689 28.5506 24.6529 31.5254C21.2068 34.902 17.5224 36.4012 16.7035 36.4012C15.8847 36.4012 12.2 34.902 8.75392 31.5254C5.71786 28.5505 2.09874 23.3556 2.09874 15.5001V7.93948C7.24046 6.4796 12.0289 4.44222 16.7037 1.7256C21.2618 4.37016 26.2891 6.50884 31.308 7.93918V15.5001Z" fill="white"/>
<path d="M9.61818 7.85035C9.45639 7.43956 8.9923 7.23775 8.58143 7.39963C7.15346 7.96228 5.68779 8.48017 4.22517 8.93899C3.89185 9.04364 3.66504 9.35239 3.66504 9.70166V12.7885C3.66504 13.2299 4.02299 13.5878 4.46437 13.5878C4.90575 13.5878 5.26371 13.2299 5.26371 12.7885V10.2858C6.57582 9.86131 7.88652 9.39173 9.16746 8.88697C9.57825 8.72524 9.78006 8.26115 9.61818 7.85035Z" fill="white"/>
<path d="M11.1371 8.00209C11.2443 8.00209 11.3532 7.98049 11.4576 7.93492L11.4723 7.92854C11.8768 7.7513 12.0589 7.28053 11.8817 6.87627C11.7043 6.47185 11.2308 6.2889 10.8269 6.46599L10.814 6.47155C10.4093 6.64827 10.2266 7.11866 10.4033 7.52316C10.5344 7.82344 10.8287 8.00209 11.1371 8.00209Z" fill="white"/>
<path d="M26.2269 25.7748C25.8575 25.5333 25.3622 25.6372 25.1204 26.0067C24.4617 27.0149 23.689 27.9803 22.8233 28.8759C22.1114 29.6123 21.34 30.2987 20.5305 30.9158C20.1795 31.1835 20.1119 31.685 20.3795 32.0362C20.5369 32.2424 20.7749 32.3509 21.0157 32.3509C21.1848 32.3509 21.3551 32.2975 21.4998 32.1871C22.373 31.5213 23.205 30.7811 23.9726 29.9871C24.9085 29.019 25.745 27.974 26.4588 26.8812C26.7004 26.5115 26.5964 26.0162 26.2269 25.7748Z" fill="white"/>
<path d="M18.6744 32.1702L18.6285 32.1972C18.2465 32.4184 18.116 32.9074 18.3371 33.2894C18.4854 33.5454 18.7537 33.6884 19.0297 33.6884C19.1655 33.6884 19.3034 33.6537 19.4293 33.5806L19.4823 33.5495C19.8632 33.3264 19.9912 32.8368 19.7681 32.4558C19.5448 32.075 19.0551 31.9473 18.6744 32.1702Z" fill="white"/>
<path d="M11.2552 17.369C10.7644 16.8782 10.1117 16.608 9.41741 16.608C8.72317 16.608 8.07035 16.8782 7.57932 17.369C6.56601 18.3826 6.56601 20.0317 7.57932 21.0452L12.2993 25.765C12.7902 26.2558 13.443 26.526 14.1373 26.526C14.8316 26.526 15.4843 26.2558 15.9753 25.7649L25.8286 15.9115C26.8419 14.8977 26.8419 13.2488 25.8285 12.2356C25.3376 11.7448 24.6848 11.4746 23.9904 11.4746C23.2961 11.4746 22.6434 11.7448 22.1524 12.2356L14.1372 20.2509L11.2552 17.369ZM23.2829 13.3661C23.4718 13.1773 23.7232 13.0733 23.9905 13.0733C24.258 13.0733 24.5092 13.1773 24.6982 13.3661C25.0882 13.7562 25.0882 14.391 24.698 14.7812L14.8449 24.6345C14.656 24.8233 14.4046 24.9273 14.1373 24.9273C13.8699 24.9273 13.6186 24.8233 13.4296 24.6345L8.70974 19.9147C8.31957 19.5246 8.31957 18.8897 8.70959 18.4997C8.89855 18.3108 9.14993 18.2067 9.41734 18.2067C9.68475 18.2067 9.93598 18.3107 10.1249 18.4995L13.5719 21.9467C13.7219 22.0965 13.9252 22.1808 14.1372 22.1808C14.3492 22.1808 14.5524 22.0966 14.7023 21.9467L23.2829 13.3661Z" fill="white"/>
</svg>
