<svg width="39" height="34" viewBox="0 0 39 34" fill="none" xmlns="http://www.w3.org/2000/svg">
<path d="M38.399 9.72062H38.3931V9.71468C38.3283 9.48032 38.2346 9.25494 38.114 9.04374L35.7925 4.92312C35.6455 4.62684 35.4186 4.37755 35.1374 4.20339C34.8562 4.02922 34.532 3.93713 34.2012 3.9375H33.75V2.75C33.7486 2.27802 33.5604 1.82577 33.2267 1.49202C32.893 1.15828 32.4407 0.97016 31.9687 0.96875H7.03125C6.55926 0.97016 6.10701 1.15828 5.77327 1.49202C5.43953 1.82577 5.25141 2.27802 5.25 2.75V3.9375H4.79875C4.47228 3.93604 4.1518 4.02517 3.87297 4.19498C3.59414 4.3648 3.36789 4.60864 3.21937 4.89937L0.88 9.04968C0.762829 9.2597 0.671139 9.48294 0.606875 9.71468V9.72062H0.600937C0.535675 9.9748 0.501777 10.236 0.5 10.4984L0.5 10.8072C0.500605 11.2566 0.594903 11.701 0.776876 12.112C0.958848 12.523 1.2245 12.8915 1.55687 13.1941C1.93271 13.5326 2.38499 13.7751 2.875 13.9006V29.4687C2.56034 29.4697 2.25884 29.5951 2.03635 29.8176C1.81385 30.0401 1.68844 30.3416 1.6875 30.6562V31.8437C1.68844 32.1584 1.81385 32.4599 2.03635 32.6824C2.25884 32.9049 2.56034 33.0303 2.875 33.0312H36.125C36.4396 33.0303 36.7411 32.9049 36.9636 32.6824C37.1861 32.4599 37.3115 32.1584 37.3125 31.8437V30.6562C37.3115 30.3416 37.1861 30.0401 36.9636 29.8176C36.7411 29.5951 36.4396 29.4697 36.125 29.4687V13.9125C36.8146 13.7013 37.4178 13.2738 37.8456 12.6932C38.2733 12.1125 38.5028 11.4096 38.5 10.6884V10.4984C38.4982 10.236 38.4643 9.9748 38.399 9.72062ZM34.2012 5.125C34.3167 5.12636 34.4294 5.1606 34.5262 5.22369C34.6229 5.28678 34.6997 5.37612 34.7475 5.48125L36.885 9.28124H33.0494L31.3987 5.125H34.2012ZM13.5625 15.2187H6.4375C6.12284 15.2197 5.82134 15.3451 5.59885 15.5676C5.37635 15.7901 5.25094 16.0916 5.25 16.4062V29.4687H4.0625V14.0134C4.51672 13.9581 4.95394 13.8067 5.34503 13.5691C5.73613 13.3316 6.07212 13.0135 6.33062 12.6359C6.62409 13.0636 7.01671 13.4138 7.47495 13.6568C7.93319 13.8997 8.44342 14.0282 8.96208 14.0311C9.48073 14.034 9.99238 13.9113 10.4533 13.6735C10.9143 13.4358 11.3108 13.0899 11.6091 12.6656C11.9058 13.0875 12.2997 13.4319 12.7575 13.6696C13.2153 13.9073 13.7235 14.0314 14.2394 14.0314C14.7552 14.0314 15.2634 13.9073 15.7212 13.6696C16.179 13.4319 16.5729 13.0875 16.8697 12.6656C17.1664 13.0875 17.5603 13.4319 18.0181 13.6696C18.4759 13.9073 18.9842 14.0314 19.5 14.0314C20.0158 14.0314 20.5241 13.9073 20.9819 13.6696C21.4397 13.4319 21.8335 13.0875 22.1303 12.6656C22.427 13.0875 22.8209 13.4319 23.2787 13.6696C23.7365 13.9073 24.2448 14.0314 24.7606 14.0314C25.2764 14.0314 25.7847 13.9073 26.2425 13.6696C26.7003 13.4319 27.0942 13.0875 27.3909 12.6656C27.6871 13.0874 28.0805 13.4317 28.5378 13.6693C28.9951 13.907 29.5029 14.0311 30.0183 14.0311C30.5336 14.0311 31.0414 13.907 31.4988 13.6693C31.9561 13.4317 32.3494 13.0874 32.6456 12.6656C32.7794 12.8605 32.937 13.038 33.1147 13.1941C33.6213 13.6496 34.2596 13.9324 34.9375 14.0016V29.4687H14.75V16.4062C14.7491 16.0916 14.6236 15.7901 14.4011 15.5676C14.1786 15.3451 13.8771 15.2197 13.5625 15.2187ZM13.5625 16.4062V29.4687H6.4375V16.4062H13.5625ZM11.0153 10.4687V10.8072C11.0153 11.3465 10.8011 11.8638 10.4197 12.2451C10.0383 12.6265 9.52106 12.8408 8.98171 12.8408C8.44237 12.8408 7.92512 12.6265 7.54375 12.2451C7.16237 11.8638 6.94812 11.3465 6.94812 10.8072V10.4687H11.0153ZM7.22718 9.28124L8.87781 5.125H12.1316L11.14 9.28124H7.22718ZM16.2759 10.4687V10.8072C16.2759 11.3473 16.0614 11.8653 15.6794 12.2472C15.2975 12.6292 14.7795 12.8437 14.2394 12.8437C13.6992 12.8437 13.1812 12.6292 12.7993 12.2472C12.4174 11.8653 12.2028 11.3473 12.2028 10.8072V10.4687H16.2759ZM12.3631 9.28124L13.3547 5.125H16.65L16.3234 9.28124H12.3631ZM21.5365 10.4687V10.8072C21.5365 11.3473 21.322 11.8653 20.9401 12.2472C20.5581 12.6292 20.0401 12.8437 19.5 12.8437C18.9599 12.8437 18.4418 12.6292 18.0599 12.2472C17.678 11.8653 17.4634 11.3473 17.4634 10.8072V10.4687H21.5365ZM17.5109 9.28124L17.8434 5.125H21.1565L21.489 9.28124H17.5109ZM22.6765 9.28124L22.35 5.125H25.6453L26.6369 9.28124H22.6765ZM26.7972 10.4687V10.8072C26.7972 11.3473 26.5826 11.8653 26.2007 12.2472C25.8187 12.6292 25.3007 12.8437 24.7606 12.8437C24.2205 12.8437 23.7025 12.6292 23.3205 12.2472C22.9386 11.8653 22.724 11.3473 22.724 10.8072V10.4687H26.7972ZM27.86 9.28124L26.8684 5.125H30.1222L31.7728 9.28124H27.86ZM32.0519 10.4687V10.8191C32.0503 11.3584 31.8345 11.875 31.452 12.2553C31.0695 12.6355 30.5517 12.8483 30.0123 12.8467C29.473 12.8451 28.9564 12.6294 28.5761 12.2469C28.1958 11.8644 27.9831 11.3465 27.9847 10.8072V10.4687H32.0519ZM6.4375 2.75C6.4375 2.59253 6.50005 2.4415 6.6114 2.33015C6.72275 2.2188 6.87377 2.15625 7.03125 2.15625H31.9687C32.1262 2.15625 32.2772 2.2188 32.3886 2.33015C32.4999 2.4415 32.5625 2.59253 32.5625 2.75V3.9375H6.4375V2.75ZM4.26437 5.4575C4.31334 5.35757 4.3894 5.27341 4.48388 5.21462C4.57836 5.15583 4.68747 5.12477 4.79875 5.125H7.60124L5.95062 9.28124H2.115L4.26437 5.4575ZM2.3525 12.3153C2.14357 12.1234 1.97662 11.8904 1.86217 11.6308C1.74772 11.3713 1.68825 11.0908 1.6875 10.8072V10.4687H5.76062V10.7181C5.76629 11.2339 5.58271 11.7338 5.24461 12.1233C4.90651 12.5129 4.43736 12.7649 3.92594 12.8319C3.64199 12.8632 3.35463 12.8333 3.08321 12.7442C2.8118 12.6551 2.56263 12.5088 2.3525 12.3153ZM36.125 31.8437H2.875V30.6562H36.125V31.8437ZM37.3125 10.6884C37.3233 11.2077 37.1431 11.713 36.8059 12.1081C36.4688 12.5032 35.9983 12.7608 35.4837 12.8319C35.1998 12.8623 34.9127 12.8319 34.6414 12.7428C34.3702 12.6538 34.1209 12.508 33.9103 12.3153C33.7014 12.1256 33.5339 11.8948 33.4185 11.6373C33.303 11.3798 33.242 11.1012 33.2394 10.8191V10.4687H37.3125V10.6884Z" fill="white"/>
<path d="M11.4844 23.8281C11.9763 23.8281 12.375 23.4294 12.375 22.9375C12.375 22.4456 11.9763 22.0469 11.4844 22.0469C10.9925 22.0469 10.5938 22.4456 10.5938 22.9375C10.5938 23.4294 10.9925 23.8281 11.4844 23.8281Z" fill="white"/>
<path d="M32.5625 15.2188H17.125C16.8101 15.2188 16.508 15.3439 16.2853 15.5666C16.0626 15.7893 15.9375 16.0913 15.9375 16.4062V24.125C15.9375 24.4399 16.0626 24.742 16.2853 24.9647C16.508 25.1874 16.8101 25.3125 17.125 25.3125H32.5625C32.8774 25.3125 33.1795 25.1874 33.4022 24.9647C33.6249 24.742 33.75 24.4399 33.75 24.125V16.4062C33.75 16.0913 33.6249 15.7893 33.4022 15.5666C33.1795 15.3439 32.8774 15.2188 32.5625 15.2188ZM32.5625 21.75H25.4375V16.4062H32.5625V21.75ZM24.25 16.4062V21.75H17.125V16.4062H24.25ZM17.125 24.125V22.9375H32.5625V24.125H17.125Z" fill="white"/>
</svg>
